<svg width="48" height="48" viewBox="0 0 48 48" fill="none" xmlns="http://www.w3.org/2000/svg">
<rect width="48" height="48" rx="4" fill="white"/>
<path fill-rule="evenodd" clip-rule="evenodd" d="M23.9997 17.0024C20.1345 17.0024 17 20.1364 17 24.0021C17 27.095 19.0055 29.718 21.7868 30.644C22.1369 30.7088 22.2656 30.4918 22.2656 30.3068C22.2656 30.1399 22.2586 29.5885 22.2558 29.0041C20.3082 29.4276 19.8976 28.1778 19.8976 28.1778C19.5793 27.3686 19.1204 27.1534 19.1204 27.1534C18.4854 26.7186 19.1688 26.7281 19.1688 26.7281C19.8715 26.7772 20.2415 27.449 20.2415 27.449C20.8663 28.5192 21.8796 28.2094 22.2787 28.0308C22.3418 27.5784 22.5226 27.2694 22.7231 27.0945C21.1683 26.918 19.5338 26.3176 19.5338 23.6352C19.5338 22.8712 19.8077 22.2465 20.2549 21.7566C20.1821 21.5799 19.9423 20.8683 20.3224 19.9043C20.3224 19.9043 20.9102 19.716 22.248 20.6218C22.8061 20.4671 23.4047 20.389 23.9992 20.3864C24.5942 20.389 25.1939 20.4668 25.7528 20.6218C27.0888 19.7165 27.6761 19.9043 27.6761 19.9043C28.0567 20.8686 27.8179 21.5806 27.7451 21.7566C28.1939 22.2465 28.4654 22.8712 28.4654 23.6352C28.4654 26.3238 26.8273 26.9149 25.2691 27.0883C25.5202 27.3053 25.7445 27.7314 25.7445 28.384C25.7445 29.3201 25.7365 30.0745 25.7365 30.3047C25.7365 30.491 25.8626 30.7088 26.2176 30.6406C28.9974 29.7141 31.0003 27.0909 31.0003 23.9997C31.0003 20.1345 27.8663 17 24.0003 17L23.9998 17.0023L23.9997 17.0024Z" fill="black"/>
</svg>
