<?xml version="1.0" encoding="utf-8"?>
<!-- Generator: Adobe Illustrator 19.0.0, SVG Export Plug-In . SVG Version: 6.00 Build 0)  -->
<svg version="1.1" id="Layer_1" xmlns="http://www.w3.org/2000/svg" xmlns:xlink="http://www.w3.org/1999/xlink" x="0px" y="0px"
	 viewBox="0 0 216 61.2" style="enable-background:new 0 0 216 61.2;" xml:space="preserve">
<style type="text/css">
	.st0{fill:#FFFFFF;}
	.st1{fill-rule:evenodd;clip-rule:evenodd;fill:#FFFFFF;}
</style>
<g>
	<path class="st0" d="M74,17.9c3.1,0,5.4,1.1,6.8,3.3c1.5,2.2,2.2,5.4,2.2,9.4c0,2.5-0.4,4.6-1.1,6.6c-0.8,1.9-1.9,3.5-3.3,4.6
		c-1.4,1.1-3.1,1.7-5.1,1.7c-2.5,0-4.5-0.9-5.9-2.6v11.1l-6.4,0.7V18.6h5.7l0.3,2.8c0.9-1.2,2-2.1,3.2-2.7
		C71.6,18.2,72.8,17.9,74,17.9L74,17.9z M71.6,38.6c3.1,0,4.7-2.6,4.7-7.9c0-2.9-0.4-5-1.1-6.2c-0.7-1.2-1.8-1.8-3.2-1.8
		c-0.8,0-1.7,0.3-2.4,0.8c-0.8,0.6-1.4,1.3-2,2.2v10.5C68.6,37.8,70,38.6,71.6,38.6L71.6,38.6z"/>
	<path class="st0" d="M98.6,17.9c0.7,0,1.5,0.1,2.4,0.4l-1.1,6.2c-0.8-0.2-1.6-0.3-2.1-0.3c-1.4,0-2.5,0.5-3.3,1.5
		c-0.8,1-1.4,2.5-1.9,4.6v12.4h-6.4V18.6h5.6l0.6,4.7c0.6-1.7,1.4-3,2.5-4C96,18.4,97.2,17.9,98.6,17.9L98.6,17.9z"/>
	<path class="st0" d="M123.1,30.1c0,0.3,0,1.1-0.1,2.5h-15c0.2,2.2,0.8,3.7,1.8,4.6c1,0.9,2.3,1.4,4,1.4c1,0,2-0.2,2.9-0.5
		c0.9-0.3,1.9-0.9,3-1.6l2.7,3.6c-2.7,2.2-5.7,3.3-9.1,3.3c-3.8,0-6.7-1.1-8.7-3.4c-2-2.3-3-5.3-3-9.2c0-2.5,0.4-4.7,1.3-6.6
		c0.9-2,2.1-3.5,3.8-4.6c1.7-1.1,3.6-1.7,5.9-1.7c3.4,0,6.1,1.1,8,3.2C122.2,23.2,123.1,26.2,123.1,30.1L123.1,30.1z M116.7,28.3
		c0-4-1.4-6-4.3-6c-1.3,0-2.4,0.5-3.1,1.5c-0.7,1-1.2,2.6-1.4,4.8h8.8V28.3L116.7,28.3z"/>
	<path class="st0" d="M134.9,17.9c3.4,0,6.3,1,8.7,2.9l-2.5,3.7c-2-1.3-4-1.9-6-1.9c-1.1,0-1.9,0.2-2.5,0.6
		c-0.6,0.4-0.9,0.9-0.9,1.6c0,0.5,0.1,0.9,0.4,1.2c0.3,0.3,0.7,0.7,1.5,1c0.7,0.3,1.8,0.7,3.2,1.1c2.5,0.7,4.4,1.6,5.7,2.8
		c1.2,1.2,1.9,2.8,1.9,4.8c0,1.6-0.5,3-1.4,4.2c-0.9,1.2-2.2,2.1-3.7,2.7c-1.6,0.6-3.3,0.9-5.3,0.9c-2,0-3.9-0.3-5.5-0.9
		c-1.7-0.6-3.1-1.5-4.3-2.6l3.2-3.5c2,1.6,4.2,2.4,6.4,2.4c1.2,0,2.2-0.2,2.9-0.7c0.7-0.5,1.1-1.1,1.1-1.9c0-0.6-0.1-1.1-0.4-1.5
		c-0.3-0.4-0.8-0.7-1.5-1c-0.7-0.3-1.9-0.7-3.4-1.1c-2.4-0.7-4.2-1.6-5.4-2.8c-1.2-1.2-1.7-2.7-1.7-4.6c0-1.4,0.4-2.6,1.2-3.7
		c0.8-1.1,1.9-1.9,3.3-2.6C131.3,18.2,133,17.9,134.9,17.9L134.9,17.9z"/>
	<path class="st0" d="M156.6,17.9c3.4,0,6.3,1,8.7,2.9l-2.5,3.7c-2-1.3-4-1.9-6-1.9c-1.1,0-1.9,0.2-2.5,0.6
		c-0.6,0.4-0.9,0.9-0.9,1.6c0,0.5,0.1,0.9,0.4,1.2c0.3,0.3,0.7,0.7,1.5,1c0.7,0.3,1.8,0.7,3.2,1.1c2.5,0.7,4.4,1.6,5.7,2.8
		c1.2,1.2,1.9,2.8,1.9,4.8c0,1.6-0.5,3-1.4,4.2c-0.9,1.2-2.2,2.1-3.7,2.7c-1.6,0.6-3.3,0.9-5.3,0.9c-2,0-3.9-0.3-5.5-0.9
		c-1.7-0.6-3.1-1.5-4.3-2.6l3.2-3.5c2,1.6,4.2,2.4,6.4,2.4c1.2,0,2.2-0.2,2.9-0.7c0.7-0.5,1.1-1.1,1.1-1.9c0-0.6-0.1-1.1-0.4-1.5
		c-0.3-0.4-0.8-0.7-1.5-1c-0.7-0.3-1.9-0.7-3.4-1.1c-2.4-0.7-4.2-1.6-5.4-2.8c-1.2-1.2-1.7-2.7-1.7-4.6c0-1.4,0.4-2.6,1.2-3.7
		c0.8-1.1,1.9-1.9,3.3-2.6C153.1,18.2,154.7,17.9,156.6,17.9L156.6,17.9z"/>
	<path class="st0" d="M172.6,35.6c1.1,0,2,0.4,2.8,1.1c0.8,0.8,1.1,1.7,1.1,2.7c0,1.1-0.4,2-1.1,2.7c-0.8,0.8-1.7,1.2-2.8,1.2
		c-1.1,0-2-0.4-2.7-1.2c-0.8-0.8-1.1-1.7-1.1-2.7c0-1.1,0.4-2,1.1-2.7C170.6,36,171.6,35.6,172.6,35.6L172.6,35.6z"/>
	<g>
		<path class="st0" d="M186.7,42.7h-6.4V18.6h6.4V42.7L186.7,42.7z M183.5,6.2c1.2,0,2.1,0.4,2.8,1.1c0.7,0.7,1.1,1.6,1.1,2.7
			c0,1.1-0.4,2-1.1,2.7c-0.7,0.7-1.7,1.1-2.8,1.1s-2.1-0.4-2.8-1.1c-0.7-0.7-1.1-1.6-1.1-2.7c0-1.1,0.4-2,1.1-2.7
			C181.4,6.5,182.3,6.2,183.5,6.2L183.5,6.2z"/>
	</g>
	<path class="st0" d="M202.2,17.9c3.6,0,6.4,1.1,8.4,3.4c2,2.3,3,5.4,3,9.4c0,2.5-0.5,4.8-1.4,6.7c-0.9,1.9-2.3,3.4-4,4.5
		c-1.7,1.1-3.8,1.6-6.2,1.6c-3.6,0-6.4-1.1-8.5-3.4c-2-2.3-3.1-5.4-3.1-9.4c0-2.5,0.5-4.8,1.4-6.7c0.9-1.9,2.3-3.4,4-4.5
		C197.8,18.4,199.8,17.9,202.2,17.9L202.2,17.9z M202.2,22.7c-1.6,0-2.9,0.6-3.7,1.9c-0.8,1.3-1.2,3.3-1.2,6s0.4,4.7,1.2,6
		c0.8,1.3,2,1.9,3.6,1.9c1.6,0,2.8-0.6,3.6-1.9c0.8-1.3,1.2-3.3,1.2-6s-0.4-4.7-1.2-6C205,23.3,203.8,22.7,202.2,22.7L202.2,22.7z"
		/>
	<path class="st1" d="M29.8,3.1C14.6,3.1,2.3,15.4,2.3,30.6s12.3,27.5,27.5,27.5c15.2,0,27.5-12.3,27.5-27.5S44.9,3.1,29.8,3.1z
		 M16.9,36.5c0.9,1.2,2.1,1.7,3.8,1.7c0.8,0,1.6-0.1,2.3-0.4c0.7-0.3,1.5-0.7,2.5-1.3l2.8,4c-2.3,1.9-4.9,2.8-7.9,2.8
		c-2.4,0-4.4-0.5-6.2-1.5c-1.7-1-3.1-2.5-4-4.4c-0.9-1.9-1.4-4.1-1.4-6.7c0-2.5,0.5-4.8,1.4-6.7c0.9-2,2.3-3.5,4-4.6
		c1.7-1.1,3.8-1.6,6.1-1.6c1.6,0,3.1,0.2,4.3,0.7c1.3,0.5,2.5,1.2,3.7,2.2l-2.8,3.8c-0.8-0.6-1.6-1-2.3-1.3
		c-0.7-0.3-1.6-0.4-2.4-0.4c-3.4,0-5.1,2.6-5.1,7.9C15.6,33.4,16.1,35.3,16.9,36.5z M44.4,42.7c-1,3.1-2.5,5.4-4.6,7.1
		c-2.1,1.7-4.9,2.6-8.4,2.9L30.7,48c2.3-0.3,4-0.8,5.1-1.6c0.4-0.3,1.2-1.2,1.2-1.2l-8.3-26.6h6.9l4.8,19.9l5.1-19.9h6.7L44.4,42.7z
		"/>
</g>
</svg>
