<svg width="1280" height="720" viewBox="0 0 1280 720" fill="none" xmlns="http://www.w3.org/2000/svg">
<g clip-path="url(#clip0_14772_29773)">
<path d="M1435.37 449.6L1299.69 463.927C1299.69 463.927 1200.76 472.626 1117.01 481.687C1033.25 490.748 892.519 506.006 750.405 543.59C608.291 581.175 592.633 579.374 520.813 586.876C448.992 594.379 465.101 591.713 385.92 599.981C334.671 605.378 309.687 608.772 237.675 624.211C155.369 642.731 140.682 643.449 74.9491 650.329C9.21665 657.21 -5.85113 660.861 -5.85113 660.861L-31.4775 663.266L-34.5641 140.279L1455.36 98.6174L1435.37 449.6Z" fill="#004143"/>
<path d="M1336.29 424.72C1336.29 424.72 1236.32 429.256 1151.11 435.201C1065.89 441.147 923.215 451.027 775.725 487.117C628.236 523.207 612.843 520.39 539.979 524.955C467.114 529.521 483.478 527.512 403.272 532.693C351.347 536.073 325.798 538.682 251.587 552.744C166.645 569.86 151.852 569.855 85.1483 574.192C18.445 578.529 2.88499 581.975 2.88499 581.975L-21.9746 586.148L-29.4388 454.277L-43.427 136.32L1455.11 51.4994L1473.76 415.576L1336.29 424.72Z" fill="#00595D"/>
<path d="M943.799 360.127C999.045 346.332 1026.48 340.545 1108.47 330.501C1238.42 314.549 1220.07 315.006 1280 299.636L1280 -423.777L0.000209806 -423.777L0.000222695 541.631C37.8219 531.693 87.0765 518.948 132.472 507.817C222.977 485.623 374.959 448.384 540.717 436.785C706.475 425.186 721.45 417.017 798.804 397.638C876.158 378.259 858.531 381.418 943.799 360.127Z" fill="url(#paint0_radial_14772_29773)"/>
<path d="M1156.98 261.046C1234.91 244.831 1280 265.827 1280 265.827V358.027C1220.07 370.855 1238.42 370.474 1108.46 383.788C1026.48 392.17 999.045 397 943.799 408.514C858.531 426.283 876.158 423.647 798.804 439.821C721.449 455.995 706.475 462.813 540.716 472.494C374.958 482.174 222.976 513.255 132.472 531.778C87.0762 541.068 37.8217 551.705 0 560V391.351L222.39 298.079C249.546 286.034 279.448 278.931 310.128 277.237C340.808 275.544 371.57 279.297 400.388 288.251C461.949 307.817 546.401 275.118 546.401 275.118C546.401 275.118 602.453 252.38 645.723 246.618C667.437 243.759 688.618 247.288 714.344 250.504C792.592 260.198 822.009 255.418 882.019 244.92C919.968 238.974 959.159 242.149 995.032 254.078C995.032 254.078 1074.99 278.111 1156.98 261.046Z" fill="url(#paint1_linear_14772_29773)"/>
</g>
<defs>
<radialGradient id="paint0_radial_14772_29773" cx="0" cy="0" r="1" gradientUnits="userSpaceOnUse" gradientTransform="translate(658 -136.777) rotate(90) scale(998.5 1447.94)">
<stop stop-color="#E4FBF2"/>
<stop offset="1" stop-color="#A3E7CB"/>
</radialGradient>
<linearGradient id="paint1_linear_14772_29773" x1="640" y1="-6.8096" x2="640" y2="476.014" gradientUnits="userSpaceOnUse">
<stop stop-color="#A3E7CB"/>
<stop offset="1" stop-color="#69D3A7"/>
</linearGradient>
<clipPath id="clip0_14772_29773">
<rect width="1280" height="964" fill="white" transform="translate(0 0.222656)"/>
</clipPath>
</defs>
</svg>
