<svg width="160" height="160" viewBox="0 0 160 160" fill="none" xmlns="http://www.w3.org/2000/svg">
<path d="M71.4007 47.3787H5.33301V127.263H71.4007V47.3787Z" fill="#D0D2E0"/>
<path d="M58.3301 59.3533H18.3877V64.7372H58.3301V59.3533Z" fill="#9095AD"/>
<path d="M58.3301 71.2485H18.3877V76.6324H58.3301V71.2485Z" fill="#9095AD"/>
<path d="M58.3301 82.7788H18.3877V88.1627H58.3301V82.7788Z" fill="#9095AD"/>
<path d="M113.392 22.6666H49.0234V95.9764H113.392V22.6666Z" fill="#6470F3"/>
<path d="M128.689 106.013L123.187 111.516L129.902 118.231L135.405 112.728L128.689 106.013Z" fill="#6470F3"/>
<path d="M127.311 120.788L137.957 110.142L152.949 125.134C153.404 125.59 153.66 126.208 153.66 126.852C153.66 127.497 153.404 128.115 152.949 128.57L145.75 135.769C145.295 136.225 144.677 136.481 144.032 136.481C143.388 136.481 142.77 136.224 142.314 135.769L127.322 120.777L127.311 120.788Z" fill="#D0D2E0"/>
<circle cx="106.667" cy="89.3333" r="20" fill="#9095AD"/>
<path d="M125.954 70.3751C129.753 74.1729 132.34 79.012 133.389 84.2802C134.437 89.5485 133.9 95.0094 131.844 99.9722C129.789 104.935 126.308 109.177 121.842 112.161C117.376 115.146 112.125 116.739 106.753 116.739C101.382 116.739 96.1309 115.146 91.6647 112.161C87.1985 109.177 83.7176 104.935 81.6623 99.9722C79.607 95.0094 79.0696 89.5485 80.118 84.2802C81.1665 79.012 83.7537 74.1729 87.5525 70.3751C92.6453 65.2836 99.5519 62.4233 106.753 62.4233C113.955 62.4233 120.861 65.2836 125.954 70.3751ZM94.5245 77.3631C92.1055 79.7818 90.4582 82.8635 89.7907 86.2185C89.1232 89.5735 89.4656 93.0509 90.7746 96.2113C92.0836 99.3717 94.3003 102.073 97.1445 103.974C99.9887 105.874 103.333 106.888 106.753 106.888C110.174 106.888 113.518 105.874 116.362 103.974C119.206 102.073 121.423 99.3717 122.732 96.2113C124.041 93.0509 124.384 89.5735 123.716 86.2185C123.049 82.8635 121.401 79.7818 118.982 77.3631C117.377 75.7554 115.471 74.48 113.373 73.6097C111.274 72.7395 109.025 72.2915 106.753 72.2915C104.482 72.2915 102.232 72.7395 100.134 73.6097C98.0356 74.48 96.1294 75.7554 94.5245 77.3631Z" fill="#D0D2E0"/>
<path d="M69.7494 34.5143C70.4046 35.1166 70.9192 35.8555 71.2568 36.6789C71.5943 37.5023 71.7466 38.39 71.7029 39.2788C71.758 40.144 71.6118 41.0102 71.2756 41.8094C70.9394 42.6085 70.4224 43.3188 69.7653 43.8844C68.2875 44.997 66.4675 45.5587 64.6197 45.4726L64.4926 47.8389H60.7128L60.554 42.6139H61.8086C63.2157 42.6827 64.6206 42.4386 65.922 41.8992C66.3961 41.6641 66.7879 41.291 67.0459 40.829C67.3038 40.3669 67.4159 39.8375 67.3672 39.3105C67.3897 38.919 67.3323 38.5271 67.1985 38.1585C67.0647 37.7899 66.8574 37.4524 66.589 37.1665C66.3074 36.8901 65.9713 36.6753 65.6022 36.5359C65.2331 36.3964 64.8389 36.3353 64.4449 36.3565C64.046 36.3312 63.646 36.3871 63.2693 36.5208C62.8926 36.6546 62.547 36.8634 62.2533 37.1347C61.983 37.4134 61.773 37.7448 61.6364 38.1082C61.4997 38.4716 61.4395 38.8593 61.4593 39.247H57.3935C57.359 38.0777 57.6387 36.9205 58.2034 35.896C58.7705 34.9014 59.6224 34.0993 60.6493 33.5931C61.8283 33.011 63.1304 32.7221 64.4449 32.7514C66.3747 32.6298 68.2763 33.2618 69.7494 34.5143ZM60.6652 54.4934C60.4196 54.2617 60.2259 53.9805 60.0972 53.6683C59.9686 53.3562 59.9077 53.0204 59.9187 52.6829C59.9079 52.3479 59.969 52.0143 60.0977 51.7048C60.2265 51.3952 60.42 51.1169 60.6652 50.8883C61.1843 50.4009 61.875 50.1383 62.5868 50.1577C62.9321 50.1483 63.2759 50.2081 63.5977 50.3335C63.9196 50.459 64.213 50.6476 64.4608 50.8883C64.7028 51.1194 64.8941 51.3981 65.0226 51.7071C65.1511 52.016 65.2141 52.3484 65.2073 52.6829C65.2143 53.0198 65.1517 53.3546 65.0232 53.6661C64.8948 53.9777 64.7033 54.2593 64.4608 54.4934C64.2122 54.7319 63.9183 54.9181 63.5964 55.0408C63.2744 55.1636 62.9311 55.2205 62.5868 55.208C62.2222 55.2314 61.8567 55.1801 61.5126 55.0572C61.1685 54.9343 60.853 54.7424 60.5857 54.4934H60.6652Z" fill="#D0D2E0"/>
</svg>
