<svg width="24" height="24" viewBox="0 0 24 24" xmlns="http://www.w3.org/2000/svg">
	<path fill-rule="evenodd" clip-rule="evenodd" d="M12 22C17.5228 22 22 17.5228 22 12 22 6.47715 17.5228 2 12 2 6.47715 2 2 6.47715 2 12 2 17.5228 6.47715 22 12 22ZM9.70711 8.29289C9.31658 7.90237 8.68342 7.90237 8.29289 8.29289 7.90237 8.68342 7.90237 9.31658 8.29289 9.70711L10.58579 12 8.29289 14.2929C7.90237 14.6834 7.90237 15.3166 8.29289 15.7071 8.68342 16.0976 9.31658 16.0976 9.70711 15.7071L12 13.4142 14.2929 15.7071C14.6834 16.0976 15.3166 16.0976 15.7071 15.7071 16.0976 15.3166 16.0976 14.6834 15.7071 14.2929L13.4142 12 15.7071 9.70711C16.0976 9.31658 16.0976 8.68342 15.7071 8.29289 15.3166 7.90237 14.6834 7.90237 14.2929 8.29289L12 10.58579 9.70711 8.29289Z"/>
</svg>
