<svg width="24" height="24" viewBox="0 0 24 24" xmlns="http://www.w3.org/2000/svg">
	<path fill-rule="evenodd" clip-rule="evenodd" d="M12 22C17.523 22 22 17.523 22 12 22 6.477 17.523 2 12 2 6.477 2 2 6.477 2 12 2 17.523 6.477 22 12 22ZM15.864 9.504C16.142 9.027 15.981 8.415 15.504 8.136 15.027 7.858 14.415 8.019 14.136 8.496L11.29 13.376 9.707 11.793C9.317 11.402 8.683 11.402 8.293 11.793 7.902 12.183 7.902 12.817 8.293 13.207L10.793 15.707C11.012 15.926 11.321 16.032 11.628 15.992 11.936 15.952 12.208 15.772 12.364 15.504L15.864 9.504Z" />
</svg>
