<svg width="16" height="16" viewBox="0 0 16 16" fill="none" xmlns="http://www.w3.org/2000/svg">
<path fill-rule="evenodd" clip-rule="evenodd" d="M2 8C2 4.68629 4.68629 2 8 2C11.3137 2 14 4.68629 14 8C14 11.3137 11.3137 14 8 14C4.68629 14 2 11.3137 2 8ZM8 0C3.58172 0 0 3.58172 0 8C0 12.4183 3.58172 16 8 16C12.4183 16 16 12.4183 16 8C16 3.58172 12.4183 0 8 0ZM6.70711 5.29289C6.31658 4.90237 5.68342 4.90237 5.29289 5.29289C4.90237 5.68342 4.90237 6.31658 5.29289 6.70711L6.58579 8L5.29289 9.29289C4.90237 9.68342 4.90237 10.3166 5.29289 10.7071C5.68342 11.0976 6.31658 11.0976 6.70711 10.7071L8 9.41421L9.29289 10.7071C9.68342 11.0976 10.3166 11.0976 10.7071 10.7071C11.0976 10.3166 11.0976 9.68342 10.7071 9.29289L9.41421 8L10.7071 6.70711C11.0976 6.31658 11.0976 5.68342 10.7071 5.29289C10.3166 4.90237 9.68342 4.90237 9.29289 5.29289L8 6.58579L6.70711 5.29289Z" fill="currentColor" class="icon-dark"/>
</svg>
