<svg width="16" height="16" viewBox="0 0 16 16" fill="none" xmlns="http://www.w3.org/2000/svg">
<path d="M12.9497 12.9497C10.2161 15.6834 5.78392 15.6834 3.05025 12.9497C0.316583 10.2161 0.316583 5.78392 3.05025 3.05025C5.78392 0.316583 10.2161 0.316583 12.9497 3.05025C15.6834 5.78392 15.6834 10.2161 12.9497 12.9497Z" stroke="currentColor" class="icon-dark" stroke-width="2"/>
<path fill-rule="evenodd" clip-rule="evenodd" d="M6.84477 5.53525L6.84393 5.53644C6.55247 5.99535 5.94584 6.13804 5.47962 5.85394C5.008 5.56655 4.85866 4.95125 5.14605 4.47963L5.99999 5C5.14605 4.47963 5.14631 4.4792 5.14657 4.47877L5.14711 4.47789L5.14824 4.47605L5.15069 4.47208L5.15638 4.463L5.17093 4.44042C5.18204 4.42347 5.19605 4.40275 5.21301 4.37881C5.24688 4.33103 5.2929 4.2699 5.35166 4.20004C5.4686 4.06102 5.63974 3.88294 5.87018 3.70632C6.33799 3.34776 7.04656 3 7.99999 3C9.09902 3 9.91097 3.43152 10.414 4.1133C10.8791 4.74355 11 5.47764 11 6C11 6.62988 10.8269 7.14716 10.5374 7.57449C10.2654 7.97613 9.9179 8.25422 9.6658 8.44689C9.05784 8.9115 9.01123 8.9631 8.99314 9.11684C8.92861 9.66534 8.43165 10.0577 7.88315 9.99315C7.33465 9.92862 6.94231 9.43166 7.00684 8.88316C7.1317 7.8219 7.92228 7.24504 8.33392 6.94468C8.3778 6.91266 8.41737 6.88379 8.45138 6.8578C8.67974 6.68328 8.80299 6.56879 8.88152 6.45286C8.94266 6.3626 8.99999 6.23731 8.99999 6C8.99999 5.74111 8.93342 5.4752 8.8047 5.30076C8.71401 5.17785 8.52597 5 7.99999 5C7.5628 5 7.27137 5.15224 7.08684 5.29368C6.99111 5.36706 6.92298 5.43898 6.88221 5.48746C6.86211 5.51135 6.84967 5.52835 6.84477 5.53525ZM7.99999 13C8.55228 13 8.99999 12.5523 8.99999 12C8.99999 11.4477 8.55228 11 7.99999 11C7.44771 11 6.99999 11.4477 6.99999 12C6.99999 12.5523 7.44771 13 7.99999 13Z" fill="currentColor" class="icon-dark"/>
</svg>
