<svg width="16" height="16" viewBox="0 0 16 16" fill="none" xmlns="http://www.w3.org/2000/svg">
<path d="M15 8C15 4.13401 11.866 1 8 1C4.13401 1 1 4.13401 1 8C1 11.866 4.13401 15 8 15C11.866 15 15 11.866 15 8Z" fill="#D0D2E0" class="icon-light"/>
<path d="M6.20711 8.20711C5.81658 8.59763 5.18342 8.59763 4.79289 8.20711C4.40237 7.81658 4.40237 7.18342 4.79289 6.79289L6.20711 8.20711ZM8 5L7.29289 4.29289C7.68342 3.90237 8.31658 3.90237 8.70711 4.29289L8 5ZM11.2071 6.79289C11.5976 7.18342 11.5976 7.81658 11.2071 8.20711C10.8166 8.59763 10.1834 8.59763 9.79289 8.20711L11.2071 6.79289ZM9 11C9 11.5523 8.55228 12 8 12C7.44772 12 7 11.5523 7 11H9ZM14 8C14 4.68629 11.3137 2 8 2V0C12.4183 0 16 3.58172 16 8H14ZM8 2C4.68629 2 2 4.68629 2 8H0C0 3.58172 3.58172 0 8 0V2ZM2 8C2 11.3137 4.68629 14 8 14V16C3.58172 16 0 12.4183 0 8H2ZM8 14C11.3137 14 14 11.3137 14 8H16C16 12.4183 12.4183 16 8 16V14ZM4.79289 6.79289L7.29289 4.29289L8.70711 5.70711L6.20711 8.20711L4.79289 6.79289ZM8.70711 4.29289L11.2071 6.79289L9.79289 8.20711L7.29289 5.70711L8.70711 4.29289ZM9 5V11H7V5H9Z" fill="#1B1E2E" class="icon-dark"/>
</svg>
