<svg width="48" height="48" viewBox="0 0 48 48" fill="none" xmlns="http://www.w3.org/2000/svg">
<path d="M40 5H10C8.89543 5 8 5.89543 8 7V35H10H39H40V5Z" fill="#D0D2E0" class="icon-light"/>
<path d="M40 43C40 43 39.3905 43 39 43M8 35V41C8 42.1046 8.89543 43 10 43V43M8 35V7C8 5.89543 8.89543 5 10 5V5M8 35H10M10 5H40V35H39M10 5V35M10 35V43M10 35H39M10 43C10 43 27.6748 43 39 43M39 35C39 35 38 39 39 43M21 17L18 20L21 23M29 17L32 20L29 23M23.5 25.5L26.5 14.5" stroke="#1B1E2E" class="icon-dark" stroke-width="2" stroke-linecap="round" stroke-linejoin="round"/>
<path d="M14 39H22V47L18 45.2857L14 47V39Z" fill="#69D3A7" class="icon-light-secondary"/>
<path d="M14 39V38H13V39H14ZM22 39H23V38H22V39ZM22 47L21.6061
47.9191C21.915 48.0516 22.2699 48.0199 22.5505 47.8348C22.8311 47.6498 23
47.3361 23 47H22ZM14 47H13C13 47.3361 13.1689 47.6498 13.4495
47.8348C13.7301 48.0199 14.085 48.0516 14.3939 47.9191L14 47ZM18
45.2857L18.3939 44.3666C18.1424 44.2588 17.8576 44.2588 17.6061 44.3666L18
45.2857ZM14 40H22V38H14V40ZM21 39V47H23V39H21ZM15 47V39H13V47H15ZM22.3939
46.0809L18.3939 44.3666L17.6061 46.2049L21.6061 47.9191L22.3939
46.0809ZM17.6061 44.3666L13.6061 46.0809L14.3939 47.9191L18.3939
46.2049L17.6061 44.3666Z" class="icon-dark-secondary" fill="#00814D"/>
</svg>
