<svg width="24" height="24" viewBox="0 0 24 24" fill="none" xmlns="http://www.w3.org/2000/svg">
<path fill-rule="evenodd" clip-rule="evenodd" d="M17 3C18.6569 3 20 4.34315 20 6V21L12 18L4 21V6C4 4.34315 5.34315 3 7 3H17ZM12.5819 9.77202L12 7.57295L11.4181 9.77202L9.14683 9.6459L11.0585 10.8789L10.2366 13L12 11.5629L13.7634 13L12.9415 10.8789L14.8532 9.6459L12.5819 9.77202Z" fill="#D0D2E0" class="icon-light"/>
<path d="M20 21L19.6489 21.9363C19.956 22.0515 20.3 22.0087 20.5696 21.8219C20.8392 21.6351 21 21.328 21 21H20ZM12 18L12.3511 17.0637C12.1247 16.9788 11.8753 16.9788 11.6489 17.0637L12 18ZM4 21H3C3 21.328 3.16083 21.6351 3.43041 21.8219C3.69998 22.0087 4.04403 22.0515 4.35112 21.9363L4 21ZM12 7.57295L12.9667 7.31714C12.8506 6.87847 12.4538 6.57295 12 6.57295C11.5462 6.57295 11.1494 6.87847 11.0333 7.31714L12 7.57295ZM12.5819 9.77202L11.6152 10.0278C11.7366 10.4865 12.1636 10.7968 12.6374 10.7705L12.5819 9.77202ZM14.8532 9.6459L15.3952 10.4863C15.7765 10.2403 15.9444 9.76844 15.8042 9.33688C15.664 8.90533 15.2508 8.62228 14.7977 8.64744L14.8532 9.6459ZM12.9415 10.8789L12.3995 10.0385C12.0008 10.2957 11.8377 10.7977 12.0091 11.2401L12.9415 10.8789ZM13.7634 13L13.1316 13.7752C13.4834 14.0618 13.984 14.0757 14.3511 13.809C14.7182 13.5423 14.8597 13.0618 14.6958 12.6387L13.7634 13ZM12 11.5629L12.6317 10.7878C12.2639 10.488 11.7361 10.488 11.3683 10.7878L12 11.5629ZM10.2366 13L9.30418 12.6387C9.14025 13.0618 9.28176 13.5423 9.64886 13.809C10.016 14.0757 10.5166 14.0618 10.8684 13.7752L10.2366 13ZM11.0585 10.8789L11.9909 11.2401C12.1623 10.7977 11.9992 10.2957 11.6005 10.0385L11.0585 10.8789ZM9.14683 9.6459L9.20228 8.64744C8.74921 8.62228 8.33599 8.90533 8.19577 9.33688C8.05555 9.76844 8.22348 10.2403 8.60481 10.4863L9.14683 9.6459ZM11.4181 9.77202L11.3626 10.7705C11.8364 10.7968 12.2634 10.4865 12.3848 10.0278L11.4181 9.77202ZM19 6V21H21V6H19ZM20.3511 20.0637L12.3511 17.0637L11.6489 18.9363L19.6489 21.9363L20.3511 20.0637ZM11.6489 17.0637L3.64888 20.0637L4.35112 21.9363L12.3511 18.9363L11.6489 17.0637ZM7 4H17V2H7V4ZM5 21V6H3V21H5ZM11.0333 7.82876L11.6152 10.0278L13.5486 9.51621L12.9667 7.31714L11.0333 7.82876ZM12.6374 10.7705L14.9086 10.6444L14.7977 8.64744L12.5265 8.77356L12.6374 10.7705ZM14.3111 8.80554L12.3995 10.0385L13.4836 11.7192L15.3952 10.4863L14.3111 8.80554ZM12.0091 11.2401L12.8309 13.3613L14.6958 12.6387L13.874 10.5176L12.0091 11.2401ZM14.3951 12.2248L12.6317 10.7878L11.3683 12.3381L13.1316 13.7752L14.3951 12.2248ZM11.3683 10.7878L9.60491 12.2248L10.8684 13.7752L12.6317 12.3381L11.3683 10.7878ZM11.1691 13.3613L11.9909 11.2401L10.126 10.5176L9.30418 12.6387L11.1691 13.3613ZM11.6005 10.0385L9.68886 8.80554L8.60481 10.4863L10.5164 11.7192L11.6005 10.0385ZM9.09139 10.6444L11.3626 10.7705L11.4735 8.77356L9.20228 8.64744L9.09139 10.6444ZM12.3848 10.0278L12.9667 7.82876L11.0333 7.31714L10.4514 9.51621L12.3848 10.0278ZM7 2C4.79086 2 3 3.79086 3 6H5C5 4.89543 5.89543 4 7 4V2ZM21 6C21 3.79086 19.2091 2 17 2V4C18.1046 4 19 4.89543 19 6H21Z" fill="#1B1E2E" class="icon-dark"/>
</svg>
