<svg width="24" height="24" viewBox="0 0 24 24" fill="none" xmlns="http://www.w3.org/2000/svg">
<path d="M21 16.4116V7.58843C21 7.40548 20.95 7.22977 20.8599 7.07789L12
12V21.8561C12.1673 21.8561 12.3346 21.8141 12.4856 21.7302L20.4856
17.2858C20.8031 17.1094 21 16.7748 21 16.4116Z" fill="#D0D2E0" class="icon-light"/>
<path d="M3.51436 17.2858L11.5144 21.7302C11.6654 21.8141 11.8327 21.8561
12 21.8561V12L3.14014 7.07789C3.04997 7.22977 3 7.40548 3 7.58843V16.4116C3
16.7748 3.19689 17.1094 3.51436 17.2858Z" fill="#D0D2E0" class="icon-light"/>
<path d="M11.5144 2.26982L3.51436 6.71427C3.35682 6.80179 3.22897 6.92828
3.14014 7.07789L12 12L20.8599 7.07789C20.771 6.92828 20.6432 6.80179
20.4856 6.71427L12.4856 2.26982C12.1836 2.10203 11.8164 2.10203 11.5144
2.26982Z" fill="#D0D2E0" class="icon-light"/>
<path d="M12 12L20.8599 7.07789M12 12V21.8561M12 12L3.14014 7.07789M20.8599
7.07789C20.95 7.22977 21 7.40548 21 7.58843V16.4116C21 16.7748 20.8031
17.1094 20.4856 17.2858L12.4856 21.7302C12.3346 21.8141 12.1673 21.8561 12
21.8561M20.8599 7.07789C20.771 6.92828 20.6432 6.80179 20.4856
6.71427L12.4856 2.26982C12.1836 2.10203 11.8164 2.10203 11.5144
2.26982L3.51436 6.71427C3.35682 6.80179 3.22897 6.92828 3.14014 7.07789M12
21.8561C11.8327 21.8561 11.6654 21.8141 11.5144 21.7302L3.51436
17.2858C3.19689 17.1094 3 16.7748 3 16.4116V7.58843C3 7.40548 3.04997
7.22977 3.14014 7.07789" stroke="#1B1E2E" stroke-width="2"
stroke-linecap="round" class="icon-dark" stroke-linejoin="round"/>
</svg>
