<svg width="16" height="16" viewBox="0 0 16 16" fill="none" xmlns="http://www.w3.org/2000/svg">
<path d="M14.5 11.1329V4.86641C14.5 4.73647 14.4639 4.61168 14.3988 4.50381L8 7.99962V14.9996C8.12084 14.9996 8.24168 14.9698 8.35074 14.9103L14.1285 11.7537C14.3578 11.6284 14.5 11.3908 14.5 11.1329Z" fill="#D0D2E0" class="icon-light"/>
<path d="M1.87148 11.7537L7.64926 14.9103C7.75832 14.9698 7.87916 14.9996 8 14.9996V7.99962L1.60122 4.50381C1.53609 4.61168 1.5 4.73647 1.5 4.86641V11.1329C1.5 11.3908 1.6422 11.6284 1.87148 11.7537Z" fill="#D0D2E0" class="icon-light"/>
<path d="M7.64926 1.08901L1.87148 4.24556C1.7577 4.30772 1.66537 4.39756 1.60122 4.50381L8 7.99962L14.3988 4.50381C14.3346 4.39756 14.2423 4.30772 14.1285 4.24556L8.35074 1.08901C8.13262 0.969842 7.86738 0.969842 7.64926 1.08901Z" fill="#D0D2E0" class="icon-light"/>
<path d="M8 7.99962L14.3988 4.50381M8 7.99962V14.9996M8 7.99962L1.60122 4.50381M14.3988 4.50381C14.4639 4.61168 14.5 4.73647 14.5 4.86641V11.1329C14.5 11.3908 14.3578 11.6284 14.1285 11.7537L8.35074 14.9103C8.24168 14.9698 8.12084 14.9996 8 14.9996M14.3988 4.50381C14.3346 4.39756 14.2423 4.30772 14.1285 4.24556L8.35074 1.08901C8.13261 0.969842 7.86738 0.969842 7.64926 1.08901L1.87148 4.24556C1.7577 4.30772 1.66537 4.39756 1.60122 4.50381M8 14.9996C7.87916 14.9996 7.75832 14.9698 7.64926 14.9103L1.87148 11.7537C1.6422 11.6284 1.5 11.3908 1.5 11.1329V4.86641C1.5 4.73647 1.53609 4.61168 1.60122 4.50381" stroke="#1B1E2E" class="icon-dark" stroke-width="2" stroke-linecap="round" stroke-linejoin="round"/>
</svg>
