<svg width="16" height="16" viewBox="0 0 16 16" fill="none" xmlns="http://www.w3.org/2000/svg">
<path d="M10 3C9.44771 3 9 3.44772 9 4C9 4.55228 9.44771 5 10 5V3ZM10 11C9.44771 11 9 11.4477 9 12C9 12.5523 9.44771 13 10 13V11ZM6 5C6.55228 5 7 4.55228 7 4C7 3.44772 6.55228 3 6 3V5ZM6 13C6.55228 13 7 12.5523 7 12C7 11.4477 6.55228 11 6 11V13ZM5 7C4.44772 7 4 7.44772 4 8C4 8.55228 4.44772 9 5 9V7ZM11 9C11.5523 9 12 8.55228 12 8C12 7.44772 11.5523 7 11 7V9ZM10 5H11V3H10V5ZM11 11H10V13H11V11ZM5 5H6V3H5V5ZM6 11H5V13H6V11ZM5 9H11V7H5V9ZM2 8C2 6.34315 3.34315 5 5 5V3C2.23858 3 0 5.23858 0 8H2ZM0 8C0 10.7614 2.23858 13 5 13V11C3.34315 11 2 9.65685 2 8H0ZM14 8C14 9.65685 12.6569 11 11 11V13C13.7614 13 16 10.7614 16 8H14ZM16 8C16 5.23858 13.7614 3 11 3V5C12.6569 5 14 6.34315 14 8H16Z" fill="currentColor" class="icon-dark"/>
</svg>
