<svg width="16" height="16" viewBox="0 0 16 16" fill="none" xmlns="http://www.w3.org/2000/svg">
    <path d="M13.6569 13.6569C10.5327 16.781 5.46734 16.781 2.34315 13.6569C-0.781048 10.5327 -0.781048 5.46734 2.34315 2.34315C5.46734 -0.781048 10.5327 -0.781048 13.6569 2.34315C16.781 5.46734 16.781 10.5327 13.6569 13.6569Z" fill="currentColor" class="icon-light" />
    <path fill-rule="evenodd" style="transform: translate(5px, 2.8px)" clip-rule="evenodd" d="M1.84477 2.53525L1.84393 2.53644C1.55247 2.99535 0.945841 3.13804 0.479622 2.85394C0.00800347 2.56655 -0.141341 1.95125 0.146051 1.47963L0.999992 2C0.146051 1.47963 0.146312 1.4792 0.146575 1.47877L0.147114 1.47789L0.148242 1.47605L0.150693 1.47208L0.15638 1.463L0.170928 1.44042C0.182042 1.42347 0.196048 1.40275 0.213011 1.37881C0.246877 1.33103 0.292902 1.2699 0.351663 1.20004C0.468602 1.06102 0.639738 0.88294 0.870176 0.706317C1.33799 0.347756 2.04656 0 2.99999 0C4.09902 0 4.91097 0.431523 5.41403 1.1133C5.87907 1.74355 5.99999 2.47764 5.99999 3C5.99999 3.62988 5.82686 4.14716 5.53741 4.57449C5.26535 4.97613 4.9179 5.25422 4.6658 5.44689C4.05784 5.9115 4.01123 5.9631 3.99314 6.11684C3.92861 6.66534 3.43165 7.05768 2.88315 6.99315C2.33465 6.92862 1.94231 6.43166 2.00684 5.88316C2.1317 4.8219 2.92228 4.24504 3.33392 3.94468C3.3778 3.91266 3.41737 3.88379 3.45138 3.8578C3.67974 3.68328 3.80299 3.56879 3.88152 3.45286C3.94266 3.3626 3.99999 3.23731 3.99999 3C3.99999 2.74111 3.93342 2.4752 3.8047 2.30076C3.71401 2.17785 3.52597 2 2.99999 2C2.5628 2 2.27137 2.15224 2.08684 2.29368C1.99111 2.36706 1.92298 2.43898 1.88221 2.48746C1.86211 2.51135 1.84967 2.52835 1.84477 2.53525ZM2.99999 10C3.55228 10 3.99999 9.55229 3.99999 9C3.99999 8.44771 3.55228 8 2.99999 8C2.44771 8 1.99999 8.44771 1.99999 9C1.99999 9.55229 2.44771 10 2.99999 10Z" fill="white" class="icon-dark" />
</svg>