<svg width="24" height="24" viewBox="0 0 24 24" fill="none" xmlns="http://www.w3.org/2000/svg">
<path d="M21 6C21 4.89543 20.1046 4 19 4H5C3.89543 4 3 4.89543 3 6V8H21V6Z" fill="#D0D2E0" class="icon-light"/>
<path fill-rule="evenodd" clip-rule="evenodd" d="M21 6C21 4.89543 20.1046 4 19 4H5C3.89543 4 3 4.89543 3 6V8H21V6Z" fill="#D0D2E0" class="icon-light"/>
<path d="M3 8V18C3 19.1046 3.89543 20 5 20H19C20.1046 20 21 19.1046 21 18V8M3 8V6C3 4.89543 3.89543 4 5 4H19C20.1046 4 21 4.89543 21 6V8M3 8H21M14 12L16 14L14 16M10 12L8 13.9286L10 15.8571" stroke="#1B1E2E" class="icon-dark" stroke-width="2" stroke-linecap="round" stroke-linejoin="round"/>
</svg>
