<svg width="16" height="16" viewBox="0 0 16 16" fill="none" xmlns="http://www.w3.org/2000/svg">
<path d="M5 5V11M5 5H11M5 5V3C5 1.89543 4.10457 1 3 1V1C1.89543 1 1 1.89543 1 3V3C1 4.10457 1.89543 5 3 5H5ZM5 11H11M5 11V13C5 14.1046 4.10457 15 3 15V15C1.89543 15 1 14.1046 1 13V13C1 11.8954 1.89543 11 3 11H5ZM11 11V5M11 11H13C14.1046 11 15 11.8954 15 13V13C15 14.1046 14.1046 15 13 15V15C11.8954 15 11 14.1046 11 13V11ZM11 5V3C11 1.89543 11.8954 1 13 1V1C14.1046 1 15 1.89543 15 3V3C15 4.10457 14.1046 5 13 5H11Z" stroke="#1B1E2E" class="icon-dark" stroke-width="2" stroke-linecap="round"/>
</svg>
