<svg width="16" height="16" viewBox="0 0 16 16" fill="none" xmlns="http://www.w3.org/2000/svg">
    <path class="icon-dark" d="M19.5 18.5854C18.9174 18.7913 18.5 19.3469 18.5 20V29.5C18.5 30.3284 19.1716 31 20 31H28C28.8284 31 29.5 30.3284 29.5 29.5V20C29.5 19.3469 29.0826 18.7913 28.5 18.5854M23 20H25C25.5523 20 26 19.5523 26 19V18C26 17.4477 25.5523 17 25 17H23C22.4477 17 22 17.4477 22 18V19C22 19.5523 22.4477 20 23 20Z" stroke="#1B1E2E" stroke-width="2" stroke-linecap="round" stroke-linejoin="round" style="transform: translate(-16px, -16px);" />
</svg>