<svg width="16" height="16" viewBox="0 0 16 16" fill="none" xmlns="http://www.w3.org/2000/svg">
<path fill-rule="evenodd" clip-rule="evenodd" d="M8 0C8.55228 0 9 0.447715 9 1V1.07089C12.0657 1.5094 14.4906 3.93431 14.9291 7H15C15.5523 7 16 7.44772 16 8C16 8.55228 15.5523 9 15 9H14.9291C14.4906 12.0657 12.0657 14.4906 9 14.9291V15C9 15.5523 8.55228 16 8 16C7.44772 16 7 15.5523 7 15V14.9291C3.93431 14.4906 1.5094 12.0657 1.07089 9H1C0.447715 9 0 8.55228 0 8C0 7.44772 0.447715 7 1 7H1.07089C1.5094 3.93431 3.93431 1.5094 7 1.07089V1C7 0.447715 7.44772 0 8 0ZM7 3.10002C5.04087 3.4977 3.4977 5.04087 3.10002 7H4C4.55228 7 5 7.44772 5 8C5 8.55228 4.55228 9 4 9H3.10002C3.4977 10.9591 5.04087 12.5023 7 12.9V12C7 11.4477 7.44772 11 8 11C8.55228 11 9 11.4477 9 12V12.9C10.9591 12.5023 12.5023 10.9591 12.9 9H12C11.4477 9 11 8.55228 11 8C11 7.44772 11.4477 7 12 7H12.9C12.5023 5.04087 10.9591 3.4977 9 3.10002V4C9 4.55228 8.55228 5 8 5C7.44772 5 7 4.55228 7 4V3.10002Z" fill="#1B1E2E" class="icon-dark"/>
<path d="M9 8C9 7.44772 8.55229 7 8 7C7.44772 7 7 7.44772 7 8C7 8.55229 7.44772 9 8 9C8.55229 9 9 8.55229 9 8Z" fill="#1B1E2E"  class="icon-dark"/>
</svg>
