<svg width="16" height="16" viewBox="0 0 16 16" fill="none" xmlns="http://www.w3.org/2000/svg">
<path class="icon-dark" fill-rule="evenodd" clip-rule="evenodd" d="M7.87174 8.85352C7.73926 9.16908 7.5428 9.45192 7.29832 9.68632C7.2355 9.74655 7.16951 9.80357 7.10061 9.85714C6.67114 10.1911 6.12892 10.3903 5.53951 10.3903C4.14608 10.3903 3.01648 9.27667 3.01648 7.90292C3.01648 6.52917 4.14608 5.41553 5.53951 5.41553C6.03261 5.41553 6.49267 5.55499 6.88132 5.79608C7.01087 5.87644 7.13248 5.96809 7.24473 6.06963C7.51416 6.31334 7.72971 6.61403 7.87174 6.95233L6.5334 7.41607C6.36444 7.03052 6.00101 6.76384 5.57993 6.76384C4.99763 6.76384 4.52558 7.27382 4.52558 7.90292C4.52558 8.53202 4.99763 9.04201 5.57993 9.04201C6.00101 9.04201 6.36444 8.77533 6.5334 8.38977L7.87174 8.85352Z" fill="#1B1E2E"/>
<path class="icon-dark" fill-rule="evenodd" clip-rule="evenodd" d="M7.87174 8.85352C7.73926 9.16908 7.5428 9.45192 7.29832 9.68632C7.2355 9.74655 7.16951 9.80357 7.10061 9.85714C6.67114 10.1911 6.12892 10.3903 5.53951 10.3903C4.14608 10.3903 3.01648 9.27667 3.01648 7.90292C3.01648 6.52917 4.14608 5.41553 5.53951 5.41553C6.03261 5.41553 6.49267 5.55499 6.88132 5.79608C7.01087 5.87644 7.13248 5.96809 7.24473 6.06963C7.51416 6.31334 7.72971 6.61403 7.87174 6.95233L6.5334 7.41607C6.36444 7.03052 6.00101 6.76384 5.57993 6.76384C4.99763 6.76384 4.52558 7.27382 4.52558 7.90292C4.52558 8.53202 4.99763 9.04201 5.57993 9.04201C6.00101 9.04201 6.36444 8.77533 6.5334 8.38977L7.87174 8.85352Z" fill="#1B1E2E"/>
<path class="icon-dark" d="M2 8C2 4.68629 4.68629 2 8 2C10.0081 2 11.7858 2.9865 12.8749 4.5013C13.2604 5.03749 13.5596 5.63988 13.7523 6.28815C13.9134 6.83061 14 7.4052 14 8C14 10.1687 12.8494 12.0703 11.1221 13.1249L10.126 15.7142C10.5774 15.59 11.0131 15.4272 11.4291 15.2296C14.1296 13.9468 16 11.1928 16 8C16 3.58172 12.4183 0 8 0C3.58172 0 0 3.58172 0 8C0 12.4183 3.58172 16 8 16C8.1209 16 8.2412 15.9973 8.36084 15.992C8.73085 15.9755 9.04397 15.7267 9.17712 15.3811L12.9835 5.5013H11.5254L10.3889 8.71776L9.23097 5.5013H7.68707L9.61695 10.4761L8.25252 13.9948C7.89952 14.0094 7.54154 13.9928 7.19735 13.9468C4.26315 13.5545 2 11.0415 2 8Z" fill="#1B1E2E"/>
</svg>
