<svg width="48" height="48" viewBox="0 0 48 48" fill="none" xmlns="http://www.w3.org/2000/svg">
<path d="M40 8H8C6.34315 8 5 9.34315 5 11V16H43V11C43 9.34315 41.6569 8 40 8Z" fill="#D0D2E0" class="icon-light"/>
<path fill-rule="evenodd" clip-rule="evenodd" d="M8 8C6.34315 8 5 9.34315 5 11V16H43V11C43 9.34315 41.6569 8 40 8H8Z" fill="#D0D2E0" class="icon-light"/>
<path d="M19 30L14 28L9 31V36H38C38.5523 36 39 35.5523 39 35V23L34 24L29 27L24 25L19 30Z" fill="#D0D2E0" class="icon-light"/>
<path d="M5 16H4C4 16.5523 4.44772 17 5 17V16ZM43 16V17C43.5523 17 44 16.5523 44 16H43ZM19 11C18.4477 11 18 11.4477 18 12C18 12.5523 18.4477 13 19 13V11ZM39 13C39.5523 13 40 12.5523 40 12C40 11.4477 39.5523 11 39 11V13ZM14 28L14.3714 27.0715C14.0812 26.9555 13.7535 26.9817 13.4855 27.1425L14 28ZM19 30L18.6286 30.9285C19 31.077 19.4242 30.99 19.7071 30.7071L19 30ZM24 25L24.3714 24.0715C24 23.923 23.5758 24.01 23.2929 24.2929L24 25ZM29 27L28.6286 27.9285C28.9188 28.0445 29.2465 28.0183 29.5145 27.8575L29 27ZM9 31L8.4855 30.1425C8.1843 30.3232 8 30.6487 8 31H9ZM34 24L33.8039 23.0194C33.6915 23.0419 33.5838 23.0835 33.4855 23.1425L34 24ZM9 36H8C8 36.5523 8.44772 37 9 37V36ZM8 9H40V7H8V9ZM42 11V37H44V11H42ZM6 37V11H4V37H6ZM5 17H43V15H5V17ZM19 13H39V11H19V13ZM8 39C6.89543 39 6 38.1046 6 37H4C4 39.2091 5.79086 41 8 41V39ZM42 37C42 38.1046 41.1046 39 40 39V41C42.2091 41 44 39.2091 44 37H42ZM40 9C41.1046 9 42 9.89543 42 11H44C44 8.79086 42.2091 7 40 7V9ZM8 7C5.79086 7 4 8.79086 4 11H6C6 9.89543 6.89543 9 8 9V7ZM4 11V16H6V11H4ZM44 16V11H42V16H44ZM38 19H10V21H38V19ZM13.6286 28.9285L18.6286 30.9285L19.3714 29.0715L14.3714 27.0715L13.6286 28.9285ZM19.7071 30.7071L24.7071 25.7071L23.2929 24.2929L18.2929 29.2929L19.7071 30.7071ZM23.6286 25.9285L28.6286 27.9285L29.3714 26.0715L24.3714 24.0715L23.6286 25.9285ZM40 35V23H38V35H40ZM40 23V21H38V23H40ZM40 39H24V41H40V39ZM24 39H16V41H24V39ZM16 39H8V41H16V39ZM9.5145 31.8575L14.5145 28.8575L13.4855 27.1425L8.4855 30.1425L9.5145 31.8575ZM29.5145 27.8575L34.5145 24.8575L33.4855 23.1425L28.4855 26.1425L29.5145 27.8575ZM34.1961 24.9806L39.1961 23.9806L38.8039 22.0194L33.8039 23.0194L34.1961 24.9806ZM38 35H9V37H38V35ZM10 36V21H8V36H10ZM8 31V36H10V31H8ZM38 21H40C40 19.8954 39.1046 19 38 19V21ZM38 35V37C39.1046 37 40 36.1046 40 35H38ZM10 19C8.89543 19 8 19.8954 8 21H10H10V19Z" fill="#1B1E2E" class="icon-dark"/>
<path d="M10 12C10 12.5523 9.55228 13 9 13C8.44772 13 8 12.5523 8 12C8 11.4477 8.44772 11 9 11C9.55228 11 10 11.4477 10 12Z" fill="#1B1E2E" class="icon-dark"/>
<path d="M13 12C13 12.5523 12.5523 13 12 13C11.4477 13 11 12.5523 11 12C11 11.4477 11.4477 11 12 11C12.5523 11 13 11.4477 13 12Z" fill="#1B1E2E" class="icon-dark"/>
<path d="M16 12C16 12.5523 15.5523 13 15 13C14.4477 13 14 12.5523 14 12C14 11.4477 14.4477 11 15 11C15.5523 11 16 11.4477 16 12Z" fill="#1B1E2E" class="icon-dark"/>
<path d="M37 37C37 33.6863 34.3137 31 31 31C27.6863 31 25 33.6863 25 37C25 40.3137 27.6863 43 31 43C34.3137 43 37 40.3137 37 37Z" fill="#69D3A7"/>
<path d="M28.2929 38.2071C27.9024 37.8166 27.9024 37.1834 28.2929 36.7929C28.6834 36.4024 29.3166 36.4024 29.7071 36.7929L28.2929 38.2071ZM30.5 39L31.3137 39.5812C31.1429 39.8204 30.8754 39.9723 30.5825 39.9966C30.2895 40.0208 30.0007 39.915 29.7929 39.7071L30.5 39ZM32.1863 34.9188C32.5073 34.4693 33.1318 34.3653 33.5812 34.6863C34.0307 35.0073 34.1347 35.6318 33.8137 36.0812L32.1863 34.9188ZM36 37C36 34.2386 33.7614 32 31 32V30C34.866 30 38 33.134 38 37H36ZM31 32C28.2386 32 26 34.2386 26 37H24C24 33.134 27.134 30 31 30V32ZM26 37C26 39.7614 28.2386 42 31 42V44C27.134 44 24 40.866 24 37H26ZM31 42C33.7614 42 36 39.7614 36 37H38C38 40.866 34.866 44 31 44V42ZM29.7071 36.7929L31.2071 38.2929L29.7929 39.7071L28.2929 38.2071L29.7071 36.7929ZM29.6863 38.4188L32.1863 34.9188L33.8137 36.0812L31.3137 39.5812L29.6863 38.4188Z" fill="#00814D"/>
</svg>
