<svg width="16" height="16" viewBox="0 0 16 16" fill="none" xmlns="http://www.w3.org/2000/svg">
<path fill-rule="evenodd" clip-rule="evenodd" d="M8 4C7.44772 4 7 4.44772 7 5V6H9V5C9 4.44772 8.55228 4 8 4ZM10 8H6V10C6 11.1046 6.89543 12 8 12C9.10457 12 10 11.1046 10 10V8ZM11.4121 12.0886C10.7088 13.2352 9.44369 14 8 14C6.55631 14 5.29125 13.2352 4.58791 12.0886C4.2412 12.2456 4 12.5946 4 13C4 13.5523 3.55228 14 3 14C2.44772 14 2 13.5523 2 13C2 11.6938 2.83481 10.5825 4 10.1707V10H3C2.44772 10 2 9.55228 2 9C2 8.44772 2.44772 8 3 8H4V7.82929C2.83481 7.41746 2 6.30622 2 5C2 4.44772 2.44772 4 3 4C3.55228 4 4 4.44772 4 5C4 5.55228 4.44772 6 5 6V5C5 3.34315 6.34315 2 8 2C9.65685 2 11 3.34315 11 5V6C11.5523 6 12 5.55228 12 5C12 4.44772 12.4477 4 13 4C13.5523 4 14 4.44772 14 5C14 6.30622 13.1652 7.41746 12 7.82929V8H13C13.5523 8 14 8.44772 14 9C14 9.55228 13.5523 10 13 10H12V10.1707C13.1652 10.5825 14 11.6938 14 13C14 13.5523 13.5523 14 13 14C12.4477 14 12 13.5523 12 13C12 12.5946 11.7588 12.2456 11.4121 12.0886Z" fill="#9AA2FC"/>
<path d="M7 5C7 4.44772 7.44772 4 8 4C8.55228 4 9 4.44772 9 5V6H7V5Z" fill="#2E3247"/>
<path d="M6 8H10V10C10 11.1046 9.10457 12 8 12C6.89543 12 6 11.1046 6 10V8Z" fill="#2E3247"/>
</svg>
