<svg width="16" height="16" viewBox="0 0 16 16" fill="none" xmlns="http://www.w3.org/2000/svg">
<path d="M2 13V3C2 1.89543 2.89543 1 4 1H10.1716C10.702 1 11.2107 1.21071 11.5858 1.58579L13.4142 3.41421C13.7893 3.78929 14 4.29799 14 4.82843V13C14 14.1046 13.1046 15 12 15H4C2.89543 15 2 14.1046 2 13Z" fill="#D0D2E0" class="icon-light"/>
<path d="M8 5V11M8 11L10 9M8 11L6 9M14 4.82843V13C14 14.1046 13.1046 15 12 15H4C2.89543 15 2 14.1046 2 13V3C2 1.89543 2.89543 1 4 1H10.1716C10.702 1 11.2107 1.21071 11.5858 1.58579L13.4142 3.41421C13.7893 3.78929 14 4.29799 14 4.82843Z" stroke="#1B1E2E" stroke-width="2" stroke-linecap="round" stroke-linejoin="round"/>
</svg>
