<svg width="24" height="24" viewBox="0 0 24 24" fill="none" xmlns="http://www.w3.org/2000/svg">
<path d="M6 22C4.89543 22 4 21.1046 4 20V4C4 2.89543 4.89543 2 6 2H12.7574C13.553 2 14.3161 2.31607 14.8787 2.87868L19.1213 7.12132C19.6839 7.68393 20 8.44699 20 9.24264V20C20 21.1046 19.1046 22 18 22H6Z" fill="#D0D2E0" class="icon-light"/>
<path d="M12 8.84375V12.0032M12 12.0032L15.0018 11.0247M12 12.0032L13.8552 14.5535M12 12.0032L10.1448 14.5535M12 12.0032L8.99823 11.0247M20 9.24264V20C20 21.1046 19.1046 22 18 22H6C4.89543 22 4 21.1046 4 20V4C4 2.89543 4.89543 2 6 2H12.7574C13.553 2 14.3161 2.31607 14.8787 2.87868L19.1213 7.12132C19.6839 7.68393 20 8.44699 20 9.24264Z" stroke="#1B1E2E" stroke-width="2" stroke-linecap="round" stroke-linejoin="round" class="icon-dark"/>
</svg>
