<svg width="16" height="16" viewBox="0 0 16 16" fill="none" xmlns="http://www.w3.org/2000/svg">
<path d="M3 15C2.44772 15 2 14.5523 2 14V2C2 1.44772 2.44772 1 3 1L13 1C13.5523 1 14 1.44772 14 2V14C14 14.5523 13.5523 15 13 15H3Z" fill="#D0D2E0" class="icon-light"/>
<path d="M6 6.5H10M8 8.5V4.5M6 11.5H10M13 1L3 1C2.44772 1 2 1.44772 2 2V14C2 14.5523 2.44772 15 3 15H13C13.5523 15 14 14.5523 14 14V2C14 1.44772 13.5523 1 13 1Z" stroke="#1B1E2E" stroke-width="2" stroke-linecap="round" stroke-linejoin="round" class="icon-dark"/>
</svg>
