<svg width="24" height="24" viewBox="0 0 24 24" fill="none" xmlns="http://www.w3.org/2000/svg">
<path fill-rule="evenodd" clip-rule="evenodd" d="M10 1C9.73481 1.00006 9.48049 1.10545 9.293 1.293L3.293 7.293C3.10545 7.48049 3.00006 7.73481 3 8V20C3 20.7956 3.31607 21.5587 3.87868 22.1213C4.44129 22.6839 5.20435 23 6 23H7C7.26522 23 7.51957 22.8946 7.70711 22.7071C7.89464 22.5196 8 22.2652 8 22C8 21.7348 7.89464 21.4804 7.70711 21.2929C7.51957 21.1054 7.26522 21 7 21H6C5.73478 21 5.48043 20.8946 5.29289 20.7071C5.10536 20.5196 5 20.2652 5 20V9H10C10.2652 9 10.5196 8.89464 10.7071 8.70711C10.8946 8.51957 11 8.26522 11 8V3H18C18.2652 3 18.5196 3.10536 18.7071 3.29289C18.8946 3.48043 19 3.73478 19 4V9C19 9.26522 19.1054 9.51957 19.2929 9.70711C19.4804 9.89464 19.7348 10 20 10C20.2652 10 20.5196 9.89464 20.7071 9.70711C20.8946 9.51957 21 9.26522 21 9V4C21 3.20435 20.6839 2.44129 20.1213 1.87868C19.5587 1.31607 18.7956 1 18 1H10ZM9 7H6.414L9 4.414V7ZM11 12C10.7348 12 10.4804 12.1054 10.2929 12.2929C10.1054 12.4804 10 12.7348 10 13V21C10 21.2652 10.1054 21.5196 10.2929 21.7071C10.4804 21.8946 10.7348 22 11 22H21C21.2652 22 21.5196 21.8946 21.7071 21.7071C21.8946 21.5196 22 21.2652 22 21V13C22 12.7348 21.8946 12.4804 21.7071 12.2929C21.5196 12.1054 21.2652 12 21 12H11ZM12 16V14H14V16H12ZM16 16V14H20V16H16ZM16 20V18H20V20H16ZM14 18V20H12V18H14Z" class="icon-dark" fill="#1B1E2E"/>
</svg>
