<svg width="24" height="24" viewBox="0 0 24 24" fill="none" xmlns="http://www.w3.org/2000/svg">
<path d="M4 1H17C18.6569 1 20 2.34315 20 4V19M4 1H3C1.89543 1 1 1.89543 1 3V3C1 4.10457 1.89543 5 3 5H4M4 1V5M11 6H16M11 10H16M11 14H16M4 5V20C4 21.6569 5.34315 23 7 23V23M20 19H21C22.1046 19 23 19.8954 23 21V21C23 22.1046 22.1046 23 21 23H20H7M20 19H7V19C8.10457 20.1046 8.10457 21.8954 7 23V23" stroke="#1B1E2E" class="icon-dark" stroke-width="2" stroke-linecap="round" stroke-linejoin="round"/>
<path d="M9 6C9 6.55228 8.55228 7 8 7C7.44772 7 7 6.55228 7 6C7 5.44772 7.44772 5 8 5C8.55228 5 9 5.44772 9 6Z" fill="#1B1E2E" class="icon-dark"/>
<path d="M9 10C9 10.5523 8.55228 11 8 11C7.44772 11 7 10.5523 7 10C7 9.44772 7.44772 9 8 9C8.55228 9 9 9.44772 9 10Z" fill="#1B1E2E" class="icon-dark"/>
<path d="M9 14C9 14.5523 8.55228 15 8 15C7.44772 15 7 14.5523 7 14C7 13.4477 7.44772 13 8 13C8.55228 13 9 13.4477 9 14Z" fill="#1B1E2E" class="icon-dark"/>
</svg>
