<svg width="80" height="80" viewBox="0 0 80 80" fill="none" xmlns="http://www.w3.org/2000/svg">
    <path d="M55 33V32M26 56H24C22.3431 56 21 54.6569 21 53V52M55 28V27C55 25.3431 53.6569 24 52 24H51M21 28V27C21 25.3431 22.3431 24 24 24H25M21 48L21 45.5M21 41.5V38.5M21 34.5L21 32M29 24H32.5M36.5 24H39.5M43.5 24H47" stroke="rgba(0,0,0,0.2)" class="icon-dark" stroke-width="2" stroke-linecap="round" stroke-linejoin="round" />
    <path d="M42.5858 33.5858C42.2107 33.2107 41.702 33 41.1716 33L30 33C29.4477 33 29 33.4477 29 34V39H41.1716C41.702 39 42.2107 38.7893 42.5858 38.4142L45 36L42.5858 33.5858Z" fill="#69D3A7" class="icon-light" />
    <path class="icon-dark" d="M29 39H28H29ZM42.5858 38.4142L43.2929 39.1214L42.5858 38.4142ZM41.1716 33V32V33ZM42.5858 33.5858L43.2929 32.8787V32.8787L42.5858 33.5858ZM30 33V34V33ZM40.7071 46.7071C41.0976 46.3166 41.0976 45.6834 40.7071 45.2929C40.3166 44.9024 39.6834 44.9024 39.2929 45.2929L40.7071 46.7071ZM37.5 48.5L36.7929 47.7929C36.4024 48.1834 36.4024 48.8166 36.7929 49.2071L37.5 48.5ZM39.2929 51.7071C39.6834 52.0976 40.3166 52.0976 40.7071 51.7071C41.0976 51.3166 41.0976 50.6834 40.7071 50.2929L39.2929 51.7071ZM48.7071 45.2929C48.3166 44.9024 47.6834 44.9024 47.2929 45.2929C46.9024 45.6834 46.9024 46.3166 47.2929 46.7071L48.7071 45.2929ZM50.5 48.5L51.2071 49.2071C51.5976 48.8166 51.5976 48.1834 51.2071 47.7929L50.5 48.5ZM47.2929 50.2929C46.9024 50.6834 46.9024 51.3166 47.2929 51.7071C47.6834 52.0976 48.3166 52.0976 48.7071 51.7071L47.2929 50.2929ZM42.0238 52.7831C41.904 53.3222 42.2439 53.8564 42.7831 53.9762C43.3222 54.096 43.8564 53.7561 43.9762 53.2169L42.0238 52.7831ZM45.9762 44.2169C46.096 43.6778 45.7561 43.1436 45.2169 43.0238C44.6778 42.904 44.1436 43.2439 44.0238 43.7831L45.9762 44.2169ZM58 38V57H60V38H58ZM57 58H31V60H57V58ZM30 34H41.1716V32H30V34ZM41.8787 34.2929L44.2929 36.7071L45.7071 35.2929L43.2929 32.8787L41.8787 34.2929ZM45 37H57V35H45V37ZM44.2929 35.2929L41.8787 37.7071L43.2929 39.1214L45.7071 36.7071L44.2929 35.2929ZM30 57V39H28V57H30ZM30 39V34H28V39H30ZM41.1716 38H29V40H41.1716V38ZM41.8787 37.7071C41.6911 37.8947 41.4368 38 41.1716 38V40C41.9672 40 42.7303 39.684 43.2929 39.1214L41.8787 37.7071ZM41.1716 34C41.4368 34 41.6911 34.1054 41.8787 34.2929L43.2929 32.8787C42.7303 32.3161 41.9672 32 41.1716 32V34ZM31 58C30.4477 58 30 57.5523 30 57H28C28 58.6569 29.3431 60 31 60V58ZM58 57C58 57.5523 57.5523 58 57 58V60C58.6569 60 60 58.6569 60 57H58ZM60 38C60 36.3432 58.6569 35 57 35V37C57.5523 37 58 37.4477 58 38H60ZM30 32C28.8954 32 28 32.8955 28 34H30V34V32ZM39.2929 45.2929L36.7929 47.7929L38.2071 49.2071L40.7071 46.7071L39.2929 45.2929ZM36.7929 49.2071L39.2929 51.7071L40.7071 50.2929L38.2071 47.7929L36.7929 49.2071ZM47.2929 46.7071L49.7929 49.2071L51.2071 47.7929L48.7071 45.2929L47.2929 46.7071ZM49.7929 47.7929L47.2929 50.2929L48.7071 51.7071L51.2071 49.2071L49.7929 47.7929ZM43.9762 53.2169L45.9762 44.2169L44.0238 43.7831L42.0238 52.7831L43.9762 53.2169Z" fill="#00814D" />
</svg>