<svg width="16" height="16" viewBox="0 0 16 16" fill="none" xmlns="http://www.w3.org/2000/svg">
<path d="M10 8C10 9.10457 9.10457 10 8 10C6.89543 10 6 9.10457 6 8C6 6.89543 6.89543 6 8 6C9.10457 6 10 6.89543 10 8Z" fill="#D0D2E0" class="icon-light"/>
<path fill-rule="evenodd" clip-rule="evenodd" d="M10 8C10 9.10457 9.10457 10 8 10C6.89543 10 6 9.10457 6 8C6 6.89543 6.89543 6 8 6C9.10457 6 10 6.89543 10 8Z" fill="#D0D2E0" class="icon-light"/>
<path d="M1 8L0.0715233 7.62861C-0.0238411 7.86702 -0.0238411 8.13298 0.0715233 8.37139L1 8ZM15 8L15.9285 8.37139C16.0238 8.13298 16.0238 7.86702 15.9285 7.62861L15 8ZM1 8C1.92848 8.37139 1.92833 8.37176 1.92819 8.37212C1.92815 8.37221 1.92801 8.37254 1.92794 8.37273C1.92779 8.3731 1.92767 8.3734 1.92758 8.37362C1.9274 8.37407 1.92733 8.37423 1.92739 8.37409C1.9275 8.37382 1.92808 8.3724 1.92914 8.36985C1.93126 8.36475 1.93529 8.35519 1.94124 8.34145C1.95315 8.31397 1.97274 8.26989 2.00023 8.21158C2.05528 8.0948 2.14154 7.92194 2.26065 7.71176C2.49998 7.28941 2.86562 6.72749 3.36829 6.16896C4.37225 5.05346 5.87198 4 8 4V2C5.12802 2 3.12775 3.44654 1.88171 4.83104C1.25938 5.52251 0.812522 6.21059 0.520603 6.72574C0.37408 6.98431 0.265031 7.20208 0.191177 7.35874C0.154214 7.43715 0.125954 7.50048 0.106126 7.54624C0.0962087 7.56913 0.0883902 7.58764 0.0826368 7.60146C0.0797598 7.60838 0.0773981 7.61412 0.0755476 7.61866C0.0746223 7.62093 0.0738246 7.62289 0.0731541 7.62455C0.0728189 7.62538 0.0725154 7.62614 0.0722436 7.62681C0.0721079 7.62715 0.0719274 7.6276 0.0718597 7.62777C0.0716876 7.6282 0.0715233 7.62861 1 8ZM8 4C10.128 4 11.6278 5.05346 12.6317 6.16896C13.1344 6.72749 13.5 7.28941 13.7394 7.71176C13.8585 7.92194 13.9447 8.0948 13.9998 8.21158C14.0273 8.26989 14.0469 8.31397 14.0588 8.34145C14.0647 8.35519 14.0687 8.36475 14.0709 8.36985C14.0719 8.3724 14.0725 8.37382 14.0726 8.37409C14.0727 8.37423 14.0726 8.37407 14.0724 8.37362C14.0723 8.3734 14.0722 8.3731 14.0721 8.37273C14.072 8.37254 14.0719 8.37221 14.0718 8.37212C14.0717 8.37176 14.0715 8.37139 15 8C15.9285 7.62861 15.9283 7.6282 15.9281 7.62777C15.9281 7.6276 15.9279 7.62715 15.9278 7.62681C15.9275 7.62614 15.9272 7.62538 15.9268 7.62455C15.9262 7.62289 15.9254 7.62093 15.9245 7.61866C15.9226 7.61412 15.9202 7.60838 15.9174 7.60146C15.9116 7.58764 15.9038 7.56913 15.8939 7.54624C15.874 7.50048 15.8458 7.43715 15.8088 7.35874C15.735 7.20208 15.6259 6.98431 15.4794 6.72574C15.1875 6.21059 14.7406 5.52251 14.1183 4.83104C12.8722 3.44654 10.872 2 8 2V4ZM15 8C14.0715 7.62861 14.0717 7.62824 14.0718 7.62788C14.0719 7.62779 14.072 7.62746 14.0721 7.62727C14.0722 7.6269 14.0723 7.6266 14.0724 7.62638C14.0726 7.62593 14.0727 7.62577 14.0726 7.62591C14.0725 7.62618 14.0719 7.6276 14.0709 7.63015C14.0687 7.63525 14.0647 7.64481 14.0588 7.65855C14.0469 7.68603 14.0273 7.73011 13.9998 7.78842C13.9447 7.9052 13.8585 8.07806 13.7394 8.28824C13.5 8.71059 13.1344 9.27251 12.6317 9.83104C11.6278 10.9465 10.128 12 8 12V14C10.872 14 12.8722 12.5535 14.1183 11.169C14.7406 10.4775 15.1875 9.78941 15.4794 9.27426C15.6259 9.01569 15.735 8.79792 15.8088 8.64126C15.8458 8.56285 15.874 8.49952 15.8939 8.45376C15.9038 8.43087 15.9116 8.41236 15.9174 8.39854C15.9202 8.39162 15.9226 8.38588 15.9245 8.38134C15.9254 8.37907 15.9262 8.37711 15.9268 8.37545C15.9272 8.37462 15.9275 8.37386 15.9278 8.37319C15.9279 8.37285 15.9281 8.3724 15.9281 8.37223C15.9283 8.3718 15.9285 8.37139 15 8ZM8 12C5.87198 12 4.37225 10.9465 3.36829 9.83104C2.86562 9.27251 2.49998 8.71059 2.26065 8.28824C2.14154 8.07806 2.05528 7.9052 2.00023 7.78842C1.97274 7.73011 1.95315 7.68603 1.94124 7.65855C1.93529 7.64481 1.93126 7.63525 1.92914 7.63015C1.92808 7.6276 1.9275 7.62618 1.92739 7.62591C1.92733 7.62577 1.9274 7.62593 1.92758 7.62638C1.92767 7.6266 1.92779 7.6269 1.92794 7.62727C1.92801 7.62746 1.92815 7.62779 1.92819 7.62788C1.92833 7.62824 1.92848 7.62861 1 8C0.0715233 8.37139 0.0716876 8.3718 0.0718597 8.37223C0.0719274 8.3724 0.0721079 8.37285 0.0722436 8.37319C0.0725154 8.37386 0.0728189 8.37462 0.0731541 8.37545C0.0738246 8.37711 0.0746223 8.37907 0.0755476 8.38134C0.0773981 8.38588 0.0797598 8.39162 0.0826368 8.39854C0.0883902 8.41236 0.0962087 8.43087 0.106126 8.45376C0.125954 8.49952 0.154214 8.56285 0.191177 8.64126C0.265031 8.79792 0.37408 9.01569 0.520603 9.27426C0.812522 9.78941 1.25938 10.4775 1.88171 11.169C3.12775 12.5535 5.12802 14 8 14V12ZM9 8C9 8.55228 8.55228 9 8 9V11C9.65685 11 11 9.65685 11 8H9ZM8 9C7.44772 9 7 8.55228 7 8H5C5 9.65685 6.34315 11 8 11V9ZM7 8C7 7.44772 7.44772 7 8 7V5C6.34315 5 5 6.34315 5 8H7ZM8 7C8.55228 7 9 7.44772 9 8H11C11 6.34315 9.65685 5 8 5V7Z" fill="#1B1E2E" class="icon-dark"/>
</svg>
