<svg width="16" height="16" viewBox="0 0 16 16" fill="none" xmlns="http://www.w3.org/2000/svg">
<path fill-rule="evenodd" clip-rule="evenodd" d="M10.7035 2.46811C9.906 2.17768 9.00651 2 7.99995 2C5.12798 2 3.12771 3.44654 1.88166 4.83104C1.25934 5.52251 0.812476 6.21059 0.520557 6.72574C0.374034 6.98431 0.264985 7.20208 0.191132 7.35874C0.154168 7.43715 0.125908 7.50048 0.10608 7.54624C0.0961628 7.56913 0.0883443 7.58764 0.082591 7.60146L0.0755017 7.61866L0.0731082 7.62455L0.0721977 7.62681L0.0718138 7.62777C-0.0235506 7.86618 -0.023887 8.13298 0.0714774 8.37139L0.0721977 8.37319L0.0731082 8.37545L0.0755017 8.38134L0.082591 8.39854C0.0883443 8.41236 0.0961628 8.43087 0.10608 8.45376C0.125908 8.49952 0.154168 8.56285 0.191132 8.64126C0.264985 8.79792 0.374034 9.01569 0.520557 9.27426C0.812476 9.78941 1.25934 10.4775 1.88166 11.169C1.90067 11.1901 1.91985 11.2112 1.93921 11.2324L3.35514 9.81643C2.85921 9.26272 2.49785 8.70691 2.2606 8.28824C2.20027 8.18177 2.14836 8.08487 2.10467 8C2.14836 7.91512 2.20027 7.81823 2.2606 7.71176C2.49993 7.28941 2.86557 6.72749 3.36825 6.16896C4.3722 5.05346 5.87193 4 7.99995 4C8.37864 4 8.73744 4.03336 9.07708 4.09449L10.7035 2.46811ZM8.167 5.00457C8.1117 5.00154 8.05601 5 7.99995 5C6.3431 5 4.99995 6.34315 4.99995 8C4.99995 8.05605 5.00149 8.11175 5.00453 8.16705L8.167 5.00457ZM7.83299 10.9954L10.9954 7.83304C10.9984 7.88831 11 7.94397 11 8C11 9.65685 9.65681 11 7.99995 11C7.94393 11 7.88826 10.9985 7.83299 10.9954ZM6.92291 11.9055C7.26253 11.9666 7.62129 12 7.99995 12C10.128 12 11.6277 10.9465 12.6317 9.83104C13.1343 9.27251 13.5 8.71059 13.7393 8.28824C13.7996 8.18177 13.8515 8.08487 13.8952 8C13.8515 7.91512 13.7996 7.81823 13.7393 7.71176C13.5021 7.29311 13.1407 6.73731 12.6448 6.18361L14.0607 4.76769C14.0801 4.78881 14.0993 4.80993 14.1182 4.83104C14.7406 5.52251 15.1874 6.21059 15.4794 6.72574C15.6259 6.98431 15.7349 7.20208 15.8088 7.35874C15.8457 7.43715 15.874 7.50048 15.8938 7.54624C15.9037 7.56913 15.9116 7.58764 15.9173 7.60146L15.9244 7.61866L15.9268 7.62455L15.9281 7.62777L15 8L15.9281 8.37223L15.9268 8.37545L15.9244 8.38134L15.9173 8.39854C15.9116 8.41236 15.9037 8.43087 15.8938 8.45376C15.874 8.49952 15.8457 8.56285 15.8088 8.64126C15.7349 8.79792 15.6259 9.01569 15.4794 9.27426C15.1874 9.78941 14.7406 10.4775 14.1182 11.169C12.8722 12.5535 10.8719 14 7.99995 14C6.99342 14 6.09396 13.8223 5.29651 13.5319L6.92291 11.9055ZM15.9281 8.37223C15.9283 8.3718 15.9284 8.37139 15 8C15.9284 7.62861 15.9283 7.6282 15.9281 7.62777C16.0235 7.86618 16.0235 8.13382 15.9281 8.37223ZM0.0714774 8.37139L0.071474 8.37138C0.0713594 8.37095 0.0783897 8.36863 0.999042 8.00036L0.0714774 8.37139ZM0.999954 8L0.0718138 7.62777C0.0716417 7.6282 0.0714774 7.62861 0.999954 8Z" fill="#1B1E2E" class="icon-dark"/>
<path d="M2.5 13.5L13.5 2.5" class="icon-dark" stroke="#1B1E2E" stroke-linecap="round" stroke-linejoin="round"/>
</svg>
