<svg width="24" height="24" viewBox="0 0 24 24" fill="none" xmlns="http://www.w3.org/2000/svg">
<path d="M0 12C0 5.37258 5.37258 0 12 0C18.6274 0 24 5.37258 24 12C24 18.6274 18.6274 24 12 24C5.37258 24 0 18.6274 0 12Z" fill="#E1E3ED"/>
<path d="M8.46447 15.5355C10.4171 17.4882 13.5829 17.4882 15.5355 15.5355C17.4882 13.5829 17.4882 10.4171 15.5355 8.46447M8.46447 15.5355C6.51184 13.5829 6.51184 10.4171 8.46447 8.46447C10.4171 6.51184 13.5829 6.51184 15.5355 8.46447M8.46447 15.5355L15.5355 8.46447" stroke="#9095AD" stroke-width="2"/>
</svg>
