<svg width="16" height="10" viewBox="0 0 16 10" fill="none" xmlns="http://www.w3.org/2000/svg">
  <path d="M1 7H3V9H1V7Z" fill="#1B1E2E" fill-opacity="0.4" class="icon-dark"/>
  <path d="M1 1H3V3H1V1Z" fill="#1B1E2E" fill-opacity="0.4" class="icon-dark"/>
  <path d="M15 2.99927C15.5523 2.99927 16 2.55155 16 1.99927C16 1.44698 15.5523 0.999268 15 0.999268V2.99927ZM6 0.999268C5.44772 0.999268 5 1.44698 5 1.99927C5 2.55155 5.44772 2.99927 6 2.99927V0.999268ZM15 8.99927C15.5523 8.99927 16 8.55155 16 7.99927C16 7.44698 15.5523 6.99927 15 6.99927V8.99927ZM6 6.99927C5.44772 6.99927 5 7.44698 5 7.99927C5 8.55155 5.44772 8.99927 6 8.99927V6.99927ZM1 3H0C0 3.55228 0.447715 4 1 4L1 3ZM3 1H4C4 0.447715 3.55228 0 3 0V1ZM1 1V0C0.447715 0 0 0.447715 0 1L1 1ZM3 3V4C3.55228 4 4 3.55228 4 3H3ZM1 7V6C0.447715 6 0 6.44772 0 7H1ZM3 7H4C4 6.44772 3.55228 6 3 6V7ZM3 9V10C3.55228 10 4 9.55229 4 9H3ZM1 9H0C0 9.55229 0.447715 10 1 10L1 9ZM15 0.999268H6V2.99927H15V0.999268ZM15 6.99927H6V8.99927H15V6.99927ZM1 8H3V6H1V8ZM2 7V9H4V7H2ZM3 8H1V10H3V8ZM2 9V7H0V9H2ZM1 2H3V0H1V2ZM4 3V1H2V3H4ZM3 2H1V4H3V2ZM2 3V1H0V3H2Z" fill="#1B1E2E" class="icon-dark"/>
</svg>
