<svg width="24" height="24" viewBox="0 0 24 24" fill="none" xmlns="http://www.w3.org/2000/svg">
<path fill-rule="evenodd" clip-rule="evenodd" d="M10.2929 4.29289C10.1054 4.10536 9.851 4 9.58579 4H4C3.44772 4 3 4.44772 3 5V8H9.58579C9.851 8 10.1054 7.89464 10.2929 7.70711L12 6L10.2929 4.29289Z" fill="#D0D2E0" class="icon-light"/>
<path d="M12 6L10.2929 4.29289C10.1054 4.10536 9.851 4 9.58579 4H4C3.44772 4 3 4.44772 3 5V8M12 6H20C20.5523 6 21 6.44772 21 7V19C21 19.5523 20.5523 20 20 20H4C3.44772 20 3 19.5523 3 19V8M12 6L10.2929 7.70711C10.1054 7.89464 9.851 8 9.58579 8H3" stroke="#1B1E2E" stroke-width="2" stroke-linejoin="round" class="icon-dark" />
</svg>
