<svg width="16" height="16" viewBox="0 0 16 16" fill="none" xmlns="http://www.w3.org/2000/svg">
<path d="M8 0C3.58172 0 0 3.58172 0 8C0 12.4183 3.58172 16 8 16C12.4183 16 16 12.4183 16 8C16 3.58172 12.4183 0 8 0Z" fill="#D0D2E0" class="icon-light"/>
<path d="M5.00001 7C5.00001 5.34315 6.34315 4 8 4C9.65686 4 11 5.34315 11 7C11 7.95561 10.5532 8.80686 9.85711 9.35625C11.3991 9.97347 12.562 11.3365 12.8998 12.9992C11.6372 14.2369 9.90773 15 8 15C6.09228 15 4.3628 14.2369 3.10019 12.9992C3.43799 11.3365 4.60091 9.97347 6.1429 9.35625C5.4468 8.80686 5.00001 7.95561 5.00001 7Z" fill="#9095AD" class="icon-light"/>
<path d="M6.1429 9.35625C6.65371 9.7594 7.29876 10 8 10C8.70125 10 9.3463 9.7594 9.85711 9.35625M6.1429 9.35625C5.4468 8.80686 5.00001 7.95561 5.00001 7C5.00001 5.34315 6.34315 4 8 4C9.65686 4 11 5.34315 11 7C11 7.95561 10.5532 8.80686 9.85711 9.35625M6.1429 9.35625C4.60091 9.97347 3.43799 11.3365 3.10019 12.9992C4.3628 14.2369 6.09228 15 8 15C9.90773 15 11.6372 14.2369 12.8998 12.9992C12.562 11.3365 11.3991 9.97347 9.85711 9.35625" stroke="#1B1E2E" stroke-width="2" class="icon-dark"/>
</svg>
