<svg width="16" height="16" viewBox="0 0 16 16" fill="none" xmlns="http://www.w3.org/2000/svg">
<path d="M3 12L3 8L5 8L5 12L3 12ZM3 8L3 4L5 4L5 8L3 8ZM11 6L11 4L13 4L13 6L11 6ZM4 7L10 7L10 9L4 9L4 7ZM12 3L10 3C10 1.89543 10.8954 1 12 1L12 3ZM12 3L12 5C10.8954 5 10 4.10457 10 3L12 3ZM12 3L14 3C14 4.10457 13.1046 5 12 5L12 3ZM12 3L12 1C13.1046 1 14 1.89543 14 3L12 3ZM4 3L2 3C2 1.89543 2.89543 1 4 1L4 3ZM4 3L4 5C2.89543 5 2 4.10457 2 3L4 3ZM4 3L4 3L6 3C6 4.10457 5.10457 5 4 5L4 3ZM4 3L4 3L4 1C5.10457 1 6 1.89543 6 3L4 3ZM4 13L4 13L2 13C2 11.8954 2.89543 11 4 11L4 13ZM4 13L4 15C2.89543 15 2 14.1046 2 13L4 13ZM4 13L4 13L6 13C6 14.1046 5.10457 15 4 15L4 13ZM4 13L4 13L4 11C5.10457 11 6 11.8954 6 13L4 13ZM13 6C13 7.65685 11.6569 9 10 9L10 7C10.5523 7 11 6.55228 11 6L13 6Z" fill="#1B1E2E"/>
</svg>
