<svg width="16" height="16" viewBox="0 0 16 16" fill="none" xmlns="http://www.w3.org/2000/svg">
<path fill-rule="evenodd" clip-rule="evenodd" d="M7.99974 1.00236C4.13453 1.00236 1 4.13637 1 8.00208C1 11.095 3.00546 13.718 5.78682 14.644C6.13691 14.7088 6.26557 14.4918 6.26557 14.3068C6.26557 14.1399 6.2586 13.5885 6.25575 13.0041C4.30818 13.4276 3.89763 12.1778 3.89763 12.1778C3.5793 11.3686 3.12043 11.1534 3.12043 11.1534C2.48536 10.7186 3.16875 10.7281 3.16875 10.7281C3.87151 10.7772 4.2415 11.449 4.2415 11.449C4.86625 12.5192 5.87957 12.2094 6.27874 12.0308C6.34179 11.5784 6.52265 11.2694 6.72313 11.0945C5.16826 10.918 3.53382 10.3176 3.53382 7.63519C3.53382 6.87118 3.8077 6.24646 4.25493 5.75657C4.18209 5.57986 3.94232 4.86831 4.32238 3.90432C4.32238 3.90432 4.91016 3.71598 6.24801 4.62182C6.80608 4.46706 7.40472 4.38903 7.99923 4.38645C8.59423 4.38903 9.19392 4.46679 9.75278 4.62182C11.0888 3.7165 11.6761 3.90432 11.6761 3.90432C12.0567 4.86857 11.8179 5.58063 11.7451 5.75659C12.1939 6.24646 12.4654 6.87118 12.4654 7.63519C12.4654 10.3238 10.8273 10.9149 9.2691 11.0883C9.52025 11.3053 9.74451 11.7314 9.74451 12.384C9.74451 13.3201 9.7365 14.0745 9.7365 14.3047C9.7365 14.491 9.86259 14.7088 10.2176 14.6406C12.9974 13.7141 15.0003 11.0909 15.0003 7.99974C15.0003 4.13453 11.8663 1 8.00026 1L7.99976 1.00234L7.99974 1.00236Z" fill="black" class="icon-dark"/>
</svg>
