<svg width="12" height="12" viewBox="0 0 12 12" fill="none" xmlns="http://www.w3.org/2000/svg">
<path d="M9.85634 2.4375L9.48916 2.77687L9.85634 2.4375ZM2.14366 2.4375L2.51085 2.77687L2.14366 2.4375ZM2.14366 9.5625L2.51085 9.22313L2.14366 9.5625ZM9.85634 9.5625L9.48916 9.22313L9.85634 9.5625ZM7.37726 2.43747L6.90246 2.5942V2.5942L7.37726 2.43747ZM4.62273 2.43747L5.09753 2.5942L4.62273 2.43747ZM4.62273 9.56247L4.14793 9.7192L4.62273 9.56247ZM7.37726 9.56247L7.85206 9.7192L7.37726 9.56247ZM11.25 5.97854L11.75 5.97654L11.25 5.97854ZM0.750043 5.97855L0.250047 5.97654L0.750043 5.97855ZM6 1.25C7.37931 1.25 8.62071 1.83726 9.48916 2.77687L10.2235 2.09813C9.17374 0.962306 7.66968 0.25 6 0.25V1.25ZM2.51085 2.77687C3.37929 1.83726 4.62069 1.25 6 1.25V0.25C4.33032 0.25 2.82626 0.962306 1.77647 2.09813L2.51085 2.77687ZM0.25 6C0.25 7.50569 0.82939 8.87718 1.77648 9.90188L2.51085 9.22313C1.7278 8.37591 1.25 7.24432 1.25 6H0.25ZM6 10.75C4.62069 10.75 3.37929 10.1627 2.51085 9.22313L1.77648 9.90188C2.82626 11.0377 4.33032 11.75 6 11.75V10.75ZM6 11.75C7.66968 11.75 9.17374 11.0377 10.2235 9.90188L9.48916 9.22313C8.62071 10.1627 7.37931 10.75 6 10.75V11.75ZM10.75 6C10.75 7.24432 10.2722 8.37591 9.48916 9.22313L10.2235 9.90188C11.1706 8.87718 11.75 7.50569 11.75 6H10.75ZM8.375 5.99997C8.375 4.58437 8.18126 3.27803 7.85206 2.28074L6.90246 2.5942C7.19117 3.46883 7.375 4.66556 7.375 5.99997H8.375ZM6 1.25C6.05735 1.25 6.18737 1.28347 6.37373 1.51671C6.55646 1.74539 6.74142 2.10635 6.90246 2.5942L7.85206 2.28074C7.67055 1.73087 7.43912 1.2481 7.15497 0.892474C6.87445 0.541404 6.48711 0.25 6 0.25V1.25ZM4.14793 2.28074C3.81873 3.27803 3.62499 4.58437 3.62499 5.99997H4.62499C4.62499 4.66556 4.80882 3.46883 5.09753 2.5942L4.14793 2.28074ZM5.09753 2.5942C5.25857 2.10635 5.44354 1.74539 5.62626 1.51671C5.81263 1.28347 5.94265 1.25 6 1.25V0.25C5.51289 0.25 5.12555 0.541402 4.84503 0.892471C4.56087 1.24809 4.32944 1.73087 4.14793 2.28074L5.09753 2.5942ZM6 10.75C5.94267 10.75 5.81265 10.7165 5.62627 10.4833C5.44354 10.2546 5.25857 9.8936 5.09753 9.40574L4.14793 9.7192C4.32944 10.2691 4.56087 10.7519 4.84502 11.1075C5.12553 11.4586 5.51288 11.75 6 11.75V10.75ZM6 11.75C6.48713 11.75 6.87447 11.4586 7.15498 11.1075C7.43913 10.7519 7.67056 10.2691 7.85206 9.7192L6.90246 9.40575C6.74142 9.8936 6.55645 10.2546 6.37372 10.4833C6.18735 10.7165 6.05734 10.75 6 10.75V11.75ZM11.75 6C11.75 5.99218 11.75 5.98436 11.75 5.97654L10.75 5.98055C10.75 5.98703 10.75 5.99351 10.75 6H11.75ZM11.75 5.97654C11.744 4.48004 11.1657 3.11748 10.2235 2.09813L9.48916 2.77687C10.2681 3.61969 10.745 4.74393 10.75 5.98055L11.75 5.97654ZM1.77647 2.09813C0.834327 3.11748 0.256034 4.48004 0.250047 5.97654L1.25004 5.98055C1.25499 4.74393 1.73186 3.61969 2.51085 2.77687L1.77647 2.09813ZM0.250047 5.97654C0.250016 5.98436 0.25 5.99218 0.25 6H1.25C1.25 5.99351 1.25001 5.98703 1.25004 5.98055L0.250047 5.97654ZM3.62499 5.99997C3.62499 6.23231 3.63021 6.46138 3.64035 6.68634L4.63934 6.64132C4.62988 6.43143 4.62499 6.21737 4.62499 5.99997H3.62499ZM4.09291 7.16162C4.70657 7.21947 5.34489 7.24997 6 7.24997V6.24997C5.37577 6.24997 4.76877 6.2209 4.18677 6.16604L4.09291 7.16162ZM6 7.24997C6.6551 7.24997 7.29343 7.21947 7.90708 7.16162L7.81322 6.16604C7.23122 6.2209 6.62422 6.24997 6 6.24997V7.24997ZM8.35964 6.68634C8.36978 6.46138 8.375 6.23231 8.375 5.99997H7.375C7.375 6.21737 7.37011 6.43143 7.36066 6.64132L8.35964 6.68634ZM7.90708 7.16162C9.20524 7.03924 10.3987 6.7939 11.41 6.45224L11.0899 5.50485C10.1634 5.81789 9.04736 6.04969 7.81322 6.16604L7.90708 7.16162ZM7.36066 6.64132C7.31212 7.71841 7.14355 8.67536 6.90246 9.40575L7.85206 9.7192C8.12782 8.8838 8.30795 7.83337 8.35964 6.68634L7.36066 6.64132ZM4.18677 6.16604C2.95264 6.04969 1.83665 5.81789 0.91008 5.50485L0.590006 6.45224C1.60127 6.79389 2.79476 7.03924 4.09291 7.16162L4.18677 6.16604ZM3.64035 6.68634C3.69204 7.83337 3.87217 8.8838 4.14793 9.7192L5.09753 9.40574C4.85644 8.67536 4.68787 7.71841 4.63934 6.64132L3.64035 6.68634ZM0.250044 5.97755L0.250001 5.999L1.25 6.001L1.25004 5.97955L0.250044 5.97755ZM11.75 5.999L11.75 5.97754L10.75 5.97954L10.75 6.001L11.75 5.999Z" fill="#9AA2FC"/>
</svg>
