<svg width="16" height="16" viewBox="0 0 16 16" fill="none" xmlns="http://www.w3.org/2000/svg">
<path d="M6.82489 6.84375C7.20878 7.37466 6.80705 7.64512 6.2982 7.98769C5.83364 8.30045 5.27979 8.67332 5.15302 9.35938C5.00805 10.1439 5.28125 10.9219 6.32812 11.4375C6.56597 11.5546 6.50949 12.7308 6.45832 13.7964C6.44049 14.1678 6.4233 14.5258 6.41944 14.8208C6.48106 14.835 6.54298 14.8484 6.60521 14.861C8.64877 14.0046 10.0688 12.7787 10.7969 11.1406C11.2188 9.98438 10.3906 8.64062 9.48438 8.1875C9.03125 6.25 11.1094 6.70312 11.6719 6.84375C11.8387 6.84375 11.7942 6.65067 11.7265 6.35632C11.6166 5.87867 11.4452 5.13434 12.0156 4.51562C12.4404 4.05487 13.0142 3.5235 13.2197 3.33573C11.9379 1.90225 10.0743 1 8 1C7.18411 1 6.40082 1.13959 5.67271 1.39618C4.4022 4.78576 5.05965 5.34405 6.57478 6.63067C6.65575 6.69944 6.73918 6.77028 6.82489 6.84375Z" fill="#D0D2E0" class="icon-light" />
<path fill-rule="evenodd" clip-rule="evenodd" d="M6.60521 14.861C6.54298 14.8484 6.48106 14.835 6.41944 14.8208C6.4233 14.5258 6.44049 14.1678 6.45832 13.7964C6.50949 12.7308 6.56597 11.5546 6.32812 11.4375C5.28125 10.9219 5.00805 10.1439 5.15302 9.35938C5.27979 8.67332 5.83364 8.30045 6.2982 7.98769C6.80705 7.64512 7.20878 7.37466 6.82489 6.84375C6.73918 6.77028 6.65575 6.69944 6.57478 6.63067C5.05965 5.34405 4.4022 4.78576 5.67271 1.39618C6.40082 1.13959 7.18411 1 8 1C10.0743 1 11.9379 1.90225 13.2197 3.33573C13.0142 3.5235 12.4404 4.05487 12.0156 4.51562C11.4452 5.13434 11.6166 5.87867 11.7265 6.35632C11.7942 6.65067 11.8387 6.84375 11.6719 6.84375C11.1094 6.70312 9.03125 6.25 9.48438 8.1875C10.3906 8.64062 11.2188 9.98438 10.7969 11.1406C10.0688 12.7787 8.64877 14.0046 6.60521 14.861Z" fill="#D0D2E0"  class="icon-light" />
<path d="M5.67271 1.39618C2.95077 2.35543 1 4.9499 1 8C1 11.3224 3.31469 14.1043 6.41944 14.8208M5.67271 1.39618C6.40082 1.13959 7.18411 1 8 1C10.0743 1 11.9379 1.90225 13.2197 3.33573M5.67271 1.39618C4.4022 4.78576 5.05965 5.34405 6.57478 6.63067C6.65575 6.69944 6.73918 6.77028 6.82489 6.84375C7.20878 7.37466 6.80705 7.64512 6.2982 7.98769C5.83364 8.30045 5.27979 8.67332 5.15302 9.35938C5.00805 10.1439 5.28125 10.9219 6.32812 11.4375C6.56597 11.5546 6.50949 12.7308 6.45832 13.7964C6.44049 14.1678 6.4233 14.5258 6.41944 14.8208M13.2197 3.33573C13.0142 3.5235 12.4404 4.05487 12.0156 4.51562C11.4452 5.13434 11.6166 5.87867 11.7265 6.35632C11.7942 6.65067 11.8387 6.84375 11.6719 6.84375C11.1094 6.70312 9.03125 6.25 9.48438 8.1875C10.3906 8.64062 11.2188 9.98438 10.7969 11.1406C10.0688 12.7787 8.64877 14.0046 6.60521 14.861M13.2197 3.33573C14.3269 4.57387 15 6.20833 15 8C15 11.866 11.866 15 8 15C7.52239 15 7.05595 14.9522 6.60521 14.861M6.60521 14.861C6.54298 14.8484 6.48106 14.835 6.41944 14.8208" stroke="#1B1E2E" stroke-width="2" class="icon-dark"/>
</svg>
