<svg width="121" height="120" viewBox="0 0 121 120" fill="none" xmlns="http://www.w3.org/2000/svg">
<path d="M60.3333 116C91.2612 116 116.333 90.928 116.333 60C116.333 29.0721 91.2612 4 60.3333 4C29.4053 4 4.33325 29.0721 4.33325 60C4.33325 90.928 29.4053 116 60.3333 116Z" fill="#C2F1DE"/>
<path d="M60.3332 103C84.0815 103 103.333 83.7483 103.333 60C103.333 36.2518 84.0815 17 60.3332 17C36.585 17 17.3333 36.2518 17.3333 60C17.3333 83.7483 36.585 103 60.3332 103Z" fill="#69D3A7"/>
<path d="M72.7703 59.9579C72.7703 62.4544 72.031 64.895 70.646 66.9708C69.2609 69.0466 67.2922 70.6647 64.9889 71.6201C62.6856 72.5755 60.1513 72.8252 57.7061 72.3382C55.261 71.8511 53.0149 70.6489 51.252 68.8836C49.4892 67.1182 48.2888 64.8693 47.8024 62.4207C47.316 59.9721 47.5656 57.4343 48.5197 55.1278C49.4737 52.8213 51.0893 50.8496 53.1622 49.4626C55.2351 48.0756 57.6722 47.3352 60.1652 47.3352C63.5083 47.3352 66.7144 48.6655 69.0783 51.0327C71.4422 53.3999 72.7703 56.6101 72.7703 59.9579ZM90.3333 65.3437V54.5305C90.3333 54.1399 90.1783 53.765 89.9025 53.4888C89.6268 53.2127 89.2527 53.0579 88.8626 53.0579H82.9383C82.4743 51.6063 81.8839 50.1984 81.1736 48.8503L85.3753 44.6428C85.6381 44.3557 85.7838 43.9803 85.7838 43.5909C85.7838 43.2014 85.6381 42.8261 85.3753 42.539L77.6022 34.9652C77.3224 34.7049 76.9546 34.5604 76.5728 34.5604C76.1909 34.5604 75.8232 34.7049 75.5434 34.9652L71.3417 39.1727C70.0081 38.4244 68.5998 37.8178 67.14 37.3632V31.4731C67.14 31.0825 66.9851 30.7076 66.7093 30.4314C66.4335 30.1553 66.0594 30 65.6694 30H54.8711C54.6779 30 54.4867 30.0385 54.3083 30.1125C54.1299 30.1865 53.9677 30.2947 53.8311 30.4314C53.6946 30.5682 53.5863 30.7304 53.5124 30.9091C53.4385 31.0878 53.4004 31.2797 53.4004 31.4731V37.3632C51.9406 37.8178 50.5324 38.4244 49.1988 39.1727L44.9971 34.9652C44.7173 34.7049 44.3496 34.5604 43.9677 34.5604C43.5858 34.5604 43.2181 34.7049 42.9383 34.9652L35.2912 42.6227C35.1515 42.7598 35.0404 42.9239 34.9646 43.1045C34.8888 43.2851 34.8499 43.4787 34.8499 43.6746C34.8499 43.8705 34.8888 44.0646 34.9646 44.2452C35.0404 44.4259 35.1515 44.5894 35.2912 44.7265L39.4929 48.9341C38.7659 50.2741 38.1748 51.6837 37.7283 53.1416H31.8039C31.4138 53.1416 31.0397 53.2969 30.764 53.5731C30.4882 53.8493 30.3333 54.2241 30.3333 54.6147V65.4279C30.3333 65.8185 30.4882 66.1929 30.764 66.469C31.0397 66.7452 31.4138 66.9005 31.8039 66.9005H37.7283C38.1771 68.3576 38.7681 69.7669 39.4929 71.108L35.2912 75.3156C35.1527 75.4491 35.0426 75.6095 34.9673 75.7866C34.892 75.9637 34.8532 76.1539 34.8532 76.3465C34.8532 76.539 34.892 76.7297 34.9673 76.9068C35.0426 77.0839 35.1527 77.2438 35.2912 77.3773L42.9383 85.0354C43.0716 85.1741 43.2315 85.2841 43.4084 85.3594C43.5853 85.4348 43.7755 85.474 43.9677 85.474C44.1599 85.474 44.3503 85.4348 44.5271 85.3594C44.704 85.2841 44.8638 85.1741 44.9971 85.0354L49.1988 80.8278C50.5404 81.5597 51.947 82.1651 53.4004 82.6367V88.5275C53.4004 88.7208 53.4385 88.9122 53.5124 89.0909C53.5863 89.2696 53.6946 89.4323 53.8311 89.5691C53.9677 89.7058 54.1299 89.814 54.3083 89.888C54.4867 89.962 54.6779 90 54.8711 90H65.6694C66.0594 90 66.4335 89.8452 66.7093 89.5691C66.9851 89.2929 67.14 88.918 67.14 88.5275V82.6367C68.5934 82.1651 70 81.5597 71.3417 80.8278L75.5434 85.0354C75.6767 85.1741 75.8364 85.2841 76.0133 85.3594C76.1902 85.4348 76.3805 85.474 76.5728 85.474C76.765 85.474 76.9552 85.4348 77.1321 85.3594C77.309 85.2841 77.4689 85.1741 77.6022 85.0354L85.2493 77.3773C85.5091 77.0971 85.6535 76.7289 85.6535 76.3465C85.6535 75.964 85.5091 75.5958 85.2493 75.3156L81.0476 71.108C81.7559 69.7591 82.3462 68.3513 82.8122 66.9005H88.7366C88.937 66.9008 89.1354 66.86 89.3195 66.7808C89.5036 66.7016 89.6697 66.5855 89.8074 66.4398C89.9451 66.294 90.0516 66.1218 90.1204 65.9333C90.1892 65.7448 90.2187 65.544 90.2072 65.3437H90.3333Z" fill="#00595D"/>
</svg>
