<svg width="120" height="120" viewBox="0 0 120 120" fill="none" xmlns="http://www.w3.org/2000/svg">
<rect x="17" y="8" width="86" height="104" rx="4" fill="#C2F1DE"/>
<path d="M95 16H72V24H95V16Z" fill="#69D3A7"/>
<circle cx="37" cy="62" r="20" fill="#69D3A7"/>
<path d="M57.9373 76.9887L51.9715 82.9565L63.9031 94.8921L69.869 88.9243L57.9373 76.9887Z" fill="#00595D"/>
<path d="M58.764 95.306L70.3128 83.7533L90.2201 103.667C90.7194 104.167 91 104.844 91 105.55C91 106.257 90.7193 106.934 90.22 107.433L82.4357 115.22C81.9365 115.719 81.2598 116 80.5538 116C79.8478 116 79.1705 115.719 78.6713 115.22L58.764 95.306Z" fill="#00595D"/>
<path d="M57.2835 40.6398C61.4069 44.7602 64.2159 50.0116 65.3552 55.7293C66.4944 61.4471 65.9128 67.3744 63.6838 72.7615C61.4548 78.1485 57.6787 82.7535 52.833 85.9933C47.9874 89.233 42.29 90.9621 36.4617 90.9621C30.6334 90.9621 24.9361 89.233 20.0905 85.9933C15.2449 82.7535 11.4687 78.1485 9.23974 72.7615C7.01076 67.3744 6.42908 61.4471 7.56835 55.7293C8.70763 50.0116 11.5166 44.7602 15.64 40.6398C18.3724 37.901 21.6179 35.7282 25.1907 34.2456C28.7636 32.7631 32.5936 32 36.4617 32C40.3297 32 44.1599 32.7631 47.7328 34.2456C51.3057 35.7282 54.5512 37.901 57.2835 40.6398ZM23.2197 48.1771C20.6018 50.7968 18.8193 54.1341 18.0973 57.7672C17.3754 61.4003 17.7465 65.166 19.1639 68.5881C20.5812 72.0102 22.9811 74.9348 26.0601 76.9926C29.139 79.0504 32.7588 80.1489 36.4617 80.1489C40.1646 80.1489 43.7845 79.0504 46.8634 76.9926C49.9424 74.9348 52.3423 72.0102 53.7597 68.5881C55.177 65.166 55.5481 61.4003 54.8262 57.7672C54.1043 54.1341 52.3217 50.7968 49.7038 48.1771C47.9651 46.4372 45.9006 45.0573 43.6285 44.1156C41.3564 43.1739 38.9211 42.6892 36.4617 42.6892C34.0023 42.6892 31.5671 43.1739 29.295 44.1156C27.023 45.0573 24.9585 46.4372 23.2197 48.1771Z" fill="#00595D"/>
</svg>
