<svg width="121" height="120" viewBox="0 0 121 120" fill="none" xmlns="http://www.w3.org/2000/svg">
<path d="M13.6665 32C11.4574 32 9.6665 33.7909 9.6665 36V112H43.6665V36C43.6665 33.7909 41.8756 32 39.6665 32H13.6665Z" fill="#C2F1DE"/>
<path d="M47.6655 53C45.4564 53 43.6655 54.7909 43.6655 57V112H77.6655C77.6655 89.3725 77.6655 66.1093 77.6655 56.9991C77.6655 54.79 75.8747 53 73.6655 53H47.6655Z" fill="#69D3A7"/>
<path d="M81.6655 8C79.4564 8 77.6655 9.79086 77.6655 12V112H111.666C111.666 69.2426 111.666 25.1974 111.666 11.9784C111.666 9.76931 109.875 8 107.666 8H81.6655Z" fill="#00595D"/>
</svg>
