<svg width="20" height="20" viewBox="0 0 20 20" fill="none" xmlns="http://www.w3.org/2000/svg">
<path class="icon-dark" d="M11 13V12H9V13H11ZM9 7V8H11V7H9ZM5.5 9C3.567 9 2 7.433 2 5.5H0C0 8.53757 2.46243 11 5.5 11V9ZM2 5.5C2 3.567 3.567 2 5.5 2V0C2.46243 0 0 2.46243 0 5.5H2ZM5.5 2C7.433 2 9 3.567 9 5.5H11C11 2.46243 8.53757 0 5.5 0V2ZM18 14.5C18 16.433 16.433 18 14.5 18V20C17.5376 20 20 17.5376 20 14.5H18ZM14.5 18C12.567 18 11 16.433 11 14.5H9C9 17.5376 11.4624 20 14.5 20V18ZM14.5 11C16.433 11 18 12.567 18 14.5H20C20 11.4624 17.5376 9 14.5 9V11ZM14.5 9H5.5V11H14.5V9ZM11 14.5V13H9V14.5H11ZM9 5.5V7H11V5.5H9Z" fill="#1B1E2E"/>
</svg>
