<svg width="16" height="16" viewBox="0 0 16 16" fill="none" xmlns="http://www.w3.org/2000/svg">
<path fill-rule="evenodd" clip-rule="evenodd" d="M8 1C11.866 1 15 4.13401 15 8H11C11 6.34315 9.65685 5 8 5V1ZM5 8H1C1 11.866 4.13401 15 8 15V11C6.34315 11 5 9.65685 5 8Z" fill="#C5C9FD" class="icon-light"/>
<path d="M15 8C15 11.866 11.866 15 8 15M15 8C15 4.13401 11.866 1 8 1M15 8H11M8 15C4.13401 15 1 11.866 1 8M8 15V11M1 8C1 4.13401 4.13401 1 8 1M1 8H5M8 1V5M11 8C11 9.65685 9.65685 11 8 11M11 8C11 6.34315 9.65685 5 8 5M8 11C6.34315 11 5 9.65685 5 8M5 8C5 6.34315 6.34315 5 8 5" stroke="#4956E3" class="icon-dark" stroke-width="2"/>
</svg>
