<svg width="48" height="48" viewBox="0 0 48 48" fill="none" xmlns="http://www.w3.org/2000/svg">
<path d="M18.5858 8.58579C18.2107 8.21071 17.702 8 17.1716 8H6C5.44772 8 5 8.44772 5 9V14H17.1716C17.702 14 18.2107 13.7893 18.5858 13.4142L21 11L18.5858 8.58579Z" fill="#D0D2E0" class="icon-light"/>
<path d="M18.5858 13.4142L19.2929 14.1213L18.5858 13.4142ZM17.1716 8V9V8ZM18.5858 8.58579L19.2929 7.87868V7.87868L18.5858 8.58579ZM5 38H4H5ZM6 8V7V8ZM42 13V38H44V13H42ZM41 39H7V41H41V39ZM6 9H17.1716V7H6V9ZM17.8787 9.29289L20.2929 11.7071L21.7071 10.2929L19.2929 7.87868L17.8787 9.29289ZM21 12H41V10H21V12ZM20.2929 10.2929L17.8787 12.7071L19.2929 14.1213L21.7071 11.7071L20.2929 10.2929ZM6 38V14H4V38H6ZM6 14V9H4V14H6ZM17.1716 13H5V15H17.1716V13ZM17.8787 12.7071C17.6911 12.8946 17.4368 13 17.1716 13V15C17.9672 15 18.7303 14.6839 19.2929 14.1213L17.8787 12.7071ZM17.1716 9C17.4368 9 17.6911 9.10536 17.8787 9.29289L19.2929 7.87868C18.7303 7.31607 17.9672 7 17.1716 7V9ZM7 39C6.44772 39 6 38.5523 6 38H4C4 39.6568 5.34315 41 7 41V39ZM42 38C42 38.5523 41.5523 39 41 39V41C42.6569 41 44 39.6568 44 38H42ZM44 13C44 11.3431 42.6569 10 41 10V12C41.5523 12 42 12.4477 42 13H44ZM6 7C4.89543 7 4 7.89543 4 9H6V7Z" fill="#1B1E2E" class="icon-dark"/>
<path fill-rule="evenodd" clip-rule="evenodd" d="M25 41C25 42.1046 25.8954 43 27 43H35C36.1046 43 37 42.1046 37 41V36C37 34.8954 36.1046 34 35 34H34H28H27C25.8954 34 25 34.8954 25 36V41Z" fill="#69D3A7" class="icon-light-secondary"/>
<path d="M28 34H27C25.8954 34 25 34.8954 25 36V41C25 42.1046 25.8954 43 27 43H35C36.1046 43 37 42.1046 37 41V36C37 34.8954 36.1046 34 35 34H34M28 34V32C28 30.3431 29.3431 29 31 29V29C32.6569 29 34 30.3431 34 32V34M28 34H34M31 38V39" stroke="#00814D" stroke-width="2" stroke-linecap="round" stroke-linejoin="round" class="icon-dark-secondary"/>
</svg>
