<svg width="16" height="16" viewBox="0 0 16 16" fill="none" xmlns="http://www.w3.org/2000/svg">
<path d="M12 6C12 8.20914 10.2091 10 8 10C5.79086 10 4 8.20914 4 6C4 3.79086 5.79086 2 8 2C10.2091 2 12 3.79086 12 6Z" fill="#E1E3ED" class="icon-light"/>
<path d="M7 14C7 14.5523 7.44772 15 8 15C8.55228 15 9 14.5523 9 14H7ZM7 10V14H9V10H7ZM11 6C11 7.65685 9.65685 9 8 9V11C10.7614 11 13 8.76142 13 6H11ZM8 9C6.34315 9 5 7.65685 5 6H3C3 8.76142 5.23858 11 8 11V9ZM5 6C5 4.34315 6.34315 3 8 3V1C5.23858 1 3 3.23858 3 6H5ZM8 3C9.65685 3 11 4.34315 11 6H13C13 3.23858 10.7614 1 8 1V3Z" fill="currentColor" class="icon-dark"/>
</svg>
