<svg width="24" height="24" viewBox="0 0 24 24" fill="none" xmlns="http://www.w3.org/2000/svg">
<path fill-rule="evenodd" clip-rule="evenodd" d="M2 12.9996C2 7.47679 6.47715 2.99963 12 2.99963C17.5228 2.99963 22 7.47679 22 12.9996C22 16.2713 20.4289 19.176 18 21.0004H6C3.57111 19.176 2 16.2713 2 12.9996ZM12 13.9996C12.5523 13.9996 13 13.5519 13 12.9996C13 12.7235 12.8881 12.4735 12.7071 12.2925C12.5261 12.1116 12.2761 11.9996 12 11.9996C11.4477 11.9996 11 12.4473 11 12.9996C11 13.5519 11.4477 13.9996 12 13.9996Z" fill="#D0D2E0" class="icon-light"/>
<path d="M6 21.0004L5.39942 21.7999C5.57262 21.93 5.78338 22.0004 6 22.0004V21.0004ZM18 21.0004V22.0004C18.2166 22.0004 18.4274 21.93 18.6006 21.7999L18 21.0004ZM11.2929 12.2925C10.9024 12.6831 10.9024 13.3162 11.2929 13.7067C11.6834 14.0973 12.3166 14.0973 12.7071 13.7067L11.2929 12.2925ZM17.7071 8.70674C18.0976 8.31622 18.0976 7.68305 17.7071 7.29253C17.3166 6.902 16.6834 6.902 16.2929 7.29253L17.7071 8.70674ZM3 12.9996C3 8.02907 7.02944 3.99963 12 3.99963V1.99963C5.92487 1.99963 1 6.9245 1 12.9996H3ZM12 3.99963C16.9706 3.99963 21 8.02907 21 12.9996H23C23 6.9245 18.0751 1.99963 12 1.99963V3.99963ZM6.60058 20.2008C4.41232 18.5571 3 15.9435 3 12.9996H1C1 16.5991 2.7299 19.7948 5.39942 21.7999L6.60058 20.2008ZM21 12.9996C21 15.9435 19.5877 18.5571 17.3994 20.2008L18.6006 21.7999C21.2701 19.7948 23 16.5991 23 12.9996H21ZM12 12.9996V14.9996C13.1046 14.9996 14 14.1042 14 12.9996H12ZM12 12.9996H10C10 14.1042 10.8954 14.9996 12 14.9996V12.9996ZM12 12.9996V10.9996C10.8954 10.9996 10 11.8951 10 12.9996H12ZM6 22.0004H18V20.0004H6V22.0004ZM14 12.9996C14 12.4476 13.775 11.9463 13.4142 11.5854L12 12.9996H14ZM13.4142 11.5854C13.0534 11.2246 12.552 10.9996 12 10.9996V12.9996L13.4142 11.5854ZM12.7071 13.7067L13.4142 12.9996L12 11.5854L11.2929 12.2925L12.7071 13.7067ZM13.4142 12.9996L17.7071 8.70674L16.2929 7.29253L12 11.5854L13.4142 12.9996Z" fill="currentColor" class="icon-dark"/>
<path fill-rule="evenodd" clip-rule="evenodd" d="M5.68012 8.09402C6.09073 7.5658 6.56611 7.09041 7.09433 6.6798L7.75731 7.34278C8.14783 7.7333 8.14783 8.36647 7.75731 8.75699C7.36678 9.14752 6.73362 9.14752 6.34309 8.75699L5.68012 8.09402ZM4.06189 13.9996C4.02104 13.672 4 13.3383 4 12.9996C4 12.661 4.02104 12.3272 4.06189 11.9996H5C5.55228 11.9996 6 12.4473 6 12.9996C6 13.5519 5.55228 13.9996 5 13.9996H4.06189ZM19.9381 11.9996C19.979 12.3272 20 12.661 20 12.9996C20 13.3383 19.979 13.672 19.9381 13.9996H19C18.4477 13.9996 18 13.5519 18 12.9996C18 12.4473 18.4477 11.9996 19 11.9996H19.9381ZM13 5.06153V5.99963C13 6.55192 12.5523 6.99963 12 6.99963C11.4477 6.99963 11 6.55192 11 5.99963V5.06153C11.3276 5.02068 11.6613 4.99963 12 4.99963C12.3387 4.99963 12.6724 5.02068 13 5.06153Z" fill="currentColor" class="icon-dark"/>
</svg>
