<svg width="16" height="16" viewBox="0 0 16 16" fill="none" xmlns="http://www.w3.org/2000/svg">
<path d="M5.5 3.5L3.5 5.5L6 8L8 6L5.5 3.5Z" fill="#AFB3C7" class="icon-light"/>
<path d="M5.5 3.5L6.20711 2.79289C5.81658 2.40237 5.18342 2.40237 4.79289 2.79289L5.5 3.5ZM13.5 11.5L14.2071 12.2071C14.5976 11.8166 14.5976 11.1834 14.2071 10.7929L13.5 11.5ZM11.5 13.5L10.7929 14.2071C11.1834 14.5976 11.8166 14.5976 12.2071 14.2071L11.5 13.5ZM3.5 5.5L2.79289 4.79289C2.40237 5.18342 2.40237 5.81658 2.79289 6.20711L3.5 5.5ZM12.7929 10.7929L10.7929 12.7929L12.2071 14.2071L14.2071 12.2071L12.7929 10.7929ZM4.20711 6.20711L6.20711 4.20711L4.79289 2.79289L2.79289 4.79289L4.20711 6.20711ZM12.2071 12.7929L6.70711 7.29289L5.29289 8.70711L10.7929 14.2071L12.2071 12.7929ZM6.70711 7.29289L4.20711 4.79289L2.79289 6.20711L5.29289 8.70711L6.70711 7.29289ZM4.79289 4.20711L7.29289 6.70711L8.70711 5.29289L6.20711 2.79289L4.79289 4.20711ZM7.29289 6.70711L12.7929 12.2071L14.2071 10.7929L8.70711 5.29289L7.29289 6.70711ZM6.70711 8.70711L8.70711 6.70711L7.29289 5.29289L5.29289 7.29289L6.70711 8.70711Z" fill="currentColor" class="icon-dark"/>
<path d="M5.5 1.5V0.5M0.5 5.5H1.5M2.67157 2.67157L1.96447 1.96447M1.96447 9.03553L2.67157 8.32843M8.32843 2.67157L9.03553 1.96447" stroke="#AFB3C7" class="icon-light" stroke-linecap="round" stroke-linejoin="round"/>
</svg>
