<svg width="16" height="16" viewBox="0 0 16 16" fill="none" xmlns="http://www.w3.org/2000/svg">
<path d="M10 4V14H14C14.5523 14 15 13.5523 15 13V5C15 4.44772 14.5523 4 14 4H10Z" class="icon-light" fill="#D0D2E0"/>
<path d="M10 14H2C1.44772 14 1 13.5523 1 13V2C1 1.44772 1.44772 1 2 1H9C9.55228 1 10 1.44772 10 2V4M10 14V4M10 14H14C14.5523 14 15 13.5523 15 13V5C15 4.44772 14.5523 4 14 4H10" stroke="#1B1E2E" stroke-width="2" class="icon-dark" />
<path d="M3 3.5C3 3.22386 3.22386 3 3.5 3H4.5C4.77614 3 5 3.22386 5 3.5V4.5C5 4.77614 4.77614 5 4.5 5H3.5C3.22386 5 3 4.77614 3 4.5V3.5Z" fill="#1B1E2E" class="icon-dark"/>
<path d="M12 6.5C12 6.22386 12.2239 6 12.5 6C12.7761 6 13 6.22386 13 6.5V7.5C13 7.77614 12.7761 8 12.5 8C12.2239 8 12 7.77614 12 7.5V6.5Z" fill="#1B1E2E" class="icon-dark"/>
<path d="M12 9.5C12 9.22386 12.2239 9 12.5 9C12.7761 9 13 9.22386 13 9.5V10.5C13 10.7761 12.7761 11 12.5 11C12.2239 11 12 10.7761 12 10.5V9.5Z" fill="#1B1E2E" class="icon-dark"/>
<path d="M3 6.5C3 6.22386 3.22386 6 3.5 6H4.5C4.77614 6 5 6.22386 5 6.5V7.5C5 7.77614 4.77614 8 4.5 8H3.5C3.22386 8 3 7.77614 3 7.5V6.5Z" fill="#1B1E2E" class="icon-dark"/>
<path d="M3 9.5C3 9.22386 3.22386 9 3.5 9H4.5C4.77614 9 5 9.22386 5 9.5V10.5C5 10.7761 4.77614 11 4.5 11H3.5C3.22386 11 3 10.7761 3 10.5V9.5Z" fill="#1B1E2E" class="icon-dark"/>
<path d="M6 3.5C6 3.22386 6.22386 3 6.5 3H7.5C7.77614 3 8 3.22386 8 3.5V4.5C8 4.77614 7.77614 5 7.5 5H6.5C6.22386 5 6 4.77614 6 4.5V3.5Z" fill="#1B1E2E" class="icon-dark"/>
<path d="M6 6.5C6 6.22386 6.22386 6 6.5 6H7.5C7.77614 6 8 6.22386 8 6.5V7.5C8 7.77614 7.77614 8 7.5 8H6.5C6.22386 8 6 7.77614 6 7.5V6.5Z" fill="#1B1E2E" class="icon-dark"/>
<path d="M6 9.5C6 9.22386 6.22386 9 6.5 9H7.5C7.77614 9 8 9.22386 8 9.5V10.5C8 10.7761 7.77614 11 7.5 11H6.5C6.22386 11 6 10.7761 6 10.5V9.5Z" fill="#1B1E2E" class="icon-dark"/>
</svg>
