<svg width="24" height="24" viewBox="0 0 24 24" fill="none" xmlns="http://www.w3.org/2000/svg">
<path d="M19.0992 4.9008C22.9669 8.76853 22.9669 15.2315 19.0992 19.0992C15.2315 22.9669 8.76853 22.9669 4.9008 19.0992C1.03307 15.2315 1.03307 8.76853 4.9008 4.9008C8.76853 1.03307 15.2315 1.03307 19.0992 4.9008Z" fill="#D0D2E0" class="icon-light"/>
<path d="M12 12L19.0992 4.9008M12 12L4.9008 4.9008M12 12L19.0992 19.0992M12 12L4.9008 19.0992M19.0992 4.9008C22.9669 8.76853 22.9669 15.2315 19.0992 19.0992M19.0992 4.9008C15.2315 1.03307 8.76853 1.03307 4.9008 4.9008M4.9008 4.9008C1.03307 8.76853 1.03307 15.2315 4.9008 19.0992M19.0992 19.0992C15.2315 22.9669 8.76853 22.9669 4.9008 19.0992" stroke="#1B1E2E" class="icon-dark" stroke-width="2"/>
</svg>
