<svg width="32" height="32" viewBox="0 0 32 32" fill="none" xmlns="http://www.w3.org/2000/svg">
<path d="M25.229 6.77104C30.257 11.7991 30.257 20.2009 25.229 25.229C20.2009 30.257 11.7991 30.257 6.77104 25.229C1.74299 20.2009 1.74299 11.7991 6.77104 6.77104C11.7991 1.74299 20.2009 1.74299 25.229 6.77104Z" fill="#D0D2E0" class="icon-light"/>
<path d="M16 16L25.229 6.77104M16 16L6.77104 6.77104M16 16L25.229 25.229M16 16L6.77104 25.229M25.229 6.77104C30.257 11.7991 30.257 20.2009 25.229 25.229M25.229 6.77104C20.2009 1.74299 11.7991 1.74299 6.77104 6.77104M6.77104 6.77104C1.74299 11.7991 1.74299 20.2009 6.77104 25.229M25.229 25.229C20.2009 30.257 11.7991 30.257 6.77104 25.229" stroke="#1B1E2E" class="icon-dark" stroke-width="2"/>
</svg>
