<svg width="40" height="40" viewBox="0 0 40 40" fill="none" xmlns="http://www.w3.org/2000/svg">
<path d="M32.0686 7.93136C38.6438 14.5065 38.6438 25.4935 32.0686 32.0686C25.4935 38.6438 14.5065 38.6438 7.93136 32.0686C1.35621 25.4935 1.35621 14.5065 7.93136 7.93136C14.5065 1.35621 25.4935 1.35621 32.0686 7.93136Z" fill="#D0D2E0" class="icon-light"/>
<path d="M20 20L32.0686 7.93136M20 20L7.93136 7.93136M20 20L32.0686 32.0686M20 20L7.93136 32.0686M32.0686 7.93136C38.6438 14.5065 38.6438 25.4935 32.0686 32.0686M32.0686 7.93136C25.4935 1.35621 14.5065 1.35621 7.93136 7.93136M7.93136 7.93136C1.35621 14.5065 1.35621 25.4935 7.93136 32.0686M32.0686 32.0686C25.4935 38.6438 14.5065 38.6438 7.93136 32.0686" stroke="#1B1E2E" class="icon-dark" stroke-width="2"/>
</svg>
