<svg width="16" height="16" viewBox="0 0 16 16" fill="none" xmlns="http://www.w3.org/2000/svg">
<path d="M12.9694 3.03056C15.6769 5.73797 15.6769 10.262 12.9694 12.9694C10.262 15.6769 5.73797 15.6769 3.03056 12.9694C0.323147 10.262 0.323147 5.73797 3.03056 3.03056C5.73797 0.323147 10.262 0.323147 12.9694 3.03056Z" fill="#D0D2E0" class="icon-light"/>
<path d="M8 8L12.9694 3.03056M8 8L3.03056 3.03056M8 8L12.9694 12.9694M8 8L3.03056 12.9694M12.9694 3.03056C15.6769 5.73797 15.6769 10.262 12.9694 12.9694M12.9694 3.03056C10.262 0.323147 5.73797 0.323147 3.03056 3.03056M3.03056 3.03056C0.323147 5.73797 0.323147 10.262 3.03056 12.9694M12.9694 12.9694C10.262 15.6769 5.73797 15.6769 3.03056 12.9694" stroke="#1B1E2E" class="icon-dark" stroke-width="2"/>
</svg>
