<svg width="12" height="12" viewBox="0 0 12 12" fill="none" xmlns="http://www.w3.org/2000/svg">
<path d="M9.5496 2.4504C11.4835 4.38426 11.4835 7.61574 9.5496 9.5496C7.61574 11.4835 4.38426 11.4835 2.4504 9.5496C0.516534 7.61574 0.516534 4.38426 2.4504 2.4504C4.38426 0.516534 7.61574 0.516534 9.5496 2.4504Z" fill="#D0D2E0" class="icon-light"/>
<path d="M6 6L9.5496 2.4504M6 6L2.4504 2.4504M6 6L9.5496 9.5496M6 6L2.4504 9.5496M9.5496 2.4504C11.4835 4.38426 11.4835 7.61574 9.5496 9.5496M9.5496 2.4504C7.61574 0.516534 4.38426 0.516534 2.4504 2.4504M2.4504 2.4504C0.516534 4.38426 0.516534 7.61574 2.4504 9.5496M9.5496 9.5496C7.61574 11.4835 4.38426 11.4835 2.4504 9.5496" stroke="#1B1E2E" class="icon-dark" stroke-width="2"/>
</svg>
