<svg width="16" height="16" viewBox="0 0 16 16" fill="none" xmlns="http://www.w3.org/2000/svg">
  <path d="M7 7C7 7.55228 7.44771 8 8 8C8.55228 8 9 7.55228 9 7L7 7ZM9 1C9 0.447715 8.55228 -4.01048e-07 8 -4.25189e-07C7.44771 -3.30121e-07 7 0.447715 7 1L9 1ZM4.57229 3.07404C5.02519 2.75798 5.13612 2.1346 4.82005 1.6817C4.50399 1.2288 3.88062 1.11787 3.42771 1.43394L4.57229 3.07404ZM12.5723 1.43394C12.1194 1.11787 11.496 1.2288 11.1799 1.6817C10.8639 2.1346 10.9748 2.75798 11.4277 3.07404L12.5723 1.43394ZM3.75736 12.2426C1.41421 9.89949 1.41421 6.1005 3.75736 3.75736L2.34315 2.34315C-0.781048 5.46734 -0.781048 10.5327 2.34315 13.6569L3.75736 12.2426ZM12.2426 3.75736C14.5858 6.1005 14.5858 9.89949 12.2426 12.2426L13.6569 13.6569C16.781 10.5327 16.781 5.46734 13.6569 2.34315L12.2426 3.75736ZM12.2426 12.2426C9.89949 14.5858 6.10051 14.5858 3.75736 12.2426L2.34315 13.6569C5.46734 16.781 10.5327 16.781 13.6569 13.6569L12.2426 12.2426ZM9 7L9 1L7 1L7 7L9 7ZM3.75736 3.75736C4.01352 3.5012 4.28642 3.27354 4.57229 3.07404L3.42771 1.43394C3.04594 1.70036 2.68275 2.00354 2.34315 2.34315L3.75736 3.75736ZM11.4277 3.07404C11.7136 3.27354 11.9865 3.5012 12.2426 3.75736L13.6569 2.34315C13.3173 2.00354 12.9541 1.70036 12.5723 1.43394L11.4277 3.07404Z" fill="#9095AD" class="icon-dark"/>
</svg>
