<svg width="16" height="16" viewBox="0 0 16 16" fill="none" xmlns="http://www.w3.org/2000/svg">
<path d="M8 1C4.13401 1 1 4.13401 1 8C1 9.95827 1.80412 11.7287 3.10018 12.9992C3.43799 11.3365 4.60091 9.97347 6.14289 9.35625C5.4468 8.80686 5 7.95561 5 7C5 5.34315 6.34315 4 8 4C9.65685 4 11 5.34315 11 7C11 7.95561 10.5532 8.80686 9.85711 9.35625C11.3991 9.97347 12.562 11.3365 12.8998 12.9992C14.1959 11.7287 15 9.95827 15 8C15 4.13401 11.866 1 8 1Z" fill="#D0D2E0" class="icon-light"/>
<path d="M6.14289 9.35625C6.6537 9.7594 7.29875 10 8 10C8.70125 10 9.3463 9.7594 9.85711 9.35625M6.14289 9.35625C5.4468 8.80686 5 7.95561 5 7C5 5.34315 6.34315 4 8 4C9.65685 4 11 5.34315 11 7C11 7.95561 10.5532 8.80686 9.85711 9.35625M6.14289 9.35625C4.60091 9.97347 3.43799 11.3365 3.10018 12.9992M9.85711 9.35625C11.3991 9.97347 12.562 11.3365 12.8998 12.9992M12.8998 12.9992C14.1959 11.7287 15 9.95827 15 8C15 4.13401 11.866 1 8 1C4.13401 1 1 4.13401 1 8C1 9.95827 1.80412 11.7287 3.10018 12.9992M12.8998 12.9992C11.6372 14.2369 9.90772 15 8 15C6.09228 15 4.36279 14.2369 3.10018 12.9992" stroke="#1B1E2E" class="icon-dark" stroke-width="2"/>
</svg>
