<svg width="16" height="16" viewBox="0 0 16 16" fill="none" xmlns="http://www.w3.org/2000/svg">
<path d="M13.6568 2.34392C12.8758 1.56287 11.6095 1.56287 10.8284 2.34392C10.5708 2.60151 10.3982 2.91189 10.3105 3.24023L8.70721 1.63694C8.12143 1.05115 7.17155 1.05103 6.58577 1.63681L5.48055 2.74203C5.62264 2.82595 5.75658 2.92895 5.87866 3.05103C6.65971 3.83208 6.65971 5.09841 5.87866 5.87946C5.09761 6.6605 3.83128 6.6605 3.05023 5.87946C2.92815 5.75737 2.82515 5.62344 2.74123 5.48135L1.63602 6.58656C1.05023 7.17235 1.0503 8.12216 1.63609 8.70795L3.23944 10.3113C2.9111 10.399 2.60071 10.5716 2.34312 10.8292C1.56208 11.6103 1.56208 12.8766 2.34312 13.6576C3.12417 14.4387 4.3905 14.4387 5.17155 13.6576C5.42914 13.4 5.60177 13.0897 5.68945 12.7613L7.29269 14.3646C7.87847 14.9503 8.82832 14.9504 9.41411 14.3647L10.5193 13.2595C10.3773 13.1756 10.2433 13.0726 10.1213 12.9505C9.34025 12.1695 9.34025 10.9031 10.1213 10.1221C10.9023 9.34105 12.1687 9.34105 12.9497 10.1221C13.0718 10.2441 13.1748 10.378 13.2587 10.5201L14.3639 9.4149C14.9496 8.82912 14.9495 7.87925 14.3637 7.29346L12.7605 5.69025C13.0889 5.60257 13.3992 5.42994 13.6568 5.17235C14.4379 4.3913 14.4379 3.12497 13.6568 2.34392Z" stroke-width="2" stroke-linecap="round" stroke-linejoin="round"/>
</svg>
