<svg width="16" height="16" viewBox="0 0 16 16" fill="none" xmlns="http://www.w3.org/2000/svg">
<path class="icon-dark" fill-rule="evenodd" clip-rule="evenodd" d="M6.32937 4.85071C6.3274 4.85414 6.32542 4.85756 6.32342 4.86096C6.32291 4.86177 6.32262 4.86224 6.32256 4.86234C6.32244 4.86253 6.323 4.86163 6.32421 4.85959L6.32652 4.85564L6.32805 4.853L6.32891 4.8515L6.32937 4.85071ZM5.46154 4.35385C4.59324 3.8578 4.59348 3.85738 4.59373 3.85695L4.59424 3.85607L4.59531 3.8542L4.59769 3.85009L4.60342 3.84034L4.61875 3.81494C4.63071 3.79548 4.6462 3.77102 4.6653 3.74227C4.70344 3.68488 4.75635 3.60982 4.82474 3.5231C4.96081 3.35055 5.16247 3.12631 5.43593 2.90273C5.98932 2.4503 6.84074 2 8 2C9.34444 2 10.2931 2.56145 10.8651 3.38831C11.397 4.15734 11.5385 5.05835 11.5385 5.70769C11.5385 6.46804 11.3524 7.08706 11.0285 7.60082C10.7162 8.09614 10.3109 8.43507 9.98415 8.68408C9.86585 8.77424 9.76495 8.84837 9.67616 8.91361C9.48525 9.05387 9.35032 9.153 9.21892 9.28177C9.07138 9.42636 9.00951 9.53846 8.98373 9.67964C8.88452 10.2229 8.36366 10.5829 7.82036 10.4837C7.27706 10.3845 6.91706 9.86366 7.01627 9.32036C7.13551 8.66735 7.46347 8.20182 7.81908 7.85333C8.0601 7.61714 8.3648 7.39353 8.5947 7.22482C8.6611 7.17608 8.72126 7.13193 8.77185 7.09338C9.04348 6.88637 9.21838 6.72181 9.33672 6.53412C9.44343 6.36487 9.53846 6.12139 9.53846 5.70769C9.53846 5.29934 9.44189 4.84651 9.22026 4.52611C9.03864 4.26355 8.71806 4 8 4C7.39423 4 6.97643 4.22662 6.70184 4.45111C6.56131 4.566 6.4593 4.68022 6.39519 4.76152C6.36349 4.80172 6.3422 4.83243 6.33114 4.84907C6.32723 4.85495 6.32466 4.85898 6.32342 4.86096C6.04644 5.33199 5.44133 5.49398 4.96549 5.22214C4.48594 4.94818 4.31928 4.33734 4.59324 3.8578L5.46154 4.35385ZM7.99999 12C8.55228 12 8.99999 12.4477 8.99999 13V13.01C8.99999 13.5623 8.55228 14.01 7.99999 14.01C7.44771 14.01 6.99999 13.5623 6.99999 13.01V13C6.99999 12.4477 7.44771 12 7.99999 12Z" fill="#1B1E2E"/>
</svg>
