<svg width="17" height="16" viewBox="0 0 17 16" fill="none" xmlns="http://www.w3.org/2000/svg">
<path d="M3.00708 13.5001H13.5C14.3284 13.5001 15 12.8286 15 12.0001V3.50536C15 2.66171 14.0197 2.19718 13.3668 2.73142L13.6834 3.11839L13.3668 2.73142L2.37382 11.7262C1.64649 12.3213 2.06732 13.5001 3.00708 13.5001Z" stroke="black" stroke-opacity="0.2" stroke-linecap="round" stroke-linejoin="round"/>
<mask id="path-2-outside-1_17851_4763" maskUnits="userSpaceOnUse" x="0.606445" y="4.35938" width="9" height="10" fill="black">
<rect fill="white" x="0.606445" y="4.35938" width="9" height="10"/>
<path d="M2.69045 12.1129L8.5 7.35938V12.9999H3.00708C2.5372 12.9999 2.32679 12.4105 2.69045 12.1129Z"/>
</mask>
<path d="M2.69045 12.1129L8.5 7.35938V12.9999H3.00708C2.5372 12.9999 2.32679 12.4105 2.69045 12.1129Z" fill="#BD5800"/>
<path d="M8.5 7.35938H9.5V5.24905L7.86674 6.58544L8.5 7.35938ZM2.69045 12.1129L3.32371 12.8869H3.32371L2.69045 12.1129ZM8.5 12.9999V13.9999H9.5V12.9999H8.5ZM7.86674 6.58544L2.05719 11.339L3.32371 12.8869L9.13326 8.13331L7.86674 6.58544ZM3.00708 13.9999H8.5V11.9999H3.00708V13.9999ZM7.5 7.35938V12.9999H9.5V7.35938H7.5ZM2.05719 11.339C0.966209 12.2317 1.59742 13.9999 3.00708 13.9999V11.9999C3.47697 11.9999 3.68737 12.5893 3.32371 12.8869L2.05719 11.339Z" fill="#963F00" mask="url(#path-2-outside-1_17851_4763)"/>

</svg>
