<svg width="17" height="16" viewBox="0 0 17 16" fill="none" xmlns="http://www.w3.org/2000/svg">

<mask id="path-2-outside-1_17851_4763" maskUnits="userSpaceOnUse" x="0.606445" y="4.35938" width="9" height="10" fill="black">
<rect fill="white" x="0.606445" y="4.35938" width="9" height="10"/>
<path d="M2.69045 12.1129L8.5 7.35938V12.9999H3.00708C2.5372 12.9999 2.32679 12.4105 2.69045 12.1129Z"/>
</mask>
<path d="M2.69045 12.1129L8.5 7.35938V12.9999H3.00708C2.5372 12.9999 2.32679 12.4105 2.69045 12.1129Z" fill="#DB7903"/>
<path d="M8.5 7.35938H9.5V5.24905L7.86674 6.58544L8.5 7.35938ZM2.69045 12.1129L3.32371 12.8869H3.32371L2.69045 12.1129ZM8.5 12.9999V13.9999H9.5V12.9999H8.5ZM7.86674 6.58544L2.05719 11.339L3.32371 12.8869L9.13326 8.13331L7.86674 6.58544ZM3.00708 13.9999H8.5V11.9999H3.00708V13.9999ZM7.5 7.35938V12.9999H9.5V7.35938H7.5ZM2.05719 11.339C0.966209 12.2317 1.59742 13.9999 3.00708 13.9999V11.9999C3.47697 11.9999 3.68737 12.5893 3.32371 12.8869L2.05719 11.339Z" fill="#BD5800" mask="url(#path-2-outside-1_17851_4763)"/>

</svg>
