<svg width="17" height="16" viewBox="0 0 17 16" fill="none" xmlns="http://www.w3.org/2000/svg">
<path d="M3.00708 13.5001H13.5C14.3284 13.5001 15 12.8286 15 12.0001V3.50536C15 2.66171 14.0197 2.19718 13.3668 2.73142L13.6834 3.11839L13.3668 2.73142L2.37382 11.7262C1.64649 12.3213 2.06732 13.5001 3.00708 13.5001Z" stroke="black" stroke-opacity="0.2" stroke-linecap="round" stroke-linejoin="round"/>
<mask id="path-2-outside-1_17851_4400" maskUnits="userSpaceOnUse" x="0.606445" y="7.63281" width="5" height="7" fill="black">
<rect fill="white" x="0.606445" y="7.63281" width="5" height="7"/>
<path d="M2.69045 12.1134L4.5 10.6328V13.0004H3.00708C2.5372 13.0004 2.32679 12.411 2.69045 12.1134Z"/>
</mask>
<path d="M2.69045 12.1134L4.5 10.6328V13.0004H3.00708C2.5372 13.0004 2.32679 12.411 2.69045 12.1134Z" fill="#DB7903"/>
<path d="M4.5 10.6328H5.5V8.52249L3.86674 9.85887L4.5 10.6328ZM2.69045 12.1134L3.32371 12.8874L2.69045 12.1134ZM4.5 13.0004V14.0004H5.5V13.0004H4.5ZM3.86674 9.85887L2.05719 11.3395L3.32371 12.8874L5.13326 11.4068L3.86674 9.85887ZM3.00708 14.0004H4.5V12.0004H3.00708V14.0004ZM3.5 10.6328V13.0004H5.5V10.6328H3.5ZM2.05719 11.3395C0.966199 12.2322 1.59743 14.0004 3.00708 14.0004V12.0004C3.47696 12.0004 3.68738 12.5898 3.32371 12.8874L2.05719 11.3395Z" fill="#BD5800" mask="url(#path-2-outside-1_17851_4400)"/>
</svg>
