<svg width="14" height="14" viewBox="0 0 14 14" fill="none" xmlns="http://www.w3.org/2000/svg">
<path d="M13 2.07143L12.2929 1.36432C12.5789 1.07832 13.009 0.992768 13.3827 1.14755C13.7564 1.30233 14 1.66697 14 2.07143H13ZM13 4.64286H14C14 5.19514 13.5523 5.64286 13 5.64286V4.64286ZM10.4286 4.64286V5.64286C10.0241 5.64286 9.65947 5.39922 9.50469 5.02554C9.34991 4.65187 9.43547 4.22175 9.72146 3.93575L10.4286 4.64286ZM11.5998 8.96396C11.817 8.45615 12.4047 8.22053 12.9125 8.43768C13.4203 8.65483 13.6559 9.24253 13.4387 9.75033L11.5998 8.96396ZM14 2.07143V4.64286H12V2.07143H14ZM7 2C4.23858 2 2 4.23858 2 7H0C0 3.13401 3.13401 0 7 0V2ZM11.5998 5.03604C10.8357 3.24906 9.06255 2 7 2V0C9.89132 0 12.371 1.75275 13.4387 4.24967L11.5998 5.03604ZM13 5.64286H12.5193V3.64286H13V5.64286ZM12.5193 5.64286H10.4286V3.64286H12.5193V5.64286ZM2 7C2 8.38099 2.55855 9.62962 3.46447 10.5355L2.05025 11.9497C0.784597 10.6841 0 8.93272 0 7H2ZM3.46447 10.5355C4.37038 11.4415 5.61901 12 7 12V14C5.06728 14 3.31591 13.2154 2.05025 11.9497L3.46447 10.5355ZM7 12C9.06255 12 10.8357 10.7509 11.5998 8.96396L13.4387 9.75033C12.371 12.2472 9.89132 14 7 14V12ZM9.72146 3.93575L12.2929 1.36432L13.7071 2.77854L11.1357 5.34996L9.72146 3.93575Z" fill="#1B1E2E" class="icon-dark"/>
</svg>
