<svg width="16" height="16" viewBox="0 0 16 16" fill="none" xmlns="http://www.w3.org/2000/svg">
<path d="M5 11C5 10.7239 4.77614 10.5 4.5 10.5C4.22386 10.5 4 10.7239 4 11H5ZM4 12C4 12.2761 4.22386 12.5 4.5 12.5C4.77614 12.5 5 12.2761 5 12H4ZM8 11C8 10.7239 7.77614 10.5 7.5 10.5C7.22386 10.5 7 10.7239 7 11H8ZM7 12C7 12.2761 7.22386 12.5 7.5 12.5C7.77614 12.5 8 12.2761 8 12H7ZM10 12C10 12.2761 10.2239 12.5 10.5 12.5C10.7761 12.5 11 12.2761 11 12H10ZM12 11C12.2761 11 12.5 10.7761 12.5 10.5C12.5 10.2239 12.2761 10 12 10V11ZM11 7C10.7239 7 10.5 7.22386 10.5 7.5C10.5 7.77614 10.7239 8 11 8V7ZM12 8C12.2761 8 12.5 7.77614 12.5 7.5C12.5 7.22386 12.2761 7 12 7V8ZM11 4C10.7239 4 10.5 4.22386 10.5 4.5C10.5 4.77614 10.7239 5 11 5V4ZM12 5C12.2761 5 12.5 4.77614 12.5 4.5C12.5 4.22386 12.2761 4 12 4V5ZM11 10C10.7239 10 10.5 10.2239 10.5 10.5C10.5 10.7761 10.7239 11 11 11V10ZM11 11C11 10.7239 10.7761 10.5 10.5 10.5C10.2239 10.5 10 10.7239 10 11H11ZM4 11V12H5V11H4ZM7 11V12H8V11H7ZM11 8L12 8V7L11 7V8ZM11 5L12 5V4L11 4V5ZM11 11H12V10H11V11ZM10 11V12H11V11H10Z" fill="#747994" class="icon-dark"/>
<path d="M15 15V1H10V10H1L1 15H15ZM15 15V11" stroke="#1B1E2E" class="icon-light" stroke-width="2" stroke-linecap="round" stroke-linejoin="round"/>
</svg>
