<svg width="24" height="24" viewBox="0 0 24 24" fill="none" xmlns="http://www.w3.org/2000/svg">
<path d="M3 15H7V19H3V15Z" fill="#D0D2E0" class="icon-light"/>
<path d="M21 8C21.5523 8 22 7.55228 22 7C22 6.44772 21.5523 6 21 6V8ZM11 6C10.4477 6 10 6.44772 10 7C10 7.55228 10.4477 8 11 8V6ZM21 18C21.5523 18 22 17.5523 22 17C22 16.4477 21.5523 16 21 16V18ZM11 16C10.4477 16 10 16.4477 10 17C10 17.5523 10.4477 18 11 18V16ZM2.29289 8.29289C1.90237 8.68342 1.90237 9.31658 2.29289 9.70711C2.68342 10.0976 3.31658 10.0976 3.70711 9.70711L2.29289 8.29289ZM7.70711 5.70711C8.09763 5.31658 8.09763 4.68342 7.70711 4.29289C7.31658 3.90237 6.68342 3.90237 6.29289 4.29289L7.70711 5.70711ZM3.70711 4.29289C3.31658 3.90237 2.68342 3.90237 2.29289 4.29289C1.90237 4.68342 1.90237 5.31658 2.29289 5.70711L3.70711 4.29289ZM6.29289 9.70711C6.68342 10.0976 7.31658 10.0976 7.70711 9.70711C8.09763 9.31658 8.09763 8.68342 7.70711 8.29289L6.29289 9.70711ZM3 15V14C2.44772 14 2 14.4477 2 15H3ZM7 15H8C8 14.4477 7.55228 14 7 14V15ZM7 19V20C7.55228 20 8 19.5523 8 19H7ZM3 19H2C2 19.5523 2.44772 20 3 20V19ZM21 6H11V8H21V6ZM21 16H11V18H21V16ZM3.70711 9.70711L5.70711 7.70711L4.29289 6.29289L2.29289 8.29289L3.70711 9.70711ZM5.70711 7.70711L7.70711 5.70711L6.29289 4.29289L4.29289 6.29289L5.70711 7.70711ZM2.29289 5.70711L4.29289 7.70711L5.70711 6.29289L3.70711 4.29289L2.29289 5.70711ZM4.29289 7.70711L6.29289 9.70711L7.70711 8.29289L5.70711 6.29289L4.29289 7.70711ZM3 16H7V14H3V16ZM6 15V19H8V15H6ZM7 18H3V20H7V18ZM4 19V15H2V19H4Z" fill="#1B1E2E" class="icon-dark"/>
</svg>
