<svg width="16" height="16" viewBox="0 0 16 16" fill="none" xmlns="http://www.w3.org/2000/svg">
<path fill-rule="evenodd" clip-rule="evenodd" d="M6.50001 1H9.50001C9.77615 1 10 1.22386 10 1.5V2.87494C10.5227 3.07907 11.0065 3.36085 11.4373 3.7061L12.6292 3.01794C12.8683 2.87987 13.1741 2.96181 13.3122 3.20096L14.8122 5.79903C14.9503 6.03818 14.8683 6.34398 14.6292 6.48205L13.4378 7.1699C13.4788 7.44063 13.5 7.71783 13.5 8C13.5 8.28217 13.4788 8.55937 13.4378 8.8301L14.6292 9.51795C14.8683 9.65602 14.9503 9.96182 14.8122 10.201L13.3122 12.799C13.1741 13.0382 12.8683 13.1201 12.6292 12.9821L11.4373 12.2939C11.0065 12.6392 10.5227 12.9209 10 13.1251V14.5C10 14.7761 9.77615 15 9.50001 15H6.50001C6.22387 15 6.00001 14.7761 6.00001 14.5V13.1251C5.47731 12.9209 4.9935 12.6391 4.56276 12.2939L3.37084 12.982C3.1317 13.1201 2.8259 13.0382 2.68783 12.799L1.18783 10.201C1.04976 9.96181 1.1317 9.65602 1.37084 9.51794L2.56224 8.83009C2.52126 8.55937 2.50001 8.28216 2.50001 8C2.50001 7.71784 2.52126 7.44063 2.56224 7.16991L1.37084 6.48206C1.1317 6.34398 1.04976 6.03819 1.18783 5.79904L2.68783 3.20097C2.8259 2.96182 3.1317 2.87988 3.37084 3.01795L4.56276 3.70611C4.9935 3.36085 5.47731 3.07907 6.00001 2.87494V1.5C6.00001 1.22386 6.22387 1 6.50001 1ZM8.00001 10C9.10458 10 10 9.10457 10 8C10 6.89543 9.10458 6 8.00001 6C6.89544 6 6.00001 6.89543 6.00001 8C6.00001 9.10457 6.89544 10 8.00001 10Z" fill="#D0D2E0" class="icon-light"/>
<path d="M13.3122 3.20096L12.4462 3.70096L12.4462 3.70096L13.3122 3.20096ZM14.8122 5.79903L15.6782 5.29903L15.6782 5.29903L14.8122 5.79903ZM2.68783 12.799L1.8218 13.299H1.8218L2.68783 12.799ZM1.18783 10.201L2.05385 9.70096H2.05385L1.18783 10.201ZM1.18783 5.79904L2.05386 6.29904H2.05386L1.18783 5.79904ZM2.68783 3.20097L3.55386 3.70097H3.55386L2.68783 3.20097ZM14.8122 10.201L15.6782 10.701H15.6782L14.8122 10.201ZM13.3122 12.799L12.4462 12.299H12.4462L13.3122 12.799ZM6.00001 2.87494L6.36378 3.80643C6.74745 3.65659 7.00001 3.28683 7.00001 2.87494H6.00001ZM4.56276 3.70611L4.06276 4.57213C4.41972 4.77822 4.86656 4.74418 5.18818 4.48639L4.56276 3.70611ZM3.37084 3.01795L2.87084 3.88398H2.87084L3.37084 3.01795ZM2.56224 7.16991L3.55097 7.31959C3.61257 6.91271 3.41862 6.50964 3.06224 6.30388L2.56224 7.16991ZM1.37084 6.48206L1.87084 5.61603H1.87084L1.37084 6.48206ZM2.56224 8.83009L3.06224 9.69612C3.41862 9.49036 3.61257 9.08729 3.55097 8.68041L2.56224 8.83009ZM1.37084 9.51794L1.87084 10.384L1.87084 10.384L1.37084 9.51794ZM4.56276 12.2939L5.18818 11.5136C4.86656 11.2558 4.41972 11.2218 4.06276 11.4279L4.56276 12.2939ZM3.37084 12.982L3.87084 13.8481L3.87084 13.8481L3.37084 12.982ZM6.00001 13.1251H7.00001C7.00001 12.7132 6.74745 12.3434 6.36378 12.1936L6.00001 13.1251ZM10 13.1251L9.63623 12.1936C9.25256 12.3434 9.00001 12.7132 9.00001 13.1251H10ZM11.4373 12.2939L11.9373 11.4279C11.5803 11.2218 11.1334 11.2558 10.8118 11.5136L11.4373 12.2939ZM12.6292 12.9821L12.1292 13.8481V13.8481L12.6292 12.9821ZM13.4378 8.8301L12.449 8.68042C12.3874 9.0873 12.5814 9.49037 12.9378 9.69613L13.4378 8.8301ZM14.6292 9.51795L15.1292 8.65193L14.6292 9.51795ZM14.6292 6.48205L14.1292 5.61602L14.6292 6.48205ZM13.4378 7.1699L12.9378 6.30387C12.5814 6.50963 12.3874 6.9127 12.449 7.31958L13.4378 7.1699ZM11.4373 3.7061L10.8118 4.48639C11.1334 4.74418 11.5803 4.77822 11.9373 4.57213L11.4373 3.7061ZM12.6292 3.01794L12.1292 2.15192V2.15192L12.6292 3.01794ZM10 2.87494H9.00001C9.00001 3.28683 9.25256 3.65659 9.63624 3.80643L10 2.87494ZM6.50001 2H9.50001V0H6.50001V2ZM9.50001 14H6.50001V16H9.50001V14ZM12.4462 3.70096L13.9462 6.29903L15.6782 5.29903L14.1782 2.70096L12.4462 3.70096ZM3.55385 12.299L2.05385 9.70096L0.321803 10.701L1.8218 13.299L3.55385 12.299ZM2.05386 6.29904L3.55386 3.70097L1.8218 2.70097L0.321804 5.29904L2.05386 6.29904ZM13.9462 9.70097L12.4462 12.299L14.1782 13.299L15.6782 10.701L13.9462 9.70097ZM7.00001 2.87494V1.5H5.00001V2.87494H7.00001ZM5.18818 4.48639C5.54103 4.20357 5.93683 3.97317 6.36378 3.80643L5.63623 1.94345C5.01779 2.18497 4.44597 2.51813 3.93733 2.92582L5.18818 4.48639ZM2.87084 3.88398L4.06276 4.57213L5.06276 2.84008L3.87084 2.15193L2.87084 3.88398ZM3.50001 8C3.50001 7.76811 3.51746 7.54094 3.55097 7.31959L1.5735 7.02023C1.52505 7.34033 1.50001 7.66756 1.50001 8H3.50001ZM3.06224 6.30388L1.87084 5.61603L0.870843 7.34808L2.06224 8.03593L3.06224 6.30388ZM3.55097 8.68041C3.51746 8.45906 3.50001 8.23189 3.50001 8H1.50001C1.50001 8.33244 1.52505 8.65967 1.5735 8.97977L3.55097 8.68041ZM1.87084 10.384L3.06224 9.69612L2.06224 7.96407L0.870842 8.65192L1.87084 10.384ZM4.06276 11.4279L2.87084 12.116L3.87084 13.8481L5.06276 13.1599L4.06276 11.4279ZM6.36378 12.1936C5.93683 12.0268 5.54103 11.7964 5.18818 11.5136L3.93733 13.0742C4.44597 13.4819 5.01779 13.815 5.63623 14.0565L6.36378 12.1936ZM7.00001 14.5V13.1251H5.00001V14.5H7.00001ZM9.00001 13.1251V14.5H11V13.1251H9.00001ZM10.8118 11.5136C10.459 11.7964 10.0632 12.0268 9.63623 12.1936L10.3638 14.0565C10.9822 13.815 11.554 13.4819 12.0627 13.0742L10.8118 11.5136ZM13.1292 12.116L11.9373 11.4279L10.9373 13.1599L12.1292 13.8481L13.1292 12.116ZM12.5 8C12.5 8.23189 12.4826 8.45907 12.449 8.68042L14.4265 8.97978C14.475 8.65968 14.5 8.33244 14.5 8H12.5ZM12.9378 9.69613L14.1292 10.384L15.1292 8.65193L13.9378 7.96407L12.9378 9.69613ZM14.1292 5.61602L12.9378 6.30387L13.9378 8.03592L15.1292 7.34807L14.1292 5.61602ZM12.449 7.31958C12.4826 7.54093 12.5 7.76811 12.5 8H14.5C14.5 7.66756 14.475 7.34032 14.4265 7.02022L12.449 7.31958ZM11.9373 4.57213L13.1292 3.88397L12.1292 2.15192L10.9373 2.84008L11.9373 4.57213ZM9.63624 3.80643C10.0632 3.97316 10.459 4.20357 10.8118 4.48639L12.0627 2.92582C11.554 2.51813 10.9822 2.18497 10.3638 1.94345L9.63624 3.80643ZM9.00001 1.5V2.87494H11V1.5H9.00001ZM12.4462 12.299C12.5842 12.0599 12.89 11.978 13.1292 12.116L12.1292 13.8481C12.8466 14.2623 13.764 14.0165 14.1782 13.299L12.4462 12.299ZM15.6782 10.701C16.0924 9.98353 15.8466 9.06614 15.1292 8.65193L14.1292 10.384C13.89 10.2459 13.8081 9.94011 13.9462 9.70097L15.6782 10.701ZM3.55386 3.70097C3.41578 3.94011 3.10999 4.02205 2.87084 3.88398L3.87084 2.15193C3.1534 1.73771 2.23602 1.98353 1.8218 2.70097L3.55386 3.70097ZM0.321804 5.29904C-0.0924093 6.01648 0.153404 6.93387 0.870843 7.34808L1.87084 5.61603C2.10999 5.7541 2.19193 6.0599 2.05386 6.29904L0.321804 5.29904ZM2.05385 9.70096C2.19193 9.9401 2.10999 10.2459 1.87084 10.384L0.870842 8.65192C0.153402 9.06613 -0.0924098 9.98352 0.321804 10.701L2.05385 9.70096ZM1.8218 13.299C2.23602 14.0165 3.1534 14.2623 3.87084 13.8481L2.87084 12.116C3.10999 11.9779 3.41578 12.0599 3.55385 12.299L1.8218 13.299ZM13.9462 6.29903C13.8081 6.05989 13.89 5.75409 14.1292 5.61602L15.1292 7.34807C15.8466 6.93386 16.0924 6.01647 15.6782 5.29903L13.9462 6.29903ZM14.1782 2.70096C13.764 1.98352 12.8466 1.73771 12.1292 2.15192L13.1292 3.88397C12.89 4.02204 12.5842 3.9401 12.4462 3.70096L14.1782 2.70096ZM6.50001 14C6.77615 14 7.00001 14.2239 7.00001 14.5H5.00001C5.00001 15.3284 5.67158 16 6.50001 16V14ZM9.50001 16C10.3284 16 11 15.3284 11 14.5H9.00001C9.00001 14.2239 9.22386 14 9.50001 14V16ZM9.50001 2C9.22387 2 9.00001 1.77614 9.00001 1.5H11C11 0.671573 10.3284 0 9.50001 0V2ZM6.50001 0C5.67158 0 5.00001 0.671575 5.00001 1.5H7.00001C7.00001 1.77614 6.77615 2 6.50001 2V0ZM9.00001 8C9.00001 8.55228 8.55229 9 8.00001 9V11C9.65686 11 11 9.65685 11 8H9.00001ZM8.00001 9C7.44772 9 7.00001 8.55228 7.00001 8H5.00001C5.00001 9.65685 6.34315 11 8.00001 11V9ZM7.00001 8C7.00001 7.44772 7.44772 7 8.00001 7V5C6.34315 5 5.00001 6.34315 5.00001 8H7.00001ZM8.00001 7C8.55229 7 9.00001 7.44772 9.00001 8H11C11 6.34315 9.65686 5 8.00001 5V7Z" fill="#1B1E2E" class="icon-dark"/>
</svg>
