<svg width="24" height="24" viewBox="0 0 24 24" fill="none" xmlns="http://www.w3.org/2000/svg">
<path fill-rule="evenodd" clip-rule="evenodd" d="M3 12C3 7.02944 7.02944 3 12 3C16.9706 3 21 7.02944 21 12C21 16.9706 16.9706 21 12 21C7.02944 21 3 16.9706 3 12ZM12 1C5.92487 1 1 5.92487 1 12C1 18.0751 5.92487 23 12 23C18.0751 23 23 18.0751 23 12C23 5.92487 18.0751 1 12 1ZM15.8638 9.50387C16.1421 9.02682 15.9809 8.4145 15.5039 8.13622C15.0268 7.85794 14.4145 8.01908 14.1362 8.49613L11.2898 13.3756L9.70711 11.7929C9.31658 11.4024 8.68342 11.4024 8.29289 11.7929C7.90237 12.1834 7.90237 12.8166 8.29289 13.2071L10.7929 15.7071C11.0122 15.9264 11.3208 16.0315 11.6283 15.9917C11.9358 15.9519 12.2075 15.7717 12.3638 15.5039L15.8638 9.50387Z" fill="#1FA971" class="icon-dark" />
</svg>
