<svg width="24" height="24" viewBox="0 0 24 24" fill="none" xmlns="http://www.w3.org/2000/svg">
<path fill-rule="evenodd" clip-rule="evenodd" d="M12 22C17.5228 22 22 17.5228 22 12C22 6.47715 17.5228 2 12 2C6.47715 2 2 6.47715 2 12C2 17.5228 6.47715 22 12 22ZM15.8638 9.50387C16.1421 9.02682 15.9809 8.4145 15.5039 8.13622C15.0268 7.85794 14.4145 8.01908 14.1362 8.49613L11.2898 13.3756L9.70711 11.7929C9.31658 11.4024 8.68342 11.4024 8.29289 11.7929C7.90237 12.1834 7.90237 12.8166 8.29289 13.2071L10.7929 15.7071C11.0122 15.9264 11.3208 16.0315 11.6283 15.9917C11.9358 15.9519 12.2075 15.7717 12.3638 15.5039L15.8638 9.50387Z" fill="#1FA971" class="icon-dark" />
</svg>
