<svg width="12" height="12" viewBox="0 0 12 12" fill="none" xmlns="http://www.w3.org/2000/svg">
<path d="M3.70711 2.29289C3.31658 1.90237 2.68342 1.90237 2.29289 2.29289C1.90237 2.68342 1.90237 3.31658 2.29289 3.70711L3.70711 2.29289ZM8.29289 9.70711C8.68342 10.0976 9.31658 10.0976 9.70711 9.70711C10.0976 9.31658 10.0976 8.68342 9.70711 8.29289L8.29289 9.70711ZM9.70711 3.70711C10.0976 3.31658 10.0976 2.68342 9.70711 2.29289C9.31658 1.90237 8.68342 1.90237 8.29289 2.29289L9.70711 3.70711ZM2.29289 8.29289C1.90237 8.68342 1.90237 9.31658 2.29289 9.70711C2.68342 10.0976 3.31658 10.0976 3.70711 9.70711L2.29289 8.29289ZM2.29289 3.70711L8.29289 9.70711L9.70711 8.29289L3.70711 2.29289L2.29289 3.70711ZM8.29289 2.29289L2.29289 8.29289L3.70711 9.70711L9.70711 3.70711L8.29289 2.29289Z" fill="#E45770" class="icon-dark"/>
</svg>
