<svg width="16" height="16" viewBox="0 0 16 16" fill="none" xmlns="http://www.w3.org/2000/svg">
<path d="M8 3L15 6L13 6.85714V8.9689C13 10.1956 12.2531 11.2987 11.1142 11.7543L8.74278 12.7029C8.26596 12.8936 7.73404 12.8936 7.25722 12.7029L4.88583 11.7543C3.74685 11.2987 3 10.1956 3 8.9689V6.85714L1 6L8 3Z" fill="#D0D2E0"/>
<path d="M13 6.85714L15 6L8 3L1 6L3 6.85714M13 6.85714V8.9689C13 10.1956 12.2531 11.2987 11.1142 11.7543L8.74278 12.7029C8.26596 12.8936 7.73404 12.8936 7.25722 12.7029L4.88583 11.7543C3.74685 11.2987 3 10.1956 3 8.9689V6.85714M13 6.85714L8 9L3 6.85714" stroke="#4956E3" stroke-width="2" stroke-linecap="round" stroke-linejoin="round"/>
<path d="M15.5 6V9" stroke="#1B1E2E" stroke-linecap="round" stroke-linejoin="round"/>
</svg>
