<svg width="16" height="16" viewBox="0 0 16 16" fill="none" xmlns="http://www.w3.org/2000/svg">
<path d="M3 12H6V10H3V12ZM6 12H13V10H6V12ZM10.2361 6H13V4H10.2361V6ZM6.89443 11.4472L9.34164 6.55279L7.55279 5.65836L5.10557 10.5528L6.89443 11.4472ZM14 5V7C15.1046 7 16 6.10457 16 5H14ZM14 5H12C12 6.10457 12.8954 7 14 7V5ZM14 5V3C12.8954 3 12 3.89543 12 5H14ZM14 5H16C16 3.89543 15.1046 3 14 3V5ZM14 11V13C15.1046 13 16 12.1046 16 11H14ZM14 11H12C12 12.1046 12.8954 13 14 13V11ZM14 11V9C12.8954 9 12 9.89543 12 11H14ZM14 11H16C16 9.89543 15.1046 9 14 9V11ZM2 11V13C3.10457 13 4 12.1046 4 11H2ZM2 11H0C0 12.1046 0.89543 13 2 13V11ZM2 11V9C0.89543 9 0 9.89543 0 11H2ZM2 11H4C4 9.89543 3.10457 9 2 9V11ZM10.2361 4C9.09975 4 8.06096 4.64201 7.55279 5.65836L9.34164 6.55279C9.51103 6.214 9.8573 6 10.2361 6V4Z" fill="#1B1E2E" class="icon-dark"/>
</svg>
