<svg width="16" height="16" viewBox="0 0 16 16" fill="none" xmlns="http://www.w3.org/2000/svg">
<path d="M15 3C15 1.89543 14.1046 1 13 1H3C1.89543 1 1 1.89543 1 3V4H15V3Z" fill="#D0D2E0" class="icon-light"/>
<path fill-rule="evenodd" clip-rule="evenodd" d="M15 3C15 1.89543 14.1046 1 13 1H3C1.89543 1 1 1.89543 1 3V4H15V3Z" fill="#D0D2E0" class="icon-light"/>
<path d="M1 4V13C1 14.1046 1.89543 15 3 15H13C14.1046 15 15 14.1046 15 13V4M1 4V3C1 1.89543 1.89543 1 3 1H13C14.1046 1 15 1.89543 15 3V4M1 4H15M5 8L6.5 9.5L5 11" stroke="#1B1E2E" stroke-width="2" stroke-linecap="round" stroke-linejoin="round" class="icon-dark"/>
</svg>