<?xml version="1.0" standalone="no"?>
<!DOCTYPE svg PUBLIC "-//W3C//DTD SVG 1.1//EN" "http://www.w3.org/Graphics/SVG/1.1/DTD/svg11.dtd">
<svg xmlns="http://www.w3.org/2000/svg">
<defs >
<font id="Muli" horiz-adv-x="974" ><font-face
    font-family="Muli"
    units-per-em="2048"
    panose-1="2 0 5 3 4 0 0 2 0 4"
    ascent="1960"
    descent="-625"
    alphabetic="0" />
<glyph unicode=" " glyph-name="space" horiz-adv-x="599" />
<glyph unicode="!" glyph-name="exclam" horiz-adv-x="737" d="M260 183H474V-23H260V183ZM426 373H311L271 1451H466L426 373Z" />
<glyph unicode="&quot;" glyph-name="quotedbl" horiz-adv-x="720" d="M439 989L403 1451H587L569 989H439ZM150 989L114 1451H297L281 989H150Z" />
<glyph unicode="#" glyph-name="numbersign" horiz-adv-x="1242" d="M1184 1010L1170 886H920L869 611H1121L1107 485H847L764 60H619L699 485H438L356 60H210L294 485H42L53 611H318Q330 681 342 748T368 886H107L120 1010H390L469 1420H615L538 1010H799L875
1420H1021L943 1010H1184ZM775 886H514L460 611H724L775 886Z" />
<glyph unicode="$" glyph-name="dollar" horiz-adv-x="1190" d="M534 1293Q487 1287 449 1267T384 1217T341 1146T326 1059Q326 1008 341 971T384 905T449 856T532 818L534 1293ZM251 223Q315 180 387 155T531 127L534 648Q453 684 381 719T255 799T169 903T137
1047Q137 1126 170 1194T259 1315T385 1399T534 1437L530 1575H654L657 1439Q757 1437 845 1409T997 1326L948 1198Q891 1249 817 1272T658 1299L656 770Q761 729 840 690T972 605T1053 500T1080 361Q1080 278 1046 212T954 99T819 24T656 -11L659 -172H536L532
-16Q441 -14 359 10T202 89L251 223ZM654 131Q704 138 749 156T827 202T881 270T901 358Q901 405 883 441T833 506T756 559T658 605L654 131Z" />
<glyph unicode="%" glyph-name="percent" horiz-adv-x="1985" d="M1454 622Q1398 622 1358 599T1292 538T1254 451T1241 350Q1241 296 1253 248T1292 164T1358 107T1452 86Q1506 86 1546 108T1611 169T1649 255T1662 357Q1662 412 1650 460T1612 544T1547 601T1454
622ZM1455 735Q1539 735 1604 707T1715 628T1783 508T1806 356Q1806 276 1781 207T1710 85T1597 3T1449 -27Q1366 -27 1301 2T1190 82T1121 202T1097 351Q1097 432 1122 502T1193 623T1306 705T1455 735ZM526 1447Q610 1447 675 1419T786 1340T854 1220T877 1068Q877
988 852 919T781 798T668 716T520 686Q436 686 371 715T260 795T192 915T168 1064Q168 1145 193 1214T264 1336T377 1417T526 1447ZM1344 1436H1499L594 -5H440L1344 1436ZM525 1335Q470 1335 430 1313T364 1253T325 1166T312 1065Q312 1010 325 962T364 877T430
820T524 799Q578 799 617 821T683 881T721 967T734 1069Q734 1124 722 1172T683 1257T618 1314T525 1335Z" />
<glyph unicode="&amp;" glyph-name="ampersand" horiz-adv-x="1647" d="M115 402Q115 486 147 552T233 672T354 770T494 852L479 867Q446 900 414 934T356 1005T315 1086T299 1182Q299 1254 327 1308T405 1399T520 1454T661 1473Q731 1473 798 1456T918 1404T1003
1315T1036 1188Q1036 1128 1011 1076T943 978T845 893T729 822L1139 409Q1173 461 1201 525T1249 657T1280 797T1291 935Q1291 973 1288 995T1283 1032H1456Q1463 938 1453 839T1416 644T1350 459T1255 295Q1300 249 1338 216T1418 158T1507 116T1618 86L1486 -12Q1439
-5 1401 10T1325 50T1250 108T1166 186Q1121 142 1068 103T953 35T818 -10T661 -27Q544 -27 445 2T272 86T157 220T115 402ZM1058 291Q1056 292 1036 312T982 365T908 439T823 523L594 750Q537 721 483 688T387 614T320 522T295 406Q295 343 322 290T397 199T511
138T658 116Q726 116 783 129T888 166T978 222T1058 291ZM625 918Q670 942 713 970T790 1030T844 1098T865 1178Q865 1221 848 1252T802 1302T739 1331T669 1340Q628 1340 593 1330T530 1300T488 1249T472 1178Q472 1140 483 1106T514 1041T563 979T625 918Z" />
<glyph unicode="&apos;" glyph-name="quotesingle" horiz-adv-x="554" d="M212 989L176 1451H360L342 989H212Z" />
<glyph unicode="(" glyph-name="parenleft" horiz-adv-x="628" d="M433 -259Q375 -170 324 -70T235 138T175 359T153 587Q153 707 173 819T229 1039T316 1249T430 1451H578Q452 1250 384 1034T316 590Q316 485 334 375T387 155T470 -60T579 -259H433Z" />
<glyph unicode=")" glyph-name="parenright" horiz-adv-x="628" d="M56 -259Q113 -168 160 -67T242 143T296 368T315 604Q315 704 298 812T247 1029T164 1245T52 1451H199Q258 1359 309 1258T398 1048T457 826T479 598Q479 477 459 365T403 146T317 -62T205 -259H56Z" />
<glyph unicode="*" glyph-name="asterisk" horiz-adv-x="1065" d="M581 1153L816 1274L880 1149L617 1061L818 810L692 737L534 1003L381 745L257 820L448 1058L175 1136L196 1271L480 1148Q470 1223 460 1299T439 1451H588L581 1153Z" />
<glyph unicode="+" glyph-name="plus" horiz-adv-x="1458" d="M646 624L649 1047H799L797 624H1245L1246 485H798L795 62H644L646 485H200L198 624H646Z" />
<glyph unicode="," glyph-name="comma" horiz-adv-x="540" d="M185 207H372L209 -256H78L185 207Z" />
<glyph unicode="-" glyph-name="hyphen" horiz-adv-x="728" d="M80 489L79 626H650L651 489H80Z" />
<glyph unicode="." glyph-name="period" horiz-adv-x="540" d="M376 -11H159V199H376V-11Z" />
<glyph unicode="/" glyph-name="slash" horiz-adv-x="717" d="M-47 -215L590 1451H757L116 -215H-47Z" />
<glyph unicode="0" glyph-name="zero" horiz-adv-x="1190" d="M596 1453Q738 1453 834 1397T990 1239T1074 999T1099 694Q1099 532 1066 400T968 174T808 29T586 -23Q453 -23 359 31T204 184T116 417T88 715Q88 886 120 1023T217 1255T376 1402T596 1453ZM592
1312Q509 1312 448 1269T347 1149T286 964T266 727Q266 657 271 585T289 446T326 319T386 215T474 145T594 119Q676 119 736 161T836 280T895 461T915 693Q915 761 911 833T893 974T858 1104T799 1212T712 1285T592 1312Z" />
<glyph unicode="1" glyph-name="one" horiz-adv-x="1190" d="M273 1269Q350 1296 421 1332T559 1411L724 1438V143H941V0H333V143H552V1245Q485 1207 418 1175T273 1113V1269Z" />
<glyph unicode="2" glyph-name="two" horiz-adv-x="1190" d="M1035 0H99L98 147Q168 214 252 291T420 449T583 615T723 779T820 934T857 1071Q857 1123 837 1166T780 1241T690 1289T573 1307Q515 1307 463 1291T366 1246T288 1174T230 1078L133 1175Q157 1239
200 1289T303 1375T433 1429T584 1448Q681 1448 763 1422T905 1348T998 1232T1032 1078Q1032 988 988 895T869 707T696 515T489 319Q442 276 398 235T305 145H1035V0Z" />
<glyph unicode="3" glyph-name="three" horiz-adv-x="1190" d="M383 814Q398 813 415 813T446 813Q534 813 604 826T724 872T799 956T826 1085Q826 1142 805 1183T747 1252T657 1292T544 1306Q438 1306 355 1262T219 1128L121 1217Q143 1271 185 1314T283 1387T408
1433T550 1449Q638 1449 721 1426T868 1356T971 1242T1010 1086Q1010 1020 989 966T930 868T839 795T721 746L731 744Q801 730 859 700T960 625T1025 522T1049 391Q1049 295 1007 218T891 88T722 6T519 -23Q441 -23 373 -8T250 39T159 116T108 223L191 324Q210
274 243 236T320 172T417 133T528 119Q600 119 662 138T771 192T844 278T871 394Q871 469 843 522T761 608T632 657T462 672Q445 672 424 672T385 670L383 814Z" />
<glyph unicode="4" glyph-name="four" horiz-adv-x="1189" d="M726 0V351H25V475L690 1420H898V483H1112V351H898V0H726ZM726 483V1292L638 1146L196 483H726Z" />
<glyph unicode="5" glyph-name="five" horiz-adv-x="1190" d="M228 289Q288 202 370 161T546 119Q629 119 693 145T802 217T868 323T891 452Q891 516 872 571T815 668T721 734T593 758Q523 758 467 732T379 658L203 652V1425H994V1280H366L352 839Q409 872 469
888T599 905Q708 905 795 871T942 775T1035 631T1068 449Q1068 349 1032 263T929 114T766 14T548 -23Q488 -23 430 -12T320 24T224 85T147 173L228 289Z" />
<glyph unicode="6" glyph-name="six" horiz-adv-x="1190" d="M944 1201Q894 1255 827 1283T675 1312Q606 1312 549 1289T447 1226T369 1129T315 1008T283 871T272 724Q299 773 337 809T424 868T528 903T645 914Q748 914 832 882T975 790T1066 645T1098 454Q1098
352 1064 265T966 114T813 14T612 -23Q481 -23 384 28T221 171T124 393T92 678Q92 837 129 978T240 1224T422 1391T674 1453Q783 1453 867 1418T999 1313L944 1201ZM620 778Q560 778 508 763T414 719T341 652T292 566Q291 548 291 537T290 519T290 508T290 501Q290
426 310 357T370 235T472 151T614 119Q684 119 740 144T837 213T898 318T920 448Q920 518 902 578T847 682T753 752T620 778Z" />
<glyph unicode="7" glyph-name="seven" horiz-adv-x="1189" d="M1065 1420V1329L479 0H293L873 1275H95V1420H1065Z" />
<glyph unicode="8" glyph-name="eight" horiz-adv-x="1190" d="M587 1453Q683 1453 766 1429T912 1358T1010 1244T1046 1091Q1046 964 972 877T765 747Q919 701 1000 603T1081 367Q1081 273 1041 200T932 78T774 3T587 -23Q489 -23 400 2T243 77T134 200T93 367Q93
504 174 602T409 747Q276 789 202 876T128 1091Q128 1176 164 1243T262 1357T407 1428T587 1453ZM587 119Q656 119 714 136T815 186T880 267T904 380Q904 440 881 488T815 573T715 634T587 673Q518 659 460 635T359 574T294 489T270 380Q270 316 293 268T359 186T459
136T587 119ZM587 1317Q529 1317 477 1302T386 1258T323 1185T300 1086Q300 977 374 912T587 820Q725 846 799 911T874 1086Q874 1142 851 1185T789 1257T697 1302T587 1317Z" />
<glyph unicode="9" glyph-name="nine" horiz-adv-x="1190" d="M237 234Q290 177 360 148T517 119Q617 119 692 167T817 295T893 482T918 705V707Q861 617 766 575T545 533Q440 533 356 566T212 659T120 802T88 984Q88 1083 122 1169T221 1318T376 1417T581 1453Q703
1453 798 1408T959 1274T1059 1056T1093 758Q1093 585 1055 442T943 195T761 34T514 -23Q405 -23 321 14T183 121L237 234ZM572 673Q632 673 684 689T780 734T854 804T903 894Q902 901 902 911T902 929Q902 999 884 1067T825 1190T723 1278T573 1312Q503 1312 446
1288T349 1220T286 1117T264 989Q264 922 282 864T339 764T435 697T572 673Z" />
<glyph unicode=":" glyph-name="colon" horiz-adv-x="540" d="M376 841H159V1051H376V841ZM376 -11H159V199H376V-11Z" />
<glyph unicode=";" glyph-name="semicolon" horiz-adv-x="540" d="M206 207H394L231 -256H100L206 207ZM376 841H159V1051H376V841Z" />
<glyph unicode="&lt;" glyph-name="less" horiz-adv-x="1458" d="M438 552L1222 200L1223 48L218 508L219 595L1226 1067L1227 914L438 552Z" />
<glyph unicode="=" glyph-name="equal" horiz-adv-x="1458" d="M1247 420V283H198V420H1247ZM1246 827V689H197V827H1246Z" />
<glyph unicode="&gt;" glyph-name="greater" horiz-adv-x="1458" d="M1004 555L220 926V1078L1225 594V505L215 58V212L1004 555Z" />
<glyph unicode="?" glyph-name="question" horiz-adv-x="1032" d="M356 368Q353 398 351 428Q349 454 348 481T346 530Q346 591 374 642T445 739T538 828T630 918T701 1014T730 1125Q730 1182 706 1222T642 1287T551 1324T444 1336Q375 1336 309 1319T183 1267V1413Q255
1448 328 1463T464 1478Q556 1478 635 1457T773 1392T865 1285T899 1133Q899 1069 870 1012T796 902T701 799T606 702T533 607T503 513Q503 490 505 465T511 418Q515 392 520 368H356ZM546 -11H329V199H546V-11Z" />
<glyph unicode="@" glyph-name="at" horiz-adv-x="1895" d="M1225 1107H1371L1314 857Q1274 684 1250 581T1226 434Q1226 397 1244 374T1309 350Q1368 350 1422 387T1517 485T1582 628T1607 796Q1607 919 1560 1022T1428 1199T1225 1315T966 1357Q818 1357 693
1304T476 1158T333 941T281 677Q281 535 330 414T471 203T689 63T972 12Q1119 12 1251 58T1486 192L1566 122Q1516 68 1450 26T1306 -47T1143 -93T967 -109Q785 -109 632 -49T367 116T193 366T130 679Q130 791 159 894T243 1085T374 1246T544 1369T745 1448T971
1476Q1081 1476 1182 1453T1371 1387T1531 1283T1653 1146T1732 981T1760 791Q1760 672 1719 569T1612 390T1460 269T1288 225Q1200 225 1143 262T1071 384Q1019 320 953 289T814 257Q754 257 697 279T596 346T525 457T498 610Q498 678 516 744T568 868T646 976T744
1062T857 1118T978 1138Q1056 1138 1116 1107T1207 1022L1225 1107ZM655 582Q655 538 666 502T700 440T756 400T831 385Q897 385 954 422T1052 521T1117 661T1141 821Q1141 863 1133 897T1105 956T1055 994T980 1007Q909 1007 849 968T746 866T679 729T655 582Z"
/>
<glyph unicode="A" glyph-name="A" horiz-adv-x="1425" d="M199 0H13L617 1456H802L1407 0H1216L1053 397H355L199 0ZM410 545H994L760 1150Q752 1169 743 1194T726 1243Q716 1270 707 1298Q697 1266 687 1237Q679 1212 670 1188T655 1149L410 545Z" />
<glyph unicode="B" glyph-name="B" horiz-adv-x="1352" d="M202 0V1456H492Q573 1456 648 1454T792 1444Q868 1435 932 1407T1044 1336T1117 1234T1144 1105Q1144 1045 1125 991T1070 894T986 818T879 769Q881 769 883 769T888 768Q960 753 1020 723T1123 646T1189
539T1213 403Q1213 323 1183 250T1091 122T940 33T729 0H202ZM374 828H570Q643 828 713 839T839 879T929 955T963 1077Q963 1150 934 1195T853 1266T733 1299T582 1308H374V828ZM374 680V148H657Q836 148 933 211T1031 406Q1031 485 1003 538T920 622T785 667T600
680H374Z" />
<glyph unicode="C" glyph-name="C" horiz-adv-x="1399" d="M1190 1219Q1037 1334 833 1334Q741 1334 665 1310T529 1242T424 1139T350 1011T306 866T291 712Q291 594 322 488T417 301T579 173T811 125Q934 125 1042 160T1233 268L1291 127Q1198 52 1071 15T785
-23Q620 -23 494 35T282 193T152 427T108 713Q108 816 129 913T192 1095T295 1252T434 1375T608 1454T814 1483Q950 1483 1057 1447T1255 1329L1190 1219Z" />
<glyph unicode="D" glyph-name="D" horiz-adv-x="1546" d="M193 1456H508Q638 1456 757 1441T978 1392T1164 1303T1307 1166T1398 975T1430 724Q1430 558 1375 425T1214 197T956 51T610 0H193V1456ZM365 148H626Q785 148 902 190T1096 309T1210 490T1248 721Q1248
885 1202 997T1066 1179T841 1278T529 1308H365V148Z" />
<glyph unicode="E" glyph-name="E" horiz-adv-x="1218" d="M1102 0H205V1456H1072V1308H377V820H1034V672H377V148H1102V0Z" />
<glyph unicode="F" glyph-name="F" horiz-adv-x="1137" d="M369 0H197V1456H1040V1308H369V815H1006V667H369V0Z" />
<glyph unicode="G" glyph-name="G" horiz-adv-x="1530" d="M1258 1196Q1221 1232 1176 1258T1079 1301T971 1326T856 1334Q717 1334 612 1282T436 1144T330 946T294 714Q294 583 329 475T435 289T612 168T863 125Q948 125 1028 139T1180 182V608H819V757H1352V81Q1231
24 1105 1T849 -23Q669 -23 532 29T303 176T163 404T116 701Q116 808 138 907T204 1094T312 1252T458 1375T641 1455T860 1483Q932 1483 1000 1472T1128 1439T1238 1382T1327 1301L1258 1196Z" />
<glyph unicode="H" glyph-name="H" horiz-adv-x="1555" d="M374 0H202V1456H374V822H1176V1456H1347V0H1176V674H374V0Z" />
<glyph unicode="I" glyph-name="I" horiz-adv-x="591" d="M382 0H210V1456H382V0Z" />
<glyph unicode="J" glyph-name="J" horiz-adv-x="939" d="M122 197Q166 163 216 144T326 125Q392 125 440 152T520 229T567 344T583 488V1456H755V499Q755 372 725 275T639 111T503 11T321 -23Q243 -23 182 4T71 81L122 197Z" />
<glyph unicode="K" glyph-name="K" horiz-adv-x="1294" d="M382 0H210V1456H382V796L470 887L1026 1456H1242L553 778L1296 0H1060L466 634L382 725V0Z" />
<glyph unicode="L" glyph-name="L" horiz-adv-x="1120" d="M1073 0H202V1456H374V148H1071L1073 0Z" />
<glyph unicode="M" glyph-name="M" horiz-adv-x="2002" d="M370 0H200V1456H438L913 416L997 212H999L1084 419L1562 1456H1796V0H1628V934V1251L1577 1130L1060 0H934L430 1108L370 1268V931V0Z" />
<glyph unicode="N" glyph-name="N" horiz-adv-x="1594" d="M193 0V1456H399L1146 342L1224 215V448V1456H1395V0H1187L437 1113L365 1237V1047V0H193Z" />
<glyph unicode="O" glyph-name="O" horiz-adv-x="1663" d="M1544 726Q1544 561 1496 424T1355 187T1130 32T829 -23Q662 -23 530 30T305 181T163 418T114 729Q114 893 163 1031T305 1269T532 1426T837 1483Q1000 1483 1131 1429T1354 1276T1495 1038T1544 726ZM298
725Q298 599 331 490T431 299T597 172T827 125Q959 125 1058 171T1224 299T1323 492T1356 734Q1356 861 1324 971T1225 1162T1061 1289T830 1335Q699 1335 600 1285T434 1151T332 957T298 725Z" />
<glyph unicode="P" glyph-name="P" horiz-adv-x="1274" d="M375 0H203V1456H544Q629 1456 710 1449T865 1423T999 1373T1105 1293T1175 1177T1200 1020Q1200 906 1151 824T1018 690T825 612T597 587H375V0ZM375 1308V736H636Q718 736 788 752T908 803T987 891T1016
1018Q1016 1105 985 1161T897 1250T762 1295T588 1308H375Z" />
<glyph unicode="Q" glyph-name="Q" horiz-adv-x="1664" d="M298 724Q298 599 331 490T431 300T597 172T827 125Q959 125 1058 171T1223 299T1322 492T1355 734Q1355 861 1323 970T1225 1161T1061 1288T830 1334Q699 1334 600 1284T433 1150T332 956T298 724ZM1601
-182Q1559 -187 1515 -189T1433 -192Q1293 -192 1198 -178T1036 -140T922 -85T829 -18Q668 -18 537 36T313 190T170 431T119 747Q119 909 169 1044T312 1277T539 1429T837 1483Q1000 1483 1131 1429T1353 1277T1494 1041T1543 738Q1543 606 1511 484T1413 264T1250
97T1024 2Q1064 -14 1118 -23T1228 -37T1337 -43T1429 -44Q1466 -44 1511 -40T1598 -28L1601 -182Z" />
<glyph unicode="R" glyph-name="R" horiz-adv-x="1377" d="M377 652V0H205V1456H561Q620 1456 690 1454T832 1441T969 1407T1086 1341T1168 1234T1199 1074Q1199 1005 1177 947T1114 843T1016 765T888 715H889Q950 695 989 656T1061 556T1124 410T1200 214L1287
0H1099L946 419Q921 487 897 532T839 603T760 641T647 652H377ZM377 799H643Q710 799 777 811T897 852T984 931T1017 1058Q1017 1133 990 1181T913 1258T798 1297T654 1308H377V799Z" />
<glyph unicode="S" glyph-name="S" horiz-adv-x="1244" d="M215 271Q248 231 292 204T386 159T488 133T591 125Q670 125 736 140T849 186T923 261T950 365Q950 431 915 477T824 560T694 624T546 683T397 747T268 829T176 941T141 1095Q141 1191 186 1263T305 1384T473
1458T666 1483Q723 1483 783 1476T898 1451T1001 1404T1081 1329L998 1217Q968 1250 930 1272T848 1308T758 1328T667 1334Q606 1334 545 1322T435 1282T355 1211T324 1105Q324 1041 359 995T451 912T580 846T729 785T877 718T1007 633T1099 519T1134 364Q1134
293 1111 237T1048 137T954 64T838 14T707 -14T572 -23Q499 -23 433 -10T311 27T211 85T137 161L215 271Z" />
<glyph unicode="T" glyph-name="T" horiz-adv-x="1174" d="M501 0V1308H32V1456H1145V1308H673V0H501Z" />
<glyph unicode="U" glyph-name="U" horiz-adv-x="1532" d="M191 1456H363V546Q363 342 464 234T763 125Q854 125 928 153T1055 235T1136 366T1165 539V1456H1337L1336 551Q1335 416 1299 309T1190 129T1009 16T756 -23Q600 -23 492 18T317 133T221 312T191 541V1456Z" />
<glyph unicode="V" glyph-name="V" horiz-adv-x="1336" d="M201 1456L624 307L670 166L718 308L1145 1456H1324L759 0H570L9 1456H201Z" />
<glyph unicode="W" glyph-name="W" horiz-adv-x="2103" d="M1115 1026L1052 1247L983 1026L657 0H444L21 1456H207L517 349L555 189L599 334L967 1456H1148L1507 345L1553 190L1589 332L1900 1456H2080L1657 0H1445L1115 1026Z" />
<glyph unicode="X" glyph-name="X" horiz-adv-x="1304" d="M584 537L215 0H11L548 741L47 1456H263L592 959L662 854L734 959L1079 1456H1275L764 742L1285 0H1072L710 538L646 630L584 537Z" />
<glyph unicode="Y" glyph-name="Y" horiz-adv-x="1266" d="M543 0V582L10 1456H201L632 727L1067 1456H1258L715 585V0H543Z" />
<glyph unicode="Z" glyph-name="Z" horiz-adv-x="1222" d="M1146 0H58V92L922 1308H90V1456H1154V1368L286 148H1146V0Z" />
<glyph unicode="[" glyph-name="bracketleft" horiz-adv-x="628" d="M548 -259H191V1451H547V1329H354V-137H548V-259Z" />
<glyph unicode="\" glyph-name="backslash" horiz-adv-x="706" d="M617 -119L-70 1451H98L783 -119H617Z" />
<glyph unicode="]" glyph-name="bracketright" horiz-adv-x="628" d="M78 1451H442V-259H87V-137H278V1329H88L78 1451Z" />
<glyph unicode="^" glyph-name="asciicircum" horiz-adv-x="1457" d="M184 550L665 1432H766L1255 550H1100L757 1175L714 1260L675 1176L340 550H184Z" />
<glyph unicode="_" glyph-name="underscore" horiz-adv-x="998" d="M998 -273H-4L-5 -145H997L998 -273Z" />
<glyph unicode="`" glyph-name="grave" horiz-adv-x="593" d="M1 1492H215L462 1172H333L1 1492Z" />
<glyph unicode="a" glyph-name="a" horiz-adv-x="1244" d="M582 1051Q645 1051 697 1040T793 1007T874 955T943 885L949 1026H1112L1108 773V0H943L945 144Q921 112 885 82T802 28T701 -9T584 -23Q498 -23 428 -1T303 61T208 154T141 268T102 394T89 524Q89 623
119 718T211 887T365 1006T582 1051ZM601 109Q671 109 732 137T840 221T914 359T943 550Q943 631 919 698T849 814T740 890T595 917Q534 917 485 901T398 855T332 787T286 704T260 611T251 516Q251 470 257 422T279 328T320 243T384 174T476 127T601 109Z" />
<glyph unicode="b" glyph-name="b" horiz-adv-x="1239" d="M318 0H150Q151 68 153 123Q154 147 154 170T155 214T156 249T157 270V1492H322V881Q385 968 480 1009T688 1051Q807 1051 892 1008T1031 893T1110 726T1136 525Q1136 413 1107 314T1019 139T872 21T668
-23Q559 -23 472 17T322 137L318 0ZM969 550Q969 626 947 693T884 809T783 888T650 917Q569 917 508 885T405 797T343 668T322 515Q322 428 338 358T393 239T494 162T647 135Q737 135 799 170T898 264T952 396T969 550Z" />
<glyph unicode="c" glyph-name="c" horiz-adv-x="1046" d="M881 801Q833 861 764 889T617 917Q534 917 469 885T359 798T289 668T265 508Q265 424 286 351T350 224T459 140T615 109Q784 109 918 225L964 87Q891 29 801 3T602 -23Q475 -23 380 18T220 131T124 299T92
503Q92 615 126 715T225 889T385 1007T602 1051Q723 1051 814 1013T956 908L881 801Z" />
<glyph unicode="d" glyph-name="d" horiz-adv-x="1240" d="M915 0L911 147Q846 55 761 16T557 -23Q438 -23 351 18T206 132T121 300T93 506Q93 614 122 712T211 886T359 1006T565 1051Q676 1051 764 1009T911 888V1492H1076V256Q1077 196 1078 127T1082 0H915ZM583
109Q664 109 725 140T828 229T891 368T912 548Q912 631 890 699T825 815T724 890T592 917Q507 917 446 884T344 795T285 665T266 507Q266 429 282 357T336 230T434 142T583 109Z" />
<glyph unicode="e" glyph-name="e" horiz-adv-x="1173" d="M906 609L905 623Q900 688 880 742T823 835T736 895T619 917Q549 917 493 893T397 826T331 728T297 609H906ZM1039 115Q956 43 855 10T626 -23Q505 -23 410 16T250 126T150 295T115 510Q115 621 149 719T248
891T406 1008T620 1051Q738 1051 825 1013T968 907T1051 746T1079 544Q1079 533 1079 519T1077 492H290L293 447Q299 372 323 310T391 203T495 134T636 109Q742 109 830 146T988 252L1039 115Z" />
<glyph unicode="f" glyph-name="f" horiz-adv-x="702" d="M411 0H246V919H46L45 1026H246L248 1138Q249 1219 264 1288T313 1407T403 1485T545 1514Q566 1514 583 1513T615 1508T647 1501T681 1493L683 1364Q663 1372 633 1375T573 1379Q522 1379 491 1365T442
1324T419 1256T412 1162L411 1026H658L659 919H411V0Z" />
<glyph unicode="g" glyph-name="g" horiz-adv-x="1241" d="M201 -187Q280 -236 367 -259T538 -282Q626 -282 695 -263T813 -203T886 -100T912 49V176Q852 88 761 44T560 0Q449 0 362 37T215 141T123 302T91 511Q91 620 121 718T211 890T361 1007T572 1051Q689
1051 770 1009T912 885Q912 902 913 926T915 973Q916 999 918 1026H1083Q1081 978 1080 931Q1078 891 1078 848T1077 773V147Q1077 79 1069 11T1040 -121T982 -239T887 -334T745 -398T550 -422Q450 -422 358 -402T182 -340L201 -187ZM912 550Q912 626 890 693T827
809T726 888T593 917Q512 917 451 885T348 797T286 668T265 515Q265 428 281 358T336 239T437 162T590 135Q680 135 742 170T841 264T895 396T912 550Z" />
<glyph unicode="h" glyph-name="h" horiz-adv-x="1217" d="M334 1492V890Q397 975 481 1013T679 1051Q791 1051 863 1015T978 919T1037 786T1054 636V0H889V626Q889 690 877 743T835 835T756 895T633 917Q562 917 507 891T413 819T355 713T334 585V0H169V1492H334Z" />
<glyph unicode="i" glyph-name="i" horiz-adv-x="503" d="M328 1462V1307H175V1462H328ZM167 1026H332V0H167V1026Z" />
<glyph unicode="j" glyph-name="j" horiz-adv-x="503" d="M327 1462V1307H174V1462H327ZM-102 -273Q-75 -278 -55 -280T-18 -283Q79 -283 127 -208T175 31V1026H340V106Q341 50 338 -11T323 -132T291 -246T235 -340T147 -405T21 -429Q-37 -429 -101 -416L-102 -273Z" />
<glyph unicode="k" glyph-name="k" horiz-adv-x="1082" d="M343 1492V587L809 1026H1034L504 542Q645 407 788 271T1072 0H853L343 501V0H178V1492H343Z" />
<glyph unicode="l" glyph-name="l" horiz-adv-x="503" d="M333 1492V0H168V1492H333Z" />
<glyph unicode="m" glyph-name="m" horiz-adv-x="1901" d="M330 1026L334 888Q394 972 476 1011T665 1051Q723 1051 774 1037T868 996T943 933T994 849Q1052 954 1143 1002T1366 1051Q1475 1051 1546 1016T1658 922T1716 790T1733 636V0H1568V558Q1568 622 1561
686T1528 801T1452 885T1317 917Q1250 917 1198 890T1109 816T1053 711T1034 587V0H869V635Q869 693 855 744T811 834T732 894T616 917Q548 917 496 891T407 819T353 714T334 587V0H169V761Q169 827 168 895T163 1026H330Z" />
<glyph unicode="n" glyph-name="n" horiz-adv-x="1217" d="M333 0H168V779Q168 825 167 869T165 949Q163 989 162 1026H329L333 884Q393 969 477 1010T677 1051Q789 1051 862 1014T977 911T1036 752T1053 550V0H888V531Q888 618 881 689T849 811T776 889T647 917Q572
917 514 888T416 818T355 732T333 652V0Z" />
<glyph unicode="o" glyph-name="o" horiz-adv-x="1238" d="M620 1051Q749 1051 846 1009T1009 894T1107 723T1140 513Q1140 405 1106 308T1005 137T840 20T616 -23Q488 -23 390 19T226 133T125 302T90 511Q90 622 125 720T227 892T393 1008T620 1051ZM966 511Q966
593 945 667T881 796T772 884T616 917Q529 917 463 884T353 794T286 663T263 509Q263 429 285 357T352 230T464 142T620 109Q708 109 773 142T881 230T945 358T966 511Z" />
<glyph unicode="p" glyph-name="p" horiz-adv-x="1239" d="M323 -427H159V758Q159 779 159 809T157 876T155 950T151 1026H318L323 880Q386 965 474 1008T668 1051Q789 1051 877 1009T1024 896T1110 729T1139 527Q1139 419 1110 320T1022 144T875 23T668 -23Q452
-23 323 135V-427ZM323 494Q323 411 344 341T405 219T506 138T644 109Q728 109 788 143T887 234T944 365T963 521Q963 597 947 668T895 795T798 884T650 917Q558 917 496 882T395 789T340 654T323 494Z" />
<glyph unicode="q" glyph-name="q" horiz-adv-x="1240" d="M913 148Q847 60 754 19T545 -23Q433 -23 349 18T207 130T122 298T93 506Q93 615 123 713T212 887T360 1006T567 1051Q679 1051 767 1011T913 898L918 1026H1085Q1081 968 1080 910T1078 813V-426H913V148ZM913
543Q913 625 892 694T830 812T729 889T593 917Q509 917 447 885T345 797T286 666T266 507Q266 427 284 355T340 228T438 141T582 109Q678 109 741 146T843 245T897 384T913 543Z" />
<glyph unicode="r" glyph-name="r" horiz-adv-x="737" d="M332 0H167V779Q167 842 165 905T161 1026H326L332 871Q374 956 446 1003T606 1050Q664 1050 714 1038L716 883Q695 894 665 900T601 907Q541 907 491 884T406 816T352 709T332 568V0Z" />
<glyph unicode="s" glyph-name="s" horiz-adv-x="1007" d="M790 847Q736 884 660 900T502 917Q456 917 417 907T350 879T305 834T288 774Q288 739 305 714T351 671T419 638T502 610Q542 598 587 585T678 555T764 514T836 458T886 383T905 284Q905 206 869 149T774
53T639 -4T483 -23Q430 -23 378 -17T279 3T191 39T121 94L165 229Q192 197 228 174T305 137T391 116T477 109Q533 109 580 119T661 150T715 201T735 272Q735 318 713 346T652 395T559 431T442 467Q367 491 307 517T204 579T140 660T117 771Q117 842 149 895T235
982T355 1034T493 1051Q596 1051 683 1032T832 964L790 847Z" />
<glyph unicode="t" glyph-name="t" horiz-adv-x="729" d="M243 919H40V1026H243L248 1298L408 1345V1026H664V919H408V306Q408 272 410 237T423 172T459 124T527 105Q559 105 594 113T671 137L670 14Q635 -6 594 -14T501 -23Q417 -23 367 5T289 82T252 194T243 329V919Z" />
<glyph unicode="u" glyph-name="u" horiz-adv-x="1217" d="M878 1026H1043V246Q1043 180 1044 122T1051 0H881L878 135Q762 -23 540 -23Q464 -23 406 -6T306 42T235 113T189 201T165 298T157 399V1026H322V399Q321 256 383 183T578 109Q650 109 705 135T799 206T858
310T878 436V1026Z" />
<glyph unicode="v" glyph-name="v" horiz-adv-x="1063" d="M14 1026H196L477 336Q484 319 494 291T513 233Q524 200 535 163Q545 199 556 232Q565 260 574 289T591 336L867 1026H1044L611 0H443L14 1026Z" />
<glyph unicode="w" glyph-name="w" horiz-adv-x="1695" d="M201 1026L450 284Q454 272 458 256T468 223Q473 205 479 186Q485 202 490 219Q495 233 500 248T510 276L775 1026H941L1189 286Q1193 274 1197 258T1207 226Q1212 208 1218 189Q1225 207 1231 225Q1236
240 1241 256T1252 287L1492 1026H1661L1293 0H1133L852 831L552 0H390L25 1026H201Z" />
<glyph unicode="x" glyph-name="x" horiz-adv-x="1043" d="M420 514L39 1026H242L526 614L819 1026H998L620 518L1011 0H810L511 418L210 0H20L420 514Z" />
<glyph unicode="y" glyph-name="y" horiz-adv-x="1069" d="M17 1026H198L530 171L871 1026H1046L592 -72Q565 -138 527 -197T440 -302T332 -381T201 -427L109 -314Q193 -292 248 -260T338 -192T392 -118T425 -43L442 6L17 1026Z" />
<glyph unicode="z" glyph-name="z" horiz-adv-x="958" d="M58 89L658 891H84V1026H881V939L283 134H896L898 0H58V89Z" />
<glyph unicode="{" glyph-name="braceleft" horiz-adv-x="627" d="M566 -259Q496 -256 437 -241T335 -193T267 -111T243 11L244 274Q244 320 241 364T223 444T176 504T86 534L85 656Q129 660 160 678T210 727T238 798T247 890Q245 953 245 1016T243 1143Q243 1216
260 1273T315 1369T415 1430T566 1451V1325Q527 1324 498 1316T449 1288T419 1237T409 1157L408 868Q408 809 394 764T360 685T315 629T268 595Q311 575 337 544T379 475T399 398T405 325Q405 276 404 217T403 107Q403 37 411 -9T437 -83T487 -122T566 -133V-259Z"
/>
<glyph unicode="|" glyph-name="bar" horiz-adv-x="500" d="M168 -491V1545H325V-491H168Z" />
<glyph unicode="}" glyph-name="braceright" horiz-adv-x="627" d="M66 -133Q113 -133 144 -122T194 -84T221 -10T229 107Q229 158 228 217T227 325Q227 359 232 398T253 474T294 543T364 595Q342 607 318 629T273 684T238 763T224 868L223 1157Q223 1205 213
1236T184 1287T135 1315T66 1325V1451Q155 1451 216 1430T316 1370T372 1273T389 1143Q387 1080 387 1017T385 890Q385 840 394 799T422 727T472 679T547 656L546 534Q488 528 456 504T409 445T391 365T388 274L389 11Q389 -61 365 -111T298 -193T195 -240T66 -259V-133Z"
/>
<glyph unicode="~" glyph-name="asciitilde" horiz-adv-x="1458" d="M491 705Q529 705 571 693T658 664T745 625T827 587T900 557T957 545Q990 545 1018 560T1068 600T1107 657T1131 723L1256 684Q1242 624 1216 574T1152 488T1065 431T956 410Q926 410 889 422T811
452T727 490T643 529T564 559T494 571Q455 571 424 555T369 513T329 454T304 385L189 440Q200 492 225 539T288 624T377 683T491 705Z" />
<glyph unicode="&#xa0;" glyph-name="nbspace" horiz-adv-x="561" />
<glyph unicode="&#xa1;" glyph-name="exclamdown" horiz-adv-x="737" d="M260 1090H474V884H260V1090ZM466 -384H271L311 694H426L466 -384Z" />
<glyph unicode="&#xa2;" glyph-name="cent" horiz-adv-x="1189" d="M959 801Q923 846 874 873T767 911L717 109Q871 116 996 225L1042 87Q973 33 891 7T709 -22L695 -255H566L580 -15Q478 0 401 46T273 162T196 318T170 503Q170 611 201 708T293 878T443 998T646
1050L659 1261H789L775 1044Q862 1031 927 996T1034 908L959 801ZM343 508Q343 437 358 374T403 260T479 174T589 122L637 912Q568 901 513 866T421 776T363 654T343 508Z" />
<glyph unicode="&#xa3;" glyph-name="sterling" horiz-adv-x="1189" d="M1010 1237Q957 1270 887 1288T736 1307Q660 1307 608 1281T524 1208T477 1095T463 947L466 832H796L798 690H468Q468 613 467 529T456 368T427 232T370 141H1079L1081 0H115L114 138Q148
158 181 182T240 240T281 323T297 440V690H116L114 832H296Q293 910 296 985T315 1129T361 1256T440 1357T561 1424T733 1448Q839 1448 922 1425T1062 1357L1010 1237Z" />
<glyph unicode="&#xa4;" glyph-name="currency" horiz-adv-x="1246" d="M587 1051Q648 1051 711 1034L825 1301L866 1285L751 1018Q849 972 895 886T941 688Q941 634 930 583T897 485T843 401T768 336L906 56L871 40L734 316Q691 296 645 285T545 274Q479 274
436 287L329 40L292 56L397 301Q296 341 243 430T190 635Q190 695 203 751T241 855T303 942T391 1006L252 1285L293 1301L430 1023Q496 1051 587 1051ZM847 660V683Q847 744 831 797T782 891T699 955T578 979Q506 979 451 951T359 875T302 766T283 639Q283 579
300 526T351 433T435 369T554 345Q624 345 677 371T767 440T824 541T847 660Z" />
<glyph unicode="&#xa5;" glyph-name="yen" horiz-adv-x="1189" d="M680 0H508V283H109L98 423H506V574H103V716H471L26 1420H231L520 937L601 796L686 936L973 1420H1159L704 716H1068V574H677V423H1071V283H680V0Z" />
<glyph unicode="&#xa6;" glyph-name="brokenbar" horiz-adv-x="500" d="M168 -491V393H325V-491H168ZM168 677V1545H325V677H168Z" />
<glyph unicode="&#xa7;" glyph-name="section" horiz-adv-x="1097" d="M834 1304Q810 1315 781 1324T722 1341T662 1352T608 1356Q562 1356 523 1349T455 1325T410 1283T393 1221Q393 1191 403 1167T439 1119T506 1072T611 1022Q671 996 725 969T821 907T886 832T911
737Q911 695 896 658T855 589T795 530T725 480Q761 462 791 440T842 391T876 330T888 252Q888 180 855 124T765 30T636 -28T482 -48Q413 -48 344 -35T212 4L210 153Q284 119 350 104T477 89Q533 89 577 101T652 133T699 182T715 243Q715 276 701 299T660 342T594
379T505 418L421 454Q313 500 249 567T185 729Q185 772 200 808T242 876T302 931T374 975Q338 997 310 1021T262 1075T232 1138T221 1217Q221 1286 251 1338T333 1424T454 1476T603 1493Q667 1493 720 1482T832 1452L834 1304ZM591 547Q615 562 640 580T686 620T720
667T733 723Q733 755 720 778T683 820T627 854T558 885L535 894Q525 898 515 902T495 912Q469 898 446 881T403 842T373 796T362 741Q362 704 378 677T425 628T498 587T591 547Z" />
<glyph unicode="&#xa8;" glyph-name="dieresis" horiz-adv-x="743" d="M285 1246H122V1409H286L285 1246ZM618 1246H454V1409H618V1246Z" />
<glyph unicode="&#xa9;" glyph-name="copyright" horiz-adv-x="1829" d="M1249 339Q1120 249 940 249Q835 249 747 286T595 389T496 541T460 729Q460 833 495 921T594 1072T749 1172T951 1208Q1123 1208 1245 1105L1214 985Q1104 1080 944 1080Q867 1080 806 1053T702
979T636 869T613 733Q613 659 636 595T704 483T816 408T972 380Q1038 380 1098 399T1210 460L1249 339ZM230 727Q230 636 253 554T321 400T426 270T564 171T728 108T913 85Q1057 85 1180 134T1395 270T1538 472T1590 724Q1590 815 1567 897T1499 1051T1394 1181T1257
1280T1093 1343T909 1366Q766 1366 642 1317T427 1182T283 979T230 727ZM914 -32Q802 -32 698 -5T504 72T340 191T214 345T132 525T103 726Q103 830 132 926T214 1106T341 1259T504 1378T696 1455T908 1483Q1020 1483 1123 1456T1316 1378T1480 1259T1606 1105T1688
924T1717 725Q1717 621 1688 525T1607 345T1481 192T1318 73T1127 -4T914 -32Z" />
<glyph unicode="&#xaa;" glyph-name="ordfeminine" horiz-adv-x="745" d="M317 768Q263 768 217 782T138 824T85 889T66 975Q66 1018 84 1054T134 1118T211 1165T309 1192Q366 1201 424 1202T536 1211V1219Q536 1262 529 1291T504 1337T458 1361T388 1369Q358
1369 328 1365T271 1351T221 1322T178 1275L111 1350Q151 1418 225 1447T394 1477Q523 1477 596 1418T669 1244V1235L667 914Q666 903 667 883T670 840L674 786H543L537 860Q503 818 448 793T317 768ZM338 871Q389 871 426 888T489 936T528 1004T543 1085L539 1110Q504
1103 466 1100T390 1092T318 1082T258 1063T217 1030T202 977Q202 921 240 896T338 871Z" />
<glyph unicode="&#xab;" glyph-name="guillemotleft" horiz-adv-x="1156" d="M521 914H681L416 541L672 171H515L246 541L521 914ZM890 914H1049L786 541L1042 171H885L616 541L890 914Z" />
<glyph unicode="&#xac;" glyph-name="logicalnot" horiz-adv-x="1458" d="M1098 238V659H200V798H1248V238H1098Z" />
<glyph unicode="&#xae;" glyph-name="registered" horiz-adv-x="1829" d="M745 664V273H597V1192H870Q1089 1192 1195 1126T1301 935Q1301 889 1286 847T1238 771T1156 714T1036 681Q1064 655 1092 620T1150 542T1209 453T1269 357L1320 273H1152L1029 485Q991
551 955 596T882 664H745ZM743 783H868Q932 783 983 787T1071 805T1126 847T1146 920Q1146 970 1131 1000T1081 1046T993 1067T860 1072H742L743 783ZM913 85Q1009 85 1096 107T1259 171T1395 270T1500 399T1566 552T1590 724Q1590 815 1567 897T1499 1051T1394
1181T1257 1280T1093 1343T909 1366Q766 1366 642 1317T427 1182T283 979T230 727Q230 636 253 554T321 400T426 270T564 171T728 108T913 85ZM914 -32Q802 -32 698 -5T504 72T340 191T214 345T132 525T103 726Q103 830 132 926T214 1106T341 1259T504 1378T696
1455T908 1483Q1020 1483 1123 1456T1316 1378T1480 1259T1606 1105T1688 924T1717 725Q1717 621 1688 525T1607 345T1481 192T1318 73T1127 -4T914 -32Z" />
<glyph unicode="&#xaf;" glyph-name="uni00AF" horiz-adv-x="850" d="M853 1380H-3V1510H853V1380Z" />
<glyph unicode="&#xb0;" glyph-name="degree" horiz-adv-x="844" d="M414 1328Q375 1328 340 1315T278 1278T236 1222T220 1151Q220 1113 235 1080T276 1023T338 985T414 971Q454 971 489 985T551 1023T593 1080T608 1151Q608 1189 593 1221T551 1277T489 1314T414
1328ZM414 855Q349 855 292 878T190 942T121 1035T95 1150Q95 1211 120 1264T189 1358T291 1421T414 1444Q479 1444 537 1421T638 1358T707 1265T733 1150Q733 1089 708 1036T638 942T536 879T414 855Z" />
<glyph unicode="&#xb1;" glyph-name="plusminus" horiz-adv-x="1458" d="M200 0V138H1249V0H200ZM645 733V1107H794V733H1245V595H798V223H647V595H188V733H645Z" />
<glyph unicode="&#xb2;" glyph-name="twosuperior" horiz-adv-x="1190" d="M283 604V715L378 802Q433 853 490 908T595 1016T671 1119T701 1211Q701 1262 664 1292T561 1323Q498 1323 452 1288T376 1192L291 1270Q326 1351 398 1395T567 1440Q623 1440 671 1424T754
1379T810 1307T830 1213Q830 1148 802 1088T724 969T608 849T465 722H829V604H283Z" />
<glyph unicode="&#xb3;" glyph-name="threesuperior" horiz-adv-x="1190" d="M235 1340Q281 1385 348 1413T487 1441Q539 1441 588 1426T675 1382T736 1311T759 1213Q759 1154 732 1107T652 1032Q712 1005 746 956T780 834Q780 777 756 731T691 653T596 603T481
586Q409 586 346 610T235 683L295 779Q379 701 476 701Q512 701 544 710T599 736T637 779T651 837Q651 874 636 899T593 941T525 964T436 971Q432 971 428 971T421 970H380V1089H429Q472 1089 508 1095T570 1115T611 1153T626 1210Q626 1239 616 1260T586 1295T542
1315T485 1322Q431 1322 384 1301T293 1244L235 1340Z" />
<glyph unicode="&#xb4;" glyph-name="acute" horiz-adv-x="607" d="M401 1492H613L305 1172H175L401 1492Z" />
<glyph unicode="&#xb5;" glyph-name="mu" horiz-adv-x="1217" d="M157 1026H322V399Q322 256 383 183T578 109Q650 109 705 135T799 206T858 310T878 436V1026H1043V246Q1043 180 1044 122T1051 0H881L878 135Q762 -23 540 -23Q471 -23 418 -9T322 31V-202H157V1026Z" />
<glyph unicode="&#xb6;" glyph-name="paragraph" horiz-adv-x="1214" d="M442 -148V786Q374 787 313 812T207 882T134 990T107 1130Q107 1224 148 1286T261 1384T425 1436T623 1451H1009V1327H922V-148H793V1327H585V-148H442Z" />
<glyph unicode="&#xb7;" glyph-name="middot" horiz-adv-x="444" d="M293 513H76V723H293V513Z" />
<glyph unicode="&#xb8;" glyph-name="cedilla" horiz-adv-x="529" d="M60 -289Q104 -300 142 -306T211 -313Q274 -313 299 -293T325 -241Q325 -200 295 -184T216 -168Q213 -168 202 -169T179 -171L147 -173L180 17H277L259 -90Q301 -91 339 -99T405 -126T451 -171T468
-239Q468 -279 450 -308T399 -357T322 -386T227 -396Q188 -396 143 -390T52 -374L60 -289Z" />
<glyph unicode="&#xb9;" glyph-name="onesuperior" horiz-adv-x="1190" d="M240 1333Q293 1350 333 1370T408 1412L513 1427V720H635V604H270V723H392V1069Q392 1102 392 1134T391 1200V1271Q359 1254 319 1236T239 1203L240 1333Z" />
<glyph unicode="&#xba;" glyph-name="ordmasculine" horiz-adv-x="824" d="M415 1476Q503 1476 570 1449T682 1373T751 1261T774 1121Q774 1048 751 984T682 871T570 795T416 767Q326 767 259 794T145 870T76 983T53 1124Q53 1198 77 1262T147 1373T261 1448T415
1476ZM193 1123Q193 1072 206 1027T248 948T318 895T416 875Q469 875 510 894T579 947T621 1025T636 1119Q636 1171 622 1216T579 1296T509 1349T413 1369Q360 1369 319 1350T250 1296T208 1218T193 1123Z" />
<glyph unicode="&#xbb;" glyph-name="guillemotright" horiz-adv-x="1156" d="M720 171H563L824 542L570 914H726L996 542L720 171ZM325 171H165L430 542L172 914H330L600 542L325 171Z" />
<glyph unicode="&#xbc;" glyph-name="onequarter" horiz-adv-x="1986" d="M240 1333Q293 1350 333 1370T408 1412L513 1427V720H635V604H270V723H392V1069Q392 1102 392 1134T391 1200V1271Q359 1254 319 1236T239 1203L240 1333ZM1491 1436L588 0H437L1342 1436H1491ZM1442
37V225H1064V316L1430 834H1564V332H1673L1683 225H1562V37H1442ZM1440 332V512L1443 668L1203 332H1440Z" />
<glyph unicode="&#xbd;" glyph-name="onehalf" horiz-adv-x="1858" d="M240 1333Q293 1350 333 1370T408 1412L513 1427V720H635V604H270V723H392V1069Q392 1102 392 1134T391 1200V1271Q359 1254 319 1236T239 1203L240 1333ZM1433 1436L530 0H379L1284 1436H1433ZM1064
-25V86L1159 173Q1214 224 1271 279T1376 387T1452 490T1482 582Q1482 633 1445 663T1342 694Q1279 694 1233 659T1157 563L1072 641Q1107 722 1179 766T1348 811Q1404 811 1452 795T1535 750T1591 678T1611 584Q1611 519 1583 459T1505 340T1389 220T1246 93H1610V-25H1064Z"
/>
<glyph unicode="&#xbe;" glyph-name="threequarters" horiz-adv-x="1921" d="M436 1340Q482 1385 549 1413T688 1441Q740 1441 789 1426T876 1382T937 1311T960 1213Q960 1154 933 1107T853 1032Q913 1005 947 956T981 834Q981 777 957 731T892 653T797 603T682
586Q610 586 547 610T436 683L496 779Q580 701 677 701Q713 701 745 710T800 736T838 779T852 837Q852 874 837 899T794 941T726 964T637 971Q633 971 629 971T622 970H581V1089H630Q673 1089 709 1095T771 1115T812 1153T827 1210Q827 1239 817 1260T787 1295T743
1315T686 1322Q632 1322 585 1301T494 1244L436 1340ZM1477 1436L574 0H423L1328 1436H1477ZM1411 41V229H1033V320L1399 838H1533V336H1642L1652 229H1531V41H1411ZM1409 336V516L1412 672L1172 336H1409Z" />
<glyph unicode="&#xbf;" glyph-name="questiondown" horiz-adv-x="1032" d="M689 702Q691 672 694 642Q696 616 697 588T699 540Q699 479 671 428T600 331T507 242T415 152T344 56T315 -55Q315 -112 339 -152T403 -217T494 -254T601 -266Q670 -266 736 -249T862
-197V-343Q790 -378 717 -393T581 -408Q489 -408 410 -387T272 -322T180 -215T146 -63Q146 0 175 57T249 168T344 271T439 368T512 463T542 557Q542 580 539 605T533 652Q529 678 525 702H689ZM499 1081H716V871H499V1081Z" />
<glyph unicode="&#xc0;" glyph-name="Agrave" horiz-adv-x="1425" d="M199 0H13L617 1456H802L1407 0H1216L1053 397H355L199 0ZM410 545H994L760 1150Q752 1169 743 1194T726 1243Q716 1270 707 1298Q697 1266 687 1237Q679 1212 670 1188T655 1149L410 545ZM482
1922H696L943 1602H814L482 1922Z" />
<glyph unicode="&#xc1;" glyph-name="Aacute" horiz-adv-x="1425" d="M199 0H13L617 1456H802L1407 0H1216L1053 397H355L199 0ZM410 545H994L760 1150Q752 1169 743 1194T726 1243Q716 1270 707 1298Q697 1266 687 1237Q679 1212 670 1188T655 1149L410 545ZM719
1922H931L623 1602H493L719 1922Z" />
<glyph unicode="&#xc2;" glyph-name="Acircumflex" horiz-adv-x="1425" d="M199 0H13L617 1456H802L1407 0H1216L1053 397H355L199 0ZM410 545H994L760 1150Q752 1169 743 1194T726 1243Q716 1270 707 1298Q697 1266 687 1237Q679 1212 670 1188T655 1149L410
545ZM405 1600L633 1924H790L1019 1600H887L709 1816L531 1600H405Z" />
<glyph unicode="&#xc3;" glyph-name="Atilde" horiz-adv-x="1425" d="M199 0H13L617 1456H802L1407 0H1216L1053 397H355L199 0ZM410 545H994L760 1150Q752 1169 743 1194T726 1243Q716 1270 707 1298Q697 1266 687 1237Q679 1212 670 1188T655 1149L410 545ZM1034
1865Q1029 1820 1015 1781T975 1713T916 1667T839 1650Q809 1650 777 1660T711 1684T646 1707T586 1718Q505 1718 495 1633H390Q394 1680 410 1718T451 1785T512 1828T589 1843Q624 1843 656 1833T720 1809T780 1786T839 1775Q873 1775 896 1797T926 1865H1034Z"
/>
<glyph unicode="&#xc4;" glyph-name="Adieresis" horiz-adv-x="1425" d="M199 0H13L617 1456H802L1407 0H1216L1053 397H355L199 0ZM410 545H994L760 1150Q752 1169 743 1194T726 1243Q716 1270 707 1298Q697 1266 687 1237Q679 1212 670 1188T655 1149L410 545ZM627
1676H464V1839H628L627 1676ZM960 1676H796V1839H960V1676Z" />
<glyph unicode="&#xc5;" glyph-name="Aring" horiz-adv-x="1425" d="M199 0H13L617 1456H802L1407 0H1216L1053 397H355L199 0ZM410 545H994L760 1150Q752 1169 743 1194T726 1243Q716 1270 707 1298Q697 1266 687 1237Q679 1212 670 1188T655 1149L410 545ZM822
1770Q822 1792 814 1811T790 1844T755 1866T711 1875Q689 1875 669 1867T634 1844T610 1811T601 1770Q601 1724 630 1695T711 1665Q733 1665 753 1673T788 1696T813 1729T822 1770ZM502 1769Q502 1810 518 1845T563 1905T630 1945T712 1960Q756 1960 794 1945T861
1905T906 1844T922 1770Q922 1730 905 1696T860 1635T793 1594T713 1579Q669 1579 631 1593T564 1633T519 1694T502 1769Z" />
<glyph unicode="&#xc6;" glyph-name="AE" horiz-adv-x="2028" d="M944 1308L506 546H1054L994 1308H944ZM836 1456H1875L1878 1308H1159L1197 820H1834L1837 672H1216L1257 148H1898L1901 0H1104L1073 398H427L201 0H5L836 1456Z" />
<glyph unicode="&#xc7;" glyph-name="Ccedilla" horiz-adv-x="1399" d="M1190 1219Q1037 1334 833 1334Q741 1334 665 1310T529 1242T424 1139T350 1011T306 866T291 712Q291 594 322 488T417 301T579 173T811 125Q934 125 1042 160T1233 268L1291 127Q1198 52
1071 15T785 -23Q620 -23 494 35T282 193T152 427T108 713Q108 816 129 913T192 1095T295 1252T434 1375T608 1454T814 1483Q950 1483 1057 1447T1255 1329L1190 1219ZM499 -289Q543 -300 581 -306T650 -313Q713 -313 738 -293T764 -241Q764 -200 734 -184T655
-168Q652 -168 641 -169T618 -171L586 -173L619 17H716L698 -90Q740 -91 778 -99T844 -126T890 -171T907 -239Q907 -279 889 -308T838 -357T761 -386T666 -396Q627 -396 582 -390T491 -374L499 -289Z" />
<glyph unicode="&#xc8;" glyph-name="Egrave" horiz-adv-x="1218" d="M1102 0H205V1456H1072V1308H377V820H1034V672H377V148H1102V0ZM378 1922H592L839 1602H710L378 1922Z" />
<glyph unicode="&#xc9;" glyph-name="Eacute" horiz-adv-x="1218" d="M1102 0H205V1456H1072V1308H377V820H1034V672H377V148H1102V0ZM616 1922H828L520 1602H390L616 1922Z" />
<glyph unicode="&#xca;" glyph-name="Ecircumflex" horiz-adv-x="1218" d="M1102 0H205V1456H1072V1308H377V820H1034V672H377V148H1102V0ZM302 1600L530 1924H687L916 1600H784L606 1816L428 1600H302Z" />
<glyph unicode="&#xcb;" glyph-name="Edieresis" horiz-adv-x="1218" d="M1102 0H205V1456H1072V1308H377V820H1034V672H377V148H1102V0ZM524 1676H361V1839H525L524 1676ZM857 1676H693V1839H857V1676Z" />
<glyph unicode="&#xcc;" glyph-name="Igrave" horiz-adv-x="591" d="M382 0H210V1456H382V0ZM65 1922H279L526 1602H397L65 1922Z" />
<glyph unicode="&#xcd;" glyph-name="Iacute" horiz-adv-x="591" d="M382 0H210V1456H382V0ZM304 1922H516L208 1602H78L304 1922Z" />
<glyph unicode="&#xce;" glyph-name="Icircumflex" horiz-adv-x="591" d="M382 0H210V1456H382V0ZM-10 1600L218 1924H375L604 1600H472L294 1816L116 1600H-10Z" />
<glyph unicode="&#xcf;" glyph-name="Idieresis" horiz-adv-x="591" d="M382 0H210V1456H382V0ZM212 1676H49V1839H213L212 1676ZM545 1676H381V1839H545V1676Z" />
<glyph unicode="&#xd0;" glyph-name="Eth" horiz-adv-x="1546" d="M193 658H0L-1 795H193V1456H508Q638 1456 757 1441T978 1392T1164 1303T1307 1166T1398 975T1430 724Q1430 558 1375 425T1214 197T956 51T610 0H193V658ZM365 658V148H626Q785 148 902 190T1096
309T1210 490T1248 721Q1248 885 1202 997T1066 1179T841 1278T529 1308H365V795H570L571 658H365Z" />
<glyph unicode="&#xd1;" glyph-name="Ntilde" horiz-adv-x="1594" d="M193 0V1456H399L1146 342L1224 215V448V1456H1395V0H1187L437 1113L365 1237V1047V0H193ZM1119 1865Q1114 1820 1100 1781T1060 1713T1001 1667T924 1650Q894 1650 862 1660T796 1684T731
1707T671 1718Q590 1718 580 1633H475Q479 1680 495 1718T536 1785T597 1828T674 1843Q709 1843 741 1833T805 1809T865 1786T924 1775Q958 1775 981 1797T1011 1865H1119Z" />
<glyph unicode="&#xd2;" glyph-name="Ograve" horiz-adv-x="1663" d="M1544 726Q1544 561 1496 424T1355 187T1130 32T829 -23Q662 -23 530 30T305 181T163 418T114 729Q114 893 163 1031T305 1269T532 1426T837 1483Q1000 1483 1131 1429T1354 1276T1495 1038T1544
726ZM298 725Q298 599 331 490T431 299T597 172T827 125Q959 125 1058 171T1224 299T1323 492T1356 734Q1356 861 1324 971T1225 1162T1061 1289T830 1335Q699 1335 600 1285T434 1151T332 957T298 725ZM601 1922H815L1062 1602H933L601 1922Z" />
<glyph unicode="&#xd3;" glyph-name="Oacute" horiz-adv-x="1663" d="M1544 726Q1544 561 1496 424T1355 187T1130 32T829 -23Q662 -23 530 30T305 181T163 418T114 729Q114 893 163 1031T305 1269T532 1426T837 1483Q1000 1483 1131 1429T1354 1276T1495 1038T1544
726ZM298 725Q298 599 331 490T431 299T597 172T827 125Q959 125 1058 171T1224 299T1323 492T1356 734Q1356 861 1324 971T1225 1162T1061 1289T830 1335Q699 1335 600 1285T434 1151T332 957T298 725ZM838 1922H1050L742 1602H612L838 1922Z" />
<glyph unicode="&#xd4;" glyph-name="Ocircumflex" horiz-adv-x="1663" d="M1544 726Q1544 561 1496 424T1355 187T1130 32T829 -23Q662 -23 530 30T305 181T163 418T114 729Q114 893 163 1031T305 1269T532 1426T837 1483Q1000 1483 1131 1429T1354 1276T1495
1038T1544 726ZM298 725Q298 599 331 490T431 299T597 172T827 125Q959 125 1058 171T1224 299T1323 492T1356 734Q1356 861 1324 971T1225 1162T1061 1289T830 1335Q699 1335 600 1285T434 1151T332 957T298 725ZM524 1600L752 1924H909L1138 1600H1006L828 1816L650
1600H524Z" />
<glyph unicode="&#xd5;" glyph-name="Otilde" horiz-adv-x="1663" d="M1544 726Q1544 561 1496 424T1355 187T1130 32T829 -23Q662 -23 530 30T305 181T163 418T114 729Q114 893 163 1031T305 1269T532 1426T837 1483Q1000 1483 1131 1429T1354 1276T1495 1038T1544
726ZM298 725Q298 599 331 490T431 299T597 172T827 125Q959 125 1058 171T1224 299T1323 492T1356 734Q1356 861 1324 971T1225 1162T1061 1289T830 1335Q699 1335 600 1285T434 1151T332 957T298 725ZM1153 1865Q1148 1820 1134 1781T1094 1713T1035 1667T958
1650Q928 1650 896 1660T830 1684T765 1707T705 1718Q624 1718 614 1633H509Q513 1680 529 1718T570 1785T631 1828T708 1843Q743 1843 775 1833T839 1809T899 1786T958 1775Q992 1775 1015 1797T1045 1865H1153Z" />
<glyph unicode="&#xd6;" glyph-name="Odieresis" horiz-adv-x="1663" d="M1544 726Q1544 561 1496 424T1355 187T1130 32T829 -23Q662 -23 530 30T305 181T163 418T114 729Q114 893 163 1031T305 1269T532 1426T837 1483Q1000 1483 1131 1429T1354 1276T1495 1038T1544
726ZM298 725Q298 599 331 490T431 299T597 172T827 125Q959 125 1058 171T1224 299T1323 492T1356 734Q1356 861 1324 971T1225 1162T1061 1289T830 1335Q699 1335 600 1285T434 1151T332 957T298 725ZM746 1676H583V1839H747L746 1676ZM1079 1676H915V1839H1079V1676Z"
/>
<glyph unicode="&#xd7;" glyph-name="multiply" horiz-adv-x="1458" d="M825 554L1122 258L1018 154L722 450L425 154L322 257L618 554L322 851L425 954L722 657L1018 954L1122 850L825 554Z" />
<glyph unicode="&#xd8;" glyph-name="Oslash" horiz-adv-x="1663" d="M1544 726Q1544 561 1496 424T1355 187T1130 32T829 -23Q662 -23 530 30T305 181T163 418T114 729Q114 893 163 1031T305 1269T532 1426T837 1483Q1000 1483 1131 1429T1354 1276T1495 1038T1544
726ZM298 725Q298 599 331 490T431 299T597 172T827 125Q959 125 1058 171T1224 299T1323 492T1356 734Q1356 861 1324 971T1225 1162T1061 1289T830 1335Q699 1335 600 1285T434 1151T332 957T298 725ZM442 -117L1079 1549H1246L605 -117H442Z" />
<glyph unicode="&#xd9;" glyph-name="Ugrave" horiz-adv-x="1532" d="M191 1456H363V546Q363 342 464 234T763 125Q854 125 928 153T1055 235T1136 366T1165 539V1456H1337L1336 551Q1335 416 1299 309T1190 129T1009 16T756 -23Q600 -23 492 18T317 133T221 312T191
541V1456ZM535 1922H749L996 1602H867L535 1922Z" />
<glyph unicode="&#xda;" glyph-name="Uacute" horiz-adv-x="1532" d="M191 1456H363V546Q363 342 464 234T763 125Q854 125 928 153T1055 235T1136 366T1165 539V1456H1337L1336 551Q1335 416 1299 309T1190 129T1009 16T756 -23Q600 -23 492 18T317 133T221 312T191
541V1456ZM773 1922H985L677 1602H547L773 1922Z" />
<glyph unicode="&#xdb;" glyph-name="Ucircumflex" horiz-adv-x="1532" d="M191 1456H363V546Q363 342 464 234T763 125Q854 125 928 153T1055 235T1136 366T1165 539V1456H1337L1336 551Q1335 416 1299 309T1190 129T1009 16T756 -23Q600 -23 492 18T317 133T221
312T191 541V1456ZM459 1600L687 1924H844L1073 1600H941L763 1816L585 1600H459Z" />
<glyph unicode="&#xdc;" glyph-name="Udieresis" horiz-adv-x="1532" d="M191 1456H363V546Q363 342 464 234T763 125Q854 125 928 153T1055 235T1136 366T1165 539V1456H1337L1336 551Q1335 416 1299 309T1190 129T1009 16T756 -23Q600 -23 492 18T317 133T221
312T191 541V1456ZM681 1676H518V1839H682L681 1676ZM1014 1676H850V1839H1014V1676Z" />
<glyph unicode="&#xdd;" glyph-name="Yacute" horiz-adv-x="1266" d="M543 0V582L10 1456H201L632 727L1067 1456H1258L715 585V0H543ZM640 1922H852L544 1602H414L640 1922Z" />
<glyph unicode="&#xde;" glyph-name="Thorn" horiz-adv-x="1274" d="M375 0H203V1456H375V1312H544Q629 1312 710 1305T865 1279T999 1229T1105 1149T1175 1033T1200 876Q1200 762 1151 680T1018 546T825 468T597 443H375V0ZM375 1164V592H636Q718 592 788 608T908
659T987 747T1016 874Q1016 961 985 1017T897 1106T762 1151T588 1164H375Z" />
<glyph unicode="&#xdf;" glyph-name="germandbls" horiz-adv-x="1257" d="M536 243Q595 174 661 142T788 109Q828 109 864 123T927 164T970 231T986 322Q986 398 952 458T862 567T739 658T605 737L572 756L588 892Q634 913 676 943T751 1011T803 1095T823 1191Q823
1236 807 1271T763 1331T693 1369T603 1382Q533 1382 483 1355T400 1281T353 1171T337 1038Q337 973 337 889T338 711T339 519T340 326T340 148T341 0H176L174 1071Q173 1171 202 1252T286 1390T422 1479T604 1511Q700 1511 775 1486T903 1418T983 1316T1011 1192Q1011
1125 979 1066T901 958T805 872T719 813Q712 809 712 806Q712 803 719 800Q798 769 878 731T1024 638T1131 512T1173 341Q1173 258 1141 191T1056 77T934 3T792 -23Q706 -23 622 15T471 138L536 243Z" />
<glyph unicode="&#xe0;" glyph-name="agrave" horiz-adv-x="1244" d="M582 1051Q645 1051 697 1040T793 1007T874 955T943 885L949 1026H1112L1108 773V0H943L945 144Q921 112 885 82T802 28T701 -9T584 -23Q498 -23 428 -1T303 61T208 154T141 268T102 394T89
524Q89 623 119 718T211 887T365 1006T582 1051ZM601 109Q671 109 732 137T840 221T914 359T943 550Q943 631 919 698T849 814T740 890T595 917Q534 917 485 901T398 855T332 787T286 704T260 611T251 516Q251 470 257 422T279 328T320 243T384 174T476 127T601
109ZM391 1492H605L852 1172H723L391 1492Z" />
<glyph unicode="&#xe1;" glyph-name="aacute" horiz-adv-x="1244" d="M582 1051Q645 1051 697 1040T793 1007T874 955T943 885L949 1026H1112L1108 773V0H943L945 144Q921 112 885 82T802 28T701 -9T584 -23Q498 -23 428 -1T303 61T208 154T141 268T102 394T89
524Q89 623 119 718T211 887T365 1006T582 1051ZM601 109Q671 109 732 137T840 221T914 359T943 550Q943 631 919 698T849 814T740 890T595 917Q534 917 485 901T398 855T332 787T286 704T260 611T251 516Q251 470 257 422T279 328T320 243T384 174T476 127T601
109ZM629 1492H841L533 1172H403L629 1492Z" />
<glyph unicode="&#xe2;" glyph-name="acircumflex" horiz-adv-x="1244" d="M582 1051Q645 1051 697 1040T793 1007T874 955T943 885L949 1026H1112L1108 773V0H943L945 144Q921 112 885 82T802 28T701 -9T584 -23Q498 -23 428 -1T303 61T208 154T141 268T102 394T89
524Q89 623 119 718T211 887T365 1006T582 1051ZM601 109Q671 109 732 137T840 221T914 359T943 550Q943 631 919 698T849 814T740 890T595 917Q534 917 485 901T398 855T332 787T286 704T260 611T251 516Q251 470 257 422T279 328T320 243T384 174T476 127T601
109ZM315 1170L543 1494H700L929 1170H797L619 1386L441 1170H315Z" />
<glyph unicode="&#xe3;" glyph-name="atilde" horiz-adv-x="1244" d="M582 1051Q645 1051 697 1040T793 1007T874 955T943 885L949 1026H1112L1108 773V0H943L945 144Q921 112 885 82T802 28T701 -9T584 -23Q498 -23 428 -1T303 61T208 154T141 268T102 394T89
524Q89 623 119 718T211 887T365 1006T582 1051ZM601 109Q671 109 732 137T840 221T914 359T943 550Q943 631 919 698T849 814T740 890T595 917Q534 917 485 901T398 855T332 787T286 704T260 611T251 516Q251 470 257 422T279 328T320 243T384 174T476 127T601
109ZM944 1435Q939 1390 925 1351T885 1283T826 1237T749 1220Q719 1220 687 1230T621 1254T556 1277T496 1288Q415 1288 405 1203H300Q304 1250 320 1288T361 1355T422 1398T499 1413Q534 1413 566 1403T630 1379T690 1356T749 1345Q783 1345 806 1367T836 1435H944Z"
/>
<glyph unicode="&#xe4;" glyph-name="adieresis" horiz-adv-x="1244" d="M582 1051Q645 1051 697 1040T793 1007T874 955T943 885L949 1026H1112L1108 773V0H943L945 144Q921 112 885 82T802 28T701 -9T584 -23Q498 -23 428 -1T303 61T208 154T141 268T102 394T89
524Q89 623 119 718T211 887T365 1006T582 1051ZM601 109Q671 109 732 137T840 221T914 359T943 550Q943 631 919 698T849 814T740 890T595 917Q534 917 485 901T398 855T332 787T286 704T260 611T251 516Q251 470 257 422T279 328T320 243T384 174T476 127T601
109ZM537 1246H374V1409H538L537 1246ZM870 1246H706V1409H870V1246Z" />
<glyph unicode="&#xe5;" glyph-name="aring" horiz-adv-x="1244" d="M582 1051Q645 1051 697 1040T793 1007T874 955T943 885L949 1026H1112L1108 773V0H943L945 144Q921 112 885 82T802 28T701 -9T584 -23Q498 -23 428 -1T303 61T208 154T141 268T102 394T89
524Q89 623 119 718T211 887T365 1006T582 1051ZM601 109Q671 109 732 137T840 221T914 359T943 550Q943 631 919 698T849 814T740 890T595 917Q534 917 485 901T398 855T332 787T286 704T260 611T251 516Q251 470 257 422T279 328T320 243T384 174T476 127T601
109ZM732 1340Q732 1362 724 1381T700 1414T665 1436T621 1445Q599 1445 579 1437T544 1414T520 1381T511 1340Q511 1294 540 1265T621 1235Q643 1235 663 1243T698 1266T723 1299T732 1340ZM412 1339Q412 1380 428 1415T473 1475T540 1515T622 1530Q666 1530 704
1515T771 1475T816 1414T832 1340Q832 1300 815 1266T770 1205T703 1164T623 1149Q579 1149 541 1163T474 1203T429 1264T412 1339Z" />
<glyph unicode="&#xe6;" glyph-name="ae" horiz-adv-x="1896" d="M1786 117Q1617 -25 1371 -23Q1216 -25 1116 32T949 206Q916 133 871 92T768 25T643 -12T495 -26Q417 -26 353 -5T241 57T168 156T142 287Q142 360 168 416T243 511T360 572T512 602Q599 610 688
614T869 620L868 641Q861 696 845 745T798 832T718 892T596 915Q549 915 505 907T421 882T350 837T294 768L197 862Q227 913 269 949T363 1008T477 1041T607 1052Q670 1050 727 1037T831 998T912 932T965 838Q996 895 1037 935T1128 1002T1232 1040T1343 1052Q1456
1052 1539 1012T1677 901T1758 739T1785 543Q1785 536 1785 521T1782 489H1034V468Q1034 387 1052 328T1110 217T1222 138T1376 109Q1494 110 1575 149T1732 254L1786 117ZM870 479Q832 479 795 478T720 477Q639 475 564 469T431 443T337 387T302 291Q302 243 321
209T372 153T445 121T531 111Q628 111 693 141T798 221T853 338T870 476V479ZM1629 608Q1630 609 1630 610Q1630 677 1612 730T1557 825T1467 890T1343 915Q1271 915 1215 891T1120 826T1059 731T1033 607L1629 608Z" />
<glyph unicode="&#xe7;" glyph-name="ccedilla" horiz-adv-x="1046" d="M881 801Q833 861 764 889T617 917Q534 917 469 885T359 798T289 668T265 508Q265 424 286 351T350 224T459 140T615 109Q784 109 918 225L964 87Q891 29 801 3T602 -23Q475 -23 380 18T220
131T124 299T92 503Q92 615 126 715T225 889T385 1007T602 1051Q723 1051 814 1013T956 908L881 801ZM444 -289Q488 -300 526 -306T595 -313Q658 -313 683 -293T709 -241Q709 -200 679 -184T600 -168Q597 -168 586 -169T563 -171L531 -173L564 17H661L643 -90Q685
-91 723 -99T789 -126T835 -171T852 -239Q852 -279 834 -308T783 -357T706 -386T611 -396Q572 -396 527 -390T436 -374L444 -289Z" />
<glyph unicode="&#xe8;" glyph-name="egrave" horiz-adv-x="1173" d="M906 609L905 623Q900 688 880 742T823 835T736 895T619 917Q549 917 493 893T397 826T331 728T297 609H906ZM1039 115Q956 43 855 10T626 -23Q505 -23 410 16T250 126T150 295T115 510Q115
621 149 719T248 891T406 1008T620 1051Q738 1051 825 1013T968 907T1051 746T1079 544Q1079 533 1079 519T1077 492H290L293 447Q299 372 323 310T391 203T495 134T636 109Q742 109 830 146T988 252L1039 115ZM356 1492H570L817 1172H688L356 1492Z" />
<glyph unicode="&#xe9;" glyph-name="eacute" horiz-adv-x="1173" d="M906 609L905 623Q900 688 880 742T823 835T736 895T619 917Q549 917 493 893T397 826T331 728T297 609H906ZM1039 115Q956 43 855 10T626 -23Q505 -23 410 16T250 126T150 295T115 510Q115
621 149 719T248 891T406 1008T620 1051Q738 1051 825 1013T968 907T1051 746T1079 544Q1079 533 1079 519T1077 492H290L293 447Q299 372 323 310T391 203T495 134T636 109Q742 109 830 146T988 252L1039 115ZM593 1492H805L497 1172H367L593 1492Z" />
<glyph unicode="&#xea;" glyph-name="ecircumflex" horiz-adv-x="1173" d="M906 609L905 623Q900 688 880 742T823 835T736 895T619 917Q549 917 493 893T397 826T331 728T297 609H906ZM1039 115Q956 43 855 10T626 -23Q505 -23 410 16T250 126T150 295T115 510Q115
621 149 719T248 891T406 1008T620 1051Q738 1051 825 1013T968 907T1051 746T1079 544Q1079 533 1079 519T1077 492H290L293 447Q299 372 323 310T391 203T495 134T636 109Q742 109 830 146T988 252L1039 115ZM279 1170L507 1494H664L893 1170H761L583 1386L405
1170H279Z" />
<glyph unicode="&#xeb;" glyph-name="edieresis" horiz-adv-x="1173" d="M906 609L905 623Q900 688 880 742T823 835T736 895T619 917Q549 917 493 893T397 826T331 728T297 609H906ZM1039 115Q956 43 855 10T626 -23Q505 -23 410 16T250 126T150 295T115 510Q115
621 149 719T248 891T406 1008T620 1051Q738 1051 825 1013T968 907T1051 746T1079 544Q1079 533 1079 519T1077 492H290L293 447Q299 372 323 310T391 203T495 134T636 109Q742 109 830 146T988 252L1039 115ZM501 1246H338V1409H502L501 1246ZM834 1246H670V1409H834V1246Z"
/>
<glyph unicode="&#xec;" glyph-name="igrave" horiz-adv-x="503" d="M333 0H168L167 1026H332L333 0ZM21 1492H235L482 1172H353L21 1492Z" />
<glyph unicode="&#xed;" glyph-name="iacute" horiz-adv-x="503" d="M333 0H168L167 1026H332L333 0ZM260 1492H472L164 1172H34L260 1492Z" />
<glyph unicode="&#xee;" glyph-name="icircumflex" horiz-adv-x="503" d="M333 0H168L167 1026H332L333 0ZM202 1170L430 1494H587L816 1170H684L506 1386L328 1170H202Z" />
<glyph unicode="&#xef;" glyph-name="idieresis" horiz-adv-x="503" d="M333 0H168L167 1026H332L333 0ZM424 1246H261V1409H425L424 1246ZM757 1246H593V1409H757V1246Z" />
<glyph unicode="&#xf0;" glyph-name="eth" horiz-adv-x="1190" d="M653 1490Q766 1446 851 1363T993 1163H1190V1026H1045Q1068 946 1080 858T1093 672Q1093 504 1059 375T960 157T799 23T581 -23Q468 -23 377 13T221 112T123 261T88 446Q88 545 120 628T211 770T355
863T545 897Q670 897 765 855T918 723V725Q918 897 882 1026H620V1163H826Q783 1241 721 1300T574 1406L653 1490ZM572 757Q493 757 435 733T339 667T283 566T264 441Q264 372 286 313T348 211T446 143T573 118Q660 118 722 151T825 239T883 362T902 501Q902 509
902 519T903 536Q886 585 855 625T780 695T685 741T572 757Z" />
<glyph unicode="&#xf1;" glyph-name="ntilde" horiz-adv-x="1217" d="M333 0H168V779Q168 825 167 869T165 949Q163 989 162 1026H329L333 884Q393 969 477 1010T677 1051Q789 1051 862 1014T977 911T1036 752T1053 550V0H888V531Q888 618 881 689T849 811T776
889T647 917Q572 917 514 888T416 818T355 732T333 652V0ZM930 1435Q925 1390 911 1351T871 1283T812 1237T735 1220Q705 1220 673 1230T607 1254T542 1277T482 1288Q401 1288 391 1203H286Q290 1250 306 1288T347 1355T408 1398T485 1413Q520 1413 552 1403T616
1379T676 1356T735 1345Q769 1345 792 1367T822 1435H930Z" />
<glyph unicode="&#xf2;" glyph-name="ograve" horiz-adv-x="1238" d="M620 1051Q749 1051 846 1009T1009 894T1107 723T1140 513Q1140 405 1106 308T1005 137T840 20T616 -23Q488 -23 390 19T226 133T125 302T90 511Q90 622 125 720T227 892T393 1008T620 1051ZM966
511Q966 593 945 667T881 796T772 884T616 917Q529 917 463 884T353 794T286 663T263 509Q263 429 285 357T352 230T464 142T620 109Q708 109 773 142T881 230T945 358T966 511ZM388 1492H602L849 1172H720L388 1492Z" />
<glyph unicode="&#xf3;" glyph-name="oacute" horiz-adv-x="1238" d="M620 1051Q749 1051 846 1009T1009 894T1107 723T1140 513Q1140 405 1106 308T1005 137T840 20T616 -23Q488 -23 390 19T226 133T125 302T90 511Q90 622 125 720T227 892T393 1008T620 1051ZM966
511Q966 593 945 667T881 796T772 884T616 917Q529 917 463 884T353 794T286 663T263 509Q263 429 285 357T352 230T464 142T620 109Q708 109 773 142T881 230T945 358T966 511ZM626 1492H838L530 1172H400L626 1492Z" />
<glyph unicode="&#xf4;" glyph-name="ocircumflex" horiz-adv-x="1238" d="M620 1051Q749 1051 846 1009T1009 894T1107 723T1140 513Q1140 405 1106 308T1005 137T840 20T616 -23Q488 -23 390 19T226 133T125 302T90 511Q90 622 125 720T227 892T393 1008T620
1051ZM966 511Q966 593 945 667T881 796T772 884T616 917Q529 917 463 884T353 794T286 663T263 509Q263 429 285 357T352 230T464 142T620 109Q708 109 773 142T881 230T945 358T966 511ZM312 1170L540 1494H697L926 1170H794L616 1386L438 1170H312Z" />
<glyph unicode="&#xf5;" glyph-name="otilde" horiz-adv-x="1238" d="M620 1051Q749 1051 846 1009T1009 894T1107 723T1140 513Q1140 405 1106 308T1005 137T840 20T616 -23Q488 -23 390 19T226 133T125 302T90 511Q90 622 125 720T227 892T393 1008T620 1051ZM966
511Q966 593 945 667T881 796T772 884T616 917Q529 917 463 884T353 794T286 663T263 509Q263 429 285 357T352 230T464 142T620 109Q708 109 773 142T881 230T945 358T966 511ZM941 1435Q936 1390 922 1351T882 1283T823 1237T746 1220Q716 1220 684 1230T618
1254T553 1277T493 1288Q412 1288 402 1203H297Q301 1250 317 1288T358 1355T419 1398T496 1413Q531 1413 563 1403T627 1379T687 1356T746 1345Q780 1345 803 1367T833 1435H941Z" />
<glyph unicode="&#xf6;" glyph-name="odieresis" horiz-adv-x="1238" d="M620 1051Q749 1051 846 1009T1009 894T1107 723T1140 513Q1140 405 1106 308T1005 137T840 20T616 -23Q488 -23 390 19T226 133T125 302T90 511Q90 622 125 720T227 892T393 1008T620 1051ZM966
511Q966 593 945 667T881 796T772 884T616 917Q529 917 463 884T353 794T286 663T263 509Q263 429 285 357T352 230T464 142T620 109Q708 109 773 142T881 230T945 358T966 511ZM534 1246H371V1409H535L534 1246ZM867 1246H703V1409H867V1246Z" />
<glyph unicode="&#xf7;" glyph-name="divide" horiz-adv-x="1458" d="M200 485L198 624H1245L1246 485H200ZM836 873H619V1083H836V873ZM836 21H619V231H836V21Z" />
<glyph unicode="&#xf8;" glyph-name="oslash" horiz-adv-x="1238" d="M620 1051Q705 1051 780 1031L884 1277L987 1245L880 993Q944 960 993 911T1074 799T1123 665T1140 513Q1140 405 1106 308T1005 137T840 20T616 -23Q531 -23 456 -3L346 -261L247 -229L358
34Q292 67 242 116T159 226T108 360T90 511Q90 622 125 720T227 892T393 1008T620 1051ZM263 509Q263 457 272 408T301 315T348 234T415 170L725 902Q700 909 673 913T616 917Q529 917 463 884T353 794T286 663T263 509ZM966 511Q966 619 931 709T821 855L510 124Q559
109 620 109Q708 109 773 142T881 230T945 358T966 511Z" />
<glyph unicode="&#xf9;" glyph-name="ugrave" horiz-adv-x="1217" d="M878 1026H1043V246Q1043 180 1044 122T1051 0H881L878 135Q762 -23 540 -23Q464 -23 406 -6T306 42T235 113T189 201T165 298T157 399V1026H322V399Q321 256 383 183T578 109Q650 109 705
135T799 206T858 310T878 436V1026ZM378 1492H592L839 1172H710L378 1492Z" />
<glyph unicode="&#xfa;" glyph-name="uacute" horiz-adv-x="1217" d="M878 1026H1043V246Q1043 180 1044 122T1051 0H881L878 135Q762 -23 540 -23Q464 -23 406 -6T306 42T235 113T189 201T165 298T157 399V1026H322V399Q321 256 383 183T578 109Q650 109 705
135T799 206T858 310T878 436V1026ZM615 1492H827L519 1172H389L615 1492Z" />
<glyph unicode="&#xfb;" glyph-name="ucircumflex" horiz-adv-x="1217" d="M878 1026H1043V246Q1043 180 1044 122T1051 0H881L878 135Q762 -23 540 -23Q464 -23 406 -6T306 42T235 113T189 201T165 298T157 399V1026H322V399Q321 256 383 183T578 109Q650 109
705 135T799 206T858 310T878 436V1026ZM301 1170L529 1494H686L915 1170H783L605 1386L427 1170H301Z" />
<glyph unicode="&#xfc;" glyph-name="udieresis" horiz-adv-x="1217" d="M878 1026H1043V246Q1043 180 1044 122T1051 0H881L878 135Q762 -23 540 -23Q464 -23 406 -6T306 42T235 113T189 201T165 298T157 399V1026H322V399Q321 256 383 183T578 109Q650 109 705
135T799 206T858 310T878 436V1026ZM523 1246H360V1409H524L523 1246ZM856 1246H692V1409H856V1246Z" />
<glyph unicode="&#xfd;" glyph-name="yacute" horiz-adv-x="1069" d="M17 1026H198L530 171L871 1026H1046L592 -72Q565 -138 527 -197T440 -302T332 -381T201 -427L109 -314Q193 -292 248 -260T338 -192T392 -118T425 -43L442 6L17 1026ZM541 1492H753L445 1172H315L541
1492Z" />
<glyph unicode="&#xfe;" glyph-name="thorn" horiz-adv-x="1239" d="M323 -427H158V1455H325V882Q388 966 476 1008T668 1051Q789 1051 877 1009T1024 896T1110 729T1139 527Q1139 419 1110 320T1022 144T875 23T668 -23Q452 -23 323 135V-427ZM323 494Q323 411
344 341T405 219T506 138T644 109Q728 109 788 143T887 234T944 365T963 521Q963 597 947 668T895 795T798 884T650 917Q558 917 496 882T395 789T340 654T323 494Z" />
<glyph unicode="&#xff;" glyph-name="ydieresis" horiz-adv-x="1069" d="M17 1026H198L530 171L871 1026H1046L592 -72Q565 -138 527 -197T440 -302T332 -381T201 -427L109 -314Q193 -292 248 -260T338 -192T392 -118T425 -43L442 6L17 1026ZM449 1246H286V1409H450L449
1246ZM782 1246H618V1409H782V1246Z" />
<glyph unicode="&#x2013;" glyph-name="endash" horiz-adv-x="1085" d="M1084 489H-6V626H1084V489Z" />
<glyph unicode="&#x2014;" glyph-name="emdash" horiz-adv-x="2171" d="M2160 489H-3V626H2160V489Z" />
<glyph unicode="&#x2018;" glyph-name="quoteleft" horiz-adv-x="553" d="M312 1023H130L284 1463H416L312 1023Z" />
<glyph unicode="&#x2019;" glyph-name="quoteright" horiz-adv-x="553" d="M245 1463H426L272 1023H140L245 1463Z" />
<glyph unicode="&#x201a;" glyph-name="quotesinglbase" horiz-adv-x="553" d="M231 201H412L258 -238H125L231 201Z" />
<glyph unicode="&#x201c;" glyph-name="quotedblleft" horiz-adv-x="1024" d="M361 1023H179L333 1463H466L361 1023ZM711 1023H528L682 1463H815L711 1023Z" />
<glyph unicode="&#x201d;" glyph-name="quotedblright" horiz-adv-x="1024" d="M312 1463H494L341 1023H208L312 1463ZM639 1463H821L667 1023H534L639 1463Z" />
<glyph unicode="&#x201e;" glyph-name="quotedblbase" horiz-adv-x="1024" d="M283 201H465L312 -238H178L283 201ZM641 201H824L670 -238H537L641 201Z" />
<glyph unicode="&#x2022;" glyph-name="bullet" horiz-adv-x="989" d="M833 701Q833 636 806 579T732 479T624 410T493 385Q423 385 362 409T255 476T183 575T157 694Q157 758 184 815T259 916T368 985T498 1010Q567 1010 628 986T734 919T806 821T833 701Z" />
<glyph unicode="&#x2039;" glyph-name="guilsinglleft" horiz-adv-x="642" d="M379 914H538L275 541L530 171H374L105 541L379 914Z" />
<glyph unicode="&#x203a;" glyph-name="guilsinglright" horiz-adv-x="642" d="M260 171H103L365 542L111 914H266L537 542L260 171Z" />
</font>
</defs>
</svg>
