<svg width="48" height="48" viewBox="0 0 48 48" fill="none" xmlns="http://www.w3.org/2000/svg">
<path opacity="0.7" fill-rule="evenodd" clip-rule="evenodd" d="M16 36C16 38.2091 14.2091 40 12 40C9.79086 40 8 38.2091 8 36C8 33.7909 9.79086 32 12 32C14.2091 32 16 33.7909 16 36ZM28 36C28 38.2091 26.2091 40 24 40C21.7909 40 20 38.2091 20 36C20 33.7909 21.7909 32 24 32C26.2091 32 28 33.7909 28 36ZM36 40C38.2091 40 40 38.2091 40 36C40 33.7909 38.2091 32 36 32C33.7909 32 32 33.7909 32 36C32 38.2091 33.7909 40 36 40Z" fill="white"/>
</svg>
