<svg width="48" height="48" viewBox="0 0 48 48" fill="none" xmlns="http://www.w3.org/2000/svg">
<path d="M40.6667 37.3334H7.33333C5.49236 37.3334 4 35.841 4 34V14C4 12.159 5.49236 10.6667 7.33333 10.6667H40.6667C42.5076 10.6667 44 12.159 44 14V34C44 35.841 42.5076 37.3334 40.6667 37.3334ZM12.8889 18.7222V15.9445C12.8889 15.4843 12.5158 15.1111 12.0556 15.1111H9.27778C8.81757 15.1111 8.44444 15.4843 8.44444 15.9445V18.7222C8.44444 19.1825 8.81757 19.5556 9.27778 19.5556H12.0556C12.5158 19.5556 12.8889 19.1825 12.8889 18.7222ZM19.5556 18.7222V15.9445C19.5556 15.4843 19.1824 15.1111 18.7222 15.1111H15.9444C15.4842 15.1111 15.1111 15.4843 15.1111 15.9445V18.7222C15.1111 19.1825 15.4842 19.5556 15.9444 19.5556H18.7222C19.1824 19.5556 19.5556 19.1825 19.5556 18.7222ZM26.2222 18.7222V15.9445C26.2222 15.4843 25.8491 15.1111 25.3889 15.1111H22.6111C22.1509 15.1111 21.7778 15.4843 21.7778 15.9445V18.7222C21.7778 19.1825 22.1509 19.5556 22.6111 19.5556H25.3889C25.8491 19.5556 26.2222 19.1825 26.2222 18.7222ZM32.8889 18.7222V15.9445C32.8889 15.4843 32.5158 15.1111 32.0556 15.1111H29.2778C28.8176 15.1111 28.4444 15.4843 28.4444 15.9445V18.7222C28.4444 19.1825 28.8176 19.5556 29.2778 19.5556H32.0556C32.5158 19.5556 32.8889 19.1825 32.8889 18.7222ZM39.5556 18.7222V15.9445C39.5556 15.4843 39.1824 15.1111 38.7222 15.1111H35.9444C35.4842 15.1111 35.1111 15.4843 35.1111 15.9445V18.7222C35.1111 19.1825 35.4842 19.5556 35.9444 19.5556H38.7222C39.1824 19.5556 39.5556 19.1825 39.5556 18.7222ZM16.2222 25.3889V22.6111C16.2222 22.1509 15.8491 21.7778 15.3889 21.7778H12.6111C12.1509 21.7778 11.7778 22.1509 11.7778 22.6111V25.3889C11.7778 25.8491 12.1509 26.2222 12.6111 26.2222H15.3889C15.8491 26.2222 16.2222 25.8491 16.2222 25.3889ZM22.8889 25.3889V22.6111C22.8889 22.1509 22.5158 21.7778 22.0556 21.7778H19.2778C18.8176 21.7778 18.4444 22.1509 18.4444 22.6111V25.3889C18.4444 25.8491 18.8176 26.2222 19.2778 26.2222H22.0556C22.5158 26.2222 22.8889 25.8491 22.8889 25.3889ZM29.5556 25.3889V22.6111C29.5556 22.1509 29.1824 21.7778 28.7222 21.7778H25.9444C25.4842 21.7778 25.1111 22.1509 25.1111 22.6111V25.3889C25.1111 25.8491 25.4842 26.2222 25.9444 26.2222H28.7222C29.1824 26.2222 29.5556 25.8491 29.5556 25.3889ZM36.2222 25.3889V22.6111C36.2222 22.1509 35.8491 21.7778 35.3889 21.7778H32.6111C32.1509 21.7778 31.7778 22.1509 31.7778 22.6111V25.3889C31.7778 25.8491 32.1509 26.2222 32.6111 26.2222H35.3889C35.8491 26.2222 36.2222 25.8491 36.2222 25.3889ZM12.8889 32.0556V29.2778C12.8889 28.8176 12.5158 28.4445 12.0556 28.4445H9.27778C8.81757 28.4445 8.44444 28.8176 8.44444 29.2778V32.0556C8.44444 32.5158 8.81757 32.8889 9.27778 32.8889H12.0556C12.5158 32.8889 12.8889 32.5158 12.8889 32.0556ZM32.8889 32.0556V29.2778C32.8889 28.8176 32.5158 28.4445 32.0556 28.4445H15.9444C15.4842 28.4445 15.1111 28.8176 15.1111 29.2778V32.0556C15.1111 32.5158 15.4842 32.8889 15.9444 32.8889H32.0556C32.5158 32.8889 32.8889 32.5158 32.8889 32.0556ZM39.5556 32.0556V29.2778C39.5556 28.8176 39.1824 28.4445 38.7222 28.4445H35.9444C35.4842 28.4445 35.1111 28.8176 35.1111 29.2778V32.0556C35.1111 32.5158 35.4842 32.8889 35.9444 32.8889H38.7222C39.1824 32.8889 39.5556 32.5158 39.5556 32.0556Z" fill="white"/>
</svg>
