<svg width="48" height="48" viewBox="0 0 48 48" fill="none" xmlns="http://www.w3.org/2000/svg">
<path d="M41.5 22.75V30.25C41.5 30.4909 41.4722 30.7312 41.417 30.9658L38.917 41.5908C38.5848 43.0023 37.3252 44 35.875 44H19.625C19.1321 44 18.6462 43.8834 18.2069 43.6597C17.7677 43.436 17.3876 43.1117 17.0977 42.713L7.09789 28.963C6.08282 27.5673 6.39141 25.6128 7.78711 24.5977C9.18297 23.5826 11.1374 23.8912 12.1525 25.287L14.625 28.6869L14.625 7.125C14.625 5.39914 16.0241 4 17.75 4C19.4759 4 20.875 5.39914 20.875 7.125V22.75H21.5V19.625C21.5 17.8991 22.8991 16.5 24.625 16.5C26.3509 16.5 27.75 17.8991 27.75 19.625V22.75H28.375V20.875C28.375 19.1491 29.7741 17.75 31.5 17.75C33.2259 17.75 34.625 19.1491 34.625 20.875V22.75H35.25C35.25 21.0241 36.6491 19.625 38.375 19.625C40.1009 19.625 41.5 21.0241 41.5 22.75ZM21.5 29H20.875V36.5H21.5V29ZM28.375 29H27.75L27.75 36.5H28.375L28.375 29ZM35.25 29H34.625V36.5H35.25V29Z" fill="white"/>
</svg>
