<svg width="16" height="16" viewBox="0 0 16 16" fill="none" xmlns="http://www.w3.org/2000/svg">
<path d="M3.79801 10.0235L2.7898 9.86145L1 10.0117L1.8804 12.9581L3.79801 10.0235Z" fill="#B7CA9D"/>
<path d="M1 6.65962V9.33482L1.9052 9.45782L3.6702 8.08422L1.9052 6.53882L1 6.65962Z" fill="#4B612C"/>
<path d="M1.90523 10.2048L3.79804 10.0234V12.7044L1.90523 12.8332L1.17523 11.436L1.90523 10.2048Z" fill="#759C3E"/>
<path d="M2.8144 6.14039L3.7978 5.98439L1.905 3.01459L1 5.98819L2.8144 6.14039Z" fill="#3C4929"/>
<path d="M1.90521 2.88202L3.79802 3.30342V5.98443L1.90521 5.80483V2.88202ZM1.90521 6.54443L3.79802 6.66343V9.34643L1.90521 9.46743V6.54443Z" fill="#759C3E"/>
<path d="M3.79802 5.18846L5.24542 4.86846L3.26181 2.30646L1.90521 4.93666L3.79802 5.18846Z" fill="#3C4929"/>
<path d="M3.26172 2.24402L5.24532 2.77082V4.86842L3.26172 4.55222V2.24402Z" fill="#759C3E"/>
<path d="M5.24542 11.1278L3.80202 10.8078L1.90521 11.0614L3.26201 13.7658L5.24562 11.1278H5.24542Z" fill="#B7CA9D"/>
<path d="M3.26182 11.448L5.24542 11.1318V13.2372L3.26182 13.766L1.46802 12.449L3.26182 11.448Z" fill="#759C3E"/>
<path d="M14.9856 5.98641L13.1712 6.13861L10.7526 5.75621L12.7238 2.23621L14.9856 5.98641Z" fill="#3C4929"/>
<path d="M14.9898 10.0137L13.1754 9.86145L10.7526 10.2459L12.7238 13.6937L14.9898 10.0137Z" fill="#B7CA9D"/>
<path d="M12.7238 2.23621L10.7526 2.76101V5.75621L12.7238 5.53181L14.8682 4.30641L12.7238 2.23621ZM12.7238 6.33561L10.7526 6.48781V9.48302L12.7238 9.63142L14.8682 8.05481L12.7238 6.33581V6.33561ZM12.7238 10.484L10.7526 10.2576V13.2528L12.7238 13.7796L14.7072 11.6392L12.7238 10.484Z" fill="#4B612C"/>
<path d="M5.91957 1.37561L3.93817 4.36102L5.95457 4.71022L7.99798 4.25942L5.91957 1.37561Z" fill="#3C4929"/>
<path d="M12.0496 5.3914L10.031 5.6412L5.91956 4.9896L7.99796 0.0195923L12.0496 5.3914Z" fill="#3C4929"/>
<path d="M7.99796 10.2792L11.8888 8.00601L7.99796 5.71521L5.91956 5.99621V10L7.99796 10.279V10.2792Z" fill="#4B612C"/>
<path d="M12.0496 10.6109L10.031 10.3593L5.91956 11.0129L7.99796 15.9981L12.0496 10.6107V10.6109Z" fill="#B7CA9D"/>
<path d="M7.98556 11.7346L5.96915 11.2878L3.94635 11.639L5.84335 14.9034L7.98556 11.7346Z" fill="#B7CA9D"/>
<path d="M1.9052 11.0612V10.1968L1 10.0114V12.6866L3.2618 13.7578V11.4456L1.9052 11.0612Z" fill="#4B612C"/>
<path d="M3.936 11.6366V14.0776L7.99781 15.9996L11.7854 12.4484L7.99781 11.4358L5.91941 11.0124V12.1988L3.936 11.6366ZM3.2618 4.55175V2.24354L1 3.31275V5.98795L1.9052 5.80455V4.93615L3.262 4.55175H3.2618ZM5.91961 3.79875V4.98895L7.99801 4.56755L11.7382 3.55495L7.99781 0.00354004L3.936 1.92354V4.36055L5.91961 3.79875Z" fill="#4B612C"/>
<path d="M7.99799 5.71521V10.279L12.0496 9.73262V6.26161L7.99799 5.71521Z" fill="#759C3E"/>
<path d="M7.99799 0V4.56781L12.0496 5.39121V1.9162L7.99799 0ZM15 5.99041V3.31321L12.7238 2.2362V5.52801L15 5.99041ZM15 9.33461V6.66161L12.7238 6.35341V9.64322L15 9.33461ZM7.99799 11.4362V15.9982L12.0496 14.0802V10.6108L7.99799 11.4362ZM15 12.685V10.0118L12.7238 10.4742V13.762L15 12.685Z" fill="#759C3E"/>
</svg>
