<svg
width="1em"
height="1em"
viewBox="0 0 124 127"
xmlns="http://www.w3.org/2000/svg"
>
<path
  d="M60.9 48.6c8.3 0 14.9 6.7 14.9 14.9s-6.7 14.9-14.9 14.9S46 71.7 46 63.5s6.6-14.9 14.9-14.9zm0-47.9C31.7.7 7.1 20.7.1 47.8c-.1.2-.1.5-.1.7 0 1.6 1.3 3 3 3h25.3c1.2 0 2.2-.7 2.7-1.7v-.1c5.2-11.3 16.6-19.1 29.8-19.1 18.2 0 32.9 14.7 32.9 32.9S79 96.4 60.8 96.4c-13.2 0-24.6-7.8-29.8-19.1l-.1-.1c-.5-1.1-1.5-1.7-2.7-1.7H3c-1.7 0-3 1.3-3 3 0 .3 0 .5.1.7 7 27.1 31.5 47.1 60.8 47.1 34.7 0 62.8-28.1 62.8-62.8C123.7 28.8 95.5.7 60.9.7z"
  fill="#000"
  fillRule="nonzero"
/>
</svg>