<svg width="48" height="48" viewBox="0 0 48 48" fill="none" xmlns="http://www.w3.org/2000/svg">
<path d="M31 24H43C43 19.0238 41.087 14.4944 37.9563 11.1071C35.7695 12.2278 32.9887 13.0846 29.8508 13.5652C30.5773 16.5601 31 20.1461 31 24Z" fill="#D0D2E0"/>
<path d="M29.8508 13.5652C32.9887 13.0846 35.7695 12.2278 37.9563 11.1071C34.4852 7.35159 29.5172 5 24 5C26.4461 5 28.5992 8.40558 29.8508 13.5652Z" fill="#D0D2E0"/>
<path d="M24 5C21.5539 5 19.4008 8.40558 18.1492 13.5652C19.9923 13.8475 21.9585 14 24 14C26.0415 14 28.0077 13.8475 29.8508 13.5652C28.5992 8.40558 26.4461 5 24 5Z" fill="#D0D2E0"/>
<path d="M17 24H31C31 20.1461 30.5773 16.5601 29.8508 13.5652C28.0077 13.8475 26.0415 14 24 14C21.9585 14 19.9923 13.8475 18.1492 13.5652C17.4227 16.5601 17 20.1461 17 24Z" fill="#D0D2E0"/>
<path d="M5 24H17C17 20.1461 17.4227 16.5601 18.1492 13.5652C15.0113 13.0846 12.2305 12.2278 10.0437 11.1071C6.91301 14.4944 5 19.0238 5 24Z" fill="#D0D2E0"/>
<path d="M18.1492 13.5652C19.4008 8.40558 21.5539 5 24 5C18.4828 5 13.5148 7.35159 10.0437 11.1071C12.2305 12.2278 15.0113 13.0846 18.1492 13.5652Z" fill="#D0D2E0"/>
<path d="M18.1492 34.4348C15.0113 34.9154 12.2305 35.7722 10.0437 36.8929C13.5148 40.6484 18.4828 43 24 43C21.5539 43 19.4008 39.5944 18.1492 34.4348Z" fill="#D0D2E0"/>
<path d="M17 24H5C5 28.9762 6.91301 33.5056 10.0437 36.8929C12.2305 35.7722 15.0113 34.9154 18.1492 34.4348C17.4227 31.4398 17 27.8539 17 24Z" fill="#D0D2E0"/>
<path d="M31 24H17C17 27.8539 17.4227 31.4398 18.1492 34.4348C19.9923 34.1525 21.9585 34 24 34C26.0415 34 28.0077 34.1525 29.8508 34.4348C30.5773 31.4398 31 27.8539 31 24Z" fill="#D0D2E0"/>
<path d="M18.1492 34.4348C19.4008 39.5944 21.5539 43 24 43C26.4461 43 28.5992 39.5944 29.8508 34.4348C28.0077 34.1525 26.0415 34 24 34C21.9585 34 19.9923 34.1525 18.1492 34.4348Z" fill="#D0D2E0"/>
<path d="M24 43C29.5172 43 34.4852 40.6484 37.9563 36.8929C35.7695 35.7722 32.9887 34.9154 29.8508 34.4348C28.5992 39.5944 26.4461 43 24 43Z" fill="#D0D2E0"/>
<path d="M43 24H31C31 27.8539 30.5773 31.4398 29.8508 34.4348C32.9887 34.9154 35.7695 35.7722 37.9563 36.8929C41.087 33.5056 43 28.9762 43 24Z" fill="#D0D2E0"/>
<path d="M24 14V15V14ZM24 34V33V34ZM43 23H5V25H43V23ZM31 25H43V23H31V25ZM44 24C44 18.7624 41.9854 13.9931 38.6906 10.4284L37.2219 11.7859C40.1886 14.9957 42 19.2852 42 24H44ZM37.5002 10.2172C35.4287 11.2789 32.7553 12.1087 29.6994 12.5767L30.0022 14.5537C33.2221 14.0605 36.1104 13.1768 38.4124 11.9971L37.5002 10.2172ZM28.879 13.8009C29.5845 16.7094 30 20.2153 30 24H32C32 20.0768 31.5701 16.4109 30.8226 13.3295L28.879 13.8009ZM24 6C24.7229 6 25.6102 6.50993 26.542 7.90357C27.4537 9.26706 28.2687 11.2851 28.879 13.8009L30.8226 13.3295C30.1813 10.6857 29.294 8.42112 28.2046 6.79192C27.1355 5.19286 25.7232 4 24 4V6ZM29.6994 12.5767C27.9077 12.8511 25.9921 13 24 13V15C26.0908 15 28.1077 14.8438 30.0022 14.5537L29.6994 12.5767ZM24 6C29.2268 6 33.9322 8.22655 37.2219 11.7859L38.6906 10.4284C35.0382 6.47664 29.8076 4 24 4V6ZM24 4C22.2768 4 20.8645 5.19286 19.7954 6.79192C18.706 8.42112 17.8187 10.6857 17.1774 13.3295L19.121 13.8009C19.7313 11.2851 20.5463 9.26706 21.458 7.90357C22.3898 6.50993 23.2771 6 24 6V4ZM17.9978 14.5537C19.8923 14.8438 21.9092 15 24 15V13C22.0079 13 20.0923 12.8511 18.3006 12.5767L17.9978 14.5537ZM18 24C18 20.2153 18.4155 16.7094 19.121 13.8009L17.1774 13.3295C16.4299 16.4109 16 20.0768 16 24H18ZM17 25H31V23H17V25ZM5 25H17V23H5V25ZM18.3006 12.5767C15.2447 12.1087 12.5713 11.2789 10.4998 10.2172L9.58763 11.9971C11.8896 13.1768 14.7779 14.0605 17.9978 14.5537L18.3006 12.5767ZM9.30935 10.4284C6.0146 13.9931 4 18.7624 4 24H6C6 19.2852 7.81142 14.9957 10.7781 11.7859L9.30935 10.4284ZM10.7781 11.7859C14.0678 8.22655 18.7732 6 24 6V4C18.1924 4 12.9618 6.47664 9.30935 10.4284L10.7781 11.7859ZM4 24C4 29.2376 6.0146 34.0068 9.30935 37.5716L10.7781 36.2141C7.81142 33.0043 6 28.7148 6 24H4ZM10.4998 37.7828C12.5713 36.7211 15.2447 35.8913 18.3006 35.4233L17.9978 33.4463C14.7779 33.9395 11.8896 34.8232 9.58763 36.0029L10.4998 37.7828ZM19.121 34.1991C18.4155 31.2906 18 27.7847 18 24H16C16 27.9232 16.4299 31.5891 17.1774 34.6705L19.121 34.1991ZM24 42C23.2771 42 22.3898 41.4901 21.458 40.0964C20.5463 38.7329 19.7313 36.7149 19.121 34.199L17.1774 34.6705C17.8187 37.3143 18.706 39.5789 19.7954 41.2081C20.8645 42.8071 22.2768 44 24 44V42ZM18.3006 35.4233C20.0923 35.1489 22.0079 35 24 35V33C21.9092 33 19.8923 33.1562 17.9978 33.4463L18.3006 35.4233ZM24 42C18.7732 42 14.0678 39.7735 10.7781 36.2141L9.30935 37.5716C12.9618 41.5234 18.1924 44 24 44V42ZM24 35C25.9921 35 27.9077 35.1489 29.6994 35.4233L30.0022 33.4463C28.1077 33.1562 26.0908 33 24 33V35ZM30.8226 34.6705C31.57 31.5891 32 27.9232 32 24H30C30 27.7847 29.5845 31.2906 28.879 34.1991L30.8226 34.6705ZM28.879 34.1991C28.2687 36.7149 27.4537 38.7329 26.542 40.0964C25.6102 41.4901 24.7229 42 24 42V44C25.7232 44 27.1355 42.8071 28.2046 41.2081C29.294 39.5789 30.1813 37.3143 30.8226 34.6705L28.879 34.1991ZM24 44C29.8076 44 35.0382 41.5234 38.6906 37.5716L37.2219 36.2141C33.9322 39.7735 29.2268 42 24 42V44ZM38.4124 36.0029C36.1104 34.8232 33.2221 33.9395 30.0022 33.4463L29.6994 35.4233C32.7553 35.8913 35.4287 36.7211 37.5002 37.7828L38.4124 36.0029ZM42 24C42 28.7148 40.1886 33.0043 37.2219 36.2141L38.6906 37.5716C41.9854 34.0068 44 29.2376 44 24H42Z" fill="#AFB3C7"/>
</svg>
