<svg width="14" height="14" viewBox="0 0 14 14" fill="none" xmlns="http://www.w3.org/2000/svg">
<path fill-rule="evenodd" clip-rule="evenodd" d="M6.99974 0.00236251C3.13453 0.00236251 0 3.13637 0 7.00208C0 10.095 2.00546 12.718 4.78682 13.644C5.13691 13.7088 5.26557 13.4918 5.26557 13.3068C5.26557 13.1399 5.2586 12.5885 5.25575 12.0041C3.30818 12.4276 2.89763 11.1778 2.89763 11.1778C2.5793 10.3686 2.12043 10.1534 2.12043 10.1534C1.48536 9.71856 2.16875 9.72812 2.16875 9.72812C2.87151 9.77723 3.2415 10.449 3.2415 10.449C3.86625 11.5192 4.87957 11.2094 5.27874 11.0308C5.34179 10.5784 5.52265 10.2694 5.72313 10.0945C4.16826 9.91804 2.53382 9.31759 2.53382 6.63519C2.53382 5.87118 2.8077 5.24646 3.25493 4.75657C3.18209 4.57986 2.94232 3.86831 3.32238 2.90432C3.32238 2.90432 3.91016 2.71598 5.24801 3.62182C5.80608 3.46706 6.40472 3.38903 6.99923 3.38645C7.59423 3.38903 8.19392 3.46679 8.75278 3.62182C10.0888 2.7165 10.6761 2.90432 10.6761 2.90432C11.0567 3.86857 10.8179 4.58063 10.7451 4.75659C11.1939 5.24646 11.4654 5.87118 11.4654 6.63519C11.4654 9.32378 9.82734 9.91491 8.2691 10.0883C8.52025 10.3053 8.74451 10.7314 8.74451 11.384C8.74451 12.3201 8.7365 13.0745 8.7365 13.3047C8.7365 13.491 8.86259 13.7088 9.21758 13.6406C11.9974 12.7141 14.0003 10.0909 14.0003 6.99974C14.0003 3.13453 10.8663 0 7.00026 0L6.99976 0.00234063L6.99974 0.00236251Z" fill="black"/>
</svg>
