<svg width="48" height="48" viewBox="0 0 48 48" fill="none" xmlns="http://www.w3.org/2000/svg">
<g clip-path="url(#clip0_2127:3871)">
<path d="M23.9983 46.105L32.8411 18.9048H15.1684L23.9983 46.105Z" fill="#E24329"/>
<path d="M2.78256 18.9049L0.0897144 27.1687C-0.153965 27.919 0.109192 28.7473 0.752369 29.2151L23.9984 46.105L2.78256 18.9049Z" fill="#FCA326"/>
<path d="M2.78256 18.9049H15.1684L9.83789 2.52353C9.56506 1.68544 8.3761 1.68544 8.09346 2.52353L2.78256 18.9049Z" fill="#E24329"/>
<path d="M45.2271 18.9049L47.9103 27.1687C48.154 27.919 47.8908 28.7473 47.2477 29.2151L23.9983 46.105L45.2271 18.9049Z" fill="#FCA326"/>
<path d="M45.2271 18.9049H32.8413L38.162 2.52353C38.4348 1.68544 39.6238 1.68544 39.9064 2.52353L45.2271 18.9049Z" fill="#E24329"/>
<path d="M23.9983 46.105L32.8412 18.9049H45.2271L23.9983 46.105Z" fill="#FC6D26"/>
<path d="M23.9983 46.105L2.78256 18.9049H15.1684L23.9983 46.105Z" fill="#FC6D26"/>
</g>
<defs>
<clipPath id="clip0_2127:3871">
<rect width="48" height="48" fill="white"/>
</clipPath>
</defs>
</svg>
