<svg viewBox="0 0 468 284" fill="none" xmlns="http://www.w3.org/2000/svg">
  <g clip-path="url(#clip0_918_2840)">
    <rect width="468" height="284" rx="6" fill="white" />
    <rect width="468" height="64" fill="#F3F4FA" />
    <path
      d="M18 38V26C18 25.4477 18.4477 25 19 25H29C29.5523 25 30 25.4477 30 26V38C30 38.5523 29.5523 39 29 39H19C18.4477 39 18 38.5523 18 38Z"
      fill="#E1E3ED" />
    <path
      d="M21 32H24M21 29H27M21 35H26M29 25L19 25C18.4477 25 18 25.4477 18 26V38C18 38.5523 18.4477 39 19 39H29C29.5523 39 30 38.5523 30 38V26C30 25.4477 29.5523 25 29 25Z"
      stroke="#9095AD" stroke-width="2" stroke-linecap="round" stroke-linejoin="round" />
    <path
      d="M44.25 38.1562C41.9453 38.1562 40.4844 36.5156 40.4844 33.9297V33.9219C40.4844 31.3594 41.9766 29.7188 44.2344 29.7188C46.2578 29.7188 47.4531 31.0625 47.625 32.4531L47.6328 32.5156H46.3047L46.2891 32.4531C46.0859 31.6406 45.4297 30.9219 44.2344 30.9219C42.8203 30.9219 41.875 32.0938 41.875 33.9375V33.9453C41.875 35.8359 42.8438 36.9531 44.25 36.9531C45.3594 36.9531 46.0703 36.3281 46.2969 35.4219L46.3125 35.3594H47.6484L47.6406 35.4141C47.4219 36.9609 46.0859 38.1562 44.25 38.1562ZM49.6797 40.7344C49.4141 40.7344 49.125 40.7031 48.9531 40.6719V39.5625C49.0703 39.5859 49.2266 39.6094 49.3906 39.6094C50.25 39.6094 50.7266 39.3906 51.0547 38.4688L51.2188 38.0078L48.2031 29.875H49.6562L51.8984 36.6406H51.9297L54.1797 29.875H55.6094L52.4375 38.5078C51.8594 40.0625 51.1484 40.7344 49.6797 40.7344ZM56.6797 40.7344V29.875H58.0391V31.25H58.0703C58.5781 30.3047 59.4844 29.7188 60.6484 29.7188C62.7266 29.7188 64.1016 31.375 64.1016 33.9375V33.9453C64.1016 36.5078 62.7109 38.1562 60.6719 38.1562C59.5234 38.1562 58.5781 37.5781 58.0703 36.6406H58.0391V40.7344H56.6797ZM60.3828 36.9531C61.8203 36.9531 62.7109 35.7969 62.7109 33.9453V33.9375C62.7109 32.0703 61.8203 30.9219 60.3828 30.9219C59.0078 30.9219 58.0312 32.1172 58.0312 33.9375V33.9453C58.0312 35.7578 59.0156 36.9531 60.3828 36.9531ZM65.4766 38V29.875H66.8359V31.25H66.8672C67.1406 30.3125 67.8438 29.7188 68.7578 29.7188C68.9922 29.7188 69.1953 29.7578 69.3047 29.7734V31.0938C69.1953 31.0547 68.9062 31.0156 68.5781 31.0156C67.5234 31.0156 66.8359 31.75 66.8359 32.9844V38H65.4766ZM73.3672 38.1562C71.0312 38.1562 69.625 36.5234 69.625 33.9688V33.9609C69.625 31.4453 71.0625 29.7188 73.2812 29.7188C75.5 29.7188 76.8516 31.3672 76.8516 33.8047V34.3047H71C71.0312 35.9766 71.9531 36.9531 73.3984 36.9531C74.4297 36.9531 75.1562 36.4375 75.3906 35.7422L75.4141 35.6719H76.75L76.7344 35.75C76.4688 37.0938 75.1406 38.1562 73.3672 38.1562ZM73.2734 30.9219C72.0938 30.9219 71.1719 31.7266 71.0234 33.2422H75.4688C75.3359 31.6641 74.4609 30.9219 73.2734 30.9219ZM81.1094 38.1562C79.1953 38.1562 78.0391 37.1797 77.875 35.7266L77.8672 35.6562H79.2266L79.2422 35.7344C79.4062 36.5469 80.0078 37.0234 81.1172 37.0234C82.2188 37.0234 82.875 36.5625 82.875 35.8281V35.8203C82.875 35.2344 82.5703 34.9062 81.6484 34.6797L80.3594 34.3672C78.8281 34 78.0859 33.2891 78.0859 32.1172V32.1094C78.0859 30.7109 79.3125 29.7188 81.0703 29.7188C82.8516 29.7188 83.9844 30.7578 84.0859 32.1172L84.0938 32.2188H82.7969L82.7891 32.1641C82.6797 31.375 82.0781 30.8516 81.0703 30.8516C80.0859 30.8516 79.4766 31.3281 79.4766 32.0469V32.0547C79.4766 32.6094 79.8438 32.9922 80.7422 33.2109L82.0312 33.5234C83.6719 33.9219 84.2656 34.5703 84.2656 35.7266V35.7344C84.2656 37.1562 82.9219 38.1562 81.1094 38.1562ZM88.5625 38.1562C86.6484 38.1562 85.4922 37.1797 85.3281 35.7266L85.3203 35.6562H86.6797L86.6953 35.7344C86.8594 36.5469 87.4609 37.0234 88.5703 37.0234C89.6719 37.0234 90.3281 36.5625 90.3281 35.8281V35.8203C90.3281 35.2344 90.0234 34.9062 89.1016 34.6797L87.8125 34.3672C86.2812 34 85.5391 33.2891 85.5391 32.1172V32.1094C85.5391 30.7109 86.7656 29.7188 88.5234 29.7188C90.3047 29.7188 91.4375 30.7578 91.5391 32.1172L91.5469 32.2188H90.25L90.2422 32.1641C90.1328 31.375 89.5312 30.8516 88.5234 30.8516C87.5391 30.8516 86.9297 31.3281 86.9297 32.0469V32.0547C86.9297 32.6094 87.2969 32.9922 88.1953 33.2109L89.4844 33.5234C91.125 33.9219 91.7188 34.5703 91.7188 35.7266V35.7344C91.7188 37.1562 90.375 38.1562 88.5625 38.1562ZM96.7266 26.7266L93.5469 40.7344H92.25L95.4297 26.7266H96.7266ZM100.945 38.1562C98.6094 38.1562 97.2031 36.5234 97.2031 33.9688V33.9609C97.2031 31.4453 98.6406 29.7188 100.859 29.7188C103.078 29.7188 104.43 31.3672 104.43 33.8047V34.3047H98.5781C98.6094 35.9766 99.5312 36.9531 100.977 36.9531C102.008 36.9531 102.734 36.4375 102.969 35.7422L102.992 35.6719H104.328L104.312 35.75C104.047 37.0938 102.719 38.1562 100.945 38.1562ZM100.852 30.9219C99.6719 30.9219 98.75 31.7266 98.6016 33.2422H103.047C102.914 31.6641 102.039 30.9219 100.852 30.9219ZM105.836 38V37.0312L109.805 32.8906C111.328 31.3047 111.68 30.6953 111.68 29.7578V29.7422C111.672 28.5938 110.805 27.7656 109.578 27.7656C108.172 27.7656 107.125 28.7344 107.125 29.9453V29.9844H105.766V29.9375C105.766 27.9844 107.453 26.5391 109.555 26.5391C111.594 26.5391 113.086 27.9062 113.086 29.6719V29.6875C113.086 30.9219 112.516 31.8516 110.445 33.9688L107.766 36.7188V36.75H113.273V38H105.836ZM118.211 38.1562C115.875 38.1562 114.469 36.5234 114.469 33.9688V33.9609C114.469 31.4453 115.906 29.7188 118.125 29.7188C120.344 29.7188 121.695 31.3672 121.695 33.8047V34.3047H115.844C115.875 35.9766 116.797 36.9531 118.242 36.9531C119.273 36.9531 120 36.4375 120.234 35.7422L120.258 35.6719H121.594L121.578 35.75C121.312 37.0938 119.984 38.1562 118.211 38.1562ZM118.117 30.9219C116.938 30.9219 116.016 31.7266 115.867 33.2422H120.312C120.18 31.6641 119.305 30.9219 118.117 30.9219ZM126.664 26.7266L123.484 40.7344H122.188L125.367 26.7266H126.664Z"
      fill="#747994" />
    <path
      d="M127.203 38L131.305 26.7266H133.195L137.289 38H135.453L134.422 34.9531H130.078L129.039 38H127.203ZM132.234 28.5938L130.547 33.5469H133.945L132.266 28.5938H132.234ZM140.883 38.1641C139.078 38.1641 138.047 37 138.047 35.1094V29.7812H139.734V34.7812C139.734 36.0234 140.312 36.7109 141.484 36.7109C142.672 36.7109 143.438 35.8594 143.438 34.5781V29.7812H145.133V38H143.438V36.7656H143.398C142.969 37.5938 142.133 38.1641 140.883 38.1641ZM149.688 38.1641C148.062 38.1641 147.281 37.4766 147.281 35.8359V31.125H146.102V29.7812H147.281V27.6406H149.008V29.7812H150.547V31.125H149.008V35.7344C149.008 36.5703 149.383 36.8203 150.094 36.8203C150.273 36.8203 150.422 36.8047 150.547 36.7891V38.0938C150.352 38.125 150.031 38.1641 149.688 38.1641ZM152.008 38V26.7266H153.695V31.1328H153.734C154.172 30.1797 155.055 29.625 156.281 29.625C158.039 29.625 159.195 30.9375 159.195 32.9219V38H157.508V33.2422C157.508 31.8828 156.82 31.0703 155.633 31.0703C154.469 31.0703 153.695 31.9609 153.695 33.2422V38H152.008Z"
      fill="#2E3247" />
    <path
      d="M161.68 38.1016C161.273 38.1016 160.953 37.7812 160.953 37.375C160.953 36.9688 161.273 36.6484 161.68 36.6484C162.086 36.6484 162.406 36.9688 162.406 37.375C162.406 37.7812 162.086 38.1016 161.68 38.1016ZM167.039 38.1484C165.195 38.1484 164.016 37.1641 163.859 35.7266L163.852 35.6562H164.883L164.898 35.7266C165.062 36.6641 165.82 37.2734 167.047 37.2734C168.273 37.2734 169.055 36.7109 169.055 35.8594V35.8516C169.055 35.1484 168.664 34.7656 167.578 34.5078L166.352 34.2109C164.82 33.8438 164.086 33.1719 164.086 32.0469V32.0391C164.086 30.6875 165.281 29.7266 166.977 29.7266C168.711 29.7266 169.82 30.7344 169.953 32.1328L169.961 32.2188H168.969L168.961 32.1641C168.828 31.2188 168.109 30.6016 166.977 30.6016C165.875 30.6016 165.141 31.1719 165.141 32V32.0078C165.141 32.6562 165.578 33.0703 166.648 33.3281L167.875 33.6172C169.492 34.0078 170.109 34.6406 170.109 35.7812V35.7891C170.109 37.1719 168.82 38.1484 167.039 38.1484ZM171.5 40.7344V29.875H172.531V31.5938H172.562C173.016 30.4922 174.016 29.7266 175.32 29.7266C177.383 29.7266 178.766 31.3984 178.766 33.9375V33.9453C178.766 36.4922 177.375 38.1484 175.336 38.1484C174.039 38.1484 173.008 37.3906 172.562 36.3047H172.531V40.7344H171.5ZM175.141 37.2266C176.703 37.2266 177.711 35.9375 177.711 33.9453V33.9375C177.711 31.9297 176.703 30.6484 175.141 30.6484C173.609 30.6484 172.531 31.9688 172.531 33.9375V33.9453C172.531 35.9062 173.617 37.2266 175.141 37.2266ZM183.445 38.1484C181.164 38.1484 179.75 36.5312 179.75 33.9609V33.9531C179.75 31.4062 181.188 29.7266 183.359 29.7266C185.531 29.7266 186.898 31.3516 186.898 33.7812V34.1875H180.797C180.828 36.125 181.867 37.2266 183.469 37.2266C184.664 37.2266 185.492 36.625 185.758 35.7422L185.773 35.6719H186.797L186.781 35.75C186.5 37.1406 185.203 38.1484 183.445 38.1484ZM183.352 30.6484C181.969 30.6484 180.938 31.6406 180.812 33.3672H185.859C185.742 31.5938 184.742 30.6484 183.352 30.6484ZM191.57 38.1484C189.312 38.1484 187.875 36.5156 187.875 33.9297V33.9219C187.875 31.3672 189.336 29.7266 191.562 29.7266C193.453 29.7266 194.68 30.9531 194.883 32.3516L194.891 32.4219H193.875L193.859 32.3594C193.633 31.4062 192.828 30.6484 191.562 30.6484C189.977 30.6484 188.938 31.9219 188.938 33.9375V33.9453C188.938 35.9922 189.992 37.2266 191.57 37.2266C192.781 37.2266 193.617 36.5312 193.859 35.5156L193.875 35.4531H194.898L194.891 35.5156C194.648 37.0312 193.344 38.1484 191.57 38.1484ZM196.82 38.1016C196.414 38.1016 196.094 37.7812 196.094 37.375C196.094 36.9688 196.414 36.6484 196.82 36.6484C197.227 36.6484 197.547 36.9688 197.547 37.375C197.547 37.7812 197.227 38.1016 196.82 38.1016ZM199.977 28.4062C199.602 28.4062 199.289 28.1016 199.289 27.7188C199.289 27.3359 199.602 27.0391 199.977 27.0391C200.359 27.0391 200.664 27.3359 200.664 27.7188C200.664 28.1016 200.359 28.4062 199.977 28.4062ZM198.156 40.7422C198.07 40.7422 197.992 40.7422 197.906 40.7344V39.8203H198.117C199.086 39.8203 199.461 39.4766 199.461 38.5V29.875H200.492V38.4766C200.492 40.0391 199.766 40.7422 198.156 40.7422ZM205.148 38.1484C203.305 38.1484 202.125 37.1641 201.969 35.7266L201.961 35.6562H202.992L203.008 35.7266C203.172 36.6641 203.93 37.2734 205.156 37.2734C206.383 37.2734 207.164 36.7109 207.164 35.8594V35.8516C207.164 35.1484 206.773 34.7656 205.688 34.5078L204.461 34.2109C202.93 33.8438 202.195 33.1719 202.195 32.0469V32.0391C202.195 30.6875 203.391 29.7266 205.086 29.7266C206.82 29.7266 207.93 30.7344 208.062 32.1328L208.07 32.2188H207.078L207.07 32.1641C206.938 31.2188 206.219 30.6016 205.086 30.6016C203.984 30.6016 203.25 31.1719 203.25 32V32.0078C203.25 32.6562 203.688 33.0703 204.758 33.3281L205.984 33.6172C207.602 34.0078 208.219 34.6406 208.219 35.7812V35.7891C208.219 37.1719 206.93 38.1484 205.148 38.1484Z"
      fill="#747994" />
    <g clip-path="url(#clip1_918_2840)">
      <rect x="217" y="20" width="39" height="24" rx="4" fill="white" />
      <path d="M227 29L233 35M233 29L227 35" stroke="#E45770" stroke-width="2" stroke-linecap="round" />
      <path
        d="M244.211 37.1641C242.105 37.1641 240.731 36.0156 240.595 34.4092L240.588 34.3203H242.058L242.064 34.3955C242.16 35.2705 242.987 35.8857 244.211 35.8857C245.414 35.8857 246.228 35.2158 246.228 34.2588V34.2451C246.228 33.1309 245.421 32.5088 244.102 32.5088H242.905V31.3193H244.061C245.188 31.3193 245.954 30.6562 245.954 29.7402V29.7266C245.954 28.7764 245.312 28.2227 244.197 28.2227C243.104 28.2227 242.338 28.7969 242.242 29.7129L242.235 29.7744H240.8L240.807 29.7061C240.957 28.0586 242.27 26.9717 244.197 26.9717C246.159 26.9717 247.444 28.0107 247.444 29.5283V29.542C247.444 30.7656 246.569 31.5859 245.366 31.8389V31.873C246.815 32.0029 247.786 32.8779 247.786 34.2588V34.2725C247.786 35.9609 246.303 37.1641 244.211 37.1641Z"
        fill="#5A5F7A" />
      <rect x="217.5" y="20.5" width="38" height="23" rx="3.5" stroke="#E1E3ED" />
    </g>
    <rect x="216" y="19" width="41" height="26" rx="5" stroke="#A06CE4" stroke-width="2" />
    <rect x="347" y="20" width="105" height="24" rx="12" fill="#E1E3ED" />
    <rect x="0.5" y="63.5" width="467" height="55" fill="white" />
    <circle cx="24" cy="91" r="7" fill="#F3F4FA" />
    <rect x="40" y="83" width="32" height="16" rx="8" fill="#F3F4FA" />
    <path d="M82.5 88L85.5 91L82.5 94" stroke="#D0D2E0" stroke-width="2" stroke-linecap="round"
      stroke-linejoin="round" />
    <rect x="96" y="83" width="284" height="16" rx="8" fill="#F3F4FA" />
    <rect x="0.5" y="63.5" width="467" height="55" stroke="#E1E3ED" />
    <rect x="0.5" y="118.5" width="467" height="55" fill="white" />
    <circle cx="24" cy="146" r="7" fill="#F3F4FA" />
    <rect x="40" y="138" width="32" height="16" rx="8" fill="#F3F4FA" />
    <path d="M82.5 143L85.5 146L82.5 149" stroke="#D0D2E0" stroke-width="2" stroke-linecap="round"
      stroke-linejoin="round" />
    <rect x="96" y="138" width="284" height="16" rx="8" fill="#F3F4FA" />
    <rect x="0.5" y="118.5" width="467" height="55" stroke="#E1E3ED" />
    <rect x="0.5" y="173.5" width="467" height="55" fill="white" />
    <circle cx="24" cy="201" r="7" fill="#F3F4FA" />
    <rect x="40" y="193" width="32" height="16" rx="8" fill="#F3F4FA" />
    <path d="M82.5 198L85.5 201L82.5 204" stroke="#D0D2E0" stroke-width="2" stroke-linecap="round"
      stroke-linejoin="round" />
    <rect x="96" y="193" width="284" height="16" rx="8" fill="#F3F4FA" />
    <rect x="0.5" y="173.5" width="467" height="55" stroke="#E1E3ED" />
    <rect x="0.5" y="228.5" width="467" height="55" fill="white" />
    <circle cx="24" cy="256" r="7" fill="#F3F4FA" />
    <rect x="40" y="248" width="32" height="16" rx="8" fill="#F3F4FA" />
    <path d="M82.5 253L85.5 256L82.5 259" stroke="#D0D2E0" stroke-width="2" stroke-linecap="round"
      stroke-linejoin="round" />
    <rect x="96" y="248" width="284" height="16" rx="8" fill="#F3F4FA" />
    <rect x="0.5" y="228.5" width="467" height="55" stroke="#E1E3ED" />
  </g>
  <rect x="0.5" y="0.5" width="467" height="283" rx="5.5" stroke="#E1E3ED" />
  <defs>
    <clipPath id="clip0_918_2840">
      <rect width="468" height="284" rx="6" fill="white" />
    </clipPath>
    <clipPath id="clip1_918_2840">
      <rect x="217" y="20" width="39" height="24" rx="4" fill="white" />
    </clipPath>
  </defs>
</svg>