<svg viewBox="0 0 468 284" fill="none" xmlns="http://www.w3.org/2000/svg">
  <g clip-path="url(#clip0_918_3488)">
    <rect width="468" height="64" fill="#F3F4FA" />
    <circle cx="23" cy="32" r="7" fill="#D0D2E0" />
    <rect x="38" y="24" width="227" height="16" rx="8" fill="#E1E3ED" />
    <rect x="347" y="20" width="105" height="24" rx="12" fill="#E1E3ED" />
    <rect width="468" height="221" transform="translate(0 63)" fill="white" />
    <circle cx="24" cy="91" r="7" fill="#E45770" />
    <path d="M22 89L26 93M26 89L22 93" stroke="white" stroke-width="2" stroke-linecap="round" />
    <path
      d="M40.1953 97L44.3906 85.7266H45.7812L49.9688 97H48.4922L47.3516 93.7734H42.8125L41.6719 97H40.1953ZM45.0703 87.4141L43.2422 92.5781H46.9297L45.1016 87.4141H45.0703ZM53.5938 97.1562C51.8125 97.1562 50.7812 96 50.7812 94.1484V88.875H52.1406V93.9062C52.1406 95.2266 52.7578 95.9531 54.0078 95.9531C55.2891 95.9531 56.125 95.0391 56.125 93.6562V88.875H57.4844V97H56.125V95.8438H56.0938C55.6562 96.6016 54.8281 97.1562 53.5938 97.1562ZM61.8984 97.1562C60.4062 97.1562 59.6719 96.4844 59.6719 94.9297V90H58.4844V88.875H59.6719V86.6797H61.0781V88.875H62.625V90H61.0781V94.9219C61.0781 95.7891 61.4609 96.0312 62.1875 96.0312C62.3516 96.0312 62.5078 96.0078 62.625 96V97.1016C62.4531 97.125 62.1641 97.1562 61.8984 97.1562ZM64.1562 97V85.7266H65.5156V90.1719H65.5469C65.9844 89.2578 66.8672 88.7188 68.0781 88.7188C69.8047 88.7188 70.9844 90.0547 70.9844 92.0234V97H69.625V92.2578C69.625 90.7891 68.875 89.9219 67.6094 89.9219C66.3516 89.9219 65.5156 90.875 65.5156 92.2578V97H64.1562Z"
      fill="#5A5F7A" />
    <path d="M82.5 88L85.5 91L82.5 94" stroke="#D0D2E0" stroke-width="2" stroke-linecap="round"
      stroke-linejoin="round" />
    <rect x="96.5" y="75.5" width="70" height="31" rx="3.5" fill="white" />
    <rect x="96.5" y="75.5" width="70" height="31" rx="3.5" stroke="#E1E3ED" />
    <path d="M123 86C123 84.8954 122.105 84 121 84H111C109.895 84 109 84.8954 109 86V87H123V86Z" fill="#D0D2E0" />
    <path fill-rule="evenodd" clip-rule="evenodd"
      d="M123 86C123 84.8954 122.105 84 121 84H111C109.895 84 109 84.8954 109 86V87H123V86Z" fill="#D0D2E0" />
    <path
      d="M109 87V96C109 97.1046 109.895 98 111 98H121C122.105 98 123 97.1046 123 96V87M109 87V86C109 84.8954 109.895 84 111 84H121C122.105 84 123 84.8954 123 86V87M109 87H123"
      stroke="#4956E3" stroke-width="2" stroke-linecap="round" stroke-linejoin="round" />
    <path
      d="M112.5 90C112.224 90 112 90.2239 112 90.5C112 90.7761 112.224 91 112.5 91V90ZM113.5 91H114V90H113.5V91ZM112.5 92C112.224 92 112 92.2239 112 92.5C112 92.7761 112.224 93 112.5 93V92ZM114 93H114.5V92H114V93ZM112.5 94C112.224 94 112 94.2239 112 94.5C112 94.7761 112.224 95 112.5 95V94ZM115.5 95H116V94H115.5V95ZM115.5 92H115V93H115.5V92ZM117 93C117.276 93 117.5 92.7761 117.5 92.5C117.5 92.2239 117.276 92 117 92V93ZM117 94H116.5V95H117V94ZM119 95C119.276 95 119.5 94.7761 119.5 94.5C119.5 94.2239 119.276 94 119 94V95ZM115 90H114.5V91H115V90ZM116 91H116.5V90H116V91ZM117.5 90H117V91H117.5V90ZM119.5 91C119.776 91 120 90.7761 120 90.5C120 90.2239 119.776 90 119.5 90V91ZM112.5 91H113.5V90H112.5V91ZM112.5 93H114V92H112.5V93ZM112.5 95H115.5V94H112.5V95ZM115.5 93H117V92H115.5V93ZM117 95H119V94H117V95ZM115 91H116V90H115V91ZM117.5 91H119.5V90H117.5V91Z"
      fill="#1B1E2E" />
    <path
      d="M132.909 96V86.1357H134.44V94.6807H139.034V96H132.909ZM143.081 96.1436C141.017 96.1436 139.67 94.7148 139.67 92.4043V92.3906C139.67 90.0938 141.03 88.6719 143.074 88.6719C145.125 88.6719 146.492 90.0869 146.492 92.3906V92.4043C146.492 94.7217 145.139 96.1436 143.081 96.1436ZM143.088 94.9062C144.243 94.9062 144.981 93.9902 144.981 92.4043V92.3906C144.981 90.8184 144.229 89.9092 143.074 89.9092C141.939 89.9092 141.181 90.8184 141.181 92.3906V92.4043C141.181 93.9971 141.933 94.9062 143.088 94.9062ZM150.785 98.5361C148.939 98.5361 147.771 97.6816 147.552 96.5811L147.545 96.5195H149.008L149.035 96.5742C149.233 97.0322 149.855 97.3467 150.778 97.3467C151.954 97.3467 152.604 96.7178 152.604 95.7129V94.7285H152.569C152.159 95.5078 151.339 96.0068 150.307 96.0068C148.502 96.0068 147.312 94.5918 147.312 92.3496V92.3428C147.312 90.0869 148.516 88.6719 150.341 88.6719C151.353 88.6719 152.146 89.2188 152.569 90.0322H152.604V88.8086H154.087V95.8018C154.087 97.4424 152.815 98.5361 150.785 98.5361ZM150.724 94.8037C151.852 94.8037 152.604 93.8535 152.604 92.3701V92.3633C152.604 90.8867 151.845 89.9365 150.724 89.9365C149.555 89.9365 148.823 90.8799 148.823 92.3633V92.3701C148.823 93.874 149.555 94.8037 150.724 94.8037Z"
      fill="#4956E3" />
    <rect x="95" y="74" width="73" height="34" rx="5" stroke="#A06CE4" stroke-width="2" />
    <rect x="175.5" y="75.5" width="117" height="31" rx="3.5" fill="white" />
    <rect x="175.5" y="75.5" width="117" height="31" rx="3.5" stroke="#E1E3ED" />
    <g clip-path="url(#clip1_918_3488)">
      <path
        d="M188 97C188 97.5523 188.448 98 189 98H201C201.552 98 202 97.5523 202 97V95L199.5 92.5L197 95L192.5 90.5L188 95V97Z"
        fill="#D0D2E0" />
      <path
        d="M199 88C199 88.5523 198.552 89 198 89C197.448 89 197 88.5523 197 88C197 87.4477 197.448 87 198 87C198.552 87 199 87.4477 199 88Z"
        fill="#D0D2E0" />
      <path
        d="M192.5 90.5L193.207 89.7929C192.817 89.4024 192.183 89.4024 191.793 89.7929L192.5 90.5ZM197 95L196.293 95.7071C196.683 96.0976 197.317 96.0976 197.707 95.7071L197 95ZM199.5 92.5L200.207 91.7929C199.817 91.4024 199.183 91.4024 198.793 91.7929L199.5 92.5ZM201 83H189V85H201V83ZM189 97V95H187V97H189ZM189 95V85H187V95H189ZM188.707 95.7071L193.207 91.2071L191.793 89.7929L187.293 94.2929L188.707 95.7071ZM191.793 91.2071L196.293 95.7071L197.707 94.2929L193.207 89.7929L191.793 91.2071ZM197.707 95.7071L200.207 93.2071L198.793 91.7929L196.293 94.2929L197.707 95.7071ZM203 97V95H201V97H203ZM203 95V85H201V95H203ZM198.793 93.2071L201.293 95.7071L202.707 94.2929L200.207 91.7929L198.793 93.2071ZM189 99H201V97H189V99ZM198 88V90C199.105 90 200 89.1046 200 88H198ZM198 88H196C196 89.1046 196.895 90 198 90V88ZM198 88V86C196.895 86 196 86.8954 196 88H198ZM198 88H200C200 86.8954 199.105 86 198 86V88ZM201 85V85H203C203 83.8954 202.105 83 201 83V85ZM201 97V99C202.105 99 203 98.1046 203 97H201ZM189 83C187.895 83 187 83.8954 187 85H189L189 85V83ZM187 97C187 98.1046 187.895 99 189 99V97H187Z"
        fill="#4956E3" />
    </g>
    <path
      d="M215.272 96.1641C213.058 96.1641 211.595 95.1113 211.472 93.375L211.465 93.2725H212.955L212.969 93.3613C213.105 94.2705 214.015 94.8379 215.334 94.8379C216.653 94.8379 217.487 94.2432 217.487 93.3203V93.3135C217.487 92.5205 216.947 92.0898 215.642 91.8027L214.568 91.5771C212.634 91.167 211.697 90.2783 211.697 88.8154V88.8086C211.704 87.127 213.188 85.9717 215.272 85.9717C217.33 85.9717 218.738 87.0928 218.841 88.7471L218.848 88.8633H217.357L217.351 88.7676C217.214 87.8516 216.421 87.2979 215.252 87.2979C214.028 87.3047 213.249 87.8857 213.249 88.7471V88.7539C213.249 89.4922 213.81 89.9434 215.04 90.21L216.12 90.4355C218.157 90.8662 219.032 91.6934 219.032 93.2178V93.2246C219.032 95.0225 217.61 96.1641 215.272 96.1641ZM223.325 96.1436C221.227 96.1436 219.914 94.7012 219.914 92.3975V92.3906C219.914 90.1143 221.254 88.6719 223.305 88.6719C225.157 88.6719 226.278 89.8613 226.401 91.2148L226.408 91.2627H225L224.986 91.208C224.829 90.5039 224.282 89.9092 223.318 89.9092C222.17 89.9092 221.425 90.8662 221.425 92.4043V92.4111C221.425 93.9834 222.184 94.9062 223.325 94.9062C224.234 94.9062 224.815 94.3799 224.993 93.6006L225 93.5459H226.422L226.415 93.5938C226.258 95.0361 225.055 96.1436 223.325 96.1436ZM227.468 96V88.8086H228.944V90.0391H228.979C229.211 89.1982 229.812 88.6719 230.633 88.6719C230.845 88.6719 231.029 88.7061 231.146 88.7266V90.1006C231.029 90.0527 230.77 90.0186 230.482 90.0186C229.532 90.0186 228.944 90.6406 228.944 91.7139V96H227.468ZM234.816 96.1436C232.704 96.1436 231.426 94.7012 231.426 92.4316V92.4248C231.426 90.1758 232.725 88.6719 234.741 88.6719C236.758 88.6719 237.995 90.1211 237.995 92.2812V92.7803H232.902C232.93 94.1406 233.675 94.9336 234.851 94.9336C235.726 94.9336 236.307 94.4824 236.491 93.9424L236.512 93.8877H237.913L237.899 93.9629C237.667 95.1045 236.56 96.1436 234.816 96.1436ZM234.748 89.8818C233.791 89.8818 233.053 90.5312 232.923 91.7344H236.532C236.409 90.4902 235.712 89.8818 234.748 89.8818ZM242.213 96.1436C240.101 96.1436 238.822 94.7012 238.822 92.4316V92.4248C238.822 90.1758 240.121 88.6719 242.138 88.6719C244.154 88.6719 245.392 90.1211 245.392 92.2812V92.7803H240.299C240.326 94.1406 241.071 94.9336 242.247 94.9336C243.122 94.9336 243.703 94.4824 243.888 93.9424L243.908 93.8877H245.31L245.296 93.9629C245.063 95.1045 243.956 96.1436 242.213 96.1436ZM242.145 89.8818C241.188 89.8818 240.449 90.5312 240.319 91.7344H243.929C243.806 90.4902 243.108 89.8818 242.145 89.8818ZM246.54 96V88.8086H248.017V89.8955H248.051C248.427 89.1641 249.165 88.6719 250.252 88.6719C251.831 88.6719 252.74 89.6904 252.74 91.3447V96H251.257V91.625C251.257 90.5449 250.751 89.9365 249.726 89.9365C248.687 89.9365 248.017 90.6885 248.017 91.8096V96H246.54ZM256.862 96.1436C255.064 96.1436 254.012 95.2549 253.861 93.9424L253.854 93.8809H255.317L255.331 93.9492C255.468 94.6123 255.96 95.002 256.869 95.002C257.758 95.002 258.291 94.6328 258.291 94.0518V94.0449C258.291 93.5801 258.031 93.3135 257.259 93.1289L256.083 92.8623C254.716 92.5479 254.039 91.8916 254.039 90.8457V90.8389C254.039 89.5537 255.16 88.6719 256.814 88.6719C258.517 88.6719 259.542 89.6221 259.617 90.8457L259.624 90.9277H258.236L258.229 90.8799C258.141 90.251 257.648 89.8135 256.814 89.8135C256.021 89.8135 255.522 90.1895 255.522 90.7637V90.7705C255.522 91.2148 255.816 91.5156 256.589 91.7002L257.758 91.9668C259.228 92.3086 259.788 92.8896 259.788 93.9219V93.9287C259.788 95.2412 258.558 96.1436 256.862 96.1436ZM260.991 96V86.1357H262.468V89.9912H262.502C262.885 89.1572 263.657 88.6719 264.73 88.6719C266.269 88.6719 267.28 89.8203 267.28 91.5566V96H265.804V91.8369C265.804 90.6475 265.202 89.9365 264.163 89.9365C263.145 89.9365 262.468 90.7158 262.468 91.8369V96H260.991ZM271.806 96.1436C269.741 96.1436 268.395 94.7148 268.395 92.4043V92.3906C268.395 90.0938 269.755 88.6719 271.799 88.6719C273.85 88.6719 275.217 90.0869 275.217 92.3906V92.4043C275.217 94.7217 273.863 96.1436 271.806 96.1436ZM271.812 94.9062C272.968 94.9062 273.706 93.9902 273.706 92.4043V92.3906C273.706 90.8184 272.954 89.9092 271.799 89.9092C270.664 89.9092 269.905 90.8184 269.905 92.3906V92.4043C269.905 93.9971 270.657 94.9062 271.812 94.9062ZM278.881 96.1436C277.459 96.1436 276.775 95.542 276.775 94.1064V89.9844H275.743V88.8086H276.775V86.9355H278.286V88.8086H279.633V89.9844H278.286V94.0176C278.286 94.749 278.614 94.9678 279.236 94.9678C279.394 94.9678 279.523 94.9541 279.633 94.9404V96.082C279.462 96.1094 279.182 96.1436 278.881 96.1436Z"
      fill="#4956E3" />
    <rect x="174" y="74" width="120" height="34" rx="5" stroke="#A06CE4" stroke-width="2" />
    <rect x="301.5" y="75.5" width="82" height="31" rx="3.5" fill="white" />
    <rect x="301.5" y="75.5" width="82" height="31" rx="3.5" stroke="#E1E3ED" />
    <path
      d="M323 86H316C314.895 86 314 86.8954 314 88V94C314 95.1046 314.895 96 316 96H323C324.105 96 325 95.1046 325 94V93.5L328 95V87L325 88.5V88C325 86.8954 324.105 86 323 86Z"
      fill="#C5C9FD" stroke="#4956E3" stroke-width="2" stroke-linejoin="round" />
    <g style="mix-blend-mode:darken">
      <path d="M324.5 88L324.5 94" stroke="#6470F3" stroke-linecap="round" stroke-linejoin="round" />
    </g>
    <path
      d="M340.691 96L337.178 86.1357H338.825L341.519 94.2979H341.553L344.246 86.1357H345.894L342.38 96H340.691ZM347.432 87.7012C346.953 87.7012 346.57 87.3184 346.57 86.8535C346.57 86.3818 346.953 85.999 347.432 85.999C347.917 85.999 348.293 86.3818 348.293 86.8535C348.293 87.3184 347.917 87.7012 347.432 87.7012ZM346.693 96V88.8086H348.17V96H346.693ZM352.381 96.1436C350.549 96.1436 349.373 94.6943 349.373 92.4043V92.3975C349.373 90.1074 350.562 88.6719 352.367 88.6719C353.386 88.6719 354.206 89.1846 354.637 90.0322H354.664V86.1357H356.147V96H354.664V94.7832H354.637C354.206 95.624 353.413 96.1436 352.381 96.1436ZM352.771 94.8721C353.885 94.8721 354.671 93.9014 354.671 92.4043V92.3975C354.671 90.9072 353.878 89.9365 352.771 89.9365C351.608 89.9365 350.884 90.8799 350.884 92.3975V92.4043C350.884 93.9355 351.602 94.8721 352.771 94.8721ZM360.734 96.1436C358.622 96.1436 357.344 94.7012 357.344 92.4316V92.4248C357.344 90.1758 358.643 88.6719 360.659 88.6719C362.676 88.6719 363.913 90.1211 363.913 92.2812V92.7803H358.82C358.848 94.1406 359.593 94.9336 360.769 94.9336C361.644 94.9336 362.225 94.4824 362.409 93.9424L362.43 93.8877H363.831L363.817 93.9629C363.585 95.1045 362.478 96.1436 360.734 96.1436ZM360.666 89.8818C359.709 89.8818 358.971 90.5312 358.841 91.7344H362.45C362.327 90.4902 361.63 89.8818 360.666 89.8818ZM368.151 96.1436C366.087 96.1436 364.74 94.7148 364.74 92.4043V92.3906C364.74 90.0938 366.101 88.6719 368.145 88.6719C370.195 88.6719 371.562 90.0869 371.562 92.3906V92.4043C371.562 94.7217 370.209 96.1436 368.151 96.1436ZM368.158 94.9062C369.313 94.9062 370.052 93.9902 370.052 92.4043V92.3906C370.052 90.8184 369.3 89.9092 368.145 89.9092C367.01 89.9092 366.251 90.8184 366.251 92.3906V92.4043C366.251 93.9971 367.003 94.9062 368.158 94.9062Z"
      fill="#4956E3" />
    <rect x="300" y="74" width="85" height="34" rx="5" stroke="#A06CE4" stroke-width="2" />
    <rect x="0.5" y="63.5" width="467" height="55" stroke="#E1E3ED" />
    <rect x="0.5" y="118.5" width="467" height="55" fill="white" />
    <circle cx="24" cy="146" r="7" fill="#F3F4FA" />
    <rect x="40" y="138" width="32" height="16" rx="8" fill="#F3F4FA" />
    <path d="M82.5 143L85.5 146L82.5 149" stroke="#D0D2E0" stroke-width="2" stroke-linecap="round"
      stroke-linejoin="round" />
    <rect x="96" y="138" width="284" height="16" rx="8" fill="#F3F4FA" />
    <rect x="0.5" y="118.5" width="467" height="55" stroke="#E1E3ED" />
    <rect x="0.5" y="173.5" width="467" height="55" fill="white" />
    <circle cx="24" cy="201" r="7" fill="#F3F4FA" />
    <rect x="40" y="193" width="32" height="16" rx="8" fill="#F3F4FA" />
    <path d="M82.5 198L85.5 201L82.5 204" stroke="#D0D2E0" stroke-width="2" stroke-linecap="round"
      stroke-linejoin="round" />
    <rect x="96" y="193" width="284" height="16" rx="8" fill="#F3F4FA" />
    <rect x="0.5" y="173.5" width="467" height="55" stroke="#E1E3ED" />
    <rect x="0.5" y="228.5" width="467" height="55" fill="white" />
    <circle cx="24" cy="256" r="7" fill="#F3F4FA" />
    <rect x="40" y="248" width="32" height="16" rx="8" fill="#F3F4FA" />
    <path d="M82.5 253L85.5 256L82.5 259" stroke="#D0D2E0" stroke-width="2" stroke-linecap="round"
      stroke-linejoin="round" />
    <rect x="96" y="248" width="284" height="16" rx="8" fill="#F3F4FA" />
    <rect x="0.5" y="228.5" width="467" height="55" stroke="#E1E3ED" />
  </g>
  <rect x="0.5" y="0.5" width="467" height="283" rx="5.5" stroke="#E1E3ED" />
  <defs>
    <clipPath id="clip0_918_3488">
      <rect width="468" height="284" rx="6" fill="white" />
    </clipPath>
    <clipPath id="clip1_918_3488">
      <rect width="16" height="16" fill="white" transform="translate(187 83)" />
    </clipPath>
  </defs>
</svg>