<svg viewBox="0 0 468 284" fill="none" xmlns="http://www.w3.org/2000/svg">
  <g clip-path="url(#clip0_918_6671)">
    <rect x="0.5" y="0.5" width="467" height="63" fill="#F3F4FA" />
    <circle cx="23" cy="32" r="7" fill="#D0D2E0" />
    <rect x="38" y="24" width="227" height="16" rx="8" fill="#E1E3ED" />
    <rect x="333.5" y="16.5" width="118" height="31" rx="3.5" fill="white" />
    <rect x="333.5" y="16.5" width="118" height="31" rx="3.5" stroke="#E1E3ED" />
    <path
      d="M356.322 32.424L349.765 36.5219C349.432 36.73 349 36.4906 349 36.0979V27.9021C349 27.5094 349.432 27.27 349.765 27.4781L356.322 31.576C356.635 31.7718 356.635 32.2282 356.322 32.424Z"
      fill="#D0D2E0" stroke="#4956E3" stroke-width="2" stroke-linecap="round" stroke-linejoin="round" />
    <path
      d="M369.909 37V27.1357H373.737C375.754 27.1357 377.025 28.3047 377.025 30.1572V30.1709C377.025 31.5107 376.294 32.5771 375.111 32.9805L377.319 37H375.556L373.546 33.2129H371.44V37H369.909ZM371.44 31.9551H373.587C374.77 31.9551 375.446 31.3057 375.446 30.1846V30.1709C375.446 29.0771 374.722 28.4209 373.546 28.4209H371.44V31.9551ZM380.778 37.1436C379.199 37.1436 378.297 36.125 378.297 34.4707V29.8086H379.773V34.1836C379.773 35.2705 380.279 35.8721 381.305 35.8721C382.344 35.8721 383.014 35.127 383.014 34.0059V29.8086H384.497V37H383.014V35.9199H382.979C382.604 36.6445 381.872 37.1436 380.778 37.1436ZM385.96 37V29.8086H387.437V30.8955H387.471C387.847 30.1641 388.585 29.6719 389.672 29.6719C391.251 29.6719 392.16 30.6904 392.16 32.3447V37H390.677V32.625C390.677 31.5449 390.171 30.9365 389.146 30.9365C388.106 30.9365 387.437 31.6885 387.437 32.8096V37H385.96ZM396.863 37V30.9844H395.872V29.8086H396.863V29.043C396.863 27.6484 397.52 26.9922 398.982 26.9922C399.283 26.9922 399.611 27.0195 399.81 27.0537V28.1475C399.666 28.127 399.481 28.1133 399.297 28.1133C398.634 28.1133 398.319 28.4346 398.319 29.0703V29.8086H399.782V30.9844H398.347V37H396.863ZM402.66 37.1299C401.225 37.1299 400.261 36.248 400.261 34.9561V34.9424C400.261 33.6914 401.231 32.9258 402.934 32.8232L404.889 32.707V32.167C404.889 31.374 404.376 30.8955 403.46 30.8955C402.605 30.8955 402.079 31.2988 401.956 31.873L401.942 31.9346H400.548L400.555 31.8594C400.657 30.6221 401.73 29.6719 403.501 29.6719C405.258 29.6719 406.372 30.6016 406.372 32.0439V37H404.889V35.8652H404.861C404.444 36.6377 403.61 37.1299 402.66 37.1299ZM401.751 34.9219C401.751 35.5508 402.271 35.9473 403.063 35.9473C404.103 35.9473 404.889 35.2432 404.889 34.3066V33.7461L403.132 33.8555C402.243 33.9102 401.751 34.2998 401.751 34.9082V34.9219ZM408.607 28.7012C408.129 28.7012 407.746 28.3184 407.746 27.8535C407.746 27.3818 408.129 26.999 408.607 26.999C409.093 26.999 409.469 27.3818 409.469 27.8535C409.469 28.3184 409.093 28.7012 408.607 28.7012ZM407.869 37V29.8086H409.346V37H407.869ZM410.925 37V27.1357H412.401V37H410.925ZM416.366 37.1436C414.787 37.1436 413.885 36.125 413.885 34.4707V29.8086H415.361V34.1836C415.361 35.2705 415.867 35.8721 416.893 35.8721C417.932 35.8721 418.602 35.127 418.602 34.0059V29.8086H420.085V37H418.602V35.9199H418.567C418.191 36.6445 417.46 37.1436 416.366 37.1436ZM421.548 37V29.8086H423.024V31.0391H423.059C423.291 30.1982 423.893 29.6719 424.713 29.6719C424.925 29.6719 425.109 29.7061 425.226 29.7266V31.1006C425.109 31.0527 424.85 31.0186 424.562 31.0186C423.612 31.0186 423.024 31.6406 423.024 32.7139V37H421.548ZM428.896 37.1436C426.784 37.1436 425.506 35.7012 425.506 33.4316V33.4248C425.506 31.1758 426.805 29.6719 428.821 29.6719C430.838 29.6719 432.075 31.1211 432.075 33.2812V33.7803H426.982C427.01 35.1406 427.755 35.9336 428.931 35.9336C429.806 35.9336 430.387 35.4824 430.571 34.9424L430.592 34.8877H431.993L431.979 34.9629C431.747 36.1045 430.64 37.1436 428.896 37.1436ZM428.828 30.8818C427.871 30.8818 427.133 31.5312 427.003 32.7344H430.612C430.489 31.4902 429.792 30.8818 428.828 30.8818ZM435.917 37.1436C434.119 37.1436 433.066 36.2549 432.916 34.9424L432.909 34.8809H434.372L434.386 34.9492C434.522 35.6123 435.015 36.002 435.924 36.002C436.812 36.002 437.346 35.6328 437.346 35.0518V35.0449C437.346 34.5801 437.086 34.3135 436.313 34.1289L435.138 33.8623C433.771 33.5479 433.094 32.8916 433.094 31.8457V31.8389C433.094 30.5537 434.215 29.6719 435.869 29.6719C437.571 29.6719 438.597 30.6221 438.672 31.8457L438.679 31.9277H437.291L437.284 31.8799C437.195 31.251 436.703 30.8135 435.869 30.8135C435.076 30.8135 434.577 31.1895 434.577 31.7637V31.7705C434.577 32.2148 434.871 32.5156 435.644 32.7002L436.812 32.9668C438.282 33.3086 438.843 33.8896 438.843 34.9219V34.9287C438.843 36.2412 437.612 37.1436 435.917 37.1436Z"
      fill="#4956E3" />
    <rect x="332" y="15" width="121" height="34" rx="5" stroke="#A06CE4" stroke-width="2" />
    <rect x="0.5" y="0.5" width="467" height="63" stroke="#E1E3ED" />
    <rect width="468" height="221" transform="translate(0 63)" fill="white" />
    <rect x="0.5" y="63.5" width="467" height="55" fill="white" />
    <circle cx="24" cy="91" r="7" fill="#F3F4FA" />
    <rect x="40" y="83" width="32" height="16" rx="8" fill="#F3F4FA" />
    <path d="M82.5 88L85.5 91L82.5 94" stroke="#D0D2E0" stroke-width="2" stroke-linecap="round"
      stroke-linejoin="round" />
    <rect x="96" y="83" width="284" height="16" rx="8" fill="#F3F4FA" />
    <rect x="0.5" y="63.5" width="467" height="55" stroke="#E1E3ED" />
    <rect x="0.5" y="118.5" width="467" height="55" fill="white" />
    <circle cx="24" cy="146" r="7" fill="#F3F4FA" />
    <rect x="40" y="138" width="32" height="16" rx="8" fill="#F3F4FA" />
    <path d="M82.5 143L85.5 146L82.5 149" stroke="#D0D2E0" stroke-width="2" stroke-linecap="round"
      stroke-linejoin="round" />
    <rect x="96" y="138" width="284" height="16" rx="8" fill="#F3F4FA" />
    <rect x="0.5" y="118.5" width="467" height="55" stroke="#E1E3ED" />
    <rect x="0.5" y="173.5" width="467" height="55" fill="white" />
    <circle cx="24" cy="201" r="7" fill="#F3F4FA" />
    <rect x="40" y="193" width="32" height="16" rx="8" fill="#F3F4FA" />
    <path d="M82.5 198L85.5 201L82.5 204" stroke="#D0D2E0" stroke-width="2" stroke-linecap="round"
      stroke-linejoin="round" />
    <rect x="96" y="193" width="284" height="16" rx="8" fill="#F3F4FA" />
    <rect x="0.5" y="173.5" width="467" height="55" stroke="#E1E3ED" />
    <rect x="0.5" y="228.5" width="467" height="55" fill="white" />
    <circle cx="24" cy="256" r="7" fill="#F3F4FA" />
    <rect x="40" y="248" width="32" height="16" rx="8" fill="#F3F4FA" />
    <path d="M82.5 253L85.5 256L82.5 259" stroke="#D0D2E0" stroke-width="2" stroke-linecap="round"
      stroke-linejoin="round" />
    <rect x="96" y="248" width="284" height="16" rx="8" fill="#F3F4FA" />
    <rect x="0.5" y="228.5" width="467" height="55" stroke="#E1E3ED" />
  </g>
  <rect x="0.5" y="0.5" width="467" height="283" rx="5.5" stroke="#E1E3ED" />
  <defs>
    <clipPath id="clip0_918_6671">
      <rect width="468" height="284" rx="6" fill="white" />
    </clipPath>
  </defs>
</svg>