<svg viewBox="0 0 462 341" fill="none" xmlns="http://www.w3.org/2000/svg">
<g filter="url(#filter0_d_560_11340)">
<g clip-path="url(#clip0_560_11340)">
<rect x="20" y="20" width="394" height="215.411" rx="8" fill="#434861"/>
<rect width="394" height="40" transform="translate(20 20)" fill="#2E3247"/>
<path d="M36.9365 97.3955C37.0391 99.0156 38.2148 100.068 40.0264 100.205V100.964H40.8398V100.198C42.665 100.055 43.8271 98.9609 43.8271 97.334C43.8271 95.8643 43.0273 95.0508 41.0654 94.5654L40.8398 94.5039V90.9561C41.8105 91.0928 42.46 91.7012 42.5762 92.6172H43.6562C43.5742 91.1133 42.4736 90.0879 40.8398 89.9375V89.1719H40.0264V89.9375C38.29 90.0742 37.1826 91.1201 37.1826 92.665C37.1826 94.0869 38.0234 94.9414 39.8828 95.3994L40.0264 95.4336V99.1797C38.9053 99.0498 38.1396 98.3799 38.0303 97.3955H36.9365ZM38.3037 92.6309C38.3037 91.6943 38.9531 91.0723 40.0264 90.9561V94.2988C38.7891 93.9502 38.3037 93.4785 38.3037 92.6309ZM42.7129 97.3887C42.7129 98.3594 41.9678 99.0498 40.8398 99.1797V95.6387C42.1592 95.9805 42.7129 96.5 42.7129 97.3887ZM277.609 96.165V95.085H270.377V96.165H277.609ZM286.264 96.165V95.085H279.031V96.165H286.264ZM290.064 95.9121H289.976V89.6709H288.813V100H289.976V97.2998L291.001 96.3154L293.53 100H294.911L291.828 95.5225L294.706 92.583H293.298L290.064 95.9121ZM301.959 98.0859C301.754 98.7354 301.063 99.1318 300.127 99.1318C298.862 99.1318 298.056 98.2568 298.056 96.8965V96.5957H303.107V95.8711C303.107 93.7246 301.973 92.4463 300.045 92.4463C298.158 92.4463 296.907 93.7314 296.907 95.6865V96.8008C296.907 98.9131 298.09 100.137 300.127 100.137C301.686 100.137 302.861 99.3096 303.087 98.0859H301.959ZM300.038 93.4443C301.234 93.4443 301.959 94.2988 301.959 95.7139H298.056C298.056 94.292 298.801 93.4443 300.038 93.4443ZM306.532 102.639C307.906 102.639 308.528 102.099 309.178 100.273L311.974 92.583H310.736L308.665 98.79H308.576L306.498 92.583H305.233L307.961 100.048L307.831 100.451C307.523 101.312 307.141 101.627 306.443 101.627C306.334 101.627 306.122 101.62 306.033 101.6V102.618C306.136 102.632 306.361 102.639 306.532 102.639ZM325.919 100.041C326.596 100.041 327.156 99.4736 327.156 98.7764C327.156 98.0859 326.596 97.5186 325.919 97.5186C325.242 97.5186 324.682 98.0859 324.682 98.7764C324.682 99.4736 325.242 100.041 325.919 100.041ZM334.573 100.041C335.25 100.041 335.811 99.4736 335.811 98.7764C335.811 98.0859 335.25 97.5186 334.573 97.5186C333.896 97.5186 333.336 98.0859 333.336 98.7764C333.336 99.4736 333.896 100.041 334.573 100.041ZM343.228 100.041C343.904 100.041 344.465 99.4736 344.465 98.7764C344.465 98.0859 343.904 97.5186 343.228 97.5186C342.551 97.5186 341.99 98.0859 341.99 98.7764C341.99 99.4736 342.551 100.041 343.228 100.041Z" fill="#BFC2D4"/>
<path d="M54.6006 100H55.7627V95.6318C55.7627 94.3672 56.583 93.5127 57.8066 93.5127C58.9619 93.5127 59.5088 94.1416 59.5088 95.4814V100H60.6709V95.1875C60.6709 93.4102 59.7959 92.4463 58.1826 92.4463C57.0547 92.4463 56.207 92.9658 55.8105 93.8887H55.7148V92.583H54.6006V100ZM66.7549 92.46C65.6953 92.46 64.9229 92.8975 64.5332 93.7178H64.4102V92.583H63.2617V102.502H64.4443V98.8516H64.5742C64.8955 99.665 65.6816 100.123 66.7549 100.123C68.4707 100.123 69.5918 98.8857 69.5918 96.9854V95.6045C69.5918 93.6973 68.4707 92.46 66.7549 92.46ZM66.4199 93.5264C67.6436 93.5264 68.4229 94.4014 68.4229 95.7686V96.835C68.4229 98.2021 67.6436 99.084 66.4199 99.084C65.1963 99.084 64.417 98.209 64.417 96.835V95.7686C64.417 94.4014 65.1963 93.5264 66.4199 93.5264ZM74.9717 97.1426L76.8379 100H78.1846L75.6279 96.2402L78.1641 92.583H76.8584L75.0195 95.3926H74.9238L73.0781 92.583H71.7041L74.2676 96.2881L71.7246 100H73.0098L74.8828 97.1426H74.9717ZM95.3428 94.8936C95.1514 93.3691 94.0303 92.4395 92.3896 92.4395C90.373 92.4395 89.1973 93.6768 89.1973 95.8027V96.7734C89.1973 98.8994 90.373 100.137 92.3896 100.137C94.0303 100.137 95.1582 99.2139 95.3428 97.7031H94.1943C94.0508 98.5508 93.3262 99.0908 92.3691 99.0908C91.0771 99.0908 90.3594 98.2158 90.3594 96.623V95.9531C90.3594 94.3604 91.0771 93.4785 92.3691 93.4785C93.3262 93.4785 94.0508 94.0254 94.1943 94.8936H95.3428ZM98.8291 102.639C100.203 102.639 100.825 102.099 101.475 100.273L104.271 92.583H103.033L100.962 98.79H100.873L98.7949 92.583H97.5303L100.258 100.048L100.128 100.451C99.8203 101.312 99.4375 101.627 98.7402 101.627C98.6309 101.627 98.4189 101.62 98.3301 101.6V102.618C98.4326 102.632 98.6582 102.639 98.8291 102.639ZM110.026 92.46C108.967 92.46 108.194 92.8975 107.805 93.7178H107.682V92.583H106.533V102.502H107.716V98.8516H107.846C108.167 99.665 108.953 100.123 110.026 100.123C111.742 100.123 112.863 98.8857 112.863 96.9854V95.6045C112.863 93.6973 111.742 92.46 110.026 92.46ZM109.691 93.5264C110.915 93.5264 111.694 94.4014 111.694 95.7686V96.835C111.694 98.2021 110.915 99.084 109.691 99.084C108.468 99.084 107.688 98.209 107.688 96.835V95.7686C107.688 94.4014 108.468 93.5264 109.691 93.5264ZM117.922 96.6777C117.922 94.791 118.893 93.6562 120.533 93.6562C120.937 93.6562 121.415 93.7383 121.757 93.8613V92.5557C121.511 92.4531 121.107 92.3916 120.684 92.3916C119.255 92.3916 118.332 93.1025 118.059 94.4766H117.908V92.583H115.14V93.5127H116.787V99.0703H115.29V100H120.219V99.0703H117.922V96.6777ZM128.873 98.0859C128.668 98.7354 127.978 99.1318 127.041 99.1318C125.776 99.1318 124.97 98.2568 124.97 96.8965V96.5957H130.021V95.8711C130.021 93.7246 128.887 92.4463 126.959 92.4463C125.072 92.4463 123.821 93.7314 123.821 95.6865V96.8008C123.821 98.9131 125.004 100.137 127.041 100.137C128.6 100.137 129.775 99.3096 130.001 98.0859H128.873ZM126.952 93.4443C128.148 93.4443 128.873 94.2988 128.873 95.7139H124.97C124.97 94.292 125.715 93.4443 126.952 93.4443ZM132.824 94.5859C132.824 95.6387 133.487 96.3154 134.827 96.623L135.928 96.876C136.871 97.0879 137.233 97.4023 137.233 97.9902C137.233 98.7012 136.591 99.1592 135.579 99.1592C134.622 99.1592 133.966 98.7627 133.795 98.0791H132.612C132.742 99.3506 133.856 100.137 135.538 100.137C137.295 100.137 138.437 99.248 138.437 97.8809C138.437 96.8076 137.78 96.1787 136.338 95.8506L135.292 95.6113C134.362 95.4062 133.979 95.085 133.979 94.5176C133.979 93.8408 134.588 93.4033 135.531 93.4033C136.399 93.4033 137.021 93.7998 137.158 94.4492H138.279C138.143 93.2119 137.097 92.4395 135.552 92.4395C133.918 92.4395 132.824 93.3008 132.824 94.5859ZM141.479 94.5859C141.479 95.6387 142.142 96.3154 143.481 96.623L144.582 96.876C145.525 97.0879 145.888 97.4023 145.888 97.9902C145.888 98.7012 145.245 99.1592 144.233 99.1592C143.276 99.1592 142.62 98.7627 142.449 98.0791H141.267C141.396 99.3506 142.511 100.137 144.192 100.137C145.949 100.137 147.091 99.248 147.091 97.8809C147.091 96.8076 146.435 96.1787 144.992 95.8506L143.946 95.6113C143.017 95.4062 142.634 95.085 142.634 94.5176C142.634 93.8408 143.242 93.4033 144.186 93.4033C145.054 93.4033 145.676 93.7998 145.812 94.4492H146.934C146.797 93.2119 145.751 92.4395 144.206 92.4395C142.572 92.4395 141.479 93.3008 141.479 94.5859ZM161.193 96.6777C161.193 94.791 162.164 93.6562 163.805 93.6562C164.208 93.6562 164.687 93.7383 165.028 93.8613V92.5557C164.782 92.4531 164.379 92.3916 163.955 92.3916C162.526 92.3916 161.604 93.1025 161.33 94.4766H161.18V92.583H158.411V93.5127H160.059V99.0703H158.562V100H163.49V99.0703H161.193V96.6777ZM173.177 92.583H172.015V96.9512C172.015 98.2158 171.194 99.0703 169.971 99.0703C168.815 99.0703 168.269 98.4414 168.269 97.1016V92.583H167.106V97.3955C167.106 99.1729 167.981 100.137 169.595 100.137C170.723 100.137 171.57 99.6172 171.967 98.6943H172.062V100H173.177V92.583ZM175.761 100H176.923V95.6318C176.923 94.3672 177.743 93.5127 178.967 93.5127C180.122 93.5127 180.669 94.1416 180.669 95.4814V100H181.831V95.1875C181.831 93.4102 180.956 92.4463 179.343 92.4463C178.215 92.4463 177.367 92.9658 176.971 93.8887H176.875V92.583H175.761V100ZM199.721 96.165V95.085H192.488V96.165H199.721ZM208.375 96.165V95.085H201.143V96.165H208.375ZM213.119 96.6777C213.119 94.791 214.09 93.6562 215.73 93.6562C216.134 93.6562 216.612 93.7383 216.954 93.8613V92.5557C216.708 92.4531 216.305 92.3916 215.881 92.3916C214.452 92.3916 213.529 93.1025 213.256 94.4766H213.105V92.583H210.337V93.5127H211.984V99.0703H210.487V100H215.416V99.0703H213.119V96.6777ZM224.07 98.0859C223.865 98.7354 223.175 99.1318 222.238 99.1318C220.974 99.1318 220.167 98.2568 220.167 96.8965V96.5957H225.219V95.8711C225.219 93.7246 224.084 92.4463 222.156 92.4463C220.27 92.4463 219.019 93.7314 219.019 95.6865V96.8008C219.019 98.9131 220.201 100.137 222.238 100.137C223.797 100.137 224.973 99.3096 225.198 98.0859H224.07ZM222.149 93.4443C223.346 93.4443 224.07 94.2988 224.07 95.7139H220.167C220.167 94.292 220.912 93.4443 222.149 93.4443ZM233.812 94.8936C233.62 93.3691 232.499 92.4395 230.858 92.4395C228.842 92.4395 227.666 93.6768 227.666 95.8027V96.7734C227.666 98.8994 228.842 100.137 230.858 100.137C232.499 100.137 233.627 99.2139 233.812 97.7031H232.663C232.52 98.5508 231.795 99.0908 230.838 99.0908C229.546 99.0908 228.828 98.2158 228.828 96.623V95.9531C228.828 94.3604 229.546 93.4785 230.838 93.4785C231.795 93.4785 232.52 94.0254 232.663 94.8936H233.812ZM239.376 100.137C241.338 100.137 242.589 98.8584 242.589 96.8555V95.7344C242.589 93.7314 241.338 92.4531 239.376 92.4531C237.414 92.4531 236.163 93.7314 236.163 95.7344V96.8555C236.163 98.8584 237.414 100.137 239.376 100.137ZM239.376 93.4785C240.647 93.4785 241.44 94.3809 241.44 95.8369V96.7461C241.44 98.209 240.647 99.1045 239.376 99.1045C238.104 99.1045 237.312 98.209 237.312 96.7461V95.8369C237.312 94.3809 238.104 93.4785 239.376 93.4785ZM247.736 96.6777C247.736 94.791 248.707 93.6562 250.348 93.6562C250.751 93.6562 251.229 93.7383 251.571 93.8613V92.5557C251.325 92.4531 250.922 92.3916 250.498 92.3916C249.069 92.3916 248.146 93.1025 247.873 94.4766H247.723V92.583H244.954V93.5127H246.602V99.0703H245.104V100H250.033V99.0703H247.736V96.6777ZM256.22 100.123C257.279 100.123 258.059 99.6855 258.441 98.8652H258.571V100H259.713V89.6709H258.53V93.7314H258.407C258.086 92.918 257.293 92.46 256.22 92.46C254.504 92.46 253.383 93.6973 253.383 95.5977V96.9785C253.383 98.8857 254.504 100.123 256.22 100.123ZM256.562 99.0635C255.338 99.0635 254.552 98.1816 254.552 96.8145V95.748C254.552 94.3809 255.338 93.5059 256.562 93.5059C257.778 93.5059 258.564 94.3809 258.564 95.748V96.8145C258.564 98.1885 257.778 99.0635 256.562 99.0635Z" fill="#F3F4FA"/>
</g>
</g>
<rect width="128" height="45.0113" transform="translate(286 71.4415)" fill="url(#paint0_linear_560_11340)"/>
<g filter="url(#filter1_d_560_11340)">
<g clip-path="url(#clip1_560_11340)">
<rect x="39" y="131" width="386" height="172.543" rx="4" fill="white"/>
<mask id="path-5-inside-1_560_11340" fill="white">
<path d="M39 135C39 132.791 40.7909 131 43 131H421C423.209 131 425 132.791 425 135V171H39V135Z"/>
</mask>
<path d="M39 135C39 132.791 40.7909 131 43 131H421C423.209 131 425 132.791 425 135V171H39V135Z" fill="white"/>
<path d="M53 157V145C53 144.448 53.4477 144 54 144H64C64.5523 144 65 144.448 65 145V157C65 157.552 64.5523 158 64 158H54C53.4477 158 53 157.552 53 157Z" fill="#E1E3ED"/>
<path d="M56 151H59M56 148H62M56 154H61M64 144L54 144C53.4477 144 53 144.448 53 145V157C53 157.552 53.4477 158 54 158H64C64.5523 158 65 157.552 65 157V145C65 144.448 64.5523 144 64 144Z" stroke="#9095AD" stroke-width="2" stroke-linecap="round" stroke-linejoin="round"/>
<path d="M81.9248 156V154.927H79.9287V147.209H81.9248V146.136H76.7295V147.209H78.7256V154.927H76.7295V156H81.9248ZM84.9463 156H86.1084V151.632C86.1084 150.367 86.9287 149.513 88.1523 149.513C89.3076 149.513 89.8545 150.142 89.8545 151.481V156H91.0166V151.188C91.0166 149.41 90.1416 148.446 88.5283 148.446C87.4004 148.446 86.5527 148.966 86.1562 149.889H86.0605V148.583H84.9463V156ZM103.212 158.639C104.586 158.639 105.208 158.099 105.857 156.273L108.653 148.583H107.416L105.345 154.79H105.256L103.178 148.583H101.913L104.641 156.048L104.511 156.451C104.203 157.312 103.82 157.627 103.123 157.627C103.014 157.627 102.802 157.62 102.713 157.6V158.618C102.815 158.632 103.041 158.639 103.212 158.639ZM113.944 156.137C115.906 156.137 117.157 154.858 117.157 152.855V151.734C117.157 149.731 115.906 148.453 113.944 148.453C111.982 148.453 110.731 149.731 110.731 151.734V152.855C110.731 154.858 111.982 156.137 113.944 156.137ZM113.944 149.479C115.216 149.479 116.009 150.381 116.009 151.837V152.746C116.009 154.209 115.216 155.104 113.944 155.104C112.673 155.104 111.88 154.209 111.88 152.746V151.837C111.88 150.381 112.673 149.479 113.944 149.479ZM125.634 148.583H124.472V152.951C124.472 154.216 123.651 155.07 122.428 155.07C121.272 155.07 120.726 154.441 120.726 153.102V148.583H119.563V153.396C119.563 155.173 120.438 156.137 122.052 156.137C123.18 156.137 124.027 155.617 124.424 154.694H124.52V156H125.634V148.583ZM130.959 152.678C130.959 150.791 131.93 149.656 133.57 149.656C133.974 149.656 134.452 149.738 134.794 149.861V148.556C134.548 148.453 134.145 148.392 133.721 148.392C132.292 148.392 131.369 149.103 131.096 150.477H130.945V148.583H128.177V149.513H129.824V155.07H128.327V156H133.256V155.07H130.959V152.678ZM148.787 155.063C147.188 155.063 146.354 153.99 146.354 151.946V150.189C146.354 148.146 147.188 147.072 148.78 147.072C150.045 147.072 150.927 147.968 150.968 149.301H152.191C152.15 147.195 150.865 145.931 148.787 145.931C146.47 145.931 145.123 147.496 145.123 150.189V151.946C145.123 154.64 146.47 156.205 148.787 156.205C150.804 156.205 152.185 154.913 152.185 153.006H150.968C150.934 154.277 150.1 155.063 148.787 155.063ZM159.813 156V154.927H157.817V147.209H159.813V146.136H154.618V147.209H156.614V154.927H154.618V156H159.813ZM177.614 150.894C177.423 149.369 176.302 148.439 174.661 148.439C172.645 148.439 171.469 149.677 171.469 151.803V152.773C171.469 154.899 172.645 156.137 174.661 156.137C176.302 156.137 177.43 155.214 177.614 153.703H176.466C176.322 154.551 175.598 155.091 174.641 155.091C173.349 155.091 172.631 154.216 172.631 152.623V151.953C172.631 150.36 173.349 149.479 174.641 149.479C175.598 149.479 176.322 150.025 176.466 150.894H177.614ZM183.179 156.137C185.141 156.137 186.392 154.858 186.392 152.855V151.734C186.392 149.731 185.141 148.453 183.179 148.453C181.217 148.453 179.966 149.731 179.966 151.734V152.855C179.966 154.858 181.217 156.137 183.179 156.137ZM183.179 149.479C184.45 149.479 185.243 150.381 185.243 151.837V152.746C185.243 154.209 184.45 155.104 183.179 155.104C181.907 155.104 181.114 154.209 181.114 152.746V151.837C181.114 150.381 181.907 149.479 183.179 149.479ZM188.798 156H189.96V151.632C189.96 150.367 190.78 149.513 192.004 149.513C193.159 149.513 193.706 150.142 193.706 151.481V156H194.868V151.188C194.868 149.41 193.993 148.446 192.38 148.446C191.252 148.446 190.404 148.966 190.008 149.889H189.912V148.583H188.798V156ZM199.394 156H200.556V149.595H203.816V148.604H200.542V147.838C200.542 147.093 201.089 146.71 202.121 146.71C202.538 146.71 203.495 146.737 203.816 146.771V145.821C203.57 145.787 202.538 145.753 202.107 145.753C200.282 145.753 199.394 146.423 199.394 147.858V148.604H197.404V149.595H199.394V156ZM209.271 146.765C209.818 146.765 210.235 146.354 210.235 145.808C210.235 145.268 209.818 144.857 209.271 144.857C208.725 144.857 208.308 145.268 208.308 145.808C208.308 146.354 208.725 146.765 209.271 146.765ZM212.382 156V155.036H209.928V148.583H206.257V149.547H208.779V155.036H206.236V156H212.382ZM217.577 158.782C219.587 158.782 220.776 157.743 220.776 156V148.583H219.628V149.731H219.498C219.177 148.932 218.363 148.46 217.29 148.46C215.554 148.46 214.419 149.69 214.419 151.598V152.931C214.419 154.831 215.547 156.068 217.263 156.068C218.343 156.068 219.163 155.597 219.491 154.817H219.614V155.973C219.614 157.162 218.896 157.818 217.598 157.818C216.606 157.818 215.861 157.415 215.711 156.8H214.562C214.713 158.03 215.861 158.782 217.577 158.782ZM215.588 152.767V151.748C215.588 150.388 216.381 149.506 217.611 149.506C218.835 149.506 219.621 150.381 219.621 151.748V152.767C219.621 154.134 218.835 155.016 217.611 155.016C216.381 155.016 215.588 154.127 215.588 152.767Z" fill="#747994"/>
<path d="M39 131H425H39ZM425 172H39V170H425V172ZM39 171V131V171ZM425 131V171V131Z" fill="#E1E3ED" mask="url(#path-5-inside-1_560_11340)"/>
<mask id="path-10-inside-2_560_11340" fill="white">
<path d="M39 171H79V304H39V171Z"/>
</mask>
<path d="M39 171H79V304H39V171Z" fill="white"/>
<path d="M54.4775 196H48.0918V195.016H50.7959V188.11H50.6943L48.0728 189.805V188.611L50.8022 186.84H51.9004V195.016H54.4775V196ZM48.0981 213.417C48.0981 211.805 49.2915 210.65 50.9609 210.65C52.6431 210.65 53.7983 211.691 53.7983 213.221C53.7983 214.173 53.3667 214.935 51.9067 216.528L49.7485 218.876V218.984H53.9443V220H48.1489V219.226L51.2466 215.779C52.4082 214.478 52.6875 213.989 52.6875 213.265C52.6875 212.281 51.9956 211.634 50.9292 211.634C49.8755 211.634 49.1772 212.338 49.1772 213.417V213.456H48.0981V213.417ZM49.9009 239.753V238.814H50.8975C51.9258 238.814 52.6431 238.141 52.6431 237.183C52.6431 236.25 51.9575 235.634 50.9229 235.634C49.8945 235.634 49.209 236.237 49.1201 237.221H48.0474C48.1553 235.634 49.2725 234.65 50.9673 234.65C52.605 234.65 53.7729 235.634 53.7729 237.024C53.7729 238.128 53.1953 238.916 52.2114 239.157V239.258C53.4302 239.417 54.1538 240.274 54.1538 241.524C54.1538 243.08 52.8462 244.19 51.0181 244.19C49.209 244.19 47.9521 243.149 47.8696 241.569H48.9297C49.0312 242.546 49.8438 243.181 50.9863 243.181C52.2432 243.181 53.0239 242.534 53.0239 241.499C53.0239 240.433 52.2178 239.753 50.9482 239.753H49.9009ZM52.0908 268V266.064H47.9141V265.156L51.0244 258.84H52.167L49.1011 265.01V265.093H52.1035V262.478H53.1191V265.08H54.5156V266.064H53.1128V268H52.0908ZM50.9419 292.184C49.2344 292.184 48.0283 291.13 47.9331 289.556H49.0122C49.1138 290.515 49.9326 291.175 51.0054 291.175C52.186 291.175 52.9731 290.343 52.9731 289.099C52.9731 287.842 52.1797 286.992 51.0054 286.992C50.1865 286.992 49.5073 287.366 49.1455 288.014H48.0854L48.5488 282.84H53.5571V283.85H49.4312L49.1772 286.839H49.2788C49.7295 286.293 50.3833 286.008 51.1895 286.008C52.8843 286.008 54.0649 287.271 54.0649 289.074C54.0649 290.927 52.8018 292.184 50.9419 292.184Z" fill="#9095AD"/>
<path d="M78 171V304H80V171H78Z" fill="#E1E3ED" mask="url(#path-10-inside-2_560_11340)"/>
</g>
<rect x="38.5" y="130.5" width="387" height="173.543" rx="4.5" stroke="#E1E3ED"/>
<rect x="103" y="182" width="103" height="16" rx="8" fill="#F3F4FA"/>
<rect x="103" y="204" width="134" height="16" rx="8" fill="#F3F4FA"/>
<path d="M104.292 243H105.454V238.632C105.454 237.367 106.274 236.513 107.498 236.513C108.653 236.513 109.2 237.142 109.2 238.481V243H110.362V238.188C110.362 236.41 109.487 235.446 107.874 235.446C106.746 235.446 105.898 235.966 105.502 236.889H105.406V235.583H104.292V243ZM116.446 235.46C115.387 235.46 114.614 235.897 114.225 236.718H114.102V235.583H112.953V245.502H114.136V241.852H114.266C114.587 242.665 115.373 243.123 116.446 243.123C118.162 243.123 119.283 241.886 119.283 239.985V238.604C119.283 236.697 118.162 235.46 116.446 235.46ZM116.111 236.526C117.335 236.526 118.114 237.401 118.114 238.769V239.835C118.114 241.202 117.335 242.084 116.111 242.084C114.888 242.084 114.108 241.209 114.108 239.835V238.769C114.108 237.401 114.888 236.526 116.111 236.526ZM124.663 240.143L126.529 243H127.876L125.319 239.24L127.855 235.583H126.55L124.711 238.393H124.615L122.77 235.583H121.396L123.959 239.288L121.416 243H122.701L124.574 240.143H124.663ZM145.034 237.894C144.843 236.369 143.722 235.439 142.081 235.439C140.064 235.439 138.889 236.677 138.889 238.803V239.773C138.889 241.899 140.064 243.137 142.081 243.137C143.722 243.137 144.85 242.214 145.034 240.703H143.886C143.742 241.551 143.018 242.091 142.061 242.091C140.769 242.091 140.051 241.216 140.051 239.623V238.953C140.051 237.36 140.769 236.479 142.061 236.479C143.018 236.479 143.742 237.025 143.886 237.894H145.034ZM148.521 245.639C149.895 245.639 150.517 245.099 151.166 243.273L153.962 235.583H152.725L150.653 241.79H150.564L148.486 235.583H147.222L149.949 243.048L149.819 243.451C149.512 244.312 149.129 244.627 148.432 244.627C148.322 244.627 148.11 244.62 148.021 244.6V245.618C148.124 245.632 148.35 245.639 148.521 245.639ZM159.718 235.46C158.658 235.46 157.886 235.897 157.496 236.718H157.373V235.583H156.225V245.502H157.407V241.852H157.537C157.858 242.665 158.645 243.123 159.718 243.123C161.434 243.123 162.555 241.886 162.555 239.985V238.604C162.555 236.697 161.434 235.46 159.718 235.46ZM159.383 236.526C160.606 236.526 161.386 237.401 161.386 238.769V239.835C161.386 241.202 160.606 242.084 159.383 242.084C158.159 242.084 157.38 241.209 157.38 239.835V238.769C157.38 237.401 158.159 236.526 159.383 236.526ZM167.613 239.678C167.613 237.791 168.584 236.656 170.225 236.656C170.628 236.656 171.106 236.738 171.448 236.861V235.556C171.202 235.453 170.799 235.392 170.375 235.392C168.946 235.392 168.023 236.103 167.75 237.477H167.6V235.583H164.831V236.513H166.479V242.07H164.981V243H169.91V242.07H167.613V239.678ZM178.564 241.086C178.359 241.735 177.669 242.132 176.732 242.132C175.468 242.132 174.661 241.257 174.661 239.896V239.596H179.713V238.871C179.713 236.725 178.578 235.446 176.65 235.446C174.764 235.446 173.513 236.731 173.513 238.687V239.801C173.513 241.913 174.695 243.137 176.732 243.137C178.291 243.137 179.467 242.31 179.692 241.086H178.564ZM176.644 236.444C177.84 236.444 178.564 237.299 178.564 238.714H174.661C174.661 237.292 175.406 236.444 176.644 236.444ZM182.516 237.586C182.516 238.639 183.179 239.315 184.519 239.623L185.619 239.876C186.562 240.088 186.925 240.402 186.925 240.99C186.925 241.701 186.282 242.159 185.271 242.159C184.313 242.159 183.657 241.763 183.486 241.079H182.304C182.434 242.351 183.548 243.137 185.229 243.137C186.986 243.137 188.128 242.248 188.128 240.881C188.128 239.808 187.472 239.179 186.029 238.851L184.983 238.611C184.054 238.406 183.671 238.085 183.671 237.518C183.671 236.841 184.279 236.403 185.223 236.403C186.091 236.403 186.713 236.8 186.85 237.449H187.971C187.834 236.212 186.788 235.439 185.243 235.439C183.609 235.439 182.516 236.301 182.516 237.586ZM191.17 237.586C191.17 238.639 191.833 239.315 193.173 239.623L194.273 239.876C195.217 240.088 195.579 240.402 195.579 240.99C195.579 241.701 194.937 242.159 193.925 242.159C192.968 242.159 192.312 241.763 192.141 241.079H190.958C191.088 242.351 192.202 243.137 193.884 243.137C195.641 243.137 196.782 242.248 196.782 240.881C196.782 239.808 196.126 239.179 194.684 238.851L193.638 238.611C192.708 238.406 192.325 238.085 192.325 237.518C192.325 236.841 192.934 236.403 193.877 236.403C194.745 236.403 195.367 236.8 195.504 237.449H196.625C196.488 236.212 195.442 235.439 193.897 235.439C192.264 235.439 191.17 236.301 191.17 237.586ZM210.885 239.678C210.885 237.791 211.855 236.656 213.496 236.656C213.899 236.656 214.378 236.738 214.72 236.861V235.556C214.474 235.453 214.07 235.392 213.646 235.392C212.218 235.392 211.295 236.103 211.021 237.477H210.871V235.583H208.103V236.513H209.75V242.07H208.253V243H213.182V242.07H210.885V239.678ZM222.868 235.583H221.706V239.951C221.706 241.216 220.886 242.07 219.662 242.07C218.507 242.07 217.96 241.441 217.96 240.102V235.583H216.798V240.396C216.798 242.173 217.673 243.137 219.286 243.137C220.414 243.137 221.262 242.617 221.658 241.694H221.754V243H222.868V235.583ZM225.452 243H226.614V238.632C226.614 237.367 227.435 236.513 228.658 236.513C229.813 236.513 230.36 237.142 230.36 238.481V243H231.522V238.188C231.522 236.41 230.647 235.446 229.034 235.446C227.906 235.446 227.059 235.966 226.662 236.889H226.566V235.583H225.452V243ZM249.412 239.165V238.085H242.18V239.165H249.412ZM258.066 239.165V238.085H250.834V239.165H258.066ZM262.811 239.678C262.811 237.791 263.781 236.656 265.422 236.656C265.825 236.656 266.304 236.738 266.646 236.861V235.556C266.399 235.453 265.996 235.392 265.572 235.392C264.144 235.392 263.221 236.103 262.947 237.477H262.797V235.583H260.028V236.513H261.676V242.07H260.179V243H265.107V242.07H262.811V239.678ZM273.762 241.086C273.557 241.735 272.866 242.132 271.93 242.132C270.665 242.132 269.858 241.257 269.858 239.896V239.596H274.91V238.871C274.91 236.725 273.775 235.446 271.848 235.446C269.961 235.446 268.71 236.731 268.71 238.687V239.801C268.71 241.913 269.893 243.137 271.93 243.137C273.488 243.137 274.664 242.31 274.89 241.086H273.762ZM271.841 236.444C273.037 236.444 273.762 237.299 273.762 238.714H269.858C269.858 237.292 270.604 236.444 271.841 236.444ZM283.503 237.894C283.312 236.369 282.19 235.439 280.55 235.439C278.533 235.439 277.357 236.677 277.357 238.803V239.773C277.357 241.899 278.533 243.137 280.55 243.137C282.19 243.137 283.318 242.214 283.503 240.703H282.354C282.211 241.551 281.486 242.091 280.529 242.091C279.237 242.091 278.52 241.216 278.52 239.623V238.953C278.52 237.36 279.237 236.479 280.529 236.479C281.486 236.479 282.211 237.025 282.354 237.894H283.503ZM289.067 243.137C291.029 243.137 292.28 241.858 292.28 239.855V238.734C292.28 236.731 291.029 235.453 289.067 235.453C287.105 235.453 285.854 236.731 285.854 238.734V239.855C285.854 241.858 287.105 243.137 289.067 243.137ZM289.067 236.479C290.339 236.479 291.132 237.381 291.132 238.837V239.746C291.132 241.209 290.339 242.104 289.067 242.104C287.796 242.104 287.003 241.209 287.003 239.746V238.837C287.003 237.381 287.796 236.479 289.067 236.479ZM297.428 239.678C297.428 237.791 298.398 236.656 300.039 236.656C300.442 236.656 300.921 236.738 301.263 236.861V235.556C301.017 235.453 300.613 235.392 300.189 235.392C298.761 235.392 297.838 236.103 297.564 237.477H297.414V235.583H294.646V236.513H296.293V242.07H294.796V243H299.725V242.07H297.428V239.678ZM305.911 243.123C306.971 243.123 307.75 242.686 308.133 241.865H308.263V243H309.404V232.671H308.222V236.731H308.099C307.777 235.918 306.984 235.46 305.911 235.46C304.195 235.46 303.074 236.697 303.074 238.598V239.979C303.074 241.886 304.195 243.123 305.911 243.123ZM306.253 242.063C305.029 242.063 304.243 241.182 304.243 239.814V238.748C304.243 237.381 305.029 236.506 306.253 236.506C307.47 236.506 308.256 237.381 308.256 238.748V239.814C308.256 241.188 307.47 242.063 306.253 242.063Z" fill="#1FA971"/>
<rect x="103" y="256" width="94" height="16" rx="8" fill="#F3F4FA"/>
<rect x="103" y="278" width="127" height="16" rx="8" fill="#F3F4FA"/>
<path d="M68.8604 240.165V243.255H67.7939V240.165H64.6836V239.085H67.7939V235.988H68.8604V239.085H71.9707V240.165H68.8604Z" fill="#1FA971"/>
</g>
<g opacity="0.4">
<path d="M45.9248 45V43.9268H43.9287V36.209H45.9248V35.1357H40.7295V36.209H42.7256V43.9268H40.7295V45H45.9248ZM48.9463 45H50.1084V40.6318C50.1084 39.3672 50.9287 38.5127 52.1523 38.5127C53.3076 38.5127 53.8545 39.1416 53.8545 40.4814V45H55.0166V40.1875C55.0166 38.4102 54.1416 37.4463 52.5283 37.4463C51.4004 37.4463 50.5527 37.9658 50.1562 38.8887H50.0605V37.583H48.9463V45ZM67.2119 47.6387C68.5859 47.6387 69.208 47.0986 69.8574 45.2734L72.6533 37.583H71.416L69.3447 43.79H69.2559L67.1777 37.583H65.9131L68.6406 45.0479L68.5107 45.4512C68.2031 46.3125 67.8203 46.627 67.123 46.627C67.0137 46.627 66.8018 46.6201 66.7129 46.5996V47.6182C66.8154 47.6318 67.041 47.6387 67.2119 47.6387ZM77.9443 45.1367C79.9062 45.1367 81.1572 43.8584 81.1572 41.8555V40.7344C81.1572 38.7314 79.9062 37.4531 77.9443 37.4531C75.9824 37.4531 74.7314 38.7314 74.7314 40.7344V41.8555C74.7314 43.8584 75.9824 45.1367 77.9443 45.1367ZM77.9443 38.4785C79.2158 38.4785 80.0088 39.3809 80.0088 40.8369V41.7461C80.0088 43.209 79.2158 44.1045 77.9443 44.1045C76.6729 44.1045 75.8799 43.209 75.8799 41.7461V40.8369C75.8799 39.3809 76.6729 38.4785 77.9443 38.4785ZM89.6338 37.583H88.4717V41.9512C88.4717 43.2158 87.6514 44.0703 86.4277 44.0703C85.2725 44.0703 84.7256 43.4414 84.7256 42.1016V37.583H83.5635V42.3955C83.5635 44.1729 84.4385 45.1367 86.0518 45.1367C87.1797 45.1367 88.0273 44.6172 88.4238 43.6943H88.5195V45H89.6338V37.583ZM94.959 41.6777C94.959 39.791 95.9297 38.6562 97.5703 38.6562C97.9736 38.6562 98.4521 38.7383 98.7939 38.8613V37.5557C98.5479 37.4531 98.1445 37.3916 97.7207 37.3916C96.292 37.3916 95.3691 38.1025 95.0957 39.4766H94.9453V37.583H92.1768V38.5127H93.8242V44.0703H92.3271V45H97.2559V44.0703H94.959V41.6777ZM111.297 35.5938V37.6035H109.321V38.5947H111.297V42.792C111.297 44.3369 112.151 45.0342 113.99 45.0342C114.346 45.0342 115.248 45 115.433 44.9658V43.9814C115.234 44.002 114.489 44.0225 114.072 44.0225C113.026 44.0225 112.459 43.585 112.459 42.7783V38.5947H115.453V37.6035H112.445V35.5938H111.297ZM123.219 43.0859C123.014 43.7354 122.323 44.1318 121.387 44.1318C120.122 44.1318 119.315 43.2568 119.315 41.8965V41.5957H124.367V40.8711C124.367 38.7246 123.232 37.4463 121.305 37.4463C119.418 37.4463 118.167 38.7314 118.167 40.6865V41.8008C118.167 43.9131 119.35 45.1367 121.387 45.1367C122.945 45.1367 124.121 44.3096 124.347 43.0859H123.219ZM121.298 38.4443C122.494 38.4443 123.219 39.2988 123.219 40.7139H119.315C119.315 39.292 120.061 38.4443 121.298 38.4443ZM129.576 41.6777C129.576 39.791 130.547 38.6562 132.188 38.6562C132.591 38.6562 133.069 38.7383 133.411 38.8613V37.5557C133.165 37.4531 132.762 37.3916 132.338 37.3916C130.909 37.3916 129.986 38.1025 129.713 39.4766H129.562V37.583H126.794V38.5127H128.441V44.0703H126.944V45H131.873V44.0703H129.576V41.6777ZM142.1 39.5381C142.1 38.1641 141.56 37.4463 140.527 37.4463C139.782 37.4463 139.188 37.8975 138.996 38.6084H138.873C138.716 37.877 138.224 37.4463 137.526 37.4463C136.829 37.4463 136.296 37.8838 136.111 38.6289H135.988V37.583H134.949V45H135.995V39.9961C135.995 39.0732 136.405 38.5059 137.062 38.5059C137.69 38.5059 138.019 38.9775 138.019 39.873V45H139.058V39.9961C139.058 39.0732 139.454 38.5059 140.104 38.5059C140.726 38.5059 141.054 38.9775 141.054 39.8799V45H142.1V39.5381ZM147.309 35.7646C147.855 35.7646 148.272 35.3545 148.272 34.8076C148.272 34.2676 147.855 33.8574 147.309 33.8574C146.762 33.8574 146.345 34.2676 146.345 34.8076C146.345 35.3545 146.762 35.7646 147.309 35.7646ZM150.419 45V44.0361H147.965V37.583H144.294V38.5469H146.816V44.0361H144.273V45H150.419ZM152.798 45H153.96V40.6318C153.96 39.3672 154.78 38.5127 156.004 38.5127C157.159 38.5127 157.706 39.1416 157.706 40.4814V45H158.868V40.1875C158.868 38.4102 157.993 37.4463 156.38 37.4463C155.252 37.4463 154.404 37.9658 154.008 38.8887H153.912V37.583H152.798V45ZM163.735 45.1299C164.815 45.1299 165.622 44.6855 165.978 43.8926H166.094V45.0068H167.201V39.9277C167.201 38.3828 166.203 37.4941 164.46 37.4941C162.942 37.4941 161.794 38.3076 161.657 39.4971H162.799C162.99 38.8613 163.592 38.499 164.446 38.499C165.479 38.499 166.046 39.0117 166.046 39.9414V40.6113L164.009 40.7139C162.32 40.8027 161.377 41.582 161.377 42.8945C161.377 44.2412 162.32 45.1299 163.735 45.1299ZM164.07 44.1113C163.134 44.1113 162.553 43.6328 162.553 42.8535C162.553 42.0811 163.1 41.6367 164.139 41.5889L166.046 41.5V42.375C166.046 43.3662 165.191 44.1113 164.07 44.1113ZM176.382 45V44.0361H173.935V34.6709H170.257V35.6348H172.772V44.0361H170.236V45H176.382Z" fill="#F3F4FA"/>
</g>
<defs>
<filter id="filter0_d_560_11340" x="0" y="0" width="434" height="255.411" filterUnits="userSpaceOnUse" color-interpolation-filters="sRGB">
<feFlood flood-opacity="0" result="BackgroundImageFix"/>
<feColorMatrix in="SourceAlpha" type="matrix" values="0 0 0 0 0 0 0 0 0 0 0 0 0 0 0 0 0 0 127 0" result="hardAlpha"/>
<feOffset/>
<feGaussianBlur stdDeviation="10"/>
<feComposite in2="hardAlpha" operator="out"/>
<feColorMatrix type="matrix" values="0 0 0 0 0 0 0 0 0 0 0 0 0 0 0 0 0 0 0.08 0"/>
<feBlend mode="normal" in2="BackgroundImageFix" result="effect1_dropShadow_560_11340"/>
<feBlend mode="normal" in="SourceGraphic" in2="effect1_dropShadow_560_11340" result="shape"/>
</filter>
<filter id="filter1_d_560_11340" x="2" y="94" width="460" height="246.543" filterUnits="userSpaceOnUse" color-interpolation-filters="sRGB">
<feFlood flood-opacity="0" result="BackgroundImageFix"/>
<feColorMatrix in="SourceAlpha" type="matrix" values="0 0 0 0 0 0 0 0 0 0 0 0 0 0 0 0 0 0 127 0" result="hardAlpha"/>
<feOffset/>
<feGaussianBlur stdDeviation="18"/>
<feComposite in2="hardAlpha" operator="out"/>
<feColorMatrix type="matrix" values="0 0 0 0 0 0 0 0 0 0 0 0 0 0 0 0 0 0 0.08 0"/>
<feBlend mode="normal" in2="BackgroundImageFix" result="effect1_dropShadow_560_11340"/>
<feBlend mode="normal" in="SourceGraphic" in2="effect1_dropShadow_560_11340" result="shape"/>
</filter>
<linearGradient id="paint0_linear_560_11340" x1="64" y1="0" x2="-30.6667" y2="0" gradientUnits="userSpaceOnUse">
<stop stop-color="#434861"/>
<stop offset="1" stop-color="#434861" stop-opacity="0"/>
</linearGradient>
<clipPath id="clip0_560_11340">
<rect x="20" y="20" width="394" height="215.411" rx="8" fill="white"/>
</clipPath>
<clipPath id="clip1_560_11340">
<rect x="39" y="131" width="386" height="172.543" rx="4" fill="white"/>
</clipPath>
</defs>
</svg>
