<svg width="524" height="341" viewBox="0 0 524 341" fill="none" xmlns="http://www.w3.org/2000/svg">
<g filter="url(#filter0_d_659_15418)">
<g clip-path="url(#clip0_659_15418)">
<rect x="20" y="20" width="454.167" height="215.411" rx="8" fill="#434861"/>
<rect width="454" height="40" transform="translate(20 20)" fill="#2E3247"/>
<path d="M36.9365 97.3955H38.0303C38.1396 98.3799 38.9053 99.0498 40.0264 99.1797V95.4336L39.8828 95.3994C38.0234 94.9414 37.1826 94.0869 37.1826 92.665C37.1826 91.1201 38.29 90.0742 40.0264 89.9375V89.1719H40.8398V89.9375C42.4736 90.0879 43.5742 91.1133 43.6562 92.6172H42.5762C42.46 91.7012 41.8105 91.0928 40.8398 90.9561V94.5039L41.0654 94.5654C43.0273 95.0508 43.8271 95.8643 43.8271 97.334C43.8271 98.9609 42.665 100.055 40.8398 100.198V100.964H40.0264V100.205C38.2148 100.068 37.0391 99.0156 36.9365 97.3955ZM38.3037 92.6309C38.3037 93.4785 38.7891 93.9502 40.0264 94.2988V90.9561C38.9531 91.0723 38.3037 91.6943 38.3037 92.6309ZM42.7129 97.3887C42.7129 96.5 42.1592 95.9805 40.8398 95.6387V99.1797C41.9678 99.0498 42.7129 98.3594 42.7129 97.3887ZM277.609 96.165H270.377V95.085H277.609V96.165ZM286.264 96.165H279.031V95.085H286.264V96.165ZM290.064 95.9121L293.298 92.583H294.706L291.828 95.5225L294.911 100H293.53L291.001 96.3154L289.976 97.2998V100H288.813V89.6709H289.976V95.9121H290.064ZM301.959 98.0859H303.087C302.861 99.3096 301.686 100.137 300.127 100.137C298.09 100.137 296.907 98.9131 296.907 96.8008V95.6865C296.907 93.7314 298.158 92.4463 300.045 92.4463C301.973 92.4463 303.107 93.7246 303.107 95.8711V96.5957H298.056V96.8965C298.056 98.2568 298.862 99.1318 300.127 99.1318C301.063 99.1318 301.754 98.7354 301.959 98.0859ZM300.038 93.4443C298.801 93.4443 298.056 94.292 298.056 95.7139H301.959C301.959 94.2988 301.234 93.4443 300.038 93.4443ZM306.532 102.639C306.361 102.639 306.136 102.632 306.033 102.618V101.6C306.122 101.62 306.334 101.627 306.443 101.627C307.141 101.627 307.523 101.312 307.831 100.451L307.961 100.048L305.233 92.583H306.498L308.576 98.79H308.665L310.736 92.583H311.974L309.178 100.273C308.528 102.099 307.906 102.639 306.532 102.639ZM325.919 100.041C325.242 100.041 324.682 99.4736 324.682 98.7764C324.682 98.0859 325.242 97.5186 325.919 97.5186C326.596 97.5186 327.156 98.0859 327.156 98.7764C327.156 99.4736 326.596 100.041 325.919 100.041ZM334.573 100.041C333.896 100.041 333.336 99.4736 333.336 98.7764C333.336 98.0859 333.896 97.5186 334.573 97.5186C335.25 97.5186 335.811 98.0859 335.811 98.7764C335.811 99.4736 335.25 100.041 334.573 100.041ZM343.228 100.041C342.551 100.041 341.99 99.4736 341.99 98.7764C341.99 98.0859 342.551 97.5186 343.228 97.5186C343.904 97.5186 344.465 98.0859 344.465 98.7764C344.465 99.4736 343.904 100.041 343.228 100.041Z" fill="#BFC2D4"/>
<path d="M54.6006 100V92.583H55.7148V93.8887H55.8105C56.207 92.9658 57.0547 92.4463 58.1826 92.4463C59.7959 92.4463 60.6709 93.4102 60.6709 95.1875V100H59.5088V95.4814C59.5088 94.1416 58.9619 93.5127 57.8066 93.5127C56.583 93.5127 55.7627 94.3672 55.7627 95.6318V100H54.6006ZM66.7549 92.46C68.4707 92.46 69.5918 93.6973 69.5918 95.6045V96.9854C69.5918 98.8857 68.4707 100.123 66.7549 100.123C65.6816 100.123 64.8955 99.665 64.5742 98.8516H64.4443V102.502H63.2617V92.583H64.4102V93.7178H64.5332C64.9229 92.8975 65.6953 92.46 66.7549 92.46ZM66.4199 93.5264C65.1963 93.5264 64.417 94.4014 64.417 95.7686V96.835C64.417 98.209 65.1963 99.084 66.4199 99.084C67.6436 99.084 68.4229 98.2021 68.4229 96.835V95.7686C68.4229 94.4014 67.6436 93.5264 66.4199 93.5264ZM74.9717 97.1426H74.8828L73.0098 100H71.7246L74.2676 96.2881L71.7041 92.583H73.0781L74.9238 95.3926H75.0195L76.8584 92.583H78.1641L75.6279 96.2402L78.1846 100H76.8379L74.9717 97.1426ZM95.3428 94.8936H94.1943C94.0508 94.0254 93.3262 93.4785 92.3691 93.4785C91.0771 93.4785 90.3594 94.3604 90.3594 95.9531V96.623C90.3594 98.2158 91.0771 99.0908 92.3691 99.0908C93.3262 99.0908 94.0508 98.5508 94.1943 97.7031H95.3428C95.1582 99.2139 94.0303 100.137 92.3896 100.137C90.373 100.137 89.1973 98.8994 89.1973 96.7734V95.8027C89.1973 93.6768 90.373 92.4395 92.3896 92.4395C94.0303 92.4395 95.1514 93.3691 95.3428 94.8936ZM98.8291 102.639C98.6582 102.639 98.4326 102.632 98.3301 102.618V101.6C98.4189 101.62 98.6309 101.627 98.7402 101.627C99.4375 101.627 99.8203 101.312 100.128 100.451L100.258 100.048L97.5303 92.583H98.7949L100.873 98.79H100.962L103.033 92.583H104.271L101.475 100.273C100.825 102.099 100.203 102.639 98.8291 102.639ZM110.026 92.46C111.742 92.46 112.863 93.6973 112.863 95.6045V96.9854C112.863 98.8857 111.742 100.123 110.026 100.123C108.953 100.123 108.167 99.665 107.846 98.8516H107.716V102.502H106.533V92.583H107.682V93.7178H107.805C108.194 92.8975 108.967 92.46 110.026 92.46ZM109.691 93.5264C108.468 93.5264 107.688 94.4014 107.688 95.7686V96.835C107.688 98.209 108.468 99.084 109.691 99.084C110.915 99.084 111.694 98.2021 111.694 96.835V95.7686C111.694 94.4014 110.915 93.5264 109.691 93.5264ZM117.922 96.6777V99.0703H120.219V100H115.29V99.0703H116.787V93.5127H115.14V92.583H117.908V94.4766H118.059C118.332 93.1025 119.255 92.3916 120.684 92.3916C121.107 92.3916 121.511 92.4531 121.757 92.5557V93.8613C121.415 93.7383 120.937 93.6562 120.533 93.6562C118.893 93.6562 117.922 94.791 117.922 96.6777ZM128.873 98.0859H130.001C129.775 99.3096 128.6 100.137 127.041 100.137C125.004 100.137 123.821 98.9131 123.821 96.8008V95.6865C123.821 93.7314 125.072 92.4463 126.959 92.4463C128.887 92.4463 130.021 93.7246 130.021 95.8711V96.5957H124.97V96.8965C124.97 98.2568 125.776 99.1318 127.041 99.1318C127.978 99.1318 128.668 98.7354 128.873 98.0859ZM126.952 93.4443C125.715 93.4443 124.97 94.292 124.97 95.7139H128.873C128.873 94.2988 128.148 93.4443 126.952 93.4443ZM132.824 94.5859C132.824 93.3008 133.918 92.4395 135.552 92.4395C137.097 92.4395 138.143 93.2119 138.279 94.4492H137.158C137.021 93.7998 136.399 93.4033 135.531 93.4033C134.588 93.4033 133.979 93.8408 133.979 94.5176C133.979 95.085 134.362 95.4062 135.292 95.6113L136.338 95.8506C137.78 96.1787 138.437 96.8076 138.437 97.8809C138.437 99.248 137.295 100.137 135.538 100.137C133.856 100.137 132.742 99.3506 132.612 98.0791H133.795C133.966 98.7627 134.622 99.1592 135.579 99.1592C136.591 99.1592 137.233 98.7012 137.233 97.9902C137.233 97.4023 136.871 97.0879 135.928 96.876L134.827 96.623C133.487 96.3154 132.824 95.6387 132.824 94.5859ZM141.479 94.5859C141.479 93.3008 142.572 92.4395 144.206 92.4395C145.751 92.4395 146.797 93.2119 146.934 94.4492H145.812C145.676 93.7998 145.054 93.4033 144.186 93.4033C143.242 93.4033 142.634 93.8408 142.634 94.5176C142.634 95.085 143.017 95.4062 143.946 95.6113L144.992 95.8506C146.435 96.1787 147.091 96.8076 147.091 97.8809C147.091 99.248 145.949 100.137 144.192 100.137C142.511 100.137 141.396 99.3506 141.267 98.0791H142.449C142.62 98.7627 143.276 99.1592 144.233 99.1592C145.245 99.1592 145.888 98.7012 145.888 97.9902C145.888 97.4023 145.525 97.0879 144.582 96.876L143.481 96.623C142.142 96.3154 141.479 95.6387 141.479 94.5859ZM161.193 96.6777V99.0703H163.49V100H158.562V99.0703H160.059V93.5127H158.411V92.583H161.18V94.4766H161.33C161.604 93.1025 162.526 92.3916 163.955 92.3916C164.379 92.3916 164.782 92.4531 165.028 92.5557V93.8613C164.687 93.7383 164.208 93.6562 163.805 93.6562C162.164 93.6562 161.193 94.791 161.193 96.6777ZM173.177 92.583V100H172.062V98.6943H171.967C171.57 99.6172 170.723 100.137 169.595 100.137C167.981 100.137 167.106 99.1729 167.106 97.3955V92.583H168.269V97.1016C168.269 98.4414 168.815 99.0703 169.971 99.0703C171.194 99.0703 172.015 98.2158 172.015 96.9512V92.583H173.177ZM175.761 100V92.583H176.875V93.8887H176.971C177.367 92.9658 178.215 92.4463 179.343 92.4463C180.956 92.4463 181.831 93.4102 181.831 95.1875V100H180.669V95.4814C180.669 94.1416 180.122 93.5127 178.967 93.5127C177.743 93.5127 176.923 94.3672 176.923 95.6318V100H175.761ZM199.721 96.165H192.488V95.085H199.721V96.165ZM208.375 96.165H201.143V95.085H208.375V96.165ZM213.119 96.6777V99.0703H215.416V100H210.487V99.0703H211.984V93.5127H210.337V92.583H213.105V94.4766H213.256C213.529 93.1025 214.452 92.3916 215.881 92.3916C216.305 92.3916 216.708 92.4531 216.954 92.5557V93.8613C216.612 93.7383 216.134 93.6562 215.73 93.6562C214.09 93.6562 213.119 94.791 213.119 96.6777ZM224.07 98.0859H225.198C224.973 99.3096 223.797 100.137 222.238 100.137C220.201 100.137 219.019 98.9131 219.019 96.8008V95.6865C219.019 93.7314 220.27 92.4463 222.156 92.4463C224.084 92.4463 225.219 93.7246 225.219 95.8711V96.5957H220.167V96.8965C220.167 98.2568 220.974 99.1318 222.238 99.1318C223.175 99.1318 223.865 98.7354 224.07 98.0859ZM222.149 93.4443C220.912 93.4443 220.167 94.292 220.167 95.7139H224.07C224.07 94.2988 223.346 93.4443 222.149 93.4443ZM233.812 94.8936H232.663C232.52 94.0254 231.795 93.4785 230.838 93.4785C229.546 93.4785 228.828 94.3604 228.828 95.9531V96.623C228.828 98.2158 229.546 99.0908 230.838 99.0908C231.795 99.0908 232.52 98.5508 232.663 97.7031H233.812C233.627 99.2139 232.499 100.137 230.858 100.137C228.842 100.137 227.666 98.8994 227.666 96.7734V95.8027C227.666 93.6768 228.842 92.4395 230.858 92.4395C232.499 92.4395 233.62 93.3691 233.812 94.8936ZM239.376 100.137C237.414 100.137 236.163 98.8584 236.163 96.8555V95.7344C236.163 93.7314 237.414 92.4531 239.376 92.4531C241.338 92.4531 242.589 93.7314 242.589 95.7344V96.8555C242.589 98.8584 241.338 100.137 239.376 100.137ZM239.376 93.4785C238.104 93.4785 237.312 94.3809 237.312 95.8369V96.7461C237.312 98.209 238.104 99.1045 239.376 99.1045C240.647 99.1045 241.44 98.209 241.44 96.7461V95.8369C241.44 94.3809 240.647 93.4785 239.376 93.4785ZM247.736 96.6777V99.0703H250.033V100H245.104V99.0703H246.602V93.5127H244.954V92.583H247.723V94.4766H247.873C248.146 93.1025 249.069 92.3916 250.498 92.3916C250.922 92.3916 251.325 92.4531 251.571 92.5557V93.8613C251.229 93.7383 250.751 93.6562 250.348 93.6562C248.707 93.6562 247.736 94.791 247.736 96.6777ZM256.22 100.123C254.504 100.123 253.383 98.8857 253.383 96.9785V95.5977C253.383 93.6973 254.504 92.46 256.22 92.46C257.293 92.46 258.086 92.918 258.407 93.7314H258.53V89.6709H259.713V100H258.571V98.8652H258.441C258.059 99.6855 257.279 100.123 256.22 100.123ZM256.562 99.0635C257.778 99.0635 258.564 98.1885 258.564 96.8145V95.748C258.564 94.3809 257.778 93.5059 256.562 93.5059C255.338 93.5059 254.552 94.3809 254.552 95.748V96.8145C254.552 98.1816 255.338 99.0635 256.562 99.0635Z" fill="#F3F4FA"/>
</g>
</g>
<rect width="147.547" height="45.0113" transform="translate(326.621 71.4415)" fill="url(#paint0_linear_659_15418)"/>
<g filter="url(#filter1_d_659_15418)">
<g clip-path="url(#clip1_659_15418)">
<rect x="41.9014" y="131" width="444.946" height="172.543" rx="4" fill="white"/>
<mask id="path-5-inside-1_659_15418" fill="white">
<path d="M41.9014 135C41.9014 132.791 43.6922 131 45.9014 131H482.847C485.056 131 486.847 132.791 486.847 135V171H41.9014V135Z"/>
</mask>
<path d="M41.9014 135C41.9014 132.791 43.6922 131 45.9014 131H482.847C485.056 131 486.847 132.791 486.847 135V171H41.9014V135Z" fill="white"/>
<path d="M55.9014 157V145C55.9014 144.448 56.3491 144 56.9014 144H66.9014C67.4537 144 67.9014 144.448 67.9014 145V157C67.9014 157.552 67.4537 158 66.9014 158H56.9014C56.3491 158 55.9014 157.552 55.9014 157Z" fill="#E1E3ED"/>
<path d="M58.9014 151H61.9014M58.9014 148H64.9014M58.9014 154H63.9014M66.9014 144L56.9014 144C56.3491 144 55.9014 144.448 55.9014 145V157C55.9014 157.552 56.3491 158 56.9014 158H66.9014C67.4537 158 67.9014 157.552 67.9014 157V145C67.9014 144.448 67.4537 144 66.9014 144Z" stroke="#9095AD" stroke-width="2" stroke-linecap="round" stroke-linejoin="round"/>
<path d="M84.8262 156H79.6309V154.927H81.627V147.209H79.6309V146.136H84.8262V147.209H82.8301V154.927H84.8262V156ZM87.8477 156V148.583H88.9619V149.889H89.0576C89.4541 148.966 90.3018 148.446 91.4297 148.446C93.043 148.446 93.918 149.41 93.918 151.188V156H92.7559V151.481C92.7559 150.142 92.209 149.513 91.0537 149.513C89.8301 149.513 89.0098 150.367 89.0098 151.632V156H87.8477ZM106.113 158.639C105.942 158.639 105.717 158.632 105.614 158.618V157.6C105.703 157.62 105.915 157.627 106.024 157.627C106.722 157.627 107.104 157.312 107.412 156.451L107.542 156.048L104.814 148.583H106.079L108.157 154.79H108.246L110.317 148.583H111.555L108.759 156.273C108.109 158.099 107.487 158.639 106.113 158.639ZM116.846 156.137C114.884 156.137 113.633 154.858 113.633 152.855V151.734C113.633 149.731 114.884 148.453 116.846 148.453C118.808 148.453 120.059 149.731 120.059 151.734V152.855C120.059 154.858 118.808 156.137 116.846 156.137ZM116.846 149.479C115.574 149.479 114.781 150.381 114.781 151.837V152.746C114.781 154.209 115.574 155.104 116.846 155.104C118.117 155.104 118.91 154.209 118.91 152.746V151.837C118.91 150.381 118.117 149.479 116.846 149.479ZM128.535 148.583V156H127.421V154.694H127.325C126.929 155.617 126.081 156.137 124.953 156.137C123.34 156.137 122.465 155.173 122.465 153.396V148.583H123.627V153.102C123.627 154.441 124.174 155.07 125.329 155.07C126.553 155.07 127.373 154.216 127.373 152.951V148.583H128.535ZM133.86 152.678V155.07H136.157V156H131.229V155.07H132.726V149.513H131.078V148.583H133.847V150.477H133.997C134.271 149.103 135.193 148.392 136.622 148.392C137.046 148.392 137.449 148.453 137.695 148.556V149.861C137.354 149.738 136.875 149.656 136.472 149.656C134.831 149.656 133.86 150.791 133.86 152.678ZM151.688 155.063C153.001 155.063 153.835 154.277 153.869 153.006H155.086C155.086 154.913 153.705 156.205 151.688 156.205C149.371 156.205 148.024 154.64 148.024 151.946V150.189C148.024 147.496 149.371 145.931 151.688 145.931C153.767 145.931 155.052 147.195 155.093 149.301H153.869C153.828 147.968 152.946 147.072 151.682 147.072C150.089 147.072 149.255 148.146 149.255 150.189V151.946C149.255 153.99 150.089 155.063 151.688 155.063ZM162.715 156H157.52V154.927H159.516V147.209H157.52V146.136H162.715V147.209H160.719V154.927H162.715V156ZM180.516 150.894H179.367C179.224 150.025 178.499 149.479 177.542 149.479C176.25 149.479 175.532 150.36 175.532 151.953V152.623C175.532 154.216 176.25 155.091 177.542 155.091C178.499 155.091 179.224 154.551 179.367 153.703H180.516C180.331 155.214 179.203 156.137 177.562 156.137C175.546 156.137 174.37 154.899 174.37 152.773V151.803C174.37 149.677 175.546 148.439 177.562 148.439C179.203 148.439 180.324 149.369 180.516 150.894ZM186.08 156.137C184.118 156.137 182.867 154.858 182.867 152.855V151.734C182.867 149.731 184.118 148.453 186.08 148.453C188.042 148.453 189.293 149.731 189.293 151.734V152.855C189.293 154.858 188.042 156.137 186.08 156.137ZM186.08 149.479C184.809 149.479 184.016 150.381 184.016 151.837V152.746C184.016 154.209 184.809 155.104 186.08 155.104C187.352 155.104 188.145 154.209 188.145 152.746V151.837C188.145 150.381 187.352 149.479 186.08 149.479ZM191.699 156V148.583H192.813V149.889H192.909C193.306 148.966 194.153 148.446 195.281 148.446C196.895 148.446 197.77 149.41 197.77 151.188V156H196.607V151.481C196.607 150.142 196.061 149.513 194.905 149.513C193.682 149.513 192.861 150.367 192.861 151.632V156H191.699ZM202.295 156V149.595H200.306V148.604H202.295V147.858C202.295 146.423 203.184 145.753 205.009 145.753C205.439 145.753 206.472 145.787 206.718 145.821V146.771C206.396 146.737 205.439 146.71 205.022 146.71C203.99 146.71 203.443 147.093 203.443 147.838V148.604H206.718V149.595H203.457V156H202.295ZM212.173 146.765C211.626 146.765 211.209 146.354 211.209 145.808C211.209 145.268 211.626 144.857 212.173 144.857C212.72 144.857 213.137 145.268 213.137 145.808C213.137 146.354 212.72 146.765 212.173 146.765ZM215.283 156H209.138V155.036H211.681V149.547H209.158V148.583H212.829V155.036H215.283V156ZM220.479 158.782C218.763 158.782 217.614 158.03 217.464 156.8H218.612C218.763 157.415 219.508 157.818 220.499 157.818C221.798 157.818 222.516 157.162 222.516 155.973V154.817H222.393C222.064 155.597 221.244 156.068 220.164 156.068C218.448 156.068 217.32 154.831 217.32 152.931V151.598C217.32 149.69 218.455 148.46 220.191 148.46C221.265 148.46 222.078 148.932 222.399 149.731H222.529V148.583H223.678V156C223.678 157.743 222.488 158.782 220.479 158.782ZM218.489 152.767C218.489 154.127 219.282 155.016 220.513 155.016C221.736 155.016 222.522 154.134 222.522 152.767V151.748C222.522 150.381 221.736 149.506 220.513 149.506C219.282 149.506 218.489 150.388 218.489 151.748V152.767Z" fill="#747994"/>
<path d="M41.9014 131H486.847H41.9014ZM486.847 172H41.9014V170H486.847V172ZM41.9014 171V131V171ZM486.847 131V171V131Z" fill="#E1E3ED" mask="url(#path-5-inside-1_659_15418)"/>
<mask id="path-10-inside-2_659_15418" fill="white">
<path d="M41.9014 171H81.9014V304H41.9014V171Z"/>
</mask>
<path d="M41.9014 171H81.9014V304H41.9014V171Z" fill="white"/>
<path d="M57.3789 196H50.9932V195.016H53.6973V188.11H53.5957L50.9741 189.805V188.611L53.7036 186.84H54.8018V195.016H57.3789V196ZM50.9995 213.417C50.9995 211.805 52.1929 210.65 53.8623 210.65C55.5444 210.65 56.6997 211.691 56.6997 213.221C56.6997 214.173 56.2681 214.935 54.8081 216.528L52.6499 218.876V218.984H56.8457V220H51.0503V219.226L54.1479 215.779C55.3096 214.478 55.5889 213.989 55.5889 213.265C55.5889 212.281 54.897 211.634 53.8306 211.634C52.7769 211.634 52.0786 212.338 52.0786 213.417V213.456H50.9995V213.417ZM52.8022 239.753V238.814H53.7988C54.8271 238.814 55.5444 238.141 55.5444 237.183C55.5444 236.25 54.8589 235.634 53.8242 235.634C52.7959 235.634 52.1104 236.237 52.0215 237.221H50.9487C51.0566 235.634 52.1738 234.65 53.8687 234.65C55.5063 234.65 56.6743 235.634 56.6743 237.024C56.6743 238.128 56.0967 238.916 55.1128 239.157V239.258C56.3315 239.417 57.0552 240.274 57.0552 241.524C57.0552 243.08 55.7476 244.19 53.9194 244.19C52.1104 244.19 50.8535 243.149 50.771 241.569H51.8311C51.9326 242.546 52.7451 243.181 53.8877 243.181C55.1445 243.181 55.9253 242.534 55.9253 241.499C55.9253 240.433 55.1191 239.753 53.8496 239.753H52.8022ZM54.9922 268V266.064H50.8154V265.156L53.9258 258.84H55.0684L52.0024 265.01V265.093H55.0049V262.478H56.0205V265.08H57.417V266.064H56.0142V268H54.9922ZM53.8433 292.184C52.1357 292.184 50.9297 291.13 50.8345 289.556H51.9136C52.0151 290.515 52.834 291.175 53.9067 291.175C55.0874 291.175 55.8745 290.343 55.8745 289.099C55.8745 287.842 55.0811 286.992 53.9067 286.992C53.0879 286.992 52.4087 287.366 52.0469 288.014H50.9868L51.4502 282.84H56.4585V283.85H52.3325L52.0786 286.839H52.1802C52.6309 286.293 53.2847 286.008 54.0908 286.008C55.7856 286.008 56.9663 287.271 56.9663 289.074C56.9663 290.927 55.7031 292.184 53.8433 292.184Z" fill="#9095AD"/>
<path d="M80.9014 171V304H82.9014V171H80.9014Z" fill="#E1E3ED" mask="url(#path-10-inside-2_659_15418)"/>
</g>
<rect x="41.4014" y="130.5" width="445.946" height="173.543" rx="4.5" stroke="#E1E3ED"/>
<rect x="103" y="182" width="103" height="16" rx="8" fill="#F3F4FA"/>
<rect x="103" y="204" width="134" height="16" rx="8" fill="#F3F4FA"/>
<path d="M104.292 243V235.583H105.406V236.889H105.502C105.898 235.966 106.746 235.446 107.874 235.446C109.487 235.446 110.362 236.41 110.362 238.188V243H109.2V238.481C109.2 237.142 108.653 236.513 107.498 236.513C106.274 236.513 105.454 237.367 105.454 238.632V243H104.292ZM116.446 235.46C118.162 235.46 119.283 236.697 119.283 238.604V239.985C119.283 241.886 118.162 243.123 116.446 243.123C115.373 243.123 114.587 242.665 114.266 241.852H114.136V245.502H112.953V235.583H114.102V236.718H114.225C114.614 235.897 115.387 235.46 116.446 235.46ZM116.111 236.526C114.888 236.526 114.108 237.401 114.108 238.769V239.835C114.108 241.209 114.888 242.084 116.111 242.084C117.335 242.084 118.114 241.202 118.114 239.835V238.769C118.114 237.401 117.335 236.526 116.111 236.526ZM124.663 240.143H124.574L122.701 243H121.416L123.959 239.288L121.396 235.583H122.77L124.615 238.393H124.711L126.55 235.583H127.855L125.319 239.24L127.876 243H126.529L124.663 240.143ZM145.034 237.894H143.886C143.742 237.025 143.018 236.479 142.061 236.479C140.769 236.479 140.051 237.36 140.051 238.953V239.623C140.051 241.216 140.769 242.091 142.061 242.091C143.018 242.091 143.742 241.551 143.886 240.703H145.034C144.85 242.214 143.722 243.137 142.081 243.137C140.064 243.137 138.889 241.899 138.889 239.773V238.803C138.889 236.677 140.064 235.439 142.081 235.439C143.722 235.439 144.843 236.369 145.034 237.894ZM148.521 245.639C148.35 245.639 148.124 245.632 148.021 245.618V244.6C148.11 244.62 148.322 244.627 148.432 244.627C149.129 244.627 149.512 244.312 149.819 243.451L149.949 243.048L147.222 235.583H148.486L150.564 241.79H150.653L152.725 235.583H153.962L151.166 243.273C150.517 245.099 149.895 245.639 148.521 245.639ZM159.718 235.46C161.434 235.46 162.555 236.697 162.555 238.604V239.985C162.555 241.886 161.434 243.123 159.718 243.123C158.645 243.123 157.858 242.665 157.537 241.852H157.407V245.502H156.225V235.583H157.373V236.718H157.496C157.886 235.897 158.658 235.46 159.718 235.46ZM159.383 236.526C158.159 236.526 157.38 237.401 157.38 238.769V239.835C157.38 241.209 158.159 242.084 159.383 242.084C160.606 242.084 161.386 241.202 161.386 239.835V238.769C161.386 237.401 160.606 236.526 159.383 236.526ZM167.613 239.678V242.07H169.91V243H164.981V242.07H166.479V236.513H164.831V235.583H167.6V237.477H167.75C168.023 236.103 168.946 235.392 170.375 235.392C170.799 235.392 171.202 235.453 171.448 235.556V236.861C171.106 236.738 170.628 236.656 170.225 236.656C168.584 236.656 167.613 237.791 167.613 239.678ZM178.564 241.086H179.692C179.467 242.31 178.291 243.137 176.732 243.137C174.695 243.137 173.513 241.913 173.513 239.801V238.687C173.513 236.731 174.764 235.446 176.65 235.446C178.578 235.446 179.713 236.725 179.713 238.871V239.596H174.661V239.896C174.661 241.257 175.468 242.132 176.732 242.132C177.669 242.132 178.359 241.735 178.564 241.086ZM176.644 236.444C175.406 236.444 174.661 237.292 174.661 238.714H178.564C178.564 237.299 177.84 236.444 176.644 236.444ZM182.516 237.586C182.516 236.301 183.609 235.439 185.243 235.439C186.788 235.439 187.834 236.212 187.971 237.449H186.85C186.713 236.8 186.091 236.403 185.223 236.403C184.279 236.403 183.671 236.841 183.671 237.518C183.671 238.085 184.054 238.406 184.983 238.611L186.029 238.851C187.472 239.179 188.128 239.808 188.128 240.881C188.128 242.248 186.986 243.137 185.229 243.137C183.548 243.137 182.434 242.351 182.304 241.079H183.486C183.657 241.763 184.313 242.159 185.271 242.159C186.282 242.159 186.925 241.701 186.925 240.99C186.925 240.402 186.562 240.088 185.619 239.876L184.519 239.623C183.179 239.315 182.516 238.639 182.516 237.586ZM191.17 237.586C191.17 236.301 192.264 235.439 193.897 235.439C195.442 235.439 196.488 236.212 196.625 237.449H195.504C195.367 236.8 194.745 236.403 193.877 236.403C192.934 236.403 192.325 236.841 192.325 237.518C192.325 238.085 192.708 238.406 193.638 238.611L194.684 238.851C196.126 239.179 196.782 239.808 196.782 240.881C196.782 242.248 195.641 243.137 193.884 243.137C192.202 243.137 191.088 242.351 190.958 241.079H192.141C192.312 241.763 192.968 242.159 193.925 242.159C194.937 242.159 195.579 241.701 195.579 240.99C195.579 240.402 195.217 240.088 194.273 239.876L193.173 239.623C191.833 239.315 191.17 238.639 191.17 237.586ZM210.885 239.678V242.07H213.182V243H208.253V242.07H209.75V236.513H208.103V235.583H210.871V237.477H211.021C211.295 236.103 212.218 235.392 213.646 235.392C214.07 235.392 214.474 235.453 214.72 235.556V236.861C214.378 236.738 213.899 236.656 213.496 236.656C211.855 236.656 210.885 237.791 210.885 239.678ZM222.868 235.583V243H221.754V241.694H221.658C221.262 242.617 220.414 243.137 219.286 243.137C217.673 243.137 216.798 242.173 216.798 240.396V235.583H217.96V240.102C217.96 241.441 218.507 242.07 219.662 242.07C220.886 242.07 221.706 241.216 221.706 239.951V235.583H222.868ZM225.452 243V235.583H226.566V236.889H226.662C227.059 235.966 227.906 235.446 229.034 235.446C230.647 235.446 231.522 236.41 231.522 238.188V243H230.36V238.481C230.36 237.142 229.813 236.513 228.658 236.513C227.435 236.513 226.614 237.367 226.614 238.632V243H225.452ZM249.412 239.165H242.18V238.085H249.412V239.165ZM258.066 239.165H250.834V238.085H258.066V239.165ZM262.811 239.678V242.07H265.107V243H260.179V242.07H261.676V236.513H260.028V235.583H262.797V237.477H262.947C263.221 236.103 264.144 235.392 265.572 235.392C265.996 235.392 266.399 235.453 266.646 235.556V236.861C266.304 236.738 265.825 236.656 265.422 236.656C263.781 236.656 262.811 237.791 262.811 239.678ZM273.762 241.086H274.89C274.664 242.31 273.488 243.137 271.93 243.137C269.893 243.137 268.71 241.913 268.71 239.801V238.687C268.71 236.731 269.961 235.446 271.848 235.446C273.775 235.446 274.91 236.725 274.91 238.871V239.596H269.858V239.896C269.858 241.257 270.665 242.132 271.93 242.132C272.866 242.132 273.557 241.735 273.762 241.086ZM271.841 236.444C270.604 236.444 269.858 237.292 269.858 238.714H273.762C273.762 237.299 273.037 236.444 271.841 236.444ZM283.503 237.894H282.354C282.211 237.025 281.486 236.479 280.529 236.479C279.237 236.479 278.52 237.36 278.52 238.953V239.623C278.52 241.216 279.237 242.091 280.529 242.091C281.486 242.091 282.211 241.551 282.354 240.703H283.503C283.318 242.214 282.19 243.137 280.55 243.137C278.533 243.137 277.357 241.899 277.357 239.773V238.803C277.357 236.677 278.533 235.439 280.55 235.439C282.19 235.439 283.312 236.369 283.503 237.894ZM289.067 243.137C287.105 243.137 285.854 241.858 285.854 239.855V238.734C285.854 236.731 287.105 235.453 289.067 235.453C291.029 235.453 292.28 236.731 292.28 238.734V239.855C292.28 241.858 291.029 243.137 289.067 243.137ZM289.067 236.479C287.796 236.479 287.003 237.381 287.003 238.837V239.746C287.003 241.209 287.796 242.104 289.067 242.104C290.339 242.104 291.132 241.209 291.132 239.746V238.837C291.132 237.381 290.339 236.479 289.067 236.479ZM297.428 239.678V242.07H299.725V243H294.796V242.07H296.293V236.513H294.646V235.583H297.414V237.477H297.564C297.838 236.103 298.761 235.392 300.189 235.392C300.613 235.392 301.017 235.453 301.263 235.556V236.861C300.921 236.738 300.442 236.656 300.039 236.656C298.398 236.656 297.428 237.791 297.428 239.678ZM305.911 243.123C304.195 243.123 303.074 241.886 303.074 239.979V238.598C303.074 236.697 304.195 235.46 305.911 235.46C306.984 235.46 307.777 235.918 308.099 236.731H308.222V232.671H309.404V243H308.263V241.865H308.133C307.75 242.686 306.971 243.123 305.911 243.123ZM306.253 242.063C307.47 242.063 308.256 241.188 308.256 239.814V238.748C308.256 237.381 307.47 236.506 306.253 236.506C305.029 236.506 304.243 237.381 304.243 238.748V239.814C304.243 241.182 305.029 242.063 306.253 242.063Z" fill="#1FA971"/>
<rect x="103" y="256" width="94" height="16" rx="8" fill="#F3F4FA"/>
<rect x="103" y="278" width="127" height="16" rx="8" fill="#F3F4FA"/>
<path d="M68.8604 240.165V243.255H67.7939V240.165H64.6836V239.085H67.7939V235.988H68.8604V239.085H71.9707V240.165H68.8604Z" fill="#1FA971"/>
</g>
<g opacity="0.4">
<path d="M45.9248 45H40.7295V43.9268H42.7256V36.209H40.7295V35.1357H45.9248V36.209H43.9287V43.9268H45.9248V45ZM48.9463 45V37.583H50.0605V38.8887H50.1562C50.5527 37.9658 51.4004 37.4463 52.5283 37.4463C54.1416 37.4463 55.0166 38.4102 55.0166 40.1875V45H53.8545V40.4814C53.8545 39.1416 53.3076 38.5127 52.1523 38.5127C50.9287 38.5127 50.1084 39.3672 50.1084 40.6318V45H48.9463ZM67.2119 47.6387C67.041 47.6387 66.8154 47.6318 66.7129 47.6182V46.5996C66.8018 46.6201 67.0137 46.627 67.123 46.627C67.8203 46.627 68.2031 46.3125 68.5107 45.4512L68.6406 45.0479L65.9131 37.583H67.1777L69.2559 43.79H69.3447L71.416 37.583H72.6533L69.8574 45.2734C69.208 47.0986 68.5859 47.6387 67.2119 47.6387ZM77.9443 45.1367C75.9824 45.1367 74.7314 43.8584 74.7314 41.8555V40.7344C74.7314 38.7314 75.9824 37.4531 77.9443 37.4531C79.9062 37.4531 81.1572 38.7314 81.1572 40.7344V41.8555C81.1572 43.8584 79.9062 45.1367 77.9443 45.1367ZM77.9443 38.4785C76.6729 38.4785 75.8799 39.3809 75.8799 40.8369V41.7461C75.8799 43.209 76.6729 44.1045 77.9443 44.1045C79.2158 44.1045 80.0088 43.209 80.0088 41.7461V40.8369C80.0088 39.3809 79.2158 38.4785 77.9443 38.4785ZM89.6338 37.583V45H88.5195V43.6943H88.4238C88.0273 44.6172 87.1797 45.1367 86.0518 45.1367C84.4385 45.1367 83.5635 44.1729 83.5635 42.3955V37.583H84.7256V42.1016C84.7256 43.4414 85.2725 44.0703 86.4277 44.0703C87.6514 44.0703 88.4717 43.2158 88.4717 41.9512V37.583H89.6338ZM94.959 41.6777V44.0703H97.2559V45H92.3271V44.0703H93.8242V38.5127H92.1768V37.583H94.9453V39.4766H95.0957C95.3691 38.1025 96.292 37.3916 97.7207 37.3916C98.1445 37.3916 98.5479 37.4531 98.7939 37.5557V38.8613C98.4521 38.7383 97.9736 38.6562 97.5703 38.6562C95.9297 38.6562 94.959 39.791 94.959 41.6777ZM111.297 35.5938H112.445V37.6035H115.453V38.5947H112.459V42.7783C112.459 43.585 113.026 44.0225 114.072 44.0225C114.489 44.0225 115.234 44.002 115.433 43.9814V44.9658C115.248 45 114.346 45.0342 113.99 45.0342C112.151 45.0342 111.297 44.3369 111.297 42.792V38.5947H109.321V37.6035H111.297V35.5938ZM123.219 43.0859H124.347C124.121 44.3096 122.945 45.1367 121.387 45.1367C119.35 45.1367 118.167 43.9131 118.167 41.8008V40.6865C118.167 38.7314 119.418 37.4463 121.305 37.4463C123.232 37.4463 124.367 38.7246 124.367 40.8711V41.5957H119.315V41.8965C119.315 43.2568 120.122 44.1318 121.387 44.1318C122.323 44.1318 123.014 43.7354 123.219 43.0859ZM121.298 38.4443C120.061 38.4443 119.315 39.292 119.315 40.7139H123.219C123.219 39.2988 122.494 38.4443 121.298 38.4443ZM129.576 41.6777V44.0703H131.873V45H126.944V44.0703H128.441V38.5127H126.794V37.583H129.562V39.4766H129.713C129.986 38.1025 130.909 37.3916 132.338 37.3916C132.762 37.3916 133.165 37.4531 133.411 37.5557V38.8613C133.069 38.7383 132.591 38.6562 132.188 38.6562C130.547 38.6562 129.576 39.791 129.576 41.6777ZM142.1 39.5381V45H141.054V39.8799C141.054 38.9775 140.726 38.5059 140.104 38.5059C139.454 38.5059 139.058 39.0732 139.058 39.9961V45H138.019V39.873C138.019 38.9775 137.69 38.5059 137.062 38.5059C136.405 38.5059 135.995 39.0732 135.995 39.9961V45H134.949V37.583H135.988V38.6289H136.111C136.296 37.8838 136.829 37.4463 137.526 37.4463C138.224 37.4463 138.716 37.877 138.873 38.6084H138.996C139.188 37.8975 139.782 37.4463 140.527 37.4463C141.56 37.4463 142.1 38.1641 142.1 39.5381ZM147.309 35.7646C146.762 35.7646 146.345 35.3545 146.345 34.8076C146.345 34.2676 146.762 33.8574 147.309 33.8574C147.855 33.8574 148.272 34.2676 148.272 34.8076C148.272 35.3545 147.855 35.7646 147.309 35.7646ZM150.419 45H144.273V44.0361H146.816V38.5469H144.294V37.583H147.965V44.0361H150.419V45ZM152.798 45V37.583H153.912V38.8887H154.008C154.404 37.9658 155.252 37.4463 156.38 37.4463C157.993 37.4463 158.868 38.4102 158.868 40.1875V45H157.706V40.4814C157.706 39.1416 157.159 38.5127 156.004 38.5127C154.78 38.5127 153.96 39.3672 153.96 40.6318V45H152.798ZM163.735 45.1299C162.32 45.1299 161.377 44.2412 161.377 42.8945C161.377 41.582 162.32 40.8027 164.009 40.7139L166.046 40.6113V39.9414C166.046 39.0117 165.479 38.499 164.446 38.499C163.592 38.499 162.99 38.8613 162.799 39.4971H161.657C161.794 38.3076 162.942 37.4941 164.46 37.4941C166.203 37.4941 167.201 38.3828 167.201 39.9277V45.0068H166.094V43.8926H165.978C165.622 44.6855 164.815 45.1299 163.735 45.1299ZM164.07 44.1113C165.191 44.1113 166.046 43.3662 166.046 42.375V41.5L164.139 41.5889C163.1 41.6367 162.553 42.0811 162.553 42.8535C162.553 43.6328 163.134 44.1113 164.07 44.1113ZM176.382 45H170.236V44.0361H172.772V35.6348H170.257V34.6709H173.935V44.0361H176.382V45Z" fill="#F3F4FA"/>
</g>
<defs>
<filter id="filter0_d_659_15418" x="0" y="0" width="494.167" height="255.411" filterUnits="userSpaceOnUse" color-interpolation-filters="sRGB">
<feFlood flood-opacity="0" result="BackgroundImageFix"/>
<feColorMatrix in="SourceAlpha" type="matrix" values="0 0 0 0 0 0 0 0 0 0 0 0 0 0 0 0 0 0 127 0" result="hardAlpha"/>
<feOffset/>
<feGaussianBlur stdDeviation="10"/>
<feComposite in2="hardAlpha" operator="out"/>
<feColorMatrix type="matrix" values="0 0 0 0 0 0 0 0 0 0 0 0 0 0 0 0 0 0 0.08 0"/>
<feBlend mode="normal" in2="BackgroundImageFix" result="effect1_dropShadow_659_15418"/>
<feBlend mode="normal" in="SourceGraphic" in2="effect1_dropShadow_659_15418" result="shape"/>
</filter>
<filter id="filter1_d_659_15418" x="4.90137" y="94" width="518.946" height="246.543" filterUnits="userSpaceOnUse" color-interpolation-filters="sRGB">
<feFlood flood-opacity="0" result="BackgroundImageFix"/>
<feColorMatrix in="SourceAlpha" type="matrix" values="0 0 0 0 0 0 0 0 0 0 0 0 0 0 0 0 0 0 127 0" result="hardAlpha"/>
<feOffset/>
<feGaussianBlur stdDeviation="18"/>
<feComposite in2="hardAlpha" operator="out"/>
<feColorMatrix type="matrix" values="0 0 0 0 0 0 0 0 0 0 0 0 0 0 0 0 0 0 0.08 0"/>
<feBlend mode="normal" in2="BackgroundImageFix" result="effect1_dropShadow_659_15418"/>
<feBlend mode="normal" in="SourceGraphic" in2="effect1_dropShadow_659_15418" result="shape"/>
</filter>
<linearGradient id="paint0_linear_659_15418" x1="73.7734" y1="0" x2="-35.3498" y2="0" gradientUnits="userSpaceOnUse">
<stop stop-color="#434861"/>
<stop offset="1" stop-color="#434861" stop-opacity="0"/>
</linearGradient>
<clipPath id="clip0_659_15418">
<rect x="20" y="20" width="454.167" height="215.411" rx="8" fill="white"/>
</clipPath>
<clipPath id="clip1_659_15418">
<rect x="41.9014" y="131" width="444.946" height="172.543" rx="4" fill="white"/>
</clipPath>
</defs>
</svg>
