<svg width="16" height="16" viewBox="0 0 16 16" fill="none" xmlns="http://www.w3.org/2000/svg">
<path fill-rule="evenodd" clip-rule="evenodd" d="M11 2C12.1046 2 13 2.89543 13 4V14L8 12L3 14V4C3 2.89543 3.89543 2 5 2H11ZM8.38794 6.51468L8 5.04863L7.61206 6.51468L6.09789 6.4306L7.3723 7.25258L6.82443 8.66667L8 7.70863L9.17557 8.66667L8.6277 7.25258L9.90211 6.4306L8.38794 6.51468Z" fill="#D0D2E0" class="icon-light"/>
<path d="M13 14L12.6286 14.9285C12.9367 15.0517 13.2859 15.0141 13.5606 14.8281C13.8354 14.642 14 14.3318 14 14H13ZM8 12L8.37139 11.0715C8.13298 10.9762 7.86702 10.9762 7.62861 11.0715L8 12ZM3 14H2C2 14.3318 2.1646 14.642 2.43937 14.8281C2.71414 15.0141 3.0633 15.0517 3.37139 14.9285L3 14ZM8 5.04863L8.96673 4.79282C8.85065 4.35416 8.45376 4.04863 8 4.04863C7.54624 4.04863 7.14935 4.35416 7.03327 4.79282L8 5.04863ZM8.38794 6.51468L7.42121 6.77049C7.54259 7.2292 7.96962 7.53945 8.44338 7.51314L8.38794 6.51468ZM9.90211 6.4306L10.4441 7.27096C10.8255 7.02501 10.9934 6.55314 10.8532 6.12158C10.7129 5.69003 10.2997 5.40698 9.84667 5.43214L9.90211 6.4306ZM8.6277 7.25258L8.08567 6.41222C7.68692 6.66941 7.52382 7.17141 7.69524 7.61386L8.6277 7.25258ZM9.17557 8.66667L8.54383 9.44185C8.89558 9.72851 9.39625 9.7424 9.76336 9.47568C10.1305 9.20897 10.272 8.72851 10.108 8.30539L9.17557 8.66667ZM8 7.70863L8.63174 6.93345C8.26392 6.63369 7.73608 6.63369 7.36826 6.93345L8 7.70863ZM6.82443 8.66667L5.89197 8.30539C5.72804 8.72851 5.86954 9.20897 6.23665 9.47568C6.60375 9.7424 7.10442 9.72851 7.45617 9.44185L6.82443 8.66667ZM7.3723 7.25258L8.30476 7.61386C8.47619 7.17141 8.31308 6.66941 7.91433 6.41222L7.3723 7.25258ZM6.09789 6.4306L6.15333 5.43214C5.70027 5.40698 5.28705 5.69003 5.14683 6.12158C5.00661 6.55314 5.17454 7.02501 5.55586 7.27096L6.09789 6.4306ZM7.61206 6.51468L7.55662 7.51314C8.03038 7.53945 8.45741 7.2292 8.57879 6.77049L7.61206 6.51468ZM12 4V14H14V4H12ZM13.3714 13.0715L8.37139 11.0715L7.62861 12.9285L12.6286 14.9285L13.3714 13.0715ZM7.62861 11.0715L2.62861 13.0715L3.37139 14.9285L8.37139 12.9285L7.62861 11.0715ZM5 3H11V1H5V3ZM4 14V4H2V14H4ZM7.03327 5.30444L7.42121 6.77049L9.35467 6.25887L8.96673 4.79282L7.03327 5.30444ZM8.44338 7.51314L9.95756 7.42906L9.84667 5.43214L8.33249 5.51622L8.44338 7.51314ZM9.36009 5.59024L8.08567 6.41222L9.16972 8.09295L10.4441 7.27096L9.36009 5.59024ZM7.69524 7.61386L8.24311 9.02794L10.108 8.30539L9.56016 6.89131L7.69524 7.61386ZM9.80731 7.89148L8.63174 6.93345L7.36826 8.48381L8.54383 9.44185L9.80731 7.89148ZM7.36826 6.93345L6.19269 7.89148L7.45617 9.44185L8.63174 8.48382L7.36826 6.93345ZM7.75689 9.02794L8.30476 7.61386L6.43984 6.89131L5.89197 8.30539L7.75689 9.02794ZM7.91433 6.41222L6.63991 5.59024L5.55586 7.27096L6.83028 8.09295L7.91433 6.41222ZM6.04244 7.42906L7.55662 7.51314L7.66751 5.51622L6.15333 5.43214L6.04244 7.42906ZM8.57879 6.77049L8.96673 5.30444L7.03327 4.79282L6.64534 6.25887L8.57879 6.77049ZM5 1C3.34315 1 2 2.34315 2 4H4C4 3.44772 4.44772 3 5 3V1ZM14 4C14 2.34315 12.6569 1 11 1V3C11.5523 3 12 3.44772 12 4H14Z" fill="#1B1E2E" class="icon-dark"/>
</svg>
