<svg width="48" height="48" viewBox="0 0 48 48" fill="none" xmlns="http://www.w3.org/2000/svg">
<path d="M38.1984 9.8016C45.9339 17.5371 45.9339 30.4629 38.1984 38.1984C30.4629 45.9339 17.5371 45.9339 9.8016 38.1984C2.06613 30.4629 2.06613 17.5371 9.8016 9.8016C17.5371 2.06614 30.4629 2.06613 38.1984 9.8016Z" fill="#D0D2E0" class="icon-light"/>
<path d="M24 24L38.1984 9.8016M24 24L9.8016 9.8016M24 24L38.1984 38.1984M24 24L9.8016 38.1984M38.1984 9.8016C45.9339 17.5371 45.9339 30.4629 38.1984 38.1984M38.1984 9.8016C30.4629 2.06613 17.5371 2.06613 9.8016 9.8016M9.8016 9.8016C2.06613 17.5371 2.06613 30.4629 9.8016 38.1984M38.1984 38.1984C30.4629 45.9339 17.5371 45.9339 9.8016 38.1984" stroke="#1B1E2E" class="icon-dark" stroke-width="2"/>
</svg>
