<svg width="24" height="24" viewBox="0 0 24 24" fill="none" xmlns="http://www.w3.org/2000/svg">
<path fill-rule="evenodd" clip-rule="evenodd" d="M9.79423 3.5C9.79423 3.22386 10.0181 3 10.2942 3H13.2942C13.5704 3 13.7942 3.22386 13.7942 3.5V4.91701C13.7942 5.13822 13.9403 5.3314 14.1486 5.40579C14.9526 5.69285 15.6886 6.12277 16.3263 6.66497C16.4948 6.80823 16.735 6.83804 16.9265 6.72747L18.1554 6.01795C18.3946 5.87988 18.7004 5.96182 18.8385 6.20096L20.3385 8.79904C20.4765 9.03819 20.3946 9.34398 20.1554 9.48205L18.9276 10.1909C18.7363 10.3014 18.6419 10.5241 18.6814 10.7415C18.7555 11.1498 18.7942 11.5704 18.7942 12C18.7942 12.4296 18.7555 12.8502 18.6814 13.2585C18.6419 13.4759 18.7363 13.6986 18.9276 13.8091L20.1554 14.5179C20.3946 14.656 20.4765 14.9618 20.3385 15.201L18.8385 17.799C18.7004 18.0382 18.3946 18.1201 18.1554 17.982L16.9265 17.2725C16.735 17.162 16.4948 17.1918 16.3263 17.335C15.6886 17.8772 14.9526 18.3071 14.1486 18.5942C13.9403 18.6686 13.7942 18.8618 13.7942 19.083V20.5C13.7942 20.7761 13.5704 21 13.2942 21H10.2942C10.0181 21 9.79423 20.7761 9.79423 20.5V19.083C9.79423 18.8618 9.64819 18.6686 9.43986 18.5942C8.6359 18.3071 7.89982 17.8772 7.26218 17.335C7.0937 17.1918 6.85345 17.162 6.66193 17.2725L5.43301 17.9821C5.19387 18.1201 4.88807 18.0382 4.75 17.799L3.25 15.201C3.11193 14.9618 3.19387 14.656 3.43301 14.5179L4.66083 13.8091C4.8522 13.6986 4.94651 13.4759 4.90704 13.2585C4.83293 12.8502 4.79423 12.4296 4.79423 12C4.79423 11.5704 4.83293 11.1498 4.90704 10.7415C4.94651 10.5241 4.8522 10.3014 4.66083 10.1909L3.43301 9.48205C3.19387 9.34398 3.11193 9.03818 3.25 8.79904L4.75 6.20096C4.88807 5.96182 5.19387 5.87988 5.43301 6.01795L6.66193 6.72747C6.85345 6.83804 7.0937 6.80823 7.26218 6.66497C7.89982 6.12277 8.6359 5.69285 9.43986 5.40579C9.64819 5.3314 9.79423 5.13822 9.79423 4.91701V3.5ZM11.7942 15C13.4511 15 14.7942 13.6569 14.7942 12C14.7942 10.3431 13.4511 9 11.7942 9C10.1374 9 8.79423 10.3431 8.79423 12C8.79423 13.6569 10.1374 15 11.7942 15Z" fill="#D0D2E0" class="icon-dark-stroke icon-light-fill" stroke="#1B1E2E" stroke-width="2"/>
</svg>
