<svg id="svg" version="1.1" xmlns="http://www.w3.org/2000/svg" xmlns:xlink="http://www.w3.org/1999/xlink" width="18px" height="18px" viewBox="0, 0, 400,400"><g id="svgg"><path id="path0" d="M182.600 19.600 C 182.464 19.820,180.934 20.000,179.200 20.000 C 177.466 20.000,175.936 20.180,175.800 20.400 C 175.664 20.620,174.483 20.800,173.176 20.800 C 171.859 20.800,170.800 20.978,170.800 21.200 C 170.800 21.422,169.733 21.600,168.400 21.600 C 167.067 21.600,166.000 21.778,166.000 22.000 C 166.000 22.220,165.201 22.400,164.224 22.400 C 163.247 22.400,162.348 22.561,162.226 22.758 C 162.105 22.955,161.329 23.218,160.503 23.342 C 156.993 23.872,155.980 24.108,155.773 24.444 C 155.652 24.640,154.753 24.800,153.776 24.800 C 152.789 24.800,152.000 24.989,152.000 25.225 C 152.000 25.459,151.685 25.611,151.300 25.564 C 150.915 25.516,150.269 25.620,149.865 25.795 C 149.460 25.970,148.830 26.145,148.465 26.185 C 148.099 26.224,147.530 26.377,147.200 26.524 C 145.690 27.197,141.802 28.400,141.137 28.400 C 140.732 28.400,140.400 28.580,140.400 28.800 C 140.400 29.020,139.860 29.200,139.200 29.200 C 138.540 29.200,138.000 29.380,138.000 29.600 C 138.000 29.820,137.460 30.000,136.800 30.000 C 136.140 30.000,135.600 30.180,135.600 30.400 C 135.600 30.620,135.321 30.800,134.981 30.800 C 134.640 30.800,133.616 31.160,132.706 31.600 C 131.795 32.040,130.814 32.400,130.525 32.400 C 130.236 32.400,130.000 32.580,130.000 32.800 C 130.000 33.020,129.734 33.200,129.410 33.200 C 129.085 33.200,128.230 33.559,127.510 33.999 C 126.789 34.438,125.885 34.798,125.500 34.799 C 125.115 34.799,124.800 34.980,124.800 35.200 C 124.800 35.420,124.440 35.600,124.000 35.600 C 123.560 35.600,123.200 35.780,123.200 36.000 C 123.200 36.220,122.660 36.400,122.000 36.400 C 121.340 36.400,120.800 36.580,120.800 36.800 C 120.800 37.020,120.440 37.200,120.000 37.200 C 119.560 37.200,119.200 37.380,119.200 37.600 C 119.200 37.820,118.880 38.000,118.488 38.000 C 118.097 38.000,117.517 38.360,117.200 38.800 C 116.883 39.240,116.303 39.600,115.912 39.600 C 115.520 39.600,115.200 39.780,115.200 40.000 C 115.200 40.220,114.840 40.400,114.400 40.400 C 113.960 40.400,113.597 40.535,113.594 40.700 C 113.590 40.865,112.645 41.447,111.494 41.994 C 110.342 42.541,108.974 43.304,108.453 43.689 C 107.932 44.074,107.347 44.291,107.153 44.171 C 106.959 44.051,106.800 44.143,106.800 44.376 C 106.800 44.609,106.575 44.800,106.300 44.800 C 106.025 44.801,105.282 45.247,104.648 45.792 C 104.014 46.337,103.372 46.706,103.221 46.613 C 103.069 46.519,102.693 46.793,102.385 47.221 C 102.076 47.650,101.473 48.000,101.045 48.000 C 100.617 48.000,100.384 48.117,100.527 48.260 C 100.861 48.595,99.588 49.571,98.796 49.587 C 98.464 49.594,97.968 49.960,97.693 50.400 C 97.418 50.840,96.824 51.200,96.373 51.200 C 95.922 51.200,95.664 51.380,95.800 51.600 C 95.936 51.820,95.849 52.000,95.607 52.000 C 95.365 52.000,94.780 52.360,94.308 52.800 C 93.836 53.240,93.202 53.600,92.901 53.600 C 92.599 53.600,92.464 53.780,92.600 54.000 C 92.736 54.220,92.555 54.400,92.198 54.400 C 91.840 54.400,90.671 55.300,89.600 56.400 C 88.529 57.500,87.436 58.400,87.173 58.400 C 86.909 58.400,86.358 58.788,85.947 59.261 C 85.536 59.735,85.200 59.997,85.200 59.843 C 85.200 59.689,84.754 60.010,84.209 60.554 C 83.664 61.099,82.542 62.053,81.716 62.673 C 79.897 64.038,76.798 67.065,77.006 67.273 C 77.089 67.355,76.627 67.778,75.979 68.211 C 75.332 68.645,74.802 69.236,74.801 69.524 C 74.801 69.812,74.632 69.943,74.426 69.816 C 74.048 69.583,69.981 73.385,70.063 73.895 C 70.088 74.047,69.790 74.357,69.401 74.585 C 68.577 75.068,66.800 76.744,66.800 77.037 C 66.800 77.148,65.909 78.130,64.819 79.219 C 63.730 80.309,62.965 81.206,63.119 81.213 C 63.274 81.220,63.051 81.490,62.624 81.813 C 62.196 82.136,62.007 82.400,62.202 82.400 C 62.397 82.400,61.869 83.030,61.028 83.800 C 60.187 84.570,59.602 85.200,59.727 85.200 C 59.852 85.200,59.425 85.780,58.777 86.489 C 58.130 87.198,57.600 87.936,57.600 88.129 C 57.600 88.321,57.060 88.983,56.400 89.600 C 55.740 90.217,55.200 90.965,55.200 91.264 C 55.200 91.563,54.840 92.032,54.400 92.307 C 53.960 92.582,53.600 92.984,53.600 93.200 C 53.600 93.417,53.195 94.060,52.700 94.629 C 52.205 95.198,51.854 95.749,51.920 95.853 C 51.986 95.957,51.491 96.555,50.820 97.182 C 50.149 97.808,49.600 98.527,49.600 98.779 C 49.600 99.030,49.150 99.686,48.600 100.236 C 47.408 101.428,47.386 101.617,48.317 102.625 C 48.712 103.051,49.594 104.390,50.279 105.600 C 50.963 106.810,51.878 108.430,52.311 109.200 C 53.189 110.759,111.270 212.644,112.452 214.700 C 114.066 217.505,114.953 219.073,115.906 220.800 C 116.452 221.790,117.282 223.230,117.749 224.000 C 118.217 224.770,119.050 226.217,119.600 227.215 C 122.150 231.845,122.385 231.560,120.547 226.066 C 119.786 223.792,119.000 221.182,118.801 220.266 C 117.935 216.278,117.250 212.816,116.840 210.354 C 116.312 207.177,116.253 191.626,116.759 188.920 C 116.957 187.864,117.336 185.740,117.603 184.200 C 119.184 175.080,124.674 160.934,129.322 154.000 C 134.084 146.898,138.793 141.524,145.200 135.880 C 148.026 133.390,155.664 128.000,156.365 128.000 C 156.604 128.000,156.801 127.865,156.803 127.700 C 156.805 127.535,157.210 127.194,157.703 126.943 C 165.802 122.816,168.283 121.613,168.705 121.607 C 168.983 121.603,169.523 121.429,169.905 121.219 C 175.942 117.907,194.888 115.027,204.400 115.976 C 212.520 116.786,358.621 117.704,360.567 116.957 C 360.915 116.824,361.200 116.543,361.200 116.334 C 361.200 116.124,361.020 116.064,360.800 116.200 C 360.580 116.336,360.400 116.111,360.400 115.699 C 360.400 115.288,360.069 114.596,359.665 114.162 C 359.261 113.728,358.803 112.866,358.647 112.246 C 358.366 111.123,356.872 108.721,356.298 108.466 C 356.131 108.392,356.084 108.187,356.193 108.011 C 356.302 107.835,356.123 107.468,355.796 107.196 C 355.468 106.924,355.200 106.404,355.200 106.039 C 355.200 105.675,354.840 105.117,354.400 104.800 C 353.960 104.483,353.600 103.903,353.600 103.512 C 353.600 103.120,353.420 102.800,353.200 102.800 C 352.980 102.800,352.800 102.558,352.800 102.262 C 352.800 101.966,352.440 101.398,352.000 101.000 C 351.560 100.602,351.200 99.984,351.200 99.626 C 351.200 99.269,350.840 98.717,350.400 98.400 C 349.960 98.083,349.600 97.608,349.600 97.346 C 349.600 97.083,349.066 96.363,348.413 95.747 C 347.759 95.131,347.018 94.125,346.764 93.513 C 346.510 92.901,346.145 92.400,345.951 92.400 C 345.758 92.400,345.600 92.202,345.600 91.960 C 345.600 91.719,345.060 91.017,344.400 90.400 C 343.740 89.783,343.200 89.083,343.200 88.843 C 343.200 88.603,342.633 87.865,341.941 87.203 C 341.248 86.542,340.806 86.000,340.959 86.000 C 341.111 86.000,340.792 85.556,340.249 85.013 C 339.706 84.470,339.145 83.657,339.002 83.207 C 338.859 82.757,338.575 82.492,338.371 82.618 C 338.167 82.744,338.000 82.663,338.000 82.439 C 338.000 82.214,336.920 80.936,335.600 79.600 C 334.280 78.264,333.200 77.081,333.200 76.972 C 333.200 76.704,321.617 65.200,321.347 65.200 C 321.229 65.200,320.203 64.313,319.066 63.229 C 317.930 62.145,316.280 60.772,315.400 60.178 C 314.520 59.583,313.303 58.580,312.697 57.949 C 312.090 57.317,311.397 56.800,311.157 56.800 C 310.917 56.800,310.217 56.260,309.600 55.600 C 308.983 54.940,308.281 54.400,308.040 54.400 C 307.798 54.400,307.600 54.248,307.600 54.063 C 307.600 53.877,306.795 53.312,305.812 52.806 C 304.828 52.300,304.102 51.759,304.198 51.603 C 304.294 51.448,303.884 51.070,303.286 50.763 C 302.689 50.456,301.930 49.934,301.600 49.603 C 301.270 49.271,300.763 48.951,300.474 48.891 C 300.185 48.832,299.566 48.427,299.099 47.991 C 298.631 47.556,298.013 47.200,297.725 47.200 C 297.436 47.200,297.200 47.009,297.200 46.776 C 297.200 46.543,297.022 46.463,296.803 46.598 C 296.585 46.733,295.947 46.383,295.385 45.822 C 294.823 45.260,294.177 44.800,293.950 44.800 C 293.722 44.800,292.586 44.170,291.426 43.400 C 290.266 42.630,289.021 42.000,288.659 42.000 C 288.296 42.000,288.000 41.820,288.000 41.600 C 288.000 41.380,287.717 41.200,287.371 41.200 C 287.026 41.200,286.473 40.930,286.143 40.601 C 285.814 40.271,285.062 39.882,284.472 39.737 C 283.882 39.591,283.109 39.141,282.753 38.736 C 282.397 38.331,281.900 38.000,281.648 38.000 C 281.073 38.000,279.497 37.132,279.106 36.600 C 278.944 36.380,278.809 36.356,278.806 36.546 C 278.803 36.736,278.356 36.601,277.814 36.246 C 277.272 35.891,276.462 35.600,276.014 35.600 C 275.566 35.600,275.200 35.454,275.200 35.275 C 275.200 35.096,274.570 34.702,273.800 34.400 C 273.030 34.098,272.400 33.704,272.400 33.525 C 272.400 33.346,272.051 33.200,271.624 33.200 C 271.197 33.200,270.736 33.020,270.600 32.800 C 270.464 32.580,269.928 32.400,269.410 32.400 C 268.891 32.400,268.407 32.222,268.333 32.003 C 268.260 31.785,267.705 31.566,267.100 31.516 C 266.495 31.466,266.000 31.285,266.000 31.113 C 266.000 30.941,265.640 30.800,265.200 30.800 C 264.760 30.800,264.400 30.620,264.400 30.400 C 264.400 30.180,263.860 30.000,263.200 30.000 C 262.540 30.000,262.000 29.820,262.000 29.600 C 262.000 29.380,261.640 29.200,261.200 29.200 C 260.760 29.200,260.400 29.059,260.400 28.887 C 260.400 28.715,259.934 28.536,259.364 28.489 C 258.795 28.442,258.120 28.272,257.864 28.113 C 257.609 27.953,257.130 27.782,256.800 27.733 C 255.789 27.583,251.870 26.383,250.600 25.835 C 249.940 25.550,249.085 25.365,248.700 25.423 C 248.315 25.481,248.000 25.365,248.000 25.165 C 248.000 24.964,247.100 24.800,246.000 24.800 C 244.900 24.800,244.000 24.620,244.000 24.400 C 244.000 24.180,243.280 24.000,242.400 24.000 C 241.520 24.000,240.800 23.820,240.800 23.600 C 240.800 23.380,240.170 23.200,239.400 23.200 C 238.630 23.200,238.000 23.020,238.000 22.800 C 238.000 22.580,237.111 22.400,236.024 22.400 C 234.937 22.400,233.936 22.220,233.800 22.000 C 233.664 21.780,232.573 21.600,231.376 21.600 C 230.179 21.600,229.200 21.420,229.200 21.200 C 229.200 20.972,228.008 20.800,226.424 20.800 C 224.897 20.800,223.536 20.620,223.400 20.400 C 223.264 20.180,221.543 20.000,219.576 20.000 C 217.459 20.000,216.000 19.837,216.000 19.600 C 216.000 19.340,210.208 19.200,199.424 19.200 C 188.804 19.200,182.758 19.344,182.600 19.600 " stroke="none" fill="#d9920c" fill-rule="evenodd"></path><path id="path1" d="M46.354 104.299 C 45.853 105.124,45.282 105.910,45.087 106.045 C 44.892 106.179,44.792 106.390,44.866 106.513 C 44.940 106.635,44.610 107.185,44.132 107.734 C 43.655 108.282,43.366 108.833,43.490 108.956 C 43.613 109.080,43.420 109.294,43.060 109.432 C 42.699 109.571,42.517 109.865,42.654 110.087 C 42.790 110.308,42.744 110.604,42.551 110.745 C 41.998 111.147,41.200 112.726,41.200 113.418 C 41.200 113.764,41.020 113.936,40.800 113.800 C 40.580 113.664,40.400 113.922,40.400 114.373 C 40.400 114.824,40.040 115.418,39.600 115.693 C 39.160 115.968,38.800 116.509,38.800 116.896 C 38.800 117.283,38.620 117.600,38.400 117.600 C 38.180 117.600,38.000 117.791,38.000 118.024 C 38.000 118.257,38.225 118.316,38.500 118.155 C 38.775 117.994,38.712 118.208,38.361 118.631 C 38.009 119.054,37.602 119.670,37.456 120.000 C 37.311 120.330,36.846 121.140,36.425 121.800 C 36.003 122.460,35.645 123.405,35.629 123.900 C 35.613 124.395,35.420 124.800,35.200 124.800 C 34.980 124.800,34.800 124.980,34.800 125.199 C 34.800 125.418,34.260 126.741,33.600 128.138 C 32.940 129.535,32.400 130.964,32.400 131.315 C 32.400 131.666,32.220 132.064,32.000 132.200 C 31.780 132.336,31.600 132.797,31.600 133.224 C 31.600 133.651,31.409 134.000,31.176 134.000 C 30.943 134.000,30.855 134.165,30.980 134.368 C 31.105 134.570,30.923 135.020,30.575 135.368 C 30.172 135.771,30.116 136.000,30.420 136.000 C 30.781 136.000,30.776 136.146,30.400 136.600 C 30.126 136.930,30.024 137.200,30.174 137.200 C 30.479 137.200,29.178 139.669,28.679 140.037 C 28.502 140.167,28.389 140.437,28.426 140.637 C 28.593 141.520,28.372 142.830,28.086 142.653 C 27.913 142.546,27.754 142.761,27.733 143.129 C 27.694 143.810,27.004 145.883,26.287 147.474 C 26.070 147.954,25.988 148.713,26.105 149.159 C 26.222 149.605,26.068 150.178,25.763 150.431 C 25.458 150.684,25.300 151.038,25.411 151.218 C 25.522 151.398,25.460 151.640,25.272 151.756 C 25.084 151.871,24.906 152.636,24.875 153.454 C 24.844 154.272,24.635 155.125,24.410 155.350 C 24.184 155.576,24.000 156.523,24.000 157.456 C 24.000 158.389,23.820 159.264,23.600 159.400 C 23.380 159.536,23.200 160.357,23.200 161.224 C 23.200 162.091,23.038 162.800,22.840 162.800 C 22.472 162.800,22.183 164.529,21.753 169.296 C 21.620 170.779,21.350 171.893,21.155 171.772 C 20.960 171.652,20.800 172.553,20.800 173.776 C 20.800 174.999,20.644 176.000,20.453 176.000 C 20.261 176.000,20.072 177.661,20.030 179.690 C 19.988 181.771,19.771 183.494,19.533 183.642 C 19.258 183.812,19.300 183.979,19.655 184.120 C 20.066 184.284,20.074 184.345,19.686 184.368 C 19.275 184.394,19.181 187.660,19.217 200.604 C 19.244 210.388,19.408 216.719,19.631 216.581 C 19.846 216.448,20.000 217.912,20.000 220.096 C 20.000 222.155,20.170 224.011,20.377 224.220 C 20.585 224.429,20.797 225.545,20.849 226.700 C 20.901 227.855,21.091 228.800,21.271 228.800 C 21.452 228.800,21.600 228.991,21.600 229.224 C 21.600 229.457,21.375 229.520,21.100 229.365 C 20.700 229.139,20.700 229.190,21.100 229.621 C 21.375 229.918,21.600 230.766,21.600 231.506 C 21.600 232.247,21.761 233.156,21.957 233.526 C 22.349 234.266,22.724 236.273,23.072 239.493 C 23.196 240.645,23.456 241.489,23.649 241.370 C 23.842 241.250,24.000 241.693,24.000 242.353 C 24.000 243.013,24.180 243.664,24.400 243.800 C 24.620 243.936,24.800 244.746,24.800 245.600 C 24.800 246.454,24.989 247.269,25.219 247.412 C 25.450 247.554,25.593 247.970,25.537 248.335 C 25.482 248.701,25.668 249.420,25.950 249.934 C 26.233 250.448,26.367 250.966,26.248 251.085 C 26.129 251.204,26.271 251.774,26.563 252.351 C 26.855 252.928,27.040 253.740,26.974 254.156 C 26.908 254.571,27.123 255.180,27.450 255.507 C 27.778 255.835,27.957 256.335,27.848 256.618 C 27.740 256.902,27.891 257.226,28.184 257.339 C 28.531 257.472,28.670 258.044,28.580 258.972 C 28.504 259.757,28.600 260.400,28.794 260.400 C 29.158 260.400,29.819 261.969,29.679 262.500 C 29.636 262.665,29.810 262.800,30.067 262.800 C 30.323 262.800,30.420 262.914,30.281 263.053 C 30.142 263.192,30.240 263.687,30.500 264.153 C 30.759 264.619,30.978 265.120,30.986 265.267 C 30.994 265.413,31.135 265.668,31.300 265.833 C 31.465 265.998,31.600 266.643,31.600 267.267 C 31.600 267.890,31.780 268.400,32.000 268.400 C 32.220 268.400,32.400 268.816,32.400 269.325 C 32.400 269.833,32.760 270.636,33.200 271.108 C 33.640 271.580,34.000 272.435,34.000 273.007 C 34.000 273.599,34.172 273.941,34.400 273.800 C 34.620 273.664,34.800 273.923,34.800 274.376 C 34.800 274.829,34.947 275.200,35.128 275.200 C 35.308 275.200,35.701 276.102,36.001 277.205 C 36.354 278.499,36.661 279.030,36.867 278.705 C 37.089 278.356,37.190 278.450,37.194 279.011 C 37.197 279.457,37.464 280.198,37.786 280.658 C 38.108 281.119,38.258 281.609,38.119 281.747 C 37.980 281.886,38.055 282.000,38.285 282.000 C 38.729 282.000,39.733 284.110,39.733 285.044 C 39.733 285.350,39.842 285.600,39.975 285.600 C 40.108 285.600,40.663 286.455,41.208 287.500 C 41.754 288.545,42.336 289.460,42.502 289.534 C 42.669 289.608,42.703 289.833,42.579 290.034 C 42.455 290.235,42.648 290.400,43.010 290.400 C 43.371 290.400,43.597 290.609,43.512 290.864 C 43.427 291.120,43.768 291.772,44.271 292.315 C 44.774 292.857,45.088 293.458,44.969 293.650 C 44.850 293.843,44.988 294.003,45.276 294.006 C 45.700 294.011,45.698 294.077,45.266 294.350 C 44.840 294.621,44.865 294.739,45.392 294.942 C 45.754 295.081,45.956 295.348,45.839 295.537 C 45.723 295.725,45.981 296.259,46.414 296.723 C 46.846 297.187,47.200 297.844,47.200 298.183 C 47.200 298.539,47.548 298.800,48.024 298.800 C 48.477 298.800,48.749 298.960,48.628 299.155 C 48.507 299.350,48.677 299.732,49.004 300.004 C 49.332 300.276,49.600 300.746,49.600 301.049 C 49.600 301.352,49.736 301.600,49.902 301.600 C 50.069 301.600,50.441 302.135,50.730 302.788 C 51.020 303.441,51.784 304.540,52.428 305.230 C 53.073 305.920,53.600 306.646,53.600 306.842 C 53.600 307.183,53.815 307.457,55.900 309.772 C 56.395 310.322,56.800 310.882,56.800 311.016 C 56.800 311.151,57.348 311.810,58.018 312.479 C 58.688 313.149,59.142 313.791,59.028 313.905 C 58.914 314.019,59.401 314.654,60.110 315.315 C 60.820 315.976,61.122 316.356,60.781 316.159 C 60.366 315.918,60.394 316.014,60.864 316.450 C 61.250 316.808,61.439 317.242,61.283 317.414 C 61.127 317.587,61.198 317.616,61.439 317.478 C 61.876 317.229,64.400 319.752,64.400 320.439 C 64.400 320.637,64.535 320.801,64.700 320.801 C 64.865 320.802,65.349 321.323,65.775 321.960 C 66.202 322.596,66.787 323.026,67.075 322.916 C 67.400 322.791,67.600 323.018,67.600 323.511 C 67.600 323.949,68.062 324.611,68.627 324.981 C 69.755 325.720,71.327 327.200,70.984 327.200 C 70.865 327.200,71.990 328.405,73.484 329.877 C 74.978 331.350,76.335 332.520,76.500 332.477 C 76.665 332.435,76.800 332.626,76.800 332.902 C 76.800 333.179,77.340 333.644,78.000 333.936 C 78.660 334.228,79.200 334.722,79.200 335.034 C 79.200 335.345,79.368 335.600,79.574 335.600 C 79.780 335.600,80.980 336.635,82.240 337.900 C 83.500 339.165,84.399 339.930,84.236 339.600 C 84.074 339.270,84.224 339.349,84.570 339.776 C 84.917 340.204,85.200 340.420,85.200 340.258 C 85.200 340.096,85.662 340.425,86.226 340.989 C 86.790 341.554,87.465 341.893,87.726 341.744 C 87.987 341.594,88.074 341.612,87.919 341.783 C 87.654 342.078,88.485 343.200,88.968 343.200 C 89.204 343.200,90.809 344.495,92.069 345.700 C 92.471 346.085,93.025 346.406,93.300 346.413 C 94.069 346.432,95.491 347.595,94.776 347.621 C 94.459 347.632,94.874 347.921,95.698 348.262 C 96.543 348.613,97.082 349.067,96.936 349.304 C 96.793 349.535,96.855 349.613,97.073 349.478 C 97.595 349.156,99.280 350.346,98.983 350.827 C 98.856 351.032,99.168 351.206,99.676 351.213 C 100.866 351.229,102.268 352.229,101.521 352.528 C 101.229 352.645,101.367 352.751,101.833 352.768 C 102.292 352.786,102.802 352.935,102.967 353.100 C 103.132 353.265,103.477 353.408,103.733 353.418 C 103.990 353.428,104.151 353.667,104.090 353.948 C 104.030 354.229,104.166 354.345,104.393 354.204 C 104.620 354.064,104.914 354.231,105.046 354.575 C 105.178 354.919,105.567 355.200,105.911 355.200 C 106.255 355.200,106.897 355.515,107.337 355.900 C 107.907 356.399,108.038 356.428,107.792 356.000 C 107.362 355.253,108.789 356.271,109.311 357.083 C 109.481 357.349,109.886 357.465,110.211 357.341 C 110.551 357.210,110.802 357.344,110.804 357.657 C 110.806 357.956,111.616 358.555,112.604 358.990 C 113.592 359.424,114.400 359.919,114.400 360.090 C 114.400 360.260,114.535 360.379,114.700 360.353 C 115.576 360.214,116.338 360.482,117.108 361.200 C 117.580 361.640,118.240 362.000,118.574 362.000 C 118.907 362.000,119.770 362.359,120.490 362.799 C 121.211 363.238,122.126 363.598,122.524 363.599 C 122.922 363.599,123.136 363.780,123.000 364.000 C 122.864 364.220,123.134 364.400,123.600 364.400 C 124.066 364.400,124.360 364.542,124.252 364.715 C 124.145 364.888,124.466 365.064,124.964 365.105 C 126.225 365.210,128.050 366.211,127.694 366.603 C 127.532 366.782,127.710 366.816,128.088 366.681 C 128.467 366.545,129.042 366.700,129.367 367.024 C 129.692 367.349,130.102 367.568,130.279 367.512 C 130.602 367.409,132.034 367.914,135.000 369.175 C 135.880 369.549,137.410 370.099,138.400 370.397 C 139.390 370.695,140.371 371.088,140.580 371.270 C 140.789 371.451,141.344 371.600,141.813 371.600 C 142.283 371.600,142.791 371.725,142.944 371.877 C 143.096 372.029,143.613 372.214,144.093 372.287 C 144.573 372.360,145.083 372.611,145.227 372.844 C 145.372 373.077,145.606 373.245,145.748 373.217 C 146.055 373.155,148.702 373.588,149.706 373.864 C 150.094 373.970,150.321 374.205,150.210 374.384 C 150.099 374.564,150.658 374.623,151.452 374.516 C 152.246 374.409,152.796 374.482,152.675 374.678 C 152.487 374.982,153.466 375.200,155.500 375.307 C 155.775 375.322,156.000 375.483,156.000 375.667 C 156.000 375.850,156.619 376.000,157.376 376.000 C 158.133 376.000,158.864 376.180,159.000 376.400 C 159.136 376.620,159.967 376.800,160.847 376.800 C 161.955 376.800,162.359 376.942,162.162 377.262 C 162.005 377.516,162.039 377.626,162.238 377.506 C 162.437 377.386,163.500 377.458,164.600 377.665 C 168.563 378.413,171.038 378.812,173.200 379.053 C 174.410 379.188,175.660 379.501,175.977 379.749 C 176.439 380.110,176.483 380.081,176.200 379.600 C 175.911 379.110,175.955 379.088,176.437 379.477 C 176.765 379.742,178.485 379.989,180.313 380.033 C 182.121 380.077,183.600 380.267,183.600 380.456 C 183.600 380.645,190.710 380.800,199.400 380.800 C 208.090 380.800,215.200 380.644,215.200 380.453 C 215.200 380.261,216.865 380.072,218.900 380.031 C 220.935 379.990,222.771 379.787,222.980 379.578 C 223.189 379.370,224.674 379.200,226.280 379.200 C 227.960 379.200,229.200 379.030,229.200 378.800 C 229.200 378.580,230.100 378.400,231.200 378.400 C 232.300 378.400,233.200 378.220,233.200 378.000 C 233.200 377.780,234.100 377.600,235.200 377.600 C 236.300 377.600,237.200 377.420,237.200 377.200 C 237.200 376.980,237.999 376.800,238.976 376.800 C 239.953 376.800,240.864 376.620,241.000 376.400 C 241.136 376.180,242.047 376.000,243.024 376.000 C 244.001 376.000,244.800 375.841,244.800 375.646 C 244.800 375.451,245.835 375.164,247.100 375.008 C 248.365 374.851,249.580 374.588,249.800 374.424 C 250.168 374.148,253.852 373.032,254.467 373.010 C 254.613 373.004,254.868 372.865,255.033 372.700 C 255.198 372.535,255.843 372.400,256.467 372.400 C 257.090 372.400,257.600 372.220,257.600 372.000 C 257.600 371.780,258.140 371.600,258.800 371.600 C 259.460 371.600,260.000 371.420,260.000 371.200 C 260.000 370.980,260.450 370.800,261.000 370.800 C 261.550 370.800,262.000 370.620,262.000 370.400 C 262.000 370.180,262.439 370.000,262.976 370.000 C 263.513 370.000,264.064 369.820,264.200 369.600 C 264.336 369.380,264.797 369.200,265.224 369.200 C 265.651 369.200,266.000 369.020,266.000 368.800 C 266.000 368.580,266.439 368.400,266.976 368.400 C 267.513 368.400,268.064 368.220,268.200 368.000 C 268.336 367.780,268.797 367.600,269.224 367.600 C 269.651 367.600,270.000 367.420,270.000 367.200 C 270.000 366.980,270.450 366.800,271.000 366.800 C 271.550 366.800,272.000 366.620,272.000 366.400 C 272.000 366.180,272.450 366.000,273.000 366.000 C 273.550 366.000,274.000 365.820,274.000 365.600 C 274.000 365.380,274.270 365.200,274.600 365.200 C 274.930 365.200,275.200 365.020,275.200 364.800 C 275.200 364.580,275.560 364.400,276.000 364.400 C 276.440 364.400,276.800 364.220,276.800 364.000 C 276.800 363.780,277.041 363.600,277.336 363.600 C 277.631 363.600,279.639 362.700,281.800 361.600 C 283.961 360.500,285.969 359.600,286.264 359.600 C 286.559 359.600,286.800 359.440,286.800 359.243 C 286.800 359.047,287.268 358.769,287.840 358.626 C 288.891 358.362,291.288 356.853,291.533 356.300 C 291.607 356.135,292.012 356.000,292.433 356.000 C 292.855 356.000,293.200 355.842,293.200 355.649 C 293.200 355.455,293.740 355.073,294.400 354.800 C 295.060 354.527,295.600 354.145,295.600 353.951 C 295.600 353.758,295.945 353.600,296.367 353.600 C 296.788 353.600,297.193 353.455,297.267 353.277 C 297.459 352.809,301.065 350.400,301.572 350.400 C 301.807 350.400,302.000 350.220,302.000 350.000 C 302.000 349.780,302.178 349.600,302.395 349.600 C 302.767 349.600,303.815 348.840,305.016 347.700 C 305.306 347.425,305.696 347.200,305.883 347.200 C 306.070 347.200,306.483 346.840,306.800 346.400 C 307.117 345.960,307.607 345.600,307.888 345.600 C 308.170 345.600,308.400 345.420,308.400 345.200 C 308.400 344.980,308.598 344.800,308.840 344.800 C 309.081 344.800,309.783 344.260,310.400 343.600 C 311.017 342.940,311.794 342.400,312.127 342.400 C 312.461 342.400,312.793 342.262,312.867 342.094 C 312.940 341.925,314.260 340.744,315.800 339.469 C 322.005 334.332,330.400 326.354,330.400 325.595 C 330.400 325.378,330.670 325.200,331.000 325.200 C 331.330 325.200,331.600 325.036,331.600 324.836 C 331.600 324.636,332.905 323.128,334.500 321.484 C 337.681 318.207,338.800 316.921,338.800 316.542 C 338.800 316.406,339.188 315.958,339.661 315.547 C 340.135 315.136,340.407 314.800,340.265 314.800 C 340.123 314.800,340.572 314.260,341.263 313.600 C 341.954 312.940,342.307 312.400,342.049 312.400 C 341.790 312.400,342.349 311.617,343.289 310.660 C 345.497 308.416,347.183 306.310,347.193 305.788 C 347.197 305.562,347.560 305.117,348.000 304.800 C 348.440 304.483,348.800 303.943,348.800 303.600 C 348.800 303.257,349.160 302.717,349.600 302.400 C 350.040 302.083,350.400 301.569,350.400 301.259 C 350.400 300.948,350.716 300.403,351.103 300.047 C 351.489 299.691,352.060 298.905,352.370 298.300 C 352.681 297.695,353.085 297.200,353.268 297.200 C 353.450 297.200,353.600 296.906,353.600 296.547 C 353.600 296.188,353.915 295.603,354.300 295.247 C 354.685 294.891,355.059 294.330,355.130 294.000 C 355.202 293.670,355.427 293.340,355.630 293.267 C 355.834 293.193,356.000 292.788,356.000 292.367 C 356.000 291.945,356.180 291.600,356.400 291.600 C 356.620 291.600,356.800 291.403,356.800 291.162 C 356.800 290.921,357.148 290.235,357.573 289.637 C 357.999 289.040,358.468 288.067,358.617 287.476 C 358.765 286.884,359.047 286.400,359.243 286.400 C 359.440 286.400,359.600 286.122,359.600 285.783 C 359.600 285.444,359.960 284.780,360.400 284.308 C 360.840 283.836,361.200 283.213,361.200 282.925 C 361.200 282.636,361.380 282.400,361.600 282.400 C 361.820 282.400,362.000 282.040,362.000 281.600 C 362.000 281.160,362.180 280.800,362.400 280.800 C 362.620 280.800,362.800 280.451,362.800 280.024 C 362.800 279.597,362.980 279.136,363.200 279.000 C 363.420 278.864,363.600 278.313,363.600 277.776 C 363.600 277.239,363.780 276.800,364.000 276.800 C 364.220 276.800,364.400 276.440,364.400 276.000 C 364.400 275.560,364.580 275.200,364.800 275.200 C 365.020 275.200,365.200 274.840,365.200 274.400 C 365.200 273.960,365.380 273.600,365.600 273.600 C 365.820 273.600,366.000 273.139,366.000 272.576 C 366.000 271.996,366.173 271.660,366.400 271.800 C 366.627 271.940,366.800 271.604,366.800 271.024 C 366.800 270.461,366.980 270.000,367.200 270.000 C 367.420 270.000,367.600 269.640,367.600 269.200 C 367.600 268.760,367.780 268.400,368.000 268.400 C 368.220 268.400,368.400 268.051,368.400 267.624 C 368.400 267.197,368.580 266.736,368.800 266.600 C 369.020 266.464,369.200 265.924,369.200 265.400 C 369.200 264.876,369.380 264.336,369.600 264.200 C 369.820 264.064,370.000 263.513,370.000 262.976 C 370.000 262.439,370.180 262.000,370.400 262.000 C 370.620 262.000,370.800 261.548,370.800 260.996 C 370.800 260.443,371.128 259.228,371.530 258.296 C 372.576 255.866,374.033 251.424,374.107 250.439 C 374.142 249.978,374.294 249.600,374.445 249.600 C 374.595 249.600,374.845 248.340,375.000 246.800 C 375.155 245.260,375.443 244.000,375.641 244.000 C 375.838 244.000,376.000 243.291,376.000 242.424 C 376.000 241.557,376.180 240.736,376.400 240.600 C 376.620 240.464,376.800 239.723,376.800 238.953 C 376.800 238.121,376.962 237.653,377.200 237.800 C 377.450 237.954,377.600 237.137,377.600 235.624 C 377.600 234.275,377.777 233.200,378.000 233.200 C 378.222 233.200,378.400 232.133,378.400 230.800 C 378.400 229.467,378.578 228.400,378.800 228.400 C 379.022 228.400,379.200 227.333,379.200 226.000 C 379.200 224.667,379.378 223.600,379.600 223.600 C 379.835 223.600,380.000 222.200,380.000 220.200 C 380.000 218.200,380.165 216.800,380.400 216.800 C 380.950 216.800,380.950 183.340,380.400 183.000 C 380.180 182.864,380.000 181.334,380.000 179.600 C 380.000 177.866,379.820 176.336,379.600 176.200 C 379.380 176.064,379.200 174.984,379.200 173.800 C 379.200 172.616,379.020 171.536,378.800 171.400 C 378.580 171.264,378.400 170.184,378.400 169.000 C 378.400 167.816,378.220 166.736,378.000 166.600 C 377.780 166.464,377.600 165.373,377.600 164.176 C 377.600 162.979,377.420 162.000,377.200 162.000 C 376.980 162.000,376.800 161.370,376.800 160.600 C 376.800 159.830,376.620 159.200,376.400 159.200 C 376.180 159.200,376.000 158.480,376.000 157.600 C 376.000 156.720,375.846 156.000,375.658 156.000 C 375.470 156.000,375.210 154.875,375.081 153.500 C 374.952 152.125,374.573 150.348,374.239 149.551 C 373.905 148.754,373.745 147.989,373.883 147.851 C 374.020 147.713,373.923 147.600,373.667 147.600 C 373.410 147.600,373.200 147.161,373.200 146.624 C 373.200 146.087,373.040 145.548,372.844 145.427 C 372.649 145.306,372.387 144.621,372.263 143.904 C 371.743 140.890,371.490 140.000,371.155 140.000 C 370.960 140.000,370.800 139.676,370.800 139.280 C 370.800 138.884,370.621 138.381,370.402 138.162 C 370.184 137.944,369.964 137.278,369.915 136.682 C 369.866 136.087,369.685 135.600,369.513 135.600 C 369.341 135.600,369.200 135.240,369.200 134.800 C 369.200 134.360,369.020 134.000,368.800 134.000 C 368.580 134.000,368.400 133.638,368.400 133.195 C 368.400 132.752,368.220 132.032,368.000 131.595 C 367.780 131.158,367.420 130.442,367.200 130.005 C 366.980 129.568,366.800 128.848,366.800 128.405 C 366.800 127.962,366.654 127.600,366.475 127.600 C 366.296 127.600,365.902 126.970,365.600 126.200 C 365.298 125.430,364.904 124.800,364.725 124.800 C 364.546 124.800,364.400 124.440,364.400 124.000 C 364.400 123.560,364.220 123.200,364.000 123.200 C 363.780 123.200,363.600 122.928,363.600 122.595 C 363.600 121.981,362.816 120.366,362.340 120.000 C 362.198 119.890,362.018 119.350,361.940 118.800 C 361.824 117.969,361.597 117.811,360.600 117.863 C 359.940 117.898,327.290 117.758,288.044 117.553 C 248.797 117.348,216.626 117.240,216.552 117.314 C 216.478 117.388,218.259 117.919,220.509 118.493 C 224.048 119.396,227.260 120.455,232.214 122.353 C 232.881 122.609,235.041 123.645,237.014 124.656 C 238.986 125.667,241.004 126.698,241.497 126.947 C 241.990 127.196,242.395 127.535,242.397 127.700 C 242.399 127.865,242.590 128.000,242.822 128.000 C 244.401 128.000,256.911 137.973,260.328 141.955 C 261.198 142.970,262.426 144.343,263.055 145.006 C 267.418 149.603,274.581 161.170,277.296 168.000 C 277.514 168.550,277.852 169.313,278.047 169.695 C 278.241 170.077,278.400 170.664,278.400 171.000 C 278.400 171.336,278.559 171.923,278.753 172.305 C 279.446 173.667,279.943 175.018,280.188 176.200 C 280.324 176.860,280.608 178.075,280.818 178.900 C 281.721 182.446,282.049 183.960,282.487 186.600 C 283.102 190.312,283.095 208.549,282.477 212.200 C 282.217 213.740,281.900 215.630,281.774 216.400 C 281.648 217.170,281.391 218.160,281.203 218.600 C 280.842 219.442,280.487 220.931,280.127 223.104 C 280.009 223.821,279.751 224.506,279.556 224.627 C 279.360 224.748,279.200 225.287,279.200 225.824 C 279.200 226.361,279.020 226.800,278.800 226.800 C 278.580 226.800,278.400 227.162,278.400 227.605 C 278.400 228.048,278.241 228.723,278.047 229.105 C 277.852 229.487,277.514 230.250,277.294 230.800 C 274.831 236.965,269.901 245.426,265.962 250.246 C 264.680 251.815,263.723 253.189,263.834 253.301 C 263.945 253.412,263.488 254.433,262.818 255.569 C 262.148 256.705,261.600 257.807,261.600 258.018 C 261.600 258.228,261.441 258.400,261.247 258.400 C 261.052 258.400,260.790 258.715,260.664 259.100 C 260.538 259.485,260.000 260.520,259.468 261.400 C 258.379 263.200,247.887 281.090,246.741 283.100 C 246.334 283.815,245.619 285.075,245.153 285.900 C 244.687 286.725,243.967 287.878,243.553 288.462 C 243.139 289.046,242.800 289.648,242.800 289.800 C 242.800 289.952,242.467 290.554,242.061 291.138 C 241.655 291.722,240.782 293.190,240.121 294.400 C 239.461 295.610,237.544 298.906,235.860 301.725 C 234.177 304.544,232.800 306.947,232.800 307.064 C 232.800 307.181,232.461 307.754,232.047 308.338 C 231.633 308.922,230.913 310.075,230.447 310.900 C 229.981 311.725,229.240 313.030,228.800 313.800 C 228.360 314.570,227.621 315.875,227.157 316.700 C 226.694 317.525,226.173 318.380,226.000 318.600 C 225.827 318.820,225.329 319.630,224.894 320.400 C 224.459 321.170,223.153 323.420,221.992 325.400 C 220.832 327.380,219.257 330.080,218.492 331.400 C 217.728 332.720,216.789 334.340,216.407 335.000 C 216.025 335.660,215.121 337.190,214.400 338.400 C 213.031 340.696,212.174 342.179,210.757 344.700 C 210.294 345.525,209.773 346.380,209.600 346.600 C 209.427 346.820,208.930 347.630,208.497 348.400 C 208.063 349.170,206.131 352.500,204.203 355.800 C 202.276 359.100,200.387 362.340,200.005 363.000 C 199.624 363.660,198.721 365.190,198.000 366.400 C 196.671 368.629,195.883 369.990,194.353 372.700 C 193.887 373.525,193.167 374.678,192.753 375.262 C 192.339 375.846,192.000 376.440,192.000 376.583 C 192.000 376.726,191.538 377.508,190.974 378.321 L 189.947 379.800 190.171 377.600 C 190.294 376.390,190.479 374.500,190.581 373.400 C 190.951 369.435,191.992 358.553,192.208 356.400 C 192.487 353.617,193.110 347.089,193.638 341.400 C 194.622 330.809,194.779 329.165,195.202 325.000 C 195.447 322.580,195.807 318.800,196.000 316.600 C 196.607 309.698,197.145 304.253,197.364 302.800 C 197.480 302.030,197.678 300.050,197.804 298.400 C 198.188 293.374,198.736 287.512,199.024 285.361 L 199.297 283.322 197.393 283.061 C 196.345 282.917,194.691 282.800,193.717 282.800 C 191.883 282.800,182.859 281.466,180.400 280.831 C 174.647 279.345,170.956 278.148,169.105 277.168 C 168.723 276.966,168.206 276.800,167.957 276.800 C 166.112 276.800,154.919 270.355,148.800 265.769 C 142.349 260.935,131.553 249.219,129.150 244.444 C 128.861 243.870,128.158 242.680,127.587 241.800 C 127.016 240.920,126.046 239.152,125.431 237.871 C 124.816 236.590,124.074 235.450,123.781 235.338 C 123.489 235.225,123.339 234.902,123.448 234.619 C 123.557 234.335,123.353 233.991,122.995 233.854 C 122.541 233.679,122.421 233.332,122.599 232.702 C 122.775 232.075,122.738 231.965,122.477 232.342 C 122.185 232.763,121.971 232.628,121.524 231.742 C 120.766 230.241,119.850 228.650,119.600 228.400 C 119.490 228.290,119.013 227.480,118.540 226.600 C 117.639 224.923,117.116 223.990,114.509 219.400 C 113.634 217.860,112.467 215.790,111.916 214.800 C 111.365 213.810,110.430 212.190,109.839 211.200 C 109.248 210.210,108.662 209.085,108.536 208.700 C 108.410 208.315,108.148 208.000,107.953 208.000 C 107.759 208.000,107.600 207.640,107.600 207.200 C 107.600 206.760,107.441 206.400,107.247 206.400 C 107.052 206.400,106.793 206.085,106.671 205.700 C 106.454 205.013,105.195 202.794,104.799 202.400 C 104.689 202.290,104.335 201.660,104.014 201.000 C 103.692 200.340,103.135 199.350,102.775 198.800 C 102.416 198.250,101.578 196.810,100.914 195.600 C 100.249 194.390,98.988 192.140,98.112 190.600 C 97.235 189.060,96.067 186.990,95.516 186.000 C 94.965 185.010,94.030 183.390,93.439 182.400 C 92.848 181.410,92.262 180.285,92.136 179.900 C 92.010 179.515,91.748 179.200,91.553 179.200 C 91.359 179.200,91.200 178.840,91.200 178.400 C 91.200 177.960,91.041 177.600,90.847 177.600 C 90.652 177.600,90.393 177.285,90.271 176.900 C 90.054 176.213,88.795 173.994,88.399 173.600 C 88.289 173.490,87.935 172.860,87.614 172.200 C 87.292 171.540,86.733 170.550,86.372 170.000 C 86.011 169.450,84.311 166.480,82.595 163.400 C 80.879 160.320,79.046 157.080,78.520 156.200 C 77.995 155.320,77.462 154.285,77.336 153.900 C 77.210 153.515,76.981 153.200,76.828 153.200 C 76.675 153.200,76.302 152.570,76.000 151.800 C 75.698 151.030,75.338 150.400,75.200 150.400 C 75.062 150.400,74.702 149.770,74.400 149.000 C 74.098 148.230,73.748 147.600,73.623 147.600 C 73.498 147.600,73.141 147.015,72.830 146.300 C 72.519 145.585,72.160 144.910,72.032 144.800 C 71.778 144.581,70.081 141.533,69.417 140.103 C 69.187 139.610,68.865 139.205,68.700 139.203 C 68.535 139.201,68.400 139.045,68.400 138.855 C 68.400 138.665,66.690 135.504,64.600 131.831 C 62.510 128.158,60.800 124.984,60.800 124.777 C 60.800 124.569,60.620 124.400,60.400 124.400 C 60.180 124.400,60.000 124.040,60.000 123.600 C 60.000 123.160,59.841 122.800,59.647 122.800 C 59.452 122.800,59.193 122.485,59.071 122.100 C 58.854 121.413,57.595 119.194,57.199 118.800 C 57.089 118.690,56.729 118.060,56.400 117.400 C 56.071 116.740,55.711 116.110,55.601 116.000 C 55.426 115.826,54.880 114.850,53.029 111.400 C 52.793 110.960,52.510 110.510,52.400 110.400 C 52.166 110.166,51.540 109.078,49.779 105.843 C 48.045 102.657,47.501 102.412,46.354 104.299 M213.905 117.083 C 214.402 117.179,215.122 117.175,215.505 117.075 C 215.887 116.975,215.480 116.896,214.600 116.901 C 213.720 116.905,213.407 116.987,213.905 117.083 M195.000 135.846 C 192.434 135.988,187.893 136.640,185.600 137.195 C 181.338 138.227,177.914 139.268,177.420 139.682 C 177.211 139.857,176.784 140.000,176.471 140.000 C 175.761 140.000,167.449 144.047,167.267 144.482 C 167.193 144.657,166.958 144.800,166.745 144.800 C 166.246 144.800,161.986 147.662,159.400 149.735 C 155.054 153.219,145.600 163.686,145.600 165.015 C 145.600 165.159,145.219 165.811,144.754 166.465 C 143.496 168.231,140.264 174.737,139.619 176.800 C 139.309 177.790,138.941 178.780,138.800 179.000 C 138.546 179.397,138.037 181.123,137.265 184.200 C 137.044 185.080,136.681 186.520,136.458 187.400 C 135.050 192.959,135.050 207.041,136.458 212.600 C 136.681 213.480,137.029 214.875,137.232 215.700 C 137.909 218.457,138.542 220.596,138.800 221.000 C 138.941 221.220,139.309 222.210,139.619 223.200 C 144.326 238.256,161.177 254.761,177.600 260.400 C 178.370 260.664,179.360 261.028,179.800 261.207 C 180.622 261.542,181.424 261.770,184.200 262.459 C 192.969 264.634,206.231 264.634,215.000 262.459 C 217.776 261.770,218.578 261.542,219.400 261.207 C 219.840 261.028,220.830 260.664,221.600 260.400 C 232.580 256.630,243.764 248.315,251.091 238.474 C 254.338 234.114,259.200 225.447,259.200 224.020 C 259.200 223.598,259.404 223.111,260.338 221.305 C 260.592 220.813,260.800 220.059,260.800 219.629 C 260.800 219.199,260.960 218.748,261.156 218.627 C 261.351 218.506,261.612 217.821,261.734 217.104 C 261.856 216.387,262.146 214.900,262.379 213.800 C 263.464 208.685,263.799 205.352,263.790 199.800 C 263.780 194.256,263.488 191.443,262.379 186.200 C 262.146 185.100,261.856 183.613,261.734 182.896 C 261.612 182.179,261.351 181.494,261.156 181.373 C 260.960 181.252,260.800 180.749,260.800 180.256 C 260.800 179.763,260.651 179.189,260.470 178.980 C 260.288 178.771,259.889 177.790,259.583 176.800 C 255.211 162.643,239.482 146.642,223.800 140.397 C 219.098 138.524,214.430 137.226,209.600 136.447 C 206.676 135.976,198.639 135.645,195.000 135.846 M202.311 283.093 C 203.251 283.178,204.691 283.177,205.511 283.091 C 206.330 283.005,205.560 282.936,203.800 282.937 C 202.040 282.939,201.370 283.009,202.311 283.093 " stroke="none" fill="#f9cb19" fill-rule="evenodd"></path><path id="path2" d="M191.200 116.829 C 184.397 117.470,173.719 119.966,170.705 121.619 C 170.323 121.829,169.833 122.000,169.615 122.000 C 169.194 122.000,165.219 123.768,161.600 125.566 C 150.125 131.267,131.890 147.982,129.288 155.185 C 129.165 155.523,128.592 156.520,128.013 157.400 C 126.804 159.239,123.121 166.724,122.403 168.800 C 122.137 169.570,121.766 170.560,121.580 171.000 C 120.988 172.394,119.909 175.748,119.584 177.200 C 119.412 177.970,119.002 179.680,118.672 181.000 C 117.033 187.562,116.366 196.236,116.844 204.778 C 117.293 212.825,119.198 222.069,121.586 227.800 C 121.769 228.240,122.140 229.230,122.409 230.000 C 130.704 253.727,154.145 273.918,181.000 280.471 C 192.005 283.156,209.246 282.942,219.800 279.990 C 220.460 279.805,221.810 279.441,222.800 279.182 C 223.790 278.922,224.960 278.561,225.400 278.381 C 225.840 278.200,226.920 277.824,227.800 277.545 C 228.680 277.265,229.571 276.893,229.780 276.718 C 229.989 276.543,230.385 276.400,230.660 276.400 C 233.328 276.400,247.783 267.664,253.800 262.414 C 259.098 257.792,269.367 245.852,270.309 243.218 C 270.431 242.878,270.877 242.100,271.301 241.488 C 281.772 226.379,285.525 199.371,280.078 178.329 C 277.288 167.555,272.840 158.628,265.077 148.225 C 248.774 126.377,219.938 114.123,191.200 116.829 M208.435 135.766 C 217.146 137.074,226.903 140.477,232.272 144.078 C 233.192 144.695,234.092 145.201,234.272 145.202 C 235.478 145.209,244.269 152.756,248.147 157.114 C 268.582 180.074,269.775 216.422,250.857 239.700 C 246.238 245.383,235.873 254.800,234.236 254.800 C 234.076 254.800,233.192 255.306,232.272 255.924 C 215.105 267.462,184.095 267.462,166.928 255.924 C 166.008 255.306,165.130 254.800,164.977 254.800 C 164.520 254.800,159.217 250.773,156.411 248.294 C 127.873 223.089,127.743 177.168,156.136 151.924 C 159.078 149.309,164.480 145.200,164.977 145.200 C 165.130 145.200,166.008 144.692,166.928 144.071 C 176.881 137.351,194.938 133.738,208.435 135.766 " stroke="none" fill="#fbfbfa" fill-rule="evenodd"></path><path id="path3" d="M47.100 102.576 C 46.715 102.858,46.400 103.328,46.400 103.621 C 46.400 103.980,46.564 103.929,46.905 103.463 C 47.596 102.518,48.362 103.171,49.883 106.000 C 51.477 108.966,52.161 110.161,52.400 110.400 C 52.510 110.510,52.793 110.960,53.029 111.400 C 54.880 114.850,55.426 115.826,55.601 116.000 C 55.711 116.110,56.071 116.740,56.400 117.400 C 56.729 118.060,57.089 118.690,57.199 118.800 C 57.595 119.194,58.854 121.413,59.071 122.100 C 59.193 122.485,59.466 122.800,59.676 122.800 C 60.056 122.800,59.482 121.702,55.283 114.400 C 54.081 112.310,52.743 109.970,52.310 109.200 C 48.257 101.994,48.126 101.826,47.100 102.576 M44.229 107.029 C 43.883 107.374,43.600 107.854,43.600 108.095 C 43.600 108.336,43.647 108.458,43.704 108.367 C 43.762 108.275,44.150 107.795,44.566 107.300 C 45.428 106.276,45.180 106.077,44.229 107.029 M197.911 115.893 C 198.851 115.978,200.291 115.977,201.111 115.891 C 201.930 115.805,201.160 115.736,199.400 115.737 C 197.640 115.739,196.970 115.809,197.911 115.893 M192.900 116.276 C 193.285 116.376,193.915 116.376,194.300 116.276 C 194.685 116.175,194.370 116.093,193.600 116.093 C 192.830 116.093,192.515 116.175,192.900 116.276 M205.105 116.283 C 205.602 116.379,206.322 116.375,206.705 116.275 C 207.087 116.175,206.680 116.096,205.800 116.101 C 204.920 116.105,204.607 116.187,205.105 116.283 M214.200 116.818 C 217.973 117.211,358.788 118.119,360.222 117.759 C 360.760 117.624,361.200 117.398,361.199 117.257 C 361.199 117.115,332.894 116.972,298.299 116.938 C 263.705 116.904,229.910 116.788,223.200 116.681 C 215.572 116.558,212.199 116.609,214.200 116.818 M60.000 123.720 C 60.000 124.094,60.180 124.400,60.400 124.400 C 60.620 124.400,60.800 124.569,60.800 124.777 C 60.800 124.984,62.510 128.158,64.600 131.831 C 66.690 135.504,68.400 138.665,68.400 138.855 C 68.400 139.045,68.535 139.201,68.700 139.203 C 68.865 139.205,69.187 139.610,69.417 140.103 C 70.081 141.533,71.778 144.581,72.032 144.800 C 72.160 144.910,72.519 145.585,72.830 146.300 C 73.141 147.015,73.498 147.600,73.623 147.600 C 73.748 147.600,74.098 148.230,74.400 149.000 C 74.702 149.770,75.062 150.400,75.200 150.400 C 75.338 150.400,75.698 151.030,76.000 151.800 C 76.302 152.570,76.675 153.200,76.828 153.200 C 76.981 153.200,77.210 153.515,77.336 153.900 C 77.462 154.285,77.995 155.320,78.520 156.200 C 79.046 157.080,80.879 160.320,82.595 163.400 C 84.311 166.480,86.011 169.450,86.372 170.000 C 86.733 170.550,87.292 171.540,87.614 172.200 C 87.935 172.860,88.289 173.490,88.399 173.600 C 88.795 173.994,90.054 176.213,90.271 176.900 C 90.393 177.285,90.652 177.600,90.847 177.600 C 91.041 177.600,91.200 177.960,91.200 178.400 C 91.200 178.840,91.359 179.200,91.553 179.200 C 91.748 179.200,92.010 179.515,92.136 179.900 C 92.262 180.285,92.848 181.410,93.439 182.400 C 94.030 183.390,94.965 185.010,95.516 186.000 C 96.067 186.990,97.235 189.060,98.112 190.600 C 98.988 192.140,100.249 194.390,100.914 195.600 C 101.578 196.810,102.416 198.250,102.775 198.800 C 103.135 199.350,103.692 200.340,104.014 201.000 C 104.335 201.660,104.689 202.290,104.799 202.400 C 105.195 202.794,106.454 205.013,106.671 205.700 C 106.793 206.085,107.052 206.400,107.247 206.400 C 107.441 206.400,107.600 206.760,107.600 207.200 C 107.600 207.640,107.759 208.000,107.953 208.000 C 108.148 208.000,108.410 208.315,108.536 208.700 C 108.662 209.085,109.248 210.210,109.839 211.200 C 110.430 212.190,111.365 213.810,111.916 214.800 C 112.467 215.790,113.634 217.860,114.509 219.400 C 117.116 223.990,117.639 224.923,118.540 226.600 C 119.013 227.480,119.490 228.290,119.600 228.400 C 119.799 228.599,120.155 229.209,121.675 231.955 C 122.733 233.865,123.200 234.332,123.200 233.480 C 123.200 233.106,123.023 232.800,122.808 232.800 C 122.592 232.800,122.293 232.311,122.143 231.713 C 121.993 231.116,121.584 230.316,121.235 229.935 C 120.886 229.555,120.159 228.379,119.621 227.322 C 119.083 226.265,118.345 224.950,117.982 224.400 C 117.619 223.850,116.781 222.410,116.120 221.200 C 115.005 219.160,114.431 218.142,112.453 214.700 C 112.042 213.985,100.227 193.240,86.197 168.600 C 59.866 122.356,60.000 122.585,60.000 123.720 M140.185 140.500 L 138.200 142.600 140.300 140.615 C 141.455 139.523,142.400 138.578,142.400 138.515 C 142.400 138.217,142.029 138.549,140.185 140.500 M258.759 258.395 C 252.512 264.634,241.655 272.800,239.607 272.800 C 239.383 272.800,239.200 272.980,239.200 273.200 C 239.200 273.420,238.840 273.600,238.400 273.600 C 237.960 273.600,237.600 273.780,237.600 274.000 C 237.600 274.220,237.355 274.400,237.056 274.400 C 236.604 274.400,233.988 275.572,230.705 277.246 C 230.323 277.441,229.736 277.600,229.400 277.600 C 229.064 277.600,228.477 277.759,228.095 277.953 C 226.252 278.891,224.634 279.435,220.900 280.373 C 219.965 280.608,218.525 280.972,217.700 281.182 C 216.875 281.393,215.030 281.745,213.600 281.965 C 212.170 282.185,209.809 282.553,208.354 282.783 C 206.899 283.012,204.273 283.200,202.519 283.200 L 199.329 283.200 198.872 287.100 C 198.365 291.429,198.081 294.416,197.778 298.600 C 197.666 300.140,197.480 302.030,197.364 302.800 C 197.145 304.253,196.607 309.698,196.000 316.600 C 195.807 318.800,195.447 322.580,195.202 325.000 C 194.779 329.165,194.622 330.809,193.638 341.400 C 193.110 347.089,192.487 353.617,192.208 356.400 C 191.992 358.553,190.951 369.435,190.581 373.400 C 190.479 374.500,190.294 376.390,190.171 377.600 L 189.947 379.800 190.974 378.321 C 191.538 377.508,192.000 376.726,192.000 376.583 C 192.000 376.440,192.339 375.846,192.753 375.262 C 193.167 374.678,193.887 373.525,194.353 372.700 C 195.883 369.990,196.671 368.629,198.000 366.400 C 198.721 365.190,199.624 363.660,200.005 363.000 C 200.387 362.340,202.276 359.100,204.203 355.800 C 206.131 352.500,208.063 349.170,208.497 348.400 C 208.930 347.630,209.427 346.820,209.600 346.600 C 209.773 346.380,210.294 345.525,210.757 344.700 C 212.174 342.179,213.031 340.696,214.400 338.400 C 215.121 337.190,216.025 335.660,216.407 335.000 C 216.789 334.340,217.728 332.720,218.492 331.400 C 219.257 330.080,220.832 327.380,221.992 325.400 C 223.153 323.420,224.459 321.170,224.894 320.400 C 225.329 319.630,225.827 318.820,226.000 318.600 C 226.173 318.380,226.694 317.525,227.157 316.700 C 227.621 315.875,228.360 314.570,228.800 313.800 C 229.240 313.030,229.981 311.725,230.447 310.900 C 230.913 310.075,231.633 308.922,232.047 308.338 C 232.461 307.754,232.800 307.181,232.800 307.064 C 232.800 306.947,234.177 304.544,235.860 301.725 C 237.544 298.906,239.461 295.610,240.121 294.400 C 240.782 293.190,241.655 291.722,242.061 291.138 C 242.467 290.554,242.800 289.952,242.800 289.800 C 242.800 289.648,243.139 289.046,243.553 288.462 C 243.967 287.878,244.687 286.725,245.153 285.900 C 245.619 285.075,246.334 283.815,246.741 283.100 C 247.887 281.090,258.379 263.200,259.468 261.400 C 260.000 260.520,260.538 259.485,260.664 259.100 C 260.790 258.715,261.052 258.400,261.247 258.400 C 261.441 258.400,261.600 258.228,261.600 258.018 C 261.600 257.807,262.148 256.705,262.818 255.569 C 264.525 252.674,264.401 252.761,258.759 258.395 M43.877 292.372 C 43.988 292.797,44.332 293.242,44.641 293.360 C 45.081 293.529,45.062 293.361,44.555 292.588 C 43.776 291.399,43.608 291.345,43.877 292.372 M62.034 317.847 C 62.565 318.533,63.080 319.023,63.179 318.935 C 63.277 318.847,62.843 318.286,62.213 317.688 L 61.069 316.600 62.034 317.847 M93.776 347.013 C 94.204 347.336,94.733 347.600,94.953 347.600 C 95.173 347.600,95.004 347.336,94.576 347.013 C 94.149 346.690,93.620 346.425,93.400 346.425 C 93.180 346.425,93.349 346.690,93.776 347.013 M148.635 373.977 C 149.314 374.139,150.124 374.404,150.435 374.566 C 150.746 374.727,150.651 374.576,150.224 374.230 C 149.796 373.883,148.986 373.618,148.424 373.641 C 147.482 373.679,147.500 373.706,148.635 373.977 " stroke="none" fill="#f3ab0c" fill-rule="evenodd"></path><path id="path4" d="M197.100 116.296 C 198.475 116.374,200.725 116.374,202.100 116.296 C 203.475 116.218,202.350 116.154,199.600 116.154 C 196.850 116.154,195.725 116.218,197.100 116.296 M187.800 116.811 C 187.118 116.991,188.241 117.033,190.400 116.909 C 192.490 116.789,194.275 116.626,194.367 116.546 C 194.686 116.267,188.992 116.497,187.800 116.811 M208.200 116.841 C 228.286 118.697,247.672 128.545,261.320 143.825 C 264.158 147.002,264.667 147.634,267.266 151.200 C 280.594 169.491,285.410 191.759,281.194 215.600 C 279.833 223.294,274.822 236.408,271.301 241.488 C 270.877 242.100,270.431 242.878,270.309 243.218 C 268.852 247.290,256.612 260.512,249.100 266.127 C 246.378 268.162,245.039 269.412,246.500 268.553 C 257.778 261.928,271.657 244.912,277.294 230.800 C 277.514 230.250,277.852 229.487,278.047 229.105 C 278.241 228.723,278.400 228.048,278.400 227.605 C 278.400 227.162,278.580 226.800,278.800 226.800 C 279.020 226.800,279.200 226.361,279.200 225.824 C 279.200 225.287,279.360 224.748,279.556 224.627 C 279.751 224.506,280.009 223.821,280.127 223.104 C 280.487 220.931,280.842 219.442,281.203 218.600 C 281.391 218.160,281.648 217.170,281.774 216.400 C 281.900 215.630,282.217 213.740,282.477 212.200 C 283.095 208.549,283.102 190.312,282.487 186.600 C 282.052 183.979,281.858 183.083,280.836 179.000 C 280.616 178.120,280.324 176.860,280.188 176.200 C 279.943 175.018,279.446 173.667,278.753 172.305 C 278.559 171.923,278.400 171.336,278.400 171.000 C 278.400 170.664,278.241 170.077,278.047 169.695 C 277.852 169.313,277.514 168.550,277.296 168.000 C 274.581 161.170,267.418 149.603,263.055 145.006 C 262.426 144.343,261.198 142.970,260.328 141.955 C 256.911 137.973,244.401 128.000,242.822 128.000 C 242.590 128.000,242.399 127.865,242.397 127.700 C 242.395 127.535,241.990 127.196,241.497 126.947 C 241.004 126.698,238.986 125.667,237.014 124.656 C 233.264 122.734,232.978 122.612,227.800 120.717 C 220.922 118.200,211.893 116.346,207.035 116.454 C 204.791 116.504,204.883 116.534,208.200 116.841 M181.453 117.830 C 179.166 118.454,178.366 119.051,180.400 118.615 C 181.170 118.451,182.880 118.086,184.200 117.806 C 186.369 117.345,186.446 117.296,185.000 117.297 C 184.120 117.298,182.524 117.538,181.453 117.830 M172.174 120.564 C 167.259 122.319,158.709 126.247,158.467 126.861 C 158.393 127.048,158.187 127.200,158.008 127.200 C 157.656 127.200,152.331 130.356,152.000 130.760 C 151.890 130.894,150.360 132.067,148.600 133.367 C 143.081 137.442,129.600 151.969,129.600 153.842 C 129.600 153.959,129.093 154.808,128.472 155.728 C 127.289 157.483,123.918 163.910,123.225 165.734 C 122.398 167.909,123.180 166.686,125.038 162.900 C 126.090 160.755,127.427 158.280,128.008 157.400 C 128.590 156.520,129.165 155.523,129.288 155.185 C 131.361 149.445,146.014 135.000,156.200 128.653 C 160.513 125.966,168.578 122.000,169.730 122.000 C 170.011 122.000,170.411 121.852,170.620 121.672 C 170.829 121.492,172.350 120.932,174.000 120.428 C 175.650 119.924,177.360 119.363,177.800 119.183 L 178.600 118.854 177.800 118.847 C 177.360 118.843,174.828 119.616,172.174 120.564 M190.000 135.842 C 181.831 137.127,172.042 140.618,166.928 144.071 C 166.008 144.692,165.130 145.200,164.977 145.200 C 163.662 145.200,154.257 153.316,150.577 157.627 C 143.265 166.191,135.760 181.733,136.041 187.729 C 136.082 188.606,136.326 187.900,137.261 184.200 C 138.057 181.054,138.548 179.394,138.800 179.000 C 138.941 178.780,139.309 177.790,139.619 176.800 C 140.264 174.737,143.496 168.231,144.754 166.465 C 145.219 165.811,145.600 165.159,145.600 165.015 C 145.600 163.686,155.054 153.219,159.400 149.735 C 161.986 147.662,166.246 144.800,166.745 144.800 C 166.958 144.800,167.193 144.657,167.267 144.482 C 167.449 144.047,175.761 140.000,176.471 140.000 C 176.784 140.000,177.211 139.857,177.420 139.682 C 177.917 139.265,181.506 138.176,185.600 137.200 C 193.425 135.334,205.995 135.349,213.700 137.233 C 225.098 140.021,233.118 144.140,242.275 151.908 C 249.054 157.659,257.362 169.607,259.583 176.800 C 259.889 177.790,260.288 178.771,260.470 178.980 C 260.651 179.189,260.800 179.763,260.800 180.256 C 260.800 180.749,260.960 181.252,261.156 181.373 C 261.351 181.494,261.612 182.179,261.734 182.896 C 261.856 183.613,262.146 185.100,262.379 186.200 C 264.341 195.470,264.341 204.545,262.379 213.800 C 262.146 214.900,261.856 216.387,261.734 217.104 C 261.612 217.821,261.351 218.506,261.156 218.627 C 260.960 218.748,260.800 219.199,260.800 219.629 C 260.800 220.384,260.656 220.774,259.662 222.695 C 259.408 223.187,259.200 223.783,259.200 224.020 C 259.200 225.447,254.338 234.114,251.091 238.474 C 243.764 248.315,232.580 256.630,221.600 260.400 C 220.830 260.664,219.840 261.028,219.400 261.207 C 218.578 261.542,217.776 261.770,215.000 262.459 C 206.231 264.634,192.969 264.634,184.200 262.459 C 181.424 261.770,180.622 261.542,179.800 261.207 C 179.360 261.028,178.370 260.664,177.600 260.400 C 161.177 254.761,144.326 238.256,139.619 223.200 C 139.309 222.210,138.933 221.220,138.783 221.000 C 138.633 220.780,138.373 220.060,138.206 219.400 C 138.038 218.740,137.817 218.430,137.714 218.711 C 137.610 218.992,138.199 220.959,139.021 223.081 C 143.657 235.045,151.173 244.793,161.860 252.700 C 163.421 253.855,164.823 254.800,164.977 254.800 C 165.130 254.800,166.008 255.306,166.928 255.924 C 184.095 267.462,215.105 267.462,232.272 255.924 C 233.192 255.306,234.076 254.800,234.236 254.800 C 235.873 254.800,246.238 245.383,250.857 239.700 C 269.775 216.422,268.582 180.074,248.147 157.114 C 244.269 152.756,235.478 145.209,234.272 145.202 C 234.092 145.201,233.192 144.695,232.272 144.078 C 222.095 137.251,203.758 133.679,190.000 135.842 M121.846 169.046 C 121.492 170.085,121.288 171.021,121.392 171.125 C 121.496 171.229,121.692 170.974,121.828 170.557 C 121.964 170.141,122.262 169.299,122.491 168.687 C 122.720 168.075,122.814 167.480,122.699 167.365 C 122.584 167.251,122.200 168.007,121.846 169.046 M120.600 172.400 C 120.450 172.873,120.417 173.350,120.527 173.460 C 120.637 173.570,120.850 173.273,121.000 172.800 C 121.150 172.327,121.183 171.850,121.073 171.740 C 120.963 171.630,120.750 171.927,120.600 172.400 M119.800 174.800 C 119.650 175.273,119.617 175.750,119.727 175.860 C 119.837 175.970,120.050 175.673,120.200 175.200 C 120.350 174.727,120.383 174.250,120.273 174.140 C 120.163 174.030,119.950 174.327,119.800 174.800 M119.022 177.529 C 118.858 178.259,118.822 178.956,118.942 179.076 C 119.243 179.377,119.720 177.356,119.499 176.717 C 119.401 176.433,119.186 176.798,119.022 177.529 M118.200 180.800 C 118.048 181.491,118.014 182.147,118.124 182.257 C 118.234 182.367,118.448 181.891,118.600 181.200 C 118.752 180.509,118.786 179.853,118.676 179.743 C 118.566 179.633,118.352 180.109,118.200 180.800 M117.388 184.938 C 117.239 185.935,117.199 186.986,117.300 187.275 C 117.400 187.564,117.618 186.843,117.782 185.674 C 117.947 184.505,117.987 183.454,117.871 183.338 C 117.755 183.222,117.538 183.942,117.388 184.938 M116.659 189.488 C 116.521 190.319,116.434 192.710,116.464 194.800 L 116.519 198.600 116.830 193.404 C 117.150 188.062,117.097 186.838,116.659 189.488 M135.347 191.066 C 134.695 195.828,135.110 211.823,135.865 211.068 C 135.975 210.959,135.844 208.424,135.574 205.435 C 135.187 201.146,135.187 198.854,135.574 194.565 C 136.072 189.040,135.928 186.818,135.347 191.066 M116.447 204.433 C 116.473 206.725,116.628 209.140,116.790 209.800 C 116.952 210.460,116.996 208.660,116.888 205.800 C 116.649 199.504,116.382 198.676,116.447 204.433 M117.287 212.600 C 117.291 213.260,117.432 214.340,117.600 215.000 L 117.905 216.200 117.913 214.800 C 117.917 214.030,117.776 212.950,117.600 212.400 C 117.289 211.430,117.280 211.435,117.287 212.600 M136.046 212.400 C 136.027 212.950,136.352 214.480,136.769 215.800 C 137.186 217.120,137.543 217.853,137.564 217.428 C 137.584 217.004,137.430 216.104,137.223 215.428 C 137.015 214.753,136.673 213.570,136.463 212.800 C 136.147 211.641,136.076 211.572,136.046 212.400 M118.034 217.000 C 118.022 217.440,118.187 218.070,118.400 218.400 C 118.914 219.195,118.914 218.196,118.400 217.000 L 118.056 216.200 118.034 217.000 M118.856 220.200 C 118.856 220.640,119.011 221.360,119.200 221.800 L 119.544 222.600 119.544 221.800 C 119.544 221.360,119.389 220.640,119.200 220.200 L 118.856 219.400 118.856 220.200 M119.600 223.129 C 119.600 223.772,120.893 227.240,121.068 227.066 C 121.260 226.873,120.006 222.800,119.754 222.800 C 119.669 222.800,119.600 222.948,119.600 223.129 M121.200 227.657 C 121.200 229.050,125.510 238.593,127.588 241.800 C 128.158 242.680,128.861 243.870,129.150 244.444 C 131.553 249.219,142.349 260.935,148.800 265.769 C 154.919 270.355,166.112 276.800,167.957 276.800 C 168.206 276.800,168.723 276.966,169.105 277.168 C 170.956 278.148,174.647 279.345,180.400 280.831 C 191.599 283.722,207.953 283.555,220.000 280.427 C 221.650 279.998,223.450 279.532,224.000 279.390 C 224.550 279.249,225.360 278.986,225.800 278.806 C 226.240 278.625,227.680 278.080,229.000 277.593 C 232.814 276.187,241.118 272.274,241.600 271.655 C 241.710 271.514,242.250 271.166,242.800 270.881 C 243.350 270.597,244.250 270.000,244.800 269.555 L 245.800 268.746 244.800 269.240 C 244.250 269.511,242.720 270.393,241.400 271.199 C 238.606 272.906,231.391 276.400,230.660 276.400 C 230.385 276.400,229.989 276.543,229.780 276.718 C 229.571 276.893,228.680 277.265,227.800 277.545 C 226.920 277.824,225.840 278.200,225.400 278.381 C 224.960 278.561,223.790 278.922,222.800 279.182 C 221.810 279.441,220.460 279.805,219.800 279.990 C 210.238 282.665,197.706 283.107,185.000 281.218 C 158.402 277.263,130.214 254.128,122.354 229.800 C 121.892 228.371,121.200 227.086,121.200 227.657 " stroke="none" fill="#f6d26c" fill-rule="evenodd"></path></g></svg>