<svg id="svg" version="1.1" xmlns="http://www.w3.org/2000/svg" xmlns:xlink="http://www.w3.org/1999/xlink" width="18px" height="18px" viewBox="0, 0, 400,400"><g id="svgg"><path id="path0" d="M182.600 19.600 C 182.464 19.820,180.833 20.000,178.976 20.000 C 176.992 20.000,175.600 20.165,175.600 20.400 C 175.600 20.622,174.541 20.800,173.224 20.800 C 171.917 20.800,170.736 20.980,170.600 21.200 C 170.464 21.420,169.373 21.600,168.176 21.600 C 166.979 21.600,166.000 21.780,166.000 22.000 C 166.000 22.220,165.100 22.400,164.000 22.400 C 162.900 22.400,162.000 22.561,162.000 22.758 C 162.000 23.094,161.051 23.297,156.900 23.853 C 155.965 23.978,155.200 24.242,155.200 24.440 C 155.200 24.638,154.510 24.800,153.667 24.800 C 152.823 24.800,152.001 24.933,151.838 25.095 C 151.676 25.257,151.331 25.402,151.072 25.416 C 150.300 25.460,148.260 26.034,147.383 26.454 C 146.933 26.670,146.303 26.899,145.983 26.963 C 145.381 27.083,144.470 27.397,142.881 28.033 C 142.376 28.235,141.611 28.400,141.181 28.400 C 140.752 28.400,140.400 28.580,140.400 28.800 C 140.400 29.020,139.860 29.200,139.200 29.200 C 138.540 29.200,138.000 29.380,138.000 29.600 C 138.000 29.820,137.460 30.000,136.800 30.000 C 136.140 30.000,135.600 30.180,135.600 30.400 C 135.600 30.620,135.161 30.800,134.624 30.800 C 134.087 30.800,133.536 30.980,133.400 31.200 C 133.264 31.420,132.803 31.600,132.376 31.600 C 131.949 31.600,131.600 31.780,131.600 32.000 C 131.600 32.220,131.240 32.400,130.800 32.400 C 130.360 32.400,130.000 32.580,130.000 32.800 C 130.000 33.020,129.651 33.200,129.224 33.200 C 128.797 33.200,128.336 33.380,128.200 33.600 C 128.064 33.820,127.603 34.000,127.176 34.000 C 126.749 34.000,126.400 34.180,126.400 34.400 C 126.400 34.620,126.040 34.800,125.600 34.800 C 125.160 34.800,124.800 34.980,124.800 35.200 C 124.800 35.420,124.440 35.600,124.000 35.600 C 123.560 35.600,123.200 35.780,123.200 36.000 C 123.200 36.220,122.660 36.400,122.000 36.400 C 121.340 36.400,120.800 36.580,120.800 36.800 C 120.800 37.020,120.440 37.200,120.000 37.200 C 119.560 37.200,119.200 37.380,119.200 37.600 C 119.200 37.820,118.922 38.000,118.583 38.000 C 118.244 38.000,117.580 38.360,117.108 38.800 C 116.636 39.240,116.013 39.600,115.725 39.600 C 115.436 39.600,115.200 39.780,115.200 40.000 C 115.200 40.220,114.840 40.400,114.400 40.400 C 113.960 40.400,113.600 40.580,113.600 40.800 C 113.600 41.020,113.240 41.200,112.800 41.200 C 112.360 41.200,112.000 41.343,112.000 41.518 C 112.000 41.693,111.190 42.170,110.200 42.578 C 109.210 42.987,108.400 43.473,108.400 43.660 C 108.400 43.847,108.040 44.000,107.600 44.000 C 107.160 44.000,106.800 44.180,106.800 44.400 C 106.800 44.620,106.480 44.800,106.088 44.800 C 105.697 44.800,105.117 45.160,104.800 45.600 C 104.483 46.040,103.943 46.400,103.600 46.400 C 103.257 46.400,102.717 46.760,102.400 47.200 C 102.083 47.640,101.543 48.000,101.200 48.000 C 100.857 48.000,100.317 48.360,100.000 48.800 C 99.683 49.240,99.143 49.600,98.800 49.600 C 98.457 49.600,97.917 49.960,97.600 50.400 C 97.283 50.840,96.693 51.200,96.288 51.200 C 95.884 51.200,95.664 51.380,95.800 51.600 C 95.936 51.820,95.767 52.000,95.424 52.000 C 95.081 52.000,94.800 52.180,94.800 52.400 C 94.800 52.620,94.530 52.800,94.200 52.800 C 93.870 52.800,93.600 52.980,93.600 53.200 C 93.600 53.420,93.319 53.600,92.976 53.600 C 92.633 53.600,92.464 53.780,92.600 54.000 C 92.736 54.220,92.555 54.400,92.198 54.400 C 91.840 54.400,90.671 55.300,89.600 56.400 C 88.529 57.500,87.453 58.400,87.209 58.400 C 86.724 58.400,86.618 58.479,84.000 60.803 C 83.010 61.681,82.070 62.400,81.910 62.400 C 81.750 62.400,80.097 63.885,78.238 65.700 C 76.378 67.515,73.054 70.710,70.850 72.800 C 68.647 74.890,66.835 76.734,66.822 76.897 C 66.810 77.061,65.720 78.292,64.400 79.632 C 63.080 80.973,62.000 82.252,62.000 82.474 C 62.000 82.697,61.441 83.401,60.758 84.040 C 60.074 84.678,59.623 85.200,59.754 85.200 C 59.885 85.200,59.454 85.714,58.796 86.343 C 58.138 86.972,57.600 87.710,57.600 87.983 C 57.600 88.256,57.060 88.983,56.400 89.600 C 55.740 90.217,55.200 90.965,55.200 91.264 C 55.200 91.563,54.840 92.032,54.400 92.307 C 53.960 92.582,53.600 92.987,53.600 93.207 C 53.600 93.427,53.060 94.172,52.400 94.863 C 51.740 95.554,51.200 96.322,51.200 96.571 C 51.200 96.820,50.840 97.283,50.400 97.600 C 49.960 97.917,49.600 98.409,49.600 98.692 C 49.600 98.975,49.069 99.763,48.420 100.442 L 47.241 101.676 48.171 102.538 C 49.077 103.378,49.629 104.252,52.125 108.800 C 52.789 110.010,54.023 112.143,54.866 113.541 C 55.710 114.938,56.400 116.143,56.400 116.218 C 56.400 116.293,57.930 118.990,59.800 122.212 C 61.670 125.433,63.200 128.136,63.200 128.217 C 63.200 128.298,63.765 129.318,64.456 130.482 C 66.187 133.402,67.118 135.033,68.517 137.600 C 69.176 138.810,69.850 139.980,70.015 140.200 C 70.180 140.420,70.694 141.275,71.157 142.100 C 71.621 142.925,72.333 144.185,72.739 144.900 C 74.535 148.058,78.779 155.533,79.552 156.900 C 80.018 157.725,80.760 159.030,81.200 159.800 C 81.640 160.570,82.360 161.830,82.800 162.600 C 83.240 163.370,83.960 164.630,84.400 165.400 C 84.840 166.170,85.560 167.430,86.000 168.200 C 86.440 168.970,87.160 170.230,87.600 171.000 C 88.040 171.770,88.780 173.075,89.244 173.900 C 89.708 174.725,92.562 179.720,95.586 185.000 C 98.610 190.280,101.535 195.410,102.086 196.400 C 102.636 197.390,103.449 198.830,103.892 199.600 C 109.050 208.565,118.800 225.757,118.800 225.888 C 118.800 225.980,119.340 226.841,120.000 227.800 C 120.660 228.759,121.200 229.767,121.200 230.039 C 121.200 230.311,121.305 230.428,121.434 230.299 C 121.563 230.170,121.119 228.475,120.447 226.533 C 114.418 209.089,114.725 186.110,121.200 170.200 C 121.379 169.760,121.794 168.677,122.123 167.792 C 122.960 165.536,125.779 159.781,127.212 157.400 C 127.874 156.300,128.573 155.033,128.765 154.586 C 131.416 148.417,151.202 128.800,154.772 128.800 C 155.007 128.800,155.200 128.641,155.200 128.447 C 155.200 128.252,155.515 127.993,155.900 127.871 C 156.585 127.654,158.804 126.396,159.200 126.000 C 159.678 125.522,161.239 124.800,161.795 124.800 C 162.128 124.800,162.400 124.620,162.400 124.400 C 162.400 124.180,162.760 124.000,163.200 124.000 C 163.640 124.000,164.000 123.820,164.000 123.600 C 164.000 123.380,164.360 123.200,164.800 123.200 C 165.240 123.200,165.600 123.020,165.600 122.800 C 165.600 122.580,165.872 122.400,166.205 122.400 C 166.538 122.400,167.168 122.220,167.605 122.000 C 168.042 121.780,168.758 121.420,169.195 121.200 C 169.632 120.980,170.264 120.800,170.600 120.800 C 170.936 120.800,171.523 120.641,171.905 120.447 C 173.212 119.782,174.600 119.260,175.600 119.058 C 176.150 118.947,177.230 118.675,178.000 118.455 C 188.002 115.590,185.856 115.660,244.000 116.295 C 320.689 117.131,363.566 117.064,360.900 116.112 C 360.625 116.014,360.400 115.751,360.400 115.528 C 360.400 115.306,360.064 114.646,359.652 114.062 C 359.241 113.478,358.774 112.580,358.615 112.066 C 358.272 110.963,355.933 107.059,355.500 106.867 C 355.335 106.793,355.200 106.428,355.200 106.055 C 355.200 105.682,354.840 105.117,354.400 104.800 C 353.960 104.483,353.600 103.903,353.600 103.512 C 353.600 103.120,353.420 102.800,353.200 102.800 C 352.980 102.800,352.800 102.564,352.800 102.275 C 352.800 101.987,352.440 101.364,352.000 100.892 C 351.560 100.420,351.200 99.796,351.200 99.505 C 351.200 99.214,350.840 98.717,350.400 98.400 C 349.960 98.083,349.600 97.620,349.600 97.371 C 349.600 97.122,349.105 96.394,348.500 95.752 C 347.895 95.111,347.145 94.094,346.832 93.493 C 346.520 92.892,346.115 92.400,345.932 92.400 C 345.750 92.400,345.600 92.202,345.600 91.960 C 345.600 91.719,345.060 91.017,344.400 90.400 C 343.740 89.783,343.200 89.073,343.200 88.821 C 343.200 88.570,342.795 87.924,342.300 87.386 C 340.084 84.979,339.667 84.472,339.223 83.643 C 338.964 83.158,337.727 81.683,336.476 80.365 C 331.933 75.580,321.612 65.200,321.398 65.200 C 321.278 65.200,320.367 64.388,319.375 63.396 C 318.382 62.403,316.902 61.161,316.085 60.636 C 315.268 60.110,313.925 59.032,313.099 58.240 C 312.274 57.448,311.401 56.800,311.160 56.800 C 310.918 56.800,310.217 56.260,309.600 55.600 C 308.983 54.940,308.281 54.400,308.040 54.400 C 307.798 54.400,307.600 54.250,307.600 54.068 C 307.600 53.885,307.108 53.480,306.507 53.168 C 305.906 52.855,304.889 52.105,304.248 51.500 C 303.606 50.895,302.878 50.400,302.629 50.400 C 302.380 50.400,301.917 50.040,301.600 49.600 C 301.283 49.160,300.786 48.800,300.495 48.800 C 300.204 48.800,299.580 48.440,299.108 48.000 C 298.636 47.560,298.013 47.200,297.725 47.200 C 297.436 47.200,297.200 47.020,297.200 46.800 C 297.200 46.580,296.880 46.400,296.488 46.400 C 296.097 46.400,295.517 46.040,295.200 45.600 C 294.883 45.160,294.318 44.800,293.945 44.800 C 293.572 44.800,293.207 44.658,293.133 44.485 C 292.922 43.985,289.323 42.000,288.629 42.000 C 288.283 42.000,288.000 41.820,288.000 41.600 C 288.000 41.380,287.722 41.200,287.383 41.200 C 287.044 41.200,286.380 40.840,285.908 40.400 C 285.436 39.960,284.813 39.600,284.525 39.600 C 284.236 39.600,284.000 39.420,284.000 39.200 C 284.000 38.980,283.640 38.800,283.200 38.800 C 282.760 38.800,282.400 38.620,282.400 38.400 C 282.400 38.180,282.040 38.000,281.600 38.000 C 281.160 38.000,280.800 37.820,280.800 37.600 C 280.800 37.380,280.440 37.200,280.000 37.200 C 279.560 37.200,279.200 37.020,279.200 36.800 C 279.200 36.580,278.851 36.400,278.424 36.400 C 277.997 36.400,277.536 36.220,277.400 36.000 C 277.264 35.780,276.713 35.600,276.176 35.600 C 275.639 35.600,275.200 35.454,275.200 35.275 C 275.200 35.096,274.570 34.702,273.800 34.400 C 273.030 34.098,272.400 33.704,272.400 33.525 C 272.400 33.346,272.051 33.200,271.624 33.200 C 271.197 33.200,270.736 33.020,270.600 32.800 C 270.464 32.580,269.913 32.400,269.376 32.400 C 268.839 32.400,268.400 32.253,268.400 32.072 C 268.400 31.892,267.500 31.500,266.400 31.200 C 265.300 30.900,264.400 30.508,264.400 30.328 C 264.400 30.147,263.860 30.000,263.200 30.000 C 262.540 30.000,262.000 29.820,262.000 29.600 C 262.000 29.380,261.640 29.200,261.200 29.200 C 260.760 29.200,260.400 29.020,260.400 28.800 C 260.400 28.580,259.871 28.400,259.224 28.400 C 258.577 28.400,257.936 28.220,257.800 28.000 C 257.664 27.780,257.034 27.600,256.400 27.600 C 255.766 27.600,255.136 27.420,255.000 27.200 C 254.864 26.980,254.401 26.800,253.971 26.800 C 253.541 26.800,252.877 26.637,252.495 26.437 C 251.111 25.714,247.474 24.800,245.978 24.800 C 245.136 24.800,244.336 24.620,244.200 24.400 C 244.064 24.180,243.344 24.000,242.600 24.000 C 241.856 24.000,241.136 23.820,241.000 23.600 C 240.864 23.380,240.133 23.200,239.376 23.200 C 238.619 23.200,238.000 23.020,238.000 22.800 C 238.000 22.580,237.111 22.400,236.024 22.400 C 234.937 22.400,233.936 22.220,233.800 22.000 C 233.664 21.780,232.573 21.600,231.376 21.600 C 230.179 21.600,229.200 21.420,229.200 21.200 C 229.200 20.971,228.000 20.800,226.400 20.800 C 224.800 20.800,223.600 20.629,223.600 20.400 C 223.600 20.163,222.141 20.000,220.024 20.000 C 218.057 20.000,216.336 19.820,216.200 19.600 C 215.861 19.052,182.939 19.052,182.600 19.600 " stroke="none" fill="#235ab0" fill-rule="evenodd"></path><path id="path1" d="M47.359 102.736 C 46.811 103.126,42.800 109.824,42.800 110.349 C 42.800 110.597,42.620 110.800,42.400 110.800 C 42.180 110.800,42.000 111.160,42.000 111.600 C 42.000 112.040,41.854 112.400,41.675 112.400 C 41.496 112.400,41.102 113.030,40.800 113.800 C 40.498 114.570,40.104 115.200,39.925 115.200 C 39.746 115.200,39.600 115.524,39.600 115.920 C 39.600 116.316,39.437 116.811,39.238 117.020 C 38.580 117.710,37.200 120.413,37.200 121.012 C 37.200 121.335,37.020 121.600,36.800 121.600 C 36.580 121.600,36.400 121.960,36.400 122.400 C 36.400 122.840,36.220 123.200,36.000 123.200 C 35.780 123.200,35.600 123.435,35.600 123.721 C 35.600 124.008,35.168 125.133,34.640 126.221 C 33.565 128.439,32.441 131.031,31.093 134.400 C 30.873 134.950,30.545 135.760,30.364 136.200 C 30.184 136.640,29.447 138.800,28.727 141.000 C 28.007 143.200,27.324 145.090,27.209 145.200 C 27.094 145.310,26.937 145.850,26.861 146.400 C 26.785 146.950,26.537 147.625,26.312 147.900 C 26.087 148.175,26.006 148.400,26.133 148.400 C 26.260 148.400,26.109 149.123,25.798 150.007 C 25.486 150.891,25.333 151.881,25.458 152.207 C 25.583 152.533,25.486 152.800,25.243 152.800 C 24.994 152.800,24.800 153.491,24.800 154.376 C 24.800 155.243,24.620 156.064,24.400 156.200 C 24.180 156.336,24.000 157.067,24.000 157.824 C 24.000 158.581,23.820 159.200,23.600 159.200 C 23.380 159.200,23.200 159.909,23.200 160.776 C 23.200 161.643,23.020 162.464,22.800 162.600 C 22.580 162.736,22.400 163.726,22.400 164.800 C 22.400 165.874,22.220 166.864,22.000 167.000 C 21.780 167.136,21.600 168.216,21.600 169.400 C 21.600 170.584,21.420 171.664,21.200 171.800 C 20.980 171.936,20.800 173.016,20.800 174.200 C 20.800 175.384,20.620 176.464,20.400 176.600 C 20.180 176.736,20.000 178.511,20.000 180.544 C 20.000 182.577,19.814 184.426,19.586 184.654 C 18.763 185.477,19.568 222.501,20.428 223.380 C 20.633 223.589,20.800 224.883,20.800 226.256 C 20.800 227.629,20.980 228.864,21.200 229.000 C 21.420 229.136,21.600 230.126,21.600 231.200 C 21.600 232.274,21.780 233.264,22.000 233.400 C 22.220 233.536,22.400 234.537,22.400 235.624 C 22.400 236.711,22.580 237.600,22.800 237.600 C 23.020 237.600,23.200 238.320,23.200 239.200 C 23.200 240.080,23.380 240.800,23.600 240.800 C 23.820 240.800,24.000 241.509,24.000 242.376 C 24.000 243.243,24.180 244.064,24.400 244.200 C 24.620 244.336,24.800 245.067,24.800 245.824 C 24.800 246.581,24.999 247.200,25.243 247.200 C 25.486 247.200,25.583 247.467,25.458 247.793 C 25.333 248.119,25.480 249.093,25.785 249.957 C 26.090 250.821,26.237 251.630,26.112 251.754 C 25.988 251.879,26.126 252.270,26.420 252.624 C 26.713 252.977,26.985 253.567,27.023 253.933 C 27.094 254.615,28.958 260.358,29.576 261.800 C 29.765 262.240,30.139 263.230,30.407 264.000 C 30.675 264.770,31.143 265.985,31.447 266.700 C 31.751 267.415,32.285 268.675,32.634 269.500 C 32.982 270.325,33.432 271.313,33.634 271.695 C 33.835 272.077,34.000 272.662,34.000 272.995 C 34.000 273.328,34.180 273.600,34.400 273.600 C 34.620 273.600,34.800 273.960,34.800 274.400 C 34.800 274.840,34.980 275.200,35.200 275.200 C 35.420 275.200,35.600 275.549,35.600 275.976 C 35.600 276.403,35.780 276.864,36.000 277.000 C 36.220 277.136,36.400 277.582,36.400 277.990 C 36.400 278.399,36.536 278.793,36.702 278.867 C 36.868 278.940,37.632 280.260,38.400 281.800 C 39.168 283.340,39.932 284.660,40.098 284.733 C 40.264 284.807,40.400 285.212,40.400 285.633 C 40.400 286.055,40.543 286.400,40.718 286.400 C 40.893 286.400,41.380 287.234,41.801 288.254 C 42.221 289.274,42.777 290.320,43.036 290.579 C 43.295 290.838,43.890 291.759,44.358 292.625 C 46.445 296.489,50.328 302.535,50.850 302.733 C 51.042 302.807,51.200 303.122,51.200 303.433 C 51.200 303.745,51.338 304.000,51.506 304.000 C 51.674 304.000,52.256 304.720,52.800 305.600 C 53.344 306.480,53.926 307.200,54.094 307.200 C 54.262 307.200,54.400 307.470,54.400 307.800 C 54.400 308.130,54.580 308.400,54.800 308.400 C 55.020 308.400,55.200 308.598,55.200 308.840 C 55.200 309.081,55.695 309.756,56.300 310.340 C 56.905 310.923,57.632 311.850,57.916 312.400 C 58.450 313.436,59.142 314.279,63.324 318.988 C 69.527 325.972,72.898 329.424,77.246 333.245 C 78.595 334.430,80.082 335.785,80.549 336.256 C 81.017 336.727,82.480 337.979,83.800 339.038 C 85.120 340.097,86.549 341.287,86.975 341.682 C 87.402 342.077,87.915 342.400,88.115 342.400 C 88.315 342.400,88.983 342.940,89.600 343.600 C 90.217 344.260,90.891 344.800,91.098 344.800 C 91.306 344.800,91.818 345.178,92.237 345.641 C 92.656 346.103,93.476 346.729,94.061 347.032 C 94.646 347.334,95.366 347.822,95.662 348.116 C 96.358 348.807,103.490 353.600,103.823 353.600 C 103.962 353.600,104.559 353.944,105.150 354.364 C 106.178 355.096,107.676 355.950,111.600 358.041 C 112.590 358.568,113.490 359.102,113.600 359.227 C 113.973 359.651,123.797 364.401,124.300 364.400 C 124.575 364.400,124.800 364.536,124.800 364.702 C 124.800 364.869,125.385 365.247,126.100 365.543 C 126.815 365.839,128.120 366.399,129.000 366.787 C 129.880 367.175,131.320 367.741,132.200 368.044 C 133.080 368.347,133.890 368.702,134.000 368.832 C 134.110 368.963,135.055 369.318,136.100 369.622 C 137.145 369.926,138.000 370.315,138.000 370.487 C 138.000 370.659,138.452 370.800,139.005 370.800 C 139.558 370.800,140.323 370.959,140.705 371.153 C 142.148 371.887,143.485 372.340,146.200 373.013 C 147.740 373.395,149.171 373.863,149.380 374.054 C 149.589 374.244,150.343 374.400,151.056 374.400 C 151.769 374.400,152.464 374.580,152.600 374.800 C 152.736 375.020,153.456 375.200,154.200 375.200 C 154.944 375.200,155.664 375.380,155.800 375.600 C 155.936 375.820,156.656 376.000,157.400 376.000 C 158.144 376.000,158.864 376.180,159.000 376.400 C 159.136 376.620,159.957 376.800,160.824 376.800 C 161.691 376.800,162.400 376.980,162.400 377.200 C 162.400 377.420,163.264 377.600,164.320 377.600 C 165.376 377.600,166.411 377.763,166.620 377.963 C 166.987 378.313,168.718 378.574,173.800 379.045 C 175.120 379.167,176.371 379.432,176.580 379.634 C 176.789 379.835,178.443 380.000,180.256 380.000 C 182.069 380.000,183.664 380.180,183.800 380.400 C 183.936 380.620,185.432 380.792,187.124 380.783 L 190.200 380.766 193.311 375.283 C 195.022 372.267,197.430 368.090,198.663 366.000 C 199.895 363.910,201.217 361.660,201.600 361.000 C 201.984 360.340,203.244 358.180,204.400 356.200 C 205.556 354.220,206.816 352.060,207.198 351.400 C 207.580 350.740,210.373 345.970,213.404 340.800 C 216.435 335.630,219.233 330.839,219.621 330.153 C 220.009 329.468,221.063 327.694,221.963 326.212 C 222.863 324.731,223.600 323.450,223.600 323.366 C 223.600 323.283,224.336 322.011,225.236 320.541 C 226.136 319.070,227.875 316.142,229.101 314.034 C 233.878 305.812,236.767 300.854,238.792 297.400 C 239.953 295.420,241.214 293.260,241.594 292.600 C 241.974 291.940,244.021 288.451,246.143 284.847 C 248.264 281.242,250.000 278.240,250.000 278.176 C 250.000 278.111,250.900 276.592,252.000 274.800 C 253.100 273.008,254.000 271.447,254.000 271.332 C 254.000 271.217,254.339 270.646,254.753 270.062 C 255.167 269.478,255.864 268.370,256.301 267.600 C 256.738 266.830,259.009 262.902,261.348 258.871 C 263.687 254.840,265.600 251.355,265.600 251.128 C 265.600 250.689,262.178 254.342,261.258 255.763 C 260.960 256.223,261.275 255.991,261.958 255.246 C 263.225 253.864,263.600 254.096,262.700 255.705 C 262.425 256.197,262.110 256.690,262.000 256.800 C 261.890 256.910,261.575 257.405,261.300 257.900 C 261.025 258.395,260.575 259.205,260.300 259.700 C 260.025 260.195,259.710 260.690,259.600 260.800 C 259.490 260.910,259.158 261.430,258.862 261.955 C 258.119 263.275,256.941 265.352,256.059 266.900 C 255.651 267.615,254.186 270.090,252.802 272.400 C 251.419 274.710,249.532 277.950,248.610 279.600 C 245.855 284.524,245.131 285.779,244.800 286.200 C 244.627 286.420,244.106 287.275,243.643 288.100 C 241.433 292.033,241.056 292.671,240.353 293.662 C 239.939 294.246,239.600 294.812,239.600 294.921 C 239.600 295.029,238.863 296.331,237.963 297.812 C 237.063 299.294,236.003 301.068,235.609 301.753 C 235.214 302.439,233.908 304.710,232.708 306.800 C 231.507 308.890,229.931 311.590,229.206 312.800 C 227.990 314.830,227.377 315.889,225.938 318.445 C 225.642 318.970,225.310 319.490,225.199 319.600 C 225.089 319.710,224.729 320.340,224.400 321.000 C 224.071 321.660,223.711 322.290,223.601 322.400 C 223.406 322.594,223.219 322.913,221.516 325.955 C 221.070 326.750,220.367 327.878,219.953 328.462 C 219.539 329.046,219.200 329.614,219.200 329.725 C 219.200 329.836,217.490 332.830,215.400 336.379 C 213.310 339.928,211.600 343.004,211.600 343.216 C 211.600 343.427,211.441 343.600,211.247 343.600 C 211.052 343.600,210.787 343.915,210.658 344.300 C 210.413 345.026,209.421 346.793,208.277 348.538 C 207.913 349.094,207.252 350.190,206.808 350.974 C 205.263 353.701,204.492 355.027,201.794 359.600 C 196.544 368.495,195.200 370.867,195.200 371.232 C 195.200 371.434,195.065 371.601,194.900 371.603 C 194.735 371.605,194.402 372.010,194.160 372.503 C 192.229 376.436,190.973 378.307,190.550 377.883 C 190.367 377.700,192.764 351.474,195.181 327.200 C 195.587 323.130,196.700 311.565,197.656 301.500 L 199.393 283.200 203.797 283.194 C 206.220 283.191,208.470 282.999,208.800 282.767 C 209.231 282.465,208.627 282.420,206.662 282.609 C 193.308 283.891,178.673 281.509,166.300 276.040 C 161.800 274.051,160.383 273.321,156.600 271.044 C 147.969 265.848,138.844 257.768,133.706 250.771 C 132.667 249.357,131.698 248.110,131.551 248.000 C 130.586 247.277,124.612 236.630,123.420 233.508 C 123.005 232.421,122.520 231.726,122.281 231.874 C 122.023 232.033,121.963 231.874,122.122 231.458 C 122.264 231.088,122.035 229.933,121.612 228.892 C 121.189 227.852,120.834 227.237,120.822 227.526 C 120.810 227.816,120.991 228.410,121.225 228.847 C 121.459 229.284,121.594 229.936,121.525 230.295 C 121.456 230.654,119.934 228.350,118.144 225.174 C 114.534 218.770,113.596 217.105,112.357 214.900 C 111.894 214.075,111.380 213.220,111.215 213.000 C 111.050 212.780,110.370 211.610,109.704 210.400 C 108.359 207.957,106.842 205.277,102.120 197.000 C 100.363 193.920,98.472 190.590,97.919 189.600 C 95.531 185.326,95.097 184.578,94.784 184.191 C 94.602 183.966,93.929 182.796,93.288 181.591 C 92.204 179.552,91.573 178.426,89.647 175.100 C 86.759 170.111,81.200 160.310,81.200 160.207 C 81.200 160.138,80.480 158.897,79.600 157.448 C 78.720 156.000,78.000 154.631,78.000 154.407 C 78.000 154.183,77.820 154.000,77.600 154.000 C 77.380 154.000,77.200 153.844,77.200 153.652 C 77.200 153.461,74.026 147.746,70.147 140.952 C 66.268 134.159,62.567 127.614,61.921 126.409 C 61.275 125.204,60.605 124.034,60.431 123.809 C 60.257 123.584,59.571 122.410,58.907 121.200 C 51.674 108.035,48.052 102.244,47.359 102.736 M193.400 115.971 C 191.860 116.097,194.830 116.204,200.000 116.210 C 206.408 116.217,208.254 116.135,205.800 115.952 C 201.611 115.641,197.347 115.647,193.400 115.971 M186.000 116.800 L 184.200 117.080 185.800 117.093 C 186.680 117.100,187.940 116.968,188.600 116.800 C 190.200 116.393,188.619 116.393,186.000 116.800 M216.000 116.805 C 221.364 117.103,298.686 117.335,298.367 117.052 C 298.275 116.970,278.490 116.813,254.400 116.704 C 230.310 116.594,213.030 116.639,216.000 116.805 M335.400 117.200 L 310.200 117.409 333.200 117.595 C 345.850 117.698,357.393 117.789,358.852 117.798 C 360.833 117.810,361.454 117.686,361.309 117.307 C 361.202 117.028,360.999 116.843,360.857 116.895 C 360.716 116.948,349.260 117.085,335.400 117.200 M181.600 117.600 C 180.808 117.854,180.767 117.920,181.400 117.920 C 181.840 117.920,182.650 117.776,183.200 117.600 C 183.992 117.346,184.033 117.280,183.400 117.280 C 182.960 117.280,182.150 117.424,181.600 117.600 M178.600 118.400 C 177.493 118.682,177.477 118.709,178.400 118.747 C 178.950 118.769,179.670 118.613,180.000 118.400 C 180.681 117.960,180.329 117.960,178.600 118.400 M175.800 119.074 C 174.468 119.377,171.572 120.506,171.728 120.662 C 171.863 120.796,174.680 119.934,176.600 119.172 C 177.464 118.829,177.086 118.783,175.800 119.074 M166.900 122.234 C 166.185 122.546,165.600 122.890,165.600 122.998 C 165.600 123.176,168.776 122.051,169.167 121.735 C 169.595 121.388,168.062 121.726,166.900 122.234 M156.000 128.036 C 155.336 128.579,155.269 128.715,155.800 128.440 C 157.105 127.766,157.828 127.212,157.400 127.215 C 157.180 127.217,156.550 127.586,156.000 128.036 M153.344 129.569 C 152.653 129.990,151.957 130.546,151.798 130.804 C 151.639 131.061,152.249 130.782,153.154 130.183 C 154.579 129.240,155.076 128.796,154.700 128.801 C 154.645 128.802,154.035 129.148,153.344 129.569 M147.953 133.555 C 142.074 138.279,136.107 144.372,132.653 149.179 C 130.442 152.257,131.263 151.589,133.745 148.290 C 137.322 143.537,146.528 134.511,149.487 132.855 C 149.876 132.638,150.105 132.373,149.997 132.266 C 149.889 132.159,148.969 132.739,147.953 133.555 M192.400 135.858 C 190.825 136.011,188.857 136.383,183.200 137.597 C 182.430 137.762,180.900 138.201,179.800 138.572 C 178.700 138.943,177.549 139.330,177.243 139.432 C 176.936 139.535,176.772 139.706,176.879 139.812 C 176.985 139.918,178.458 139.565,180.152 139.028 C 181.846 138.490,184.260 137.851,185.516 137.607 C 186.772 137.363,188.700 136.961,189.800 136.715 C 190.902 136.469,195.303 136.267,199.600 136.267 C 203.897 136.267,208.298 136.469,209.400 136.715 C 210.500 136.961,212.480 137.374,213.800 137.631 C 215.120 137.889,217.520 138.543,219.133 139.084 C 222.291 140.144,223.526 140.133,220.709 139.071 C 218.785 138.345,215.542 137.474,211.400 136.568 C 208.617 135.960,196.151 135.494,192.400 135.858 M174.053 140.653 C 173.313 140.976,172.790 141.324,172.892 141.425 C 173.104 141.637,176.000 140.490,176.000 140.195 C 176.000 139.898,175.529 140.009,174.053 140.653 M223.200 140.195 C 223.200 140.488,226.095 141.638,226.305 141.429 C 226.405 141.329,225.815 140.966,224.994 140.623 C 223.368 139.944,223.200 139.904,223.200 140.195 M230.800 144.000 C 231.350 144.430,231.980 144.782,232.200 144.782 C 232.420 144.782,232.150 144.430,231.600 144.000 C 231.050 143.570,230.420 143.218,230.200 143.218 C 229.980 143.218,230.250 143.570,230.800 144.000 M165.360 145.332 C 157.746 150.066,150.148 157.612,145.154 165.400 C 143.514 167.959,143.126 168.800,143.586 168.800 C 143.814 168.800,144.000 168.607,144.000 168.372 C 144.000 168.137,144.540 167.159,145.200 166.200 C 145.860 165.241,146.400 164.263,146.400 164.028 C 146.400 163.793,146.535 163.599,146.700 163.597 C 146.865 163.596,147.450 162.921,148.000 162.097 C 150.431 158.457,157.324 151.514,161.200 148.802 C 161.970 148.263,162.923 147.526,163.318 147.165 C 163.712 146.803,164.837 146.095,165.818 145.591 C 166.798 145.087,167.600 144.523,167.600 144.337 C 167.600 143.912,167.755 143.843,165.360 145.332 M232.800 145.167 C 232.800 145.405,233.070 145.600,233.400 145.600 C 233.730 145.600,234.000 145.780,234.000 146.000 C 234.000 146.220,234.236 146.400,234.525 146.400 C 234.813 146.400,235.398 146.720,235.825 147.111 C 236.251 147.502,237.230 148.263,238.000 148.802 C 243.191 152.435,253.438 163.814,254.298 166.900 C 254.406 167.285,254.652 167.600,254.847 167.600 C 255.041 167.600,255.200 167.870,255.200 168.200 C 255.200 168.530,255.380 168.800,255.600 168.800 C 255.820 168.800,256.000 169.160,256.000 169.600 C 256.000 170.040,256.180 170.400,256.400 170.400 C 257.998 170.400,250.659 159.937,245.240 154.488 C 240.832 150.057,232.800 144.039,232.800 145.167 M128.614 155.035 C 128.241 155.604,128.027 156.161,128.139 156.272 C 128.250 156.383,128.629 155.918,128.981 155.237 C 129.759 153.733,129.544 153.615,128.614 155.035 M126.214 159.035 C 125.841 159.604,125.627 160.161,125.739 160.272 C 125.850 160.383,126.229 159.918,126.581 159.237 C 127.359 157.733,127.144 157.615,126.214 159.035 M123.872 163.819 C 122.932 165.789,123.064 166.124,124.047 164.262 C 124.493 163.416,124.787 162.654,124.701 162.567 C 124.614 162.481,124.241 163.044,123.872 163.819 M122.196 167.472 C 121.858 168.281,121.633 169.100,121.697 169.291 C 121.761 169.482,122.116 168.820,122.487 167.819 C 123.293 165.645,123.070 165.379,122.196 167.472 M139.025 177.891 C 137.854 181.129,137.688 181.694,136.874 185.200 C 134.129 197.030,134.691 209.358,138.489 220.600 C 138.935 221.920,139.452 223.270,139.638 223.600 C 140.305 224.785,139.981 223.246,139.033 220.725 C 134.673 209.143,134.676 191.346,139.039 179.281 C 139.620 177.675,140.010 176.276,139.905 176.172 C 139.801 176.068,139.405 176.841,139.025 177.891 M260.006 178.676 C 260.003 179.158,260.180 179.664,260.400 179.800 C 260.909 180.115,260.909 179.188,260.400 178.400 C 260.085 177.912,260.011 177.964,260.006 178.676 M118.229 179.829 C 118.081 180.415,118.038 180.972,118.132 181.066 C 118.227 181.160,118.424 180.758,118.571 180.171 C 118.719 179.585,118.762 179.028,118.668 178.934 C 118.573 178.840,118.376 179.242,118.229 179.829 M260.806 181.076 C 260.803 181.558,260.980 182.064,261.200 182.200 C 261.709 182.515,261.709 181.588,261.200 180.800 C 260.885 180.312,260.811 180.364,260.806 181.076 M117.440 183.240 C 117.293 184.157,117.252 184.985,117.347 185.080 C 117.442 185.176,117.646 184.510,117.800 183.600 C 117.954 182.690,117.996 181.862,117.893 181.760 C 117.790 181.657,117.587 182.323,117.440 183.240 M261.634 183.800 C 261.622 184.240,261.787 184.870,262.000 185.200 C 262.514 185.995,262.514 184.996,262.000 183.800 L 261.656 183.000 261.634 183.800 M116.633 188.433 C 116.483 189.566,116.441 190.574,116.539 190.672 C 116.637 190.771,116.845 189.928,117.000 188.800 C 117.155 187.672,117.198 186.664,117.094 186.561 C 116.991 186.458,116.784 187.300,116.633 188.433 M262.449 187.000 C 262.430 187.440,262.678 189.510,263.000 191.600 C 263.767 196.575,263.754 203.337,262.969 208.624 C 262.622 210.960,262.430 212.964,262.543 213.076 C 262.656 213.189,262.854 212.588,262.984 211.741 C 263.113 210.893,263.394 209.331,263.609 208.269 C 264.139 205.651,264.105 194.421,263.557 191.424 C 262.869 187.656,262.486 186.126,262.449 187.000 M116.144 199.600 C 116.144 201.690,116.212 202.545,116.294 201.500 C 116.376 200.455,116.376 198.745,116.294 197.700 C 116.212 196.655,116.144 197.510,116.144 199.600 M116.470 208.600 C 116.457 209.040,116.595 210.120,116.777 211.000 C 117.055 212.345,117.108 212.409,117.107 211.400 C 117.105 209.999,116.508 207.370,116.470 208.600 M117.287 214.200 C 117.291 214.640,117.432 215.540,117.600 216.200 C 117.874 217.278,117.906 217.298,117.913 216.400 C 117.917 215.850,117.776 214.950,117.600 214.400 C 117.349 213.616,117.281 213.573,117.287 214.200 M261.892 214.642 C 261.731 214.802,261.611 215.398,261.625 215.967 L 261.651 217.000 262.037 216.034 C 262.453 214.994,262.367 214.167,261.892 214.642 M261.088 217.733 C 260.610 218.949,260.724 219.973,261.239 219.087 C 261.467 218.696,261.591 218.066,261.515 217.687 C 261.388 217.060,261.351 217.064,261.088 217.733 M118.056 218.000 C 118.056 218.330,118.211 218.960,118.400 219.400 C 118.617 219.904,118.744 219.978,118.744 219.600 C 118.744 219.270,118.589 218.640,118.400 218.200 C 118.183 217.696,118.056 217.622,118.056 218.000 M260.267 220.267 C 260.120 220.413,260.011 220.908,260.025 221.367 C 260.049 222.133,260.082 222.123,260.434 221.242 C 260.826 220.263,260.744 219.789,260.267 220.267 M119.829 224.800 C 119.976 225.350,120.264 226.070,120.467 226.400 C 120.725 226.817,120.757 226.695,120.571 226.000 C 120.424 225.450,120.136 224.730,119.933 224.400 C 119.675 223.983,119.643 224.105,119.829 224.800 M256.000 230.400 C 256.000 230.840,255.820 231.200,255.600 231.200 C 255.380 231.200,255.200 231.470,255.200 231.800 C 255.200 232.130,255.064 232.400,254.898 232.400 C 254.731 232.400,254.371 232.895,254.097 233.500 C 252.274 237.526,243.058 247.659,238.000 251.198 C 237.230 251.737,236.251 252.498,235.825 252.889 C 235.398 253.280,234.813 253.600,234.525 253.600 C 234.236 253.600,234.000 253.736,234.000 253.902 C 234.000 254.069,233.505 254.430,232.900 254.706 C 232.295 254.982,231.350 255.578,230.800 256.031 L 229.800 256.854 230.800 256.367 C 239.109 252.322,249.178 242.612,254.986 233.045 C 256.918 229.862,257.025 229.600,256.400 229.600 C 256.180 229.600,256.000 229.960,256.000 230.400 M143.628 232.053 C 146.851 238.075,154.963 247.375,160.155 251.000 C 160.785 251.440,161.773 252.173,162.350 252.629 C 163.318 253.392,168.075 256.304,169.000 256.699 C 169.914 257.089,167.309 255.166,166.300 254.706 C 165.695 254.430,165.200 254.069,165.200 253.902 C 165.200 253.736,164.964 253.600,164.675 253.600 C 164.387 253.600,163.802 253.278,163.375 252.883 C 162.949 252.489,161.790 251.606,160.800 250.921 C 157.965 248.959,148.803 239.800,148.798 238.923 C 148.797 238.746,148.257 238.025,147.598 237.322 C 146.939 236.619,146.400 235.931,146.400 235.794 C 146.400 235.656,145.860 234.759,145.200 233.800 C 144.540 232.841,144.000 231.863,144.000 231.628 C 144.000 231.393,143.814 231.200,143.586 231.200 C 143.314 231.200,143.328 231.492,143.628 232.053 M258.400 258.600 C 257.428 259.590,256.723 260.400,256.833 260.400 C 256.943 260.400,257.828 259.590,258.800 258.600 C 259.772 257.610,260.477 256.800,260.367 256.800 C 260.257 256.800,259.372 257.610,258.400 258.600 M174.000 259.200 C 175.610 260.081,176.000 260.159,176.000 259.600 C 176.000 259.380,175.651 259.200,175.224 259.200 C 174.797 259.200,174.336 259.020,174.200 258.800 C 174.064 258.580,173.648 258.408,173.276 258.417 C 172.876 258.427,173.171 258.746,174.000 259.200 M225.000 258.800 C 224.864 259.020,224.403 259.200,223.976 259.200 C 223.549 259.200,223.200 259.380,223.200 259.600 C 223.200 260.159,223.590 260.081,225.200 259.200 C 226.029 258.746,226.324 258.427,225.924 258.417 C 225.552 258.408,225.136 258.580,225.000 258.800 M179.200 261.200 C 179.530 261.413,180.070 261.588,180.400 261.588 C 180.933 261.588,180.933 261.545,180.400 261.200 C 180.070 260.987,179.530 260.812,179.200 260.812 C 178.667 260.812,178.667 260.855,179.200 261.200 M218.800 261.200 C 218.267 261.545,218.267 261.588,218.800 261.588 C 219.130 261.588,219.670 261.413,220.000 261.200 C 220.533 260.855,220.533 260.812,220.000 260.812 C 219.670 260.812,219.130 260.987,218.800 261.200 M181.800 262.000 C 182.911 262.478,183.695 262.478,183.400 262.000 C 183.264 261.780,182.668 261.613,182.076 261.628 C 181.115 261.653,181.086 261.693,181.800 262.000 M215.800 262.000 L 215.000 262.344 215.800 262.366 C 216.240 262.378,216.870 262.213,217.200 262.000 C 217.995 261.486,216.996 261.486,215.800 262.000 M254.182 262.420 C 252.975 263.754,246.445 268.563,243.077 270.600 C 241.360 271.638,240.033 272.567,240.130 272.664 C 240.227 272.760,240.942 272.426,241.719 271.920 C 242.497 271.414,244.494 270.136,246.158 269.079 C 247.822 268.023,249.413 266.937,249.692 266.666 C 249.971 266.395,250.830 265.733,251.600 265.193 C 253.306 263.999,255.760 261.600,255.275 261.600 C 255.082 261.600,254.590 261.969,254.182 262.420 M185.200 262.789 C 189.636 264.232,204.605 264.764,210.000 263.669 C 211.430 263.379,213.026 263.056,213.547 262.951 C 214.068 262.847,214.412 262.679,214.312 262.578 C 214.211 262.478,212.525 262.692,210.565 263.055 C 205.667 263.960,193.539 263.961,188.648 263.057 C 184.866 262.358,183.565 262.256,185.200 262.789 M225.400 278.800 C 224.629 279.131,224.631 279.145,225.476 279.172 C 225.958 279.187,226.464 279.020,226.600 278.800 C 226.892 278.327,226.501 278.327,225.400 278.800 M222.400 279.600 C 221.445 279.906,221.457 279.922,222.676 279.960 C 223.378 279.982,224.064 279.820,224.200 279.600 C 224.484 279.140,223.836 279.140,222.400 279.600 M219.600 280.400 L 218.600 280.720 219.676 280.760 C 220.268 280.782,220.864 280.620,221.000 280.400 C 221.281 279.945,221.020 279.945,219.600 280.400 M216.000 281.200 L 214.600 281.495 216.276 281.547 C 217.198 281.576,218.064 281.420,218.200 281.200 C 218.472 280.760,218.091 280.760,216.000 281.200 M211.200 282.000 L 209.400 282.280 211.400 282.334 C 212.500 282.363,213.670 282.213,214.000 282.000 C 214.703 281.546,214.123 281.546,211.200 282.000 " stroke="none" fill="#538beb" fill-rule="evenodd"></path><path id="path2" d="M190.200 116.825 C 185.854 117.418,182.233 118.077,180.000 118.681 C 178.790 119.009,177.170 119.420,176.400 119.594 C 175.630 119.769,173.470 120.489,171.600 121.195 C 169.730 121.901,167.860 122.579,167.443 122.701 C 166.644 122.936,160.418 126.083,157.926 127.512 C 142.370 136.433,130.023 150.704,122.375 168.600 C 114.824 186.270,114.825 212.559,122.376 230.200 C 122.564 230.640,123.028 231.720,123.406 232.600 C 138.664 268.090,174.237 287.138,214.200 281.217 C 232.348 278.528,253.614 265.831,264.800 251.007 C 265.790 249.695,267.364 247.807,268.298 246.811 C 269.232 245.815,269.997 244.790,269.998 244.533 C 269.999 244.277,270.135 244.007,270.300 243.933 C 270.866 243.682,273.600 238.879,273.600 238.136 C 273.600 237.727,273.960 237.168,274.400 236.893 C 274.840 236.618,275.200 236.035,275.200 235.597 C 275.200 235.158,275.380 234.800,275.600 234.800 C 275.820 234.800,276.000 234.440,276.000 234.000 C 276.000 233.560,276.180 233.200,276.400 233.200 C 276.620 233.200,276.800 232.851,276.800 232.424 C 276.800 231.997,276.980 231.536,277.200 231.400 C 277.420 231.264,277.600 230.713,277.600 230.176 C 277.600 229.639,277.780 229.200,278.000 229.200 C 278.220 229.200,278.400 228.838,278.400 228.395 C 278.400 227.952,278.580 227.232,278.800 226.795 C 279.020 226.358,279.380 225.642,279.600 225.205 C 279.820 224.768,280.000 223.868,280.000 223.205 C 280.000 222.542,280.180 222.000,280.400 222.000 C 280.620 222.000,280.800 221.381,280.800 220.624 C 280.800 219.867,280.980 219.136,281.200 219.000 C 281.420 218.864,281.600 218.144,281.600 217.400 C 281.600 216.656,281.780 215.936,282.000 215.800 C 282.220 215.664,282.400 214.519,282.400 213.256 C 282.400 211.993,282.592 210.768,282.826 210.534 C 283.412 209.948,283.410 188.850,282.824 188.264 C 282.591 188.031,282.400 186.807,282.400 185.544 C 282.400 184.281,282.220 183.136,282.000 183.000 C 281.780 182.864,281.600 182.144,281.600 181.400 C 281.600 180.656,281.420 179.936,281.200 179.800 C 280.980 179.664,280.800 178.944,280.800 178.200 C 280.800 177.456,280.620 176.736,280.400 176.600 C 280.180 176.464,280.000 175.823,280.000 175.176 C 280.000 174.529,279.820 174.000,279.600 174.000 C 279.380 174.000,279.200 173.460,279.200 172.800 C 279.200 172.140,279.020 171.600,278.800 171.600 C 278.580 171.600,278.400 171.238,278.400 170.795 C 278.400 170.352,278.220 169.632,278.000 169.195 C 277.780 168.758,277.420 168.042,277.200 167.605 C 276.980 167.168,276.800 166.538,276.800 166.205 C 276.800 165.872,276.620 165.600,276.400 165.600 C 276.180 165.600,276.000 165.240,276.000 164.800 C 276.000 164.360,275.820 164.000,275.600 164.000 C 275.380 164.000,275.200 163.761,275.200 163.468 C 275.200 162.741,273.626 159.704,272.365 157.999 C 271.796 157.230,270.859 155.771,270.282 154.757 C 268.977 152.464,264.810 146.819,263.148 145.092 C 262.464 144.381,261.298 143.064,260.556 142.163 C 257.507 138.464,244.406 128.000,242.822 128.000 C 242.590 128.000,242.399 127.865,242.397 127.700 C 242.395 127.535,241.990 127.196,241.497 126.947 C 241.004 126.698,238.986 125.667,237.014 124.656 C 235.041 123.645,232.971 122.640,232.414 122.422 C 223.092 118.776,219.094 117.758,211.043 116.984 C 204.604 116.364,194.161 116.285,190.200 116.825 M208.000 135.773 C 265.406 144.049,284.656 216.972,238.600 251.692 C 217.561 267.553,185.984 269.050,165.728 255.148 C 164.808 254.516,163.954 254.000,163.830 254.000 C 161.627 254.000,150.195 242.514,145.317 235.400 C 131.603 215.401,131.603 184.599,145.317 164.600 C 159.871 143.375,183.943 132.305,208.000 135.773 " stroke="none" fill="#c6d8fb" fill-rule="evenodd"></path><path id="path3" d="M198.100 116.291 C 198.925 116.378,200.275 116.378,201.100 116.291 C 201.925 116.205,201.250 116.134,199.600 116.134 C 197.950 116.134,197.275 116.205,198.100 116.291 M190.305 116.683 C 190.802 116.779,191.522 116.775,191.905 116.675 C 192.287 116.575,191.880 116.496,191.000 116.501 C 190.120 116.505,189.807 116.587,190.305 116.683 M207.700 116.687 C 208.305 116.778,209.295 116.778,209.900 116.687 C 210.505 116.595,210.010 116.520,208.800 116.520 C 207.590 116.520,207.095 116.595,207.700 116.687 M214.005 117.218 C 219.092 117.772,224.264 119.234,232.414 122.422 C 232.971 122.640,235.041 123.645,237.014 124.656 C 238.986 125.667,241.004 126.698,241.497 126.947 C 241.990 127.196,242.395 127.535,242.397 127.700 C 242.399 127.865,242.590 128.000,242.822 128.000 C 244.406 128.000,257.507 138.464,260.556 142.163 C 261.298 143.064,262.464 144.381,263.148 145.092 C 264.810 146.819,268.977 152.464,270.282 154.757 C 270.859 155.771,271.796 157.230,272.365 157.999 C 273.626 159.704,275.200 162.741,275.200 163.468 C 275.200 163.761,275.380 164.000,275.600 164.000 C 275.820 164.000,276.000 164.360,276.000 164.800 C 276.000 165.240,276.180 165.600,276.400 165.600 C 276.620 165.600,276.800 165.872,276.800 166.205 C 276.800 166.793,276.967 167.218,277.938 169.095 C 278.192 169.587,278.400 170.352,278.400 170.795 C 278.400 171.238,278.580 171.600,278.800 171.600 C 279.020 171.600,279.200 172.140,279.200 172.800 C 279.200 173.460,279.380 174.000,279.600 174.000 C 279.820 174.000,280.000 174.529,280.000 175.176 C 280.000 175.823,280.180 176.464,280.400 176.600 C 280.620 176.736,280.800 177.456,280.800 178.200 C 280.800 178.944,280.980 179.664,281.200 179.800 C 281.420 179.936,281.600 180.656,281.600 181.400 C 281.600 182.144,281.780 182.864,282.000 183.000 C 282.220 183.136,282.400 184.281,282.400 185.544 C 282.400 186.807,282.591 188.031,282.824 188.264 C 283.410 188.850,283.412 209.948,282.826 210.534 C 282.592 210.768,282.400 211.993,282.400 213.256 C 282.400 214.519,282.220 215.664,282.000 215.800 C 281.780 215.936,281.600 216.656,281.600 217.400 C 281.600 218.144,281.420 218.864,281.200 219.000 C 280.980 219.136,280.800 219.867,280.800 220.624 C 280.800 221.381,280.620 222.000,280.400 222.000 C 280.180 222.000,280.000 222.542,280.000 223.205 C 280.000 223.868,279.820 224.768,279.600 225.205 C 279.380 225.642,279.020 226.358,278.800 226.795 C 278.580 227.232,278.400 227.952,278.400 228.395 C 278.400 228.838,278.220 229.200,278.000 229.200 C 277.780 229.200,277.600 229.639,277.600 230.176 C 277.600 230.713,277.420 231.264,277.200 231.400 C 276.980 231.536,276.800 231.997,276.800 232.424 C 276.800 232.851,276.620 233.200,276.400 233.200 C 276.180 233.200,276.000 233.560,276.000 234.000 C 276.000 234.440,275.820 234.800,275.600 234.800 C 275.380 234.800,275.200 235.158,275.200 235.597 C 275.200 236.035,274.840 236.618,274.400 236.893 C 273.960 237.168,273.600 237.727,273.600 238.136 C 273.600 238.786,271.020 243.461,270.364 244.000 C 270.230 244.110,270.048 244.406,269.960 244.657 C 269.872 244.908,268.960 246.078,267.932 247.257 C 266.905 248.436,265.047 250.660,263.804 252.200 L 261.543 255.000 263.572 252.872 C 266.419 249.885,266.167 250.565,261.348 258.871 C 259.009 262.902,256.738 266.830,256.301 267.600 C 255.864 268.370,255.167 269.478,254.753 270.062 C 254.339 270.646,254.000 271.217,254.000 271.332 C 254.000 271.447,253.100 273.008,252.000 274.800 C 250.900 276.592,250.000 278.111,250.000 278.176 C 250.000 278.240,248.264 281.242,246.143 284.847 C 244.021 288.451,241.974 291.940,241.594 292.600 C 241.214 293.260,239.953 295.420,238.792 297.400 C 236.767 300.854,233.878 305.812,229.101 314.034 C 227.875 316.142,226.136 319.070,225.236 320.541 C 224.336 322.011,223.600 323.283,223.600 323.366 C 223.600 323.450,222.863 324.731,221.963 326.212 C 221.063 327.694,220.009 329.468,219.621 330.153 C 219.233 330.839,216.435 335.630,213.404 340.800 C 210.373 345.970,207.580 350.740,207.198 351.400 C 206.816 352.060,205.556 354.220,204.400 356.200 C 203.244 358.180,201.984 360.340,201.600 361.000 C 201.216 361.660,200.004 363.730,198.906 365.600 C 192.995 375.668,190.400 380.215,190.400 380.505 C 190.400 380.955,215.143 380.816,215.422 380.364 C 215.546 380.164,217.131 380.000,218.944 380.000 C 220.757 380.000,222.411 379.830,222.620 379.623 C 222.829 379.415,224.350 379.209,226.000 379.165 C 227.650 379.120,229.099 378.933,229.220 378.748 C 229.341 378.563,230.241 378.364,231.220 378.306 C 232.199 378.248,233.095 378.073,233.212 377.918 C 233.329 377.764,234.139 377.598,235.012 377.550 C 235.885 377.503,236.789 377.322,237.019 377.150 C 237.250 376.977,238.093 376.792,238.893 376.738 C 239.694 376.684,240.259 376.496,240.151 376.320 C 240.042 376.144,240.773 375.978,241.776 375.950 C 242.779 375.923,243.735 375.862,243.900 375.815 C 244.595 375.620,245.847 375.117,246.484 374.777 C 246.860 374.577,247.431 374.514,247.753 374.637 C 248.074 374.761,248.757 374.636,249.269 374.360 C 249.781 374.084,250.560 373.817,251.000 373.766 C 252.598 373.583,254.989 372.834,255.107 372.479 C 255.173 372.280,255.651 372.197,256.167 372.296 C 256.684 372.395,257.228 372.278,257.377 372.038 C 257.525 371.797,258.076 371.600,258.600 371.600 C 259.124 371.600,259.664 371.420,259.800 371.200 C 259.936 370.980,260.472 370.800,260.990 370.800 C 261.509 370.800,261.997 370.610,262.074 370.378 C 262.151 370.146,262.481 369.908,262.807 369.849 C 263.133 369.790,264.097 369.440,264.949 369.071 C 265.801 368.702,266.746 368.400,267.049 368.400 C 267.352 368.400,267.600 368.220,267.600 368.000 C 267.600 367.780,268.039 367.600,268.576 367.600 C 269.113 367.600,269.664 367.420,269.800 367.200 C 269.936 366.980,270.487 366.800,271.024 366.800 C 271.561 366.800,272.000 366.620,272.000 366.400 C 272.000 366.180,272.360 366.000,272.800 366.000 C 273.240 366.000,273.600 365.820,273.600 365.600 C 273.600 365.380,273.960 365.200,274.400 365.200 C 274.840 365.200,275.200 365.020,275.200 364.800 C 275.200 364.580,275.478 364.400,275.817 364.400 C 276.156 364.400,276.820 364.040,277.292 363.600 C 277.764 363.160,278.466 362.800,278.852 362.800 C 279.237 362.800,279.664 362.620,279.800 362.400 C 279.936 362.180,280.397 362.000,280.824 362.000 C 281.251 362.000,281.600 361.820,281.600 361.600 C 281.600 361.380,281.870 361.200,282.200 361.200 C 282.530 361.200,282.800 361.020,282.800 360.800 C 282.800 360.580,283.250 360.400,283.800 360.400 C 284.350 360.400,284.800 360.220,284.800 360.000 C 284.800 359.780,285.070 359.600,285.400 359.600 C 285.730 359.600,286.000 359.420,286.000 359.200 C 286.000 358.980,286.352 358.800,286.781 358.800 C 287.986 358.800,289.600 357.937,289.600 357.293 C 289.600 356.948,289.838 356.806,290.189 356.940 C 290.530 357.071,291.036 356.799,291.389 356.294 C 291.725 355.815,292.000 355.557,292.000 355.721 C 292.000 355.886,292.540 355.741,293.200 355.400 C 293.860 355.059,294.400 354.610,294.400 354.402 C 294.400 354.195,294.700 354.140,295.066 354.281 C 295.513 354.452,295.636 354.383,295.442 354.068 C 295.259 353.772,295.439 353.600,295.934 353.600 C 296.363 353.600,296.822 353.319,296.954 352.975 C 297.086 352.631,297.376 352.461,297.597 352.598 C 297.819 352.735,298.000 352.657,298.000 352.424 C 298.000 352.191,298.379 352.000,298.843 352.000 C 299.397 352.000,299.613 351.810,299.473 351.445 C 299.330 351.072,299.485 350.949,299.945 351.070 C 300.350 351.176,301.196 350.708,302.015 349.925 C 302.777 349.197,303.562 348.601,303.760 348.600 C 303.958 348.600,304.260 348.240,304.432 347.800 C 304.604 347.358,304.756 347.251,304.772 347.561 C 304.790 347.929,305.090 347.791,305.644 347.161 C 306.107 346.633,306.647 346.245,306.844 346.300 C 307.040 346.355,307.200 346.220,307.200 346.000 C 307.200 345.780,307.378 345.600,307.595 345.600 C 308.016 345.600,309.107 344.774,310.632 343.300 C 311.144 342.805,311.761 342.400,312.002 342.400 C 312.243 342.400,313.088 341.770,313.881 341.000 C 314.674 340.230,315.475 339.600,315.661 339.600 C 315.848 339.600,316.000 339.330,316.000 339.000 C 316.000 338.670,316.225 338.445,316.500 338.500 C 316.775 338.555,316.951 338.362,316.890 338.070 C 316.830 337.779,316.973 337.660,317.208 337.805 C 317.443 337.950,318.438 337.267,319.418 336.287 C 320.398 335.307,321.200 334.579,321.200 334.668 C 321.200 334.758,321.899 334.149,322.752 333.315 C 323.606 332.482,324.689 331.533,325.159 331.207 C 325.629 330.880,325.930 330.394,325.827 330.127 C 325.721 329.849,325.867 329.727,326.169 329.843 C 326.621 330.017,327.250 329.222,327.365 328.333 C 327.384 328.187,327.564 327.917,327.764 327.733 C 327.976 327.540,328.008 327.610,327.841 327.900 C 327.321 328.802,328.087 328.423,329.053 327.300 C 329.573 326.695,329.999 325.964,330.000 325.676 C 330.000 325.388,330.154 325.248,330.342 325.364 C 330.782 325.636,332.495 323.829,332.137 323.470 C 331.988 323.322,332.090 323.200,332.362 323.200 C 332.981 323.200,334.000 322.208,334.000 321.605 C 334.000 321.356,334.135 321.230,334.300 321.324 C 334.465 321.418,335.011 321.068,335.514 320.547 C 336.017 320.026,336.326 319.600,336.201 319.600 C 336.076 319.600,336.604 318.970,337.374 318.199 C 338.316 317.258,338.690 316.580,338.518 316.130 C 338.323 315.623,338.424 315.523,338.931 315.718 C 339.546 315.954,339.796 315.583,339.637 314.670 C 339.606 314.489,339.733 314.435,339.919 314.550 C 340.274 314.770,341.600 313.433,341.600 312.855 C 341.600 312.670,342.107 311.988,342.727 311.340 C 343.346 310.691,343.781 309.944,343.693 309.680 C 343.589 309.367,343.778 309.294,344.236 309.469 C 344.784 309.680,344.881 309.587,344.674 309.049 C 344.527 308.665,344.573 308.460,344.778 308.586 C 344.981 308.712,345.467 308.271,345.859 307.607 C 346.252 306.943,346.714 306.400,346.886 306.400 C 347.059 306.400,347.200 306.130,347.200 305.800 C 347.200 305.470,347.391 305.200,347.624 305.200 C 347.857 305.200,347.936 305.020,347.800 304.800 C 347.664 304.580,347.749 304.400,347.989 304.400 C 348.229 304.400,348.545 304.085,348.692 303.700 C 348.839 303.315,349.284 302.651,349.680 302.225 C 350.076 301.798,350.400 301.112,350.400 300.701 C 350.400 300.232,350.574 300.061,350.868 300.242 C 351.183 300.436,351.252 300.313,351.081 299.866 C 350.914 299.431,351.029 299.200,351.413 299.200 C 351.736 299.200,352.000 298.930,352.000 298.600 C 352.000 298.270,352.210 298.000,352.467 298.000 C 352.723 298.000,352.832 297.899,352.709 297.775 C 352.585 297.652,352.915 297.085,353.442 296.517 C 353.969 295.948,354.400 295.239,354.400 294.942 C 354.400 294.644,354.546 294.400,354.725 294.400 C 355.132 294.400,356.247 291.590,356.067 291.020 C 355.993 290.789,356.067 290.734,356.231 290.897 C 356.656 291.323,357.704 289.691,357.361 289.137 C 357.185 288.852,357.252 288.785,357.538 288.962 C 357.954 289.219,358.209 288.457,358.037 287.470 C 358.006 287.289,358.165 287.255,358.390 287.394 C 358.616 287.533,358.800 287.367,358.800 287.024 C 358.800 286.681,358.980 286.400,359.200 286.400 C 359.420 286.400,359.600 285.939,359.600 285.376 C 359.600 284.796,359.773 284.460,360.000 284.600 C 360.220 284.736,360.400 284.567,360.400 284.224 C 360.400 283.881,360.580 283.600,360.800 283.600 C 361.020 283.600,361.200 283.409,361.200 283.176 C 361.200 282.943,360.975 282.862,360.700 282.995 C 360.425 283.128,360.605 282.937,361.100 282.570 C 361.595 282.203,362.001 281.609,362.001 281.251 C 362.002 280.893,362.362 280.011,362.801 279.290 C 363.241 278.570,363.600 277.614,363.600 277.167 C 363.600 276.719,363.780 276.464,364.000 276.600 C 364.228 276.741,364.400 276.396,364.400 275.800 C 364.400 275.102,364.556 274.849,364.868 275.042 C 365.185 275.238,365.252 275.111,365.075 274.650 C 364.913 274.229,365.039 273.883,365.407 273.742 C 365.733 273.617,366.000 273.184,366.000 272.781 C 366.000 272.377,366.180 271.936,366.400 271.800 C 366.620 271.664,366.800 271.203,366.800 270.776 C 366.800 270.349,366.999 270.000,367.243 270.000 C 367.486 270.000,367.579 269.723,367.450 269.385 C 367.315 269.035,367.469 268.672,367.807 268.542 C 368.133 268.417,368.400 267.894,368.400 267.381 C 368.400 266.867,368.560 266.349,368.755 266.228 C 368.950 266.107,369.221 265.422,369.357 264.704 C 369.493 263.987,369.851 262.927,370.153 262.350 C 370.454 261.772,370.649 260.826,370.585 260.248 C 370.522 259.669,370.634 259.298,370.835 259.422 C 371.036 259.546,371.214 259.502,371.231 259.324 C 371.332 258.247,371.594 257.449,371.914 257.240 C 372.239 257.027,372.631 255.797,372.944 254.000 C 373.002 253.670,373.263 253.007,373.525 252.526 C 373.786 252.046,374.000 251.201,374.000 250.650 C 374.000 250.098,374.170 249.542,374.378 249.413 C 374.586 249.285,374.696 248.556,374.622 247.793 C 374.548 247.031,374.648 246.506,374.844 246.627 C 375.040 246.748,375.200 246.207,375.200 245.424 C 375.200 244.641,375.351 244.000,375.535 244.000 C 375.720 244.000,375.895 243.349,375.925 242.554 C 375.955 241.758,376.126 240.903,376.305 240.654 C 376.484 240.404,376.687 239.660,376.756 239.000 C 376.825 238.340,377.012 237.710,377.170 237.600 C 377.329 237.490,377.500 236.500,377.552 235.400 C 377.603 234.300,377.815 233.229,378.022 233.020 C 378.230 232.811,378.400 231.697,378.400 230.544 C 378.400 229.391,378.580 228.336,378.800 228.200 C 379.020 228.064,379.200 227.009,379.200 225.856 C 379.200 224.703,379.423 223.537,379.697 223.263 C 380.092 222.868,380.072 222.690,379.597 222.389 C 379.198 222.138,379.166 222.010,379.500 222.006 C 379.848 222.002,380.000 221.215,380.000 219.424 C 380.000 218.007,380.179 216.736,380.398 216.601 C 380.903 216.289,380.906 184.010,380.401 183.401 C 380.206 183.166,380.010 181.494,379.967 179.687 C 379.923 177.879,379.733 176.400,379.544 176.400 C 379.355 176.400,379.200 175.335,379.200 174.033 C 379.200 172.706,379.012 171.604,378.771 171.524 C 378.533 171.444,378.343 170.365,378.343 169.096 C 378.343 167.840,378.176 166.709,377.971 166.582 C 377.767 166.456,377.600 165.823,377.600 165.176 C 377.600 164.505,377.385 163.997,377.100 163.994 C 376.790 163.990,376.752 163.876,377.000 163.694 C 377.551 163.289,377.688 162.400,377.200 162.400 C 376.980 162.400,376.800 161.680,376.800 160.800 C 376.800 159.920,376.620 159.200,376.400 159.200 C 376.180 159.200,376.000 158.480,376.000 157.600 C 376.000 156.720,375.846 156.000,375.657 156.000 C 375.468 156.000,375.200 154.912,375.061 153.582 C 374.922 152.251,374.614 150.800,374.376 150.356 C 374.139 149.911,373.868 149.155,373.776 148.675 C 373.684 148.195,373.436 147.745,373.226 147.675 C 373.017 147.606,372.944 147.290,373.066 146.973 C 373.187 146.657,372.998 145.679,372.646 144.799 C 372.294 143.920,372.117 143.200,372.252 143.200 C 372.387 143.200,372.324 142.975,372.111 142.700 C 371.898 142.425,371.482 141.307,371.187 140.217 C 370.891 139.126,370.370 137.907,370.029 137.509 C 369.688 137.110,369.389 136.563,369.365 136.292 C 369.341 136.021,369.294 135.395,369.261 134.900 C 369.226 134.378,368.938 134.000,368.576 134.000 C 368.233 134.000,368.065 133.819,368.201 133.598 C 368.520 133.082,367.557 130.298,366.919 129.889 C 366.652 129.719,366.533 129.318,366.655 129.000 C 366.778 128.681,366.589 128.131,366.235 127.778 C 365.882 127.425,365.695 126.970,365.820 126.768 C 365.945 126.565,365.902 126.399,365.724 126.397 C 365.357 126.393,364.400 124.489,364.400 123.763 C 364.400 123.500,364.111 123.175,363.758 123.039 C 363.406 122.904,363.216 122.536,363.336 122.222 C 363.456 121.909,363.375 121.592,363.156 121.519 C 362.936 121.445,362.711 121.079,362.656 120.704 C 362.601 120.330,362.431 119.898,362.278 119.745 C 362.125 119.592,362.000 119.137,362.000 118.733 C 362.000 117.707,369.038 117.839,295.200 117.485 C 261.870 117.326,229.290 117.127,222.800 117.043 C 215.359 116.947,212.110 117.012,214.005 117.218 M183.200 117.600 C 181.856 118.031,183.308 118.031,185.000 117.600 C 186.078 117.326,186.098 117.294,185.200 117.287 C 184.650 117.283,183.750 117.424,183.200 117.600 M176.800 119.200 C 176.267 119.545,176.267 119.588,176.800 119.588 C 177.130 119.588,177.670 119.413,178.000 119.200 C 178.533 118.855,178.533 118.812,178.000 118.812 C 177.670 118.812,177.130 118.987,176.800 119.200 M158.600 126.800 C 157.940 127.237,157.580 127.592,157.800 127.588 C 158.201 127.582,160.376 126.023,160.000 126.012 C 159.890 126.008,159.260 126.363,158.600 126.800 M151.305 131.325 C 150.593 131.806,150.008 132.344,150.005 132.520 C 150.002 132.697,150.630 132.360,151.400 131.773 C 152.170 131.186,152.800 130.636,152.800 130.553 C 152.800 130.327,152.719 130.369,151.305 131.325 M142.744 138.512 C 140.843 140.320,138.413 142.808,137.344 144.040 C 135.880 145.727,136.058 145.595,138.065 143.505 C 139.531 141.979,142.051 139.495,143.665 137.984 C 145.279 136.474,146.510 135.235,146.400 135.231 C 146.290 135.227,144.645 136.704,142.744 138.512 M192.600 135.557 C 191.720 135.691,194.870 135.800,199.600 135.800 C 204.330 135.800,207.390 135.678,206.400 135.530 C 204.214 135.201,194.817 135.220,192.600 135.557 M187.200 136.400 C 186.408 136.654,186.367 136.720,187.000 136.720 C 187.440 136.720,188.250 136.576,188.800 136.400 C 189.592 136.146,189.633 136.080,189.000 136.080 C 188.560 136.080,187.750 136.224,187.200 136.400 M210.400 136.400 C 210.950 136.576,211.760 136.720,212.200 136.720 C 212.833 136.720,212.792 136.654,212.000 136.400 C 211.450 136.224,210.640 136.080,210.200 136.080 C 209.567 136.080,209.608 136.146,210.400 136.400 M183.800 137.200 C 183.296 137.417,183.222 137.544,183.600 137.544 C 183.930 137.544,184.560 137.389,185.000 137.200 C 185.504 136.983,185.578 136.856,185.200 136.856 C 184.870 136.856,184.240 137.011,183.800 137.200 M214.200 137.200 C 214.640 137.389,215.270 137.544,215.600 137.544 C 215.978 137.544,215.904 137.417,215.400 137.200 C 214.960 137.011,214.330 136.856,214.000 136.856 C 213.622 136.856,213.696 136.983,214.200 137.200 M217.400 138.000 C 217.840 138.189,218.470 138.344,218.800 138.344 C 219.178 138.344,219.104 138.217,218.600 138.000 C 218.160 137.811,217.530 137.656,217.200 137.656 C 216.822 137.656,216.896 137.783,217.400 138.000 M170.089 142.265 C 169.368 142.620,168.843 142.977,168.924 143.057 C 169.095 143.228,171.600 142.024,171.600 141.771 C 171.600 141.529,171.547 141.546,170.089 142.265 M227.600 141.783 C 227.600 141.963,230.002 143.200,230.350 143.200 C 230.697 143.200,229.094 142.167,228.300 141.879 C 227.915 141.739,227.600 141.696,227.600 141.783 M166.900 144.046 C 165.537 144.919,165.095 145.506,166.300 144.843 C 167.218 144.339,168.656 143.227,168.400 143.219 C 168.290 143.216,167.615 143.588,166.900 144.046 M231.400 143.807 C 231.840 144.166,232.560 144.635,233.000 144.851 L 233.800 145.244 233.000 144.593 C 232.560 144.234,231.840 143.765,231.400 143.549 L 230.600 143.156 231.400 143.807 M163.744 145.969 C 163.053 146.390,162.365 146.933,162.216 147.174 C 161.992 147.537,164.575 145.958,165.156 145.377 C 165.547 144.987,164.933 145.244,163.744 145.969 M234.010 145.326 C 234.609 145.974,237.295 147.597,236.818 147.022 C 236.510 146.651,235.705 146.066,235.029 145.723 C 234.353 145.379,233.895 145.201,234.010 145.326 M134.344 147.500 C 133.193 148.889,132.706 149.600,132.904 149.600 C 133.014 149.600,133.586 148.970,134.173 148.200 C 135.263 146.771,135.395 146.232,134.344 147.500 M237.600 147.725 C 237.600 147.824,238.261 148.409,239.068 149.025 C 239.876 149.641,240.411 149.941,240.256 149.691 C 239.940 149.179,237.600 147.447,237.600 147.725 M131.473 151.300 C 130.271 152.916,128.912 155.140,129.457 154.600 C 129.679 154.380,130.538 153.255,131.365 152.100 C 132.982 149.840,133.077 149.145,131.473 151.300 M156.975 151.300 L 155.800 152.600 157.100 151.425 C 157.815 150.779,158.400 150.194,158.400 150.125 C 158.400 149.816,158.070 150.088,156.975 151.300 M240.800 150.125 C 240.800 150.194,241.385 150.779,242.100 151.425 L 243.400 152.600 242.225 151.300 C 241.130 150.088,240.800 149.816,240.800 150.125 M153.396 154.404 C 152.766 155.062,152.382 155.600,152.543 155.600 C 152.956 155.600,154.922 153.588,154.713 153.380 C 154.619 153.286,154.026 153.746,153.396 154.404 M150.760 157.500 C 149.419 158.934,147.783 161.035,148.658 160.200 C 149.611 159.290,152.489 156.000,152.332 156.000 C 152.239 156.000,151.531 156.675,150.760 157.500 M248.374 157.800 C 250.734 160.498,251.080 160.818,250.101 159.400 C 249.646 158.740,248.677 157.660,247.948 157.000 C 246.970 156.113,247.081 156.322,248.374 157.800 M147.544 161.500 C 146.393 162.889,145.906 163.600,146.104 163.600 C 146.214 163.600,146.786 162.970,147.373 162.200 C 148.463 160.771,148.595 160.232,147.544 161.500 M251.775 162.132 C 252.391 162.939,252.976 163.600,253.075 163.600 C 253.353 163.600,251.621 161.260,251.109 160.944 C 250.859 160.789,251.159 161.324,251.775 162.132 M144.653 165.591 C 144.074 166.467,143.600 167.317,143.600 167.480 C 143.600 167.644,143.842 167.423,144.139 166.989 C 145.441 165.081,146.078 164.000,145.899 164.000 C 145.793 164.000,145.232 164.716,144.653 165.591 M254.600 166.400 C 254.941 167.060,255.311 167.600,255.421 167.600 C 255.531 167.600,255.341 167.060,255.000 166.400 C 254.659 165.740,254.289 165.200,254.179 165.200 C 254.069 165.200,254.259 165.740,254.600 166.400 M142.716 168.900 C 142.078 169.896,141.543 171.200,141.772 171.200 C 141.853 171.200,142.295 170.480,142.753 169.600 C 143.660 167.860,143.639 167.458,142.716 168.900 M258.433 173.232 C 258.415 173.360,258.842 174.530,259.383 175.832 C 259.924 177.134,260.363 177.930,260.359 177.600 C 260.351 177.001,258.496 172.793,258.433 173.232 M119.800 174.800 C 119.650 175.273,119.617 175.750,119.727 175.860 C 119.837 175.970,120.050 175.673,120.200 175.200 C 120.350 174.727,120.383 174.250,120.273 174.140 C 120.163 174.030,119.950 174.327,119.800 174.800 M118.229 181.029 C 118.081 181.615,118.038 182.172,118.132 182.266 C 118.227 182.360,118.424 181.958,118.571 181.371 C 118.719 180.785,118.762 180.228,118.668 180.134 C 118.573 180.040,118.376 180.442,118.229 181.029 M261.668 182.200 C 261.662 182.640,261.811 183.360,262.000 183.800 C 262.438 184.819,262.438 183.768,262.000 182.400 C 261.743 181.596,261.677 181.557,261.668 182.200 M137.029 183.029 C 136.881 183.615,136.838 184.172,136.932 184.266 C 137.027 184.360,137.224 183.958,137.371 183.371 C 137.519 182.785,137.562 182.228,137.468 182.134 C 137.373 182.040,137.176 182.442,137.029 183.029 M117.400 185.200 C 117.246 186.110,117.204 186.938,117.307 187.040 C 117.410 187.143,117.613 186.477,117.760 185.560 C 117.907 184.643,117.948 183.815,117.853 183.720 C 117.758 183.624,117.554 184.290,117.400 185.200 M136.229 186.229 C 136.081 186.815,136.038 187.372,136.132 187.466 C 136.227 187.560,136.424 187.158,136.571 186.571 C 136.719 185.985,136.762 185.428,136.668 185.334 C 136.573 185.240,136.376 185.642,136.229 186.229 M262.468 185.600 C 262.488 186.639,263.118 188.346,263.132 187.400 C 263.138 186.960,262.989 186.240,262.800 185.800 C 262.589 185.310,262.461 185.232,262.468 185.600 M135.433 190.833 C 135.283 191.966,135.241 192.974,135.339 193.072 C 135.437 193.171,135.645 192.328,135.800 191.200 C 135.955 190.072,135.998 189.064,135.894 188.961 C 135.791 188.858,135.584 189.700,135.433 190.833 M263.287 190.000 C 263.283 190.550,263.424 191.450,263.600 192.000 C 264.031 193.344,264.031 191.892,263.600 190.200 C 263.326 189.122,263.294 189.102,263.287 190.000 M116.534 193.600 C 116.534 195.250,116.605 195.925,116.691 195.100 C 116.778 194.275,116.778 192.925,116.691 192.100 C 116.605 191.275,116.534 191.950,116.534 193.600 M264.150 200.200 C 264.151 202.620,264.216 203.558,264.296 202.285 C 264.376 201.012,264.375 199.032,264.294 197.885 C 264.214 196.738,264.149 197.780,264.150 200.200 M134.940 200.000 C 134.940 201.870,135.009 202.635,135.093 201.700 C 135.177 200.765,135.177 199.235,135.093 198.300 C 135.009 197.365,134.940 198.130,134.940 200.000 M116.534 205.200 C 116.534 206.850,116.605 207.525,116.691 206.700 C 116.778 205.875,116.778 204.525,116.691 203.700 C 116.605 202.875,116.534 203.550,116.534 205.200 M135.295 207.600 C 135.295 208.150,135.432 209.140,135.600 209.800 C 135.872 210.870,135.905 210.892,135.905 210.000 C 135.905 209.450,135.768 208.460,135.600 207.800 C 135.328 206.730,135.295 206.708,135.295 207.600 M263.400 208.800 C 263.246 209.710,263.204 210.538,263.307 210.640 C 263.410 210.743,263.613 210.077,263.760 209.160 C 263.907 208.243,263.948 207.415,263.853 207.320 C 263.758 207.224,263.554 207.890,263.400 208.800 M117.287 212.400 C 117.283 212.950,117.424 213.850,117.600 214.400 C 118.031 215.744,118.031 214.292,117.600 212.600 C 117.326 211.522,117.294 211.502,117.287 212.400 M262.600 213.200 C 262.448 213.891,262.414 214.547,262.524 214.657 C 262.634 214.767,262.848 214.291,263.000 213.600 C 263.152 212.909,263.186 212.253,263.076 212.143 C 262.966 212.033,262.752 212.509,262.600 213.200 M136.056 212.800 C 136.056 213.130,136.211 213.760,136.400 214.200 C 136.617 214.704,136.744 214.778,136.744 214.400 C 136.744 214.070,136.589 213.440,136.400 213.000 C 136.183 212.496,136.056 212.422,136.056 212.800 M136.856 216.000 C 136.856 216.330,137.011 216.960,137.200 217.400 C 137.417 217.904,137.544 217.978,137.544 217.600 C 137.544 217.270,137.389 216.640,137.200 216.200 C 136.983 215.696,136.856 215.622,136.856 216.000 M261.800 216.800 C 261.648 217.491,261.607 218.141,261.709 218.242 C 261.811 218.344,262.009 217.853,262.150 217.150 C 262.291 216.447,262.331 215.798,262.241 215.708 C 262.150 215.617,261.952 216.109,261.800 216.800 M118.056 216.800 C 118.056 217.130,118.211 217.760,118.400 218.200 C 118.617 218.704,118.744 218.778,118.744 218.400 C 118.744 218.070,118.589 217.440,118.400 217.000 C 118.183 216.496,118.056 216.422,118.056 216.800 M260.844 220.044 C 260.598 220.751,260.466 221.400,260.552 221.485 C 260.638 221.571,260.909 221.062,261.156 220.356 C 261.402 219.649,261.534 219.000,261.448 218.915 C 261.362 218.829,261.091 219.338,260.844 220.044 M259.513 223.781 C 259.142 224.781,258.917 225.600,259.014 225.600 C 259.293 225.600,260.431 222.694,260.303 222.309 C 260.239 222.118,259.884 222.780,259.513 223.781 M119.612 223.200 C 119.612 223.530,119.787 224.070,120.000 224.400 C 120.345 224.933,120.388 224.933,120.388 224.400 C 120.388 224.070,120.213 223.530,120.000 223.200 C 119.655 222.667,119.612 222.667,119.612 223.200 M141.859 229.500 C 141.960 229.885,142.400 230.650,142.836 231.200 C 143.568 232.122,143.563 232.067,142.775 230.500 C 141.865 228.692,141.559 228.358,141.859 229.500 M123.471 233.671 C 124.884 237.228,131.052 248.000,131.674 248.000 C 131.843 248.000,130.964 246.425,129.721 244.500 C 127.491 241.048,123.600 233.646,123.600 232.854 C 123.600 232.630,123.416 232.334,123.192 232.195 C 122.967 232.056,123.093 232.721,123.471 233.671 M143.600 232.520 C 143.600 232.904,145.645 236.000,145.899 236.000 C 146.078 236.000,145.441 234.919,144.139 233.011 C 143.842 232.577,143.600 232.356,143.600 232.520 M254.600 233.600 C 254.259 234.260,254.069 234.800,254.179 234.800 C 254.289 234.800,254.659 234.260,255.000 233.600 C 255.341 232.940,255.531 232.400,255.421 232.400 C 255.311 232.400,254.941 232.940,254.600 233.600 M146.740 237.516 C 147.233 238.209,147.844 238.904,148.097 239.060 C 148.350 239.217,148.154 238.777,147.660 238.084 C 147.167 237.391,146.556 236.696,146.303 236.540 C 146.050 236.383,146.246 236.823,146.740 237.516 M252.344 237.100 C 251.193 238.489,250.706 239.200,250.904 239.200 C 251.014 239.200,251.586 238.570,252.173 237.800 C 253.263 236.371,253.395 235.832,252.344 237.100 M149.099 240.600 C 149.554 241.260,150.523 242.340,151.252 243.000 C 152.230 243.887,152.119 243.678,150.826 242.200 C 148.466 239.502,148.120 239.182,149.099 240.600 M248.230 242.300 C 246.454 244.324,246.287 244.599,247.564 243.400 C 249.085 241.971,251.059 239.600,250.727 239.600 C 250.657 239.600,249.534 240.815,248.230 242.300 M153.802 246.002 C 154.202 246.444,154.611 246.722,154.712 246.621 C 154.928 246.405,153.788 245.200,153.367 245.200 C 153.207 245.200,153.403 245.561,153.802 246.002 M156.600 248.400 C 157.459 249.280,158.252 250.000,158.362 250.000 C 158.472 250.000,157.859 249.280,157.000 248.400 C 156.141 247.520,155.348 246.800,155.238 246.800 C 155.128 246.800,155.741 247.520,156.600 248.400 M241.775 248.900 L 240.600 250.200 241.900 249.025 C 243.112 247.930,243.384 247.600,243.075 247.600 C 243.006 247.600,242.421 248.185,241.775 248.900 M133.266 250.176 C 137.150 255.930,148.128 266.084,154.200 269.536 C 155.080 270.037,155.353 270.121,154.807 269.723 C 145.776 263.143,140.333 258.302,135.833 252.848 C 132.237 248.489,131.870 248.107,133.266 250.176 M238.785 251.232 L 237.400 252.463 238.688 251.613 C 239.830 250.859,240.693 250.000,240.308 250.000 C 240.232 250.000,239.547 250.554,238.785 251.232 M162.015 252.784 C 162.777 253.435,163.560 253.975,163.755 253.984 C 163.950 253.993,163.431 253.460,162.600 252.800 C 160.651 251.251,160.208 251.239,162.015 252.784 M235.681 253.372 C 233.827 254.683,233.594 255.006,235.029 254.277 C 235.705 253.934,236.492 253.371,236.778 253.026 C 237.471 252.191,237.254 252.260,235.681 253.372 M166.200 255.406 C 167.095 256.141,170.427 257.903,169.800 257.310 C 169.580 257.102,168.500 256.441,167.400 255.841 C 166.300 255.241,165.760 255.045,166.200 255.406 M231.400 256.028 C 230.300 256.682,228.361 257.689,227.092 258.267 C 225.822 258.844,224.858 259.392,224.950 259.483 C 225.176 259.709,231.560 256.539,232.804 255.583 C 234.224 254.492,233.713 254.654,231.400 256.028 M256.600 259.747 C 253.383 262.957,252.953 263.482,255.000 261.701 C 258.274 258.852,261.939 255.166,261.385 255.278 C 261.173 255.321,259.020 257.332,256.600 259.747 M172.800 259.000 C 173.350 259.314,173.980 259.572,174.200 259.572 C 174.420 259.572,174.150 259.314,173.600 259.000 C 173.050 258.686,172.420 258.428,172.200 258.428 C 171.980 258.428,172.250 258.686,172.800 259.000 M217.200 262.018 C 216.762 262.315,216.924 262.352,217.800 262.156 C 219.271 261.827,219.590 261.598,218.567 261.606 C 218.145 261.609,217.530 261.795,217.200 262.018 M183.800 262.800 C 184.240 262.989,184.870 263.144,185.200 263.144 C 185.578 263.144,185.504 263.017,185.000 262.800 C 184.560 262.611,183.930 262.456,183.600 262.456 C 183.222 262.456,183.296 262.583,183.800 262.800 M214.000 262.800 C 213.205 263.314,214.204 263.314,215.400 262.800 L 216.200 262.456 215.400 262.434 C 214.960 262.422,214.330 262.587,214.000 262.800 M186.033 263.349 C 186.125 263.431,187.100 263.601,188.200 263.728 C 189.549 263.884,189.874 263.849,189.200 263.620 C 188.201 263.280,185.718 263.068,186.033 263.349 M210.000 263.600 C 208.656 264.031,210.108 264.031,211.800 263.600 C 212.878 263.326,212.898 263.294,212.000 263.287 C 211.450 263.283,210.550 263.424,210.000 263.600 M191.900 264.282 C 192.395 264.378,193.205 264.378,193.700 264.282 C 194.195 264.187,193.790 264.109,192.800 264.109 C 191.810 264.109,191.405 264.187,191.900 264.282 M205.500 264.282 C 205.995 264.378,206.805 264.378,207.300 264.282 C 207.795 264.187,207.390 264.109,206.400 264.109 C 205.410 264.109,205.005 264.187,205.500 264.282 M250.385 265.232 L 249.000 266.463 250.288 265.613 C 251.430 264.859,252.293 264.000,251.908 264.000 C 251.832 264.000,251.147 264.554,250.385 265.232 M197.100 264.696 C 198.475 264.774,200.725 264.774,202.100 264.696 C 203.475 264.618,202.350 264.554,199.600 264.554 C 196.850 264.554,195.725 264.618,197.100 264.696 M247.200 267.649 C 245.806 268.871,245.805 268.872,247.088 268.019 C 247.796 267.548,248.482 266.991,248.612 266.781 C 248.997 266.157,248.677 266.354,247.200 267.649 M243.700 269.826 C 242.765 270.387,242.000 270.940,242.000 271.055 C 242.000 271.271,244.699 269.738,245.380 269.136 C 246.067 268.528,245.427 268.791,243.700 269.826 M156.600 271.011 C 157.040 271.369,157.940 271.926,158.600 272.250 C 159.722 272.801,159.748 272.797,159.000 272.189 C 158.560 271.831,157.660 271.274,157.000 270.950 C 155.878 270.399,155.852 270.403,156.600 271.011 M240.200 272.000 C 239.540 272.437,239.180 272.792,239.400 272.788 C 239.801 272.782,241.976 271.223,241.600 271.212 C 241.490 271.208,240.860 271.563,240.200 272.000 M160.000 272.978 C 160.000 273.190,165.951 276.009,166.336 275.980 C 166.658 275.956,160.722 272.848,160.300 272.820 C 160.135 272.809,160.000 272.880,160.000 272.978 M231.000 276.429 C 230.120 276.852,229.850 277.086,230.400 276.949 C 231.533 276.667,233.612 275.625,233.000 275.646 C 232.780 275.653,231.880 276.006,231.000 276.429 M168.944 277.078 C 169.536 277.669,180.770 281.166,182.167 281.193 C 183.223 281.213,181.692 280.677,178.158 279.787 C 175.981 279.239,173.480 278.501,172.600 278.148 C 170.514 277.311,168.624 276.757,168.944 277.078 M226.600 278.029 C 225.720 278.452,225.438 278.686,225.974 278.549 C 227.439 278.173,229.486 277.229,228.800 277.245 C 228.470 277.253,227.480 277.606,226.600 278.029 M216.800 280.818 C 216.362 281.115,216.524 281.152,217.400 280.956 C 218.871 280.627,219.190 280.398,218.167 280.406 C 217.745 280.409,217.130 280.595,216.800 280.818 M184.600 281.623 C 186.737 282.065,188.204 282.050,186.800 281.600 C 186.250 281.424,185.170 281.283,184.400 281.286 L 183.000 281.292 184.600 281.623 M211.600 281.600 L 210.600 281.920 211.600 281.913 C 212.150 281.909,213.140 281.768,213.800 281.600 L 215.000 281.295 213.800 281.287 C 213.140 281.283,212.150 281.424,211.600 281.600 M189.600 282.401 C 191.395 282.740,196.683 282.935,196.367 282.650 C 196.275 282.568,194.310 282.401,192.000 282.281 C 189.135 282.131,188.372 282.169,189.600 282.401 M203.600 282.400 L 201.000 282.662 203.400 282.696 C 204.720 282.715,206.700 282.590,207.800 282.418 L 209.800 282.107 208.000 282.122 C 207.010 282.131,205.030 282.256,203.600 282.400 " stroke="none" fill="#acbce3" fill-rule="evenodd"></path><path id="path4" d="M55.160 114.600 C 55.834 115.905,56.388 116.628,56.385 116.200 C 56.383 115.980,56.014 115.350,55.564 114.800 C 55.021 114.136,54.885 114.069,55.160 114.600 M209.905 116.283 C 210.402 116.379,211.122 116.375,211.505 116.275 C 211.887 116.175,211.480 116.096,210.600 116.101 C 209.720 116.105,209.407 116.187,209.905 116.283 M253.276 116.699 C 256.068 116.767,260.748 116.768,263.676 116.699 C 266.604 116.631,264.320 116.575,258.600 116.574 C 252.880 116.574,250.484 116.630,253.276 116.699 M311.500 117.100 C 318.815 117.161,330.785 117.161,338.100 117.100 C 345.415 117.039,339.430 116.989,324.800 116.989 C 310.170 116.989,304.185 117.039,311.500 117.100 M66.760 135.000 C 67.434 136.305,67.988 137.028,67.985 136.600 C 67.983 136.380,67.614 135.750,67.164 135.200 C 66.621 134.536,66.485 134.469,66.760 135.000 M193.600 136.392 C 189.063 136.789,185.587 137.408,182.200 138.422 C 180.660 138.883,178.770 139.438,178.000 139.656 C 175.620 140.328,168.165 143.821,167.281 144.677 C 166.996 144.954,166.165 145.464,165.435 145.810 C 164.705 146.156,163.769 146.751,163.354 147.131 C 162.939 147.511,161.970 148.263,161.200 148.802 C 157.324 151.514,150.431 158.457,148.000 162.097 C 147.450 162.921,146.865 163.596,146.700 163.597 C 146.535 163.599,146.400 163.793,146.400 164.028 C 146.400 164.263,145.860 165.241,145.200 166.200 C 144.540 167.159,144.000 168.122,144.000 168.339 C 144.000 168.556,143.865 168.793,143.700 168.867 C 143.268 169.059,141.600 172.372,141.600 173.038 C 141.600 173.347,141.420 173.600,141.200 173.600 C 140.980 173.600,140.800 173.960,140.800 174.400 C 140.800 174.840,140.620 175.200,140.400 175.200 C 140.180 175.200,140.000 175.539,140.000 175.952 C 140.000 176.366,139.565 177.861,139.033 179.275 C 136.800 185.207,135.861 191.344,135.861 200.000 C 135.861 208.656,136.800 214.793,139.033 220.725 C 139.565 222.139,140.000 223.634,140.000 224.048 C 140.000 224.461,140.180 224.800,140.400 224.800 C 140.620 224.800,140.800 225.160,140.800 225.600 C 140.800 226.040,140.980 226.400,141.200 226.400 C 141.420 226.400,141.600 226.653,141.600 226.962 C 141.600 227.628,143.268 230.941,143.700 231.133 C 143.865 231.207,144.000 231.444,144.000 231.661 C 144.000 231.878,144.540 232.841,145.200 233.800 C 145.860 234.759,146.400 235.656,146.400 235.794 C 146.400 235.931,146.939 236.619,147.598 237.322 C 148.257 238.025,148.797 238.746,148.798 238.923 C 148.803 239.800,157.965 248.959,160.800 250.921 C 161.790 251.606,162.949 252.489,163.375 252.883 C 163.802 253.278,164.387 253.600,164.675 253.600 C 164.964 253.600,165.200 253.780,165.200 254.000 C 165.200 254.220,165.393 254.400,165.628 254.400 C 165.863 254.400,166.841 254.940,167.800 255.600 C 168.759 256.260,169.827 256.800,170.172 256.800 C 170.517 256.800,170.800 256.980,170.800 257.200 C 170.800 257.420,171.160 257.600,171.600 257.600 C 172.040 257.600,172.400 257.780,172.400 258.000 C 172.400 258.220,172.749 258.400,173.176 258.400 C 173.603 258.400,174.064 258.580,174.200 258.800 C 174.336 259.020,174.797 259.200,175.224 259.200 C 175.651 259.200,176.000 259.380,176.000 259.600 C 176.000 259.820,176.420 260.000,176.933 260.000 C 177.447 260.000,177.990 260.123,178.141 260.274 C 178.567 260.701,181.308 261.587,182.220 261.594 C 182.671 261.597,183.211 261.754,183.420 261.942 C 186.156 264.403,207.593 264.265,216.800 261.727 C 218.010 261.393,219.408 261.027,219.906 260.912 C 220.404 260.798,220.910 260.546,221.030 260.352 C 221.149 260.159,221.687 260.000,222.224 260.000 C 222.761 260.000,223.200 259.820,223.200 259.600 C 223.200 259.380,223.472 259.200,223.805 259.200 C 224.138 259.200,224.723 259.040,225.105 258.844 C 225.487 258.648,226.700 258.070,227.800 257.559 C 228.900 257.049,230.552 256.129,231.472 255.516 C 232.392 254.902,233.337 254.400,233.572 254.400 C 233.807 254.400,234.000 254.220,234.000 254.000 C 234.000 253.780,234.236 253.600,234.525 253.600 C 234.813 253.600,235.398 253.280,235.825 252.889 C 236.251 252.498,237.230 251.737,238.000 251.198 C 243.058 247.659,252.274 237.526,254.097 233.500 C 254.371 232.895,254.731 232.400,254.898 232.400 C 255.064 232.400,255.200 232.130,255.200 231.800 C 255.200 231.470,255.380 231.200,255.600 231.200 C 255.820 231.200,256.000 230.840,256.000 230.400 C 256.000 229.960,256.180 229.600,256.400 229.600 C 256.620 229.600,256.800 229.240,256.800 228.800 C 256.800 228.360,256.980 228.000,257.200 228.000 C 257.420 228.000,257.600 227.640,257.600 227.200 C 257.600 226.760,257.780 226.400,258.000 226.400 C 258.220 226.400,258.400 226.040,258.400 225.600 C 258.400 225.160,258.580 224.800,258.800 224.800 C 259.020 224.800,259.200 224.361,259.200 223.824 C 259.200 223.287,259.380 222.736,259.600 222.600 C 259.820 222.464,260.000 222.001,260.000 221.571 C 260.000 221.141,260.158 220.477,260.351 220.095 C 260.889 219.029,261.600 216.623,261.600 215.866 C 261.600 215.494,261.766 214.877,261.969 214.495 C 263.521 211.575,263.966 197.943,262.762 190.200 C 261.575 182.571,261.543 182.412,261.156 182.173 C 260.960 182.052,260.800 181.524,260.800 181.000 C 260.800 180.476,260.620 179.936,260.400 179.800 C 260.180 179.664,260.000 179.124,260.000 178.600 C 260.000 178.076,259.820 177.536,259.600 177.400 C 259.380 177.264,259.200 176.713,259.200 176.176 C 259.200 175.639,259.020 175.200,258.800 175.200 C 258.580 175.200,258.400 174.840,258.400 174.400 C 258.400 173.960,258.220 173.600,258.000 173.600 C 257.780 173.600,257.600 173.240,257.600 172.800 C 257.600 172.360,257.420 172.000,257.200 172.000 C 256.980 172.000,256.800 171.640,256.800 171.200 C 256.800 170.760,256.620 170.400,256.400 170.400 C 256.180 170.400,256.000 170.040,256.000 169.600 C 256.000 169.160,255.820 168.800,255.600 168.800 C 255.380 168.800,255.200 168.530,255.200 168.200 C 255.200 167.870,255.041 167.600,254.847 167.600 C 254.652 167.600,254.406 167.285,254.298 166.900 C 253.438 163.814,243.191 152.435,238.000 148.802 C 237.230 148.263,236.251 147.502,235.825 147.111 C 235.398 146.720,234.813 146.400,234.525 146.400 C 234.236 146.400,234.000 146.220,234.000 146.000 C 234.000 145.780,233.730 145.600,233.400 145.600 C 233.070 145.600,232.799 145.465,232.797 145.300 C 232.795 145.135,232.390 144.796,231.897 144.547 C 227.124 142.133,225.193 141.191,224.000 140.694 C 221.837 139.792,216.045 138.061,213.600 137.585 C 212.390 137.350,210.590 136.995,209.600 136.797 C 207.025 136.282,197.597 136.043,193.600 136.392 M71.560 143.400 C 72.234 144.705,72.788 145.428,72.785 145.000 C 72.783 144.780,72.414 144.150,71.964 143.600 C 71.421 142.936,71.285 142.869,71.560 143.400 M74.600 148.800 C 74.941 149.460,75.311 150.000,75.421 150.000 C 75.531 150.000,75.341 149.460,75.000 148.800 C 74.659 148.140,74.289 147.600,74.179 147.600 C 74.069 147.600,74.259 148.140,74.600 148.800 M76.200 151.600 C 76.541 152.260,76.911 152.800,77.021 152.800 C 77.131 152.800,76.941 152.260,76.600 151.600 C 76.259 150.940,75.889 150.400,75.779 150.400 C 75.669 150.400,75.859 150.940,76.200 151.600 M83.160 163.800 C 83.834 165.105,84.388 165.828,84.385 165.400 C 84.383 165.180,84.014 164.550,83.564 164.000 C 83.021 163.336,82.885 163.269,83.160 163.800 M86.360 169.400 C 87.034 170.705,87.588 171.428,87.585 171.000 C 87.583 170.780,87.214 170.150,86.764 169.600 C 86.221 168.936,86.085 168.869,86.360 169.400 M87.960 172.200 C 88.634 173.505,89.188 174.228,89.185 173.800 C 89.183 173.580,88.814 172.950,88.364 172.400 C 87.821 171.736,87.685 171.669,87.960 172.200 M93.609 182.300 C 93.614 182.465,93.985 183.050,94.433 183.600 L 95.248 184.600 94.614 183.300 C 94.011 182.065,93.589 181.645,93.609 182.300 M99.000 191.600 C 99.341 192.260,99.711 192.800,99.821 192.800 C 99.931 192.800,99.741 192.260,99.400 191.600 C 99.059 190.940,98.689 190.400,98.579 190.400 C 98.469 190.400,98.659 190.940,99.000 191.600 M100.600 194.400 C 100.941 195.060,101.311 195.600,101.421 195.600 C 101.531 195.600,101.341 195.060,101.000 194.400 C 100.659 193.740,100.289 193.200,100.179 193.200 C 100.069 193.200,100.259 193.740,100.600 194.400 M102.760 198.200 C 103.434 199.505,103.988 200.228,103.985 199.800 C 103.983 199.580,103.614 198.950,103.164 198.400 C 102.621 197.736,102.485 197.669,102.760 198.200 M104.349 201.000 C 104.565 201.440,105.034 202.160,105.393 202.600 L 106.044 203.400 105.651 202.600 C 105.435 202.160,104.966 201.440,104.607 201.000 L 103.956 200.200 104.349 201.000 M107.200 206.000 C 107.649 206.880,108.106 207.600,108.216 207.600 C 108.326 207.600,108.049 206.880,107.600 206.000 C 107.151 205.120,106.694 204.400,106.584 204.400 C 106.474 204.400,106.751 205.120,107.200 206.000 M110.600 212.000 C 110.941 212.660,111.311 213.200,111.421 213.200 C 111.531 213.200,111.341 212.660,111.000 212.000 C 110.659 211.340,110.289 210.800,110.179 210.800 C 110.069 210.800,110.259 211.340,110.600 212.000 M19.228 215.876 C 19.213 216.358,19.380 216.864,19.600 217.000 C 20.073 217.292,20.073 216.901,19.600 215.800 C 19.269 215.029,19.255 215.031,19.228 215.876 M115.400 220.400 C 115.741 221.060,116.111 221.600,116.221 221.600 C 116.331 221.600,116.141 221.060,115.800 220.400 C 115.459 219.740,115.089 219.200,114.979 219.200 C 114.869 219.200,115.059 219.740,115.400 220.400 M117.000 223.200 C 117.341 223.860,117.711 224.400,117.821 224.400 C 117.931 224.400,117.741 223.860,117.400 223.200 C 117.059 222.540,116.689 222.000,116.579 222.000 C 116.469 222.000,116.659 222.540,117.000 223.200 M120.386 229.100 C 120.842 230.035,121.286 230.800,121.371 230.800 C 121.723 230.800,121.101 229.330,120.356 228.400 C 119.581 227.433,119.582 227.456,120.386 229.100 M258.000 259.247 C 255.250 262.030,252.512 264.604,251.915 264.967 C 251.318 265.331,250.576 265.881,250.266 266.191 C 248.294 268.163,236.310 275.200,234.923 275.200 C 234.635 275.200,234.400 275.380,234.400 275.600 C 234.400 275.820,234.040 276.000,233.600 276.000 C 233.160 276.000,232.800 276.180,232.800 276.400 C 232.800 276.620,232.350 276.800,231.800 276.800 C 231.250 276.800,230.800 276.980,230.800 277.200 C 230.800 277.420,230.438 277.600,229.995 277.600 C 229.552 277.600,228.787 277.808,228.295 278.062 C 226.374 279.056,225.984 279.200,225.229 279.200 C 224.799 279.200,224.336 279.380,224.200 279.600 C 224.064 279.820,223.344 280.000,222.600 280.000 C 221.856 280.000,221.136 280.180,221.000 280.400 C 220.864 280.620,220.259 280.800,219.656 280.800 C 219.053 280.800,218.389 280.963,218.180 281.161 C 217.971 281.360,216.990 281.625,216.000 281.750 C 215.010 281.875,212.940 282.178,211.400 282.423 C 209.860 282.668,206.528 282.953,203.995 283.056 L 199.389 283.244 197.654 301.522 C 196.699 311.575,195.587 323.130,195.181 327.200 C 192.764 351.474,190.367 377.700,190.550 377.883 C 190.973 378.307,192.229 376.436,194.160 372.503 C 194.402 372.010,194.735 371.605,194.900 371.603 C 195.065 371.601,195.200 371.434,195.200 371.232 C 195.200 370.867,196.544 368.495,201.794 359.600 C 204.492 355.027,205.263 353.701,206.808 350.974 C 207.252 350.190,207.913 349.094,208.277 348.538 C 209.421 346.793,210.413 345.026,210.658 344.300 C 210.787 343.915,211.052 343.600,211.247 343.600 C 211.441 343.600,211.600 343.427,211.600 343.216 C 211.600 343.004,213.310 339.928,215.400 336.379 C 217.490 332.830,219.200 329.836,219.200 329.725 C 219.200 329.614,219.539 329.046,219.953 328.462 C 220.367 327.878,221.070 326.750,221.516 325.955 C 223.219 322.913,223.406 322.594,223.601 322.400 C 223.711 322.290,224.071 321.660,224.400 321.000 C 224.729 320.340,225.089 319.710,225.199 319.600 C 225.310 319.490,225.642 318.970,225.938 318.445 C 227.377 315.889,227.990 314.830,229.206 312.800 C 229.931 311.590,231.507 308.890,232.708 306.800 C 233.908 304.710,235.214 302.439,235.609 301.753 C 236.003 301.068,237.063 299.294,237.963 297.812 C 238.863 296.331,239.600 295.029,239.600 294.921 C 239.600 294.812,239.939 294.246,240.353 293.662 C 241.056 292.671,241.433 292.033,243.643 288.100 C 244.106 287.275,244.627 286.420,244.800 286.200 C 245.131 285.779,245.855 284.524,248.610 279.600 C 249.532 277.950,251.419 274.710,252.802 272.400 C 254.186 270.090,255.651 267.615,256.059 266.900 C 256.941 265.352,258.119 263.275,258.862 261.955 C 259.158 261.430,259.490 260.910,259.600 260.800 C 259.710 260.690,260.025 260.195,260.300 259.700 C 260.575 259.205,261.025 258.395,261.300 257.900 C 261.575 257.405,261.890 256.910,262.001 256.800 C 262.397 256.405,263.331 254.399,263.167 254.294 C 263.075 254.235,260.750 256.464,258.000 259.247 M108.000 356.101 C 108.000 356.354,110.802 358.183,111.700 358.515 C 112.786 358.918,112.525 358.521,111.300 357.907 C 110.695 357.604,109.705 357.030,109.100 356.632 C 108.495 356.234,108.000 355.995,108.000 356.101 M150.400 374.555 C 150.400 374.640,150.930 374.787,151.579 374.882 C 152.227 374.977,152.667 374.908,152.555 374.728 C 152.357 374.407,150.400 374.250,150.400 374.555 " stroke="none" fill="#347af1" fill-rule="evenodd"></path></g></svg>