<svg id="svg" version="1.1" xmlns="http://www.w3.org/2000/svg" xmlns:xlink="http://www.w3.org/1999/xlink" width="16px" height="16px" viewBox="-40, -20, 450, 450" transform="scale(0.87 0.87)"><g id="svgg"><path id="path0" d="M178.046 0.554 C 80.880 5.711,4.864 82.681,0.490 180.340 C -5.058 304.185,113.195 399.615,233.692 368.534 C 236.246 367.875,238.384 367.336,238.445 367.336 C 238.505 367.336,238.554 359.926,238.554 350.870 C 238.554 341.814,238.485 334.404,238.400 334.404 C 238.315 334.404,237.140 335.424,235.790 336.671 C 224.363 347.214,210.829 354.124,196.988 356.480 L 195.984 356.651 195.984 323.038 L 195.984 289.424 217.269 289.424 L 238.554 289.424 238.554 280.857 L 238.554 272.289 217.269 272.289 L 195.984 272.289 195.984 234.137 L 195.984 195.984 217.269 195.984 L 238.554 195.984 238.554 187.416 L 238.554 178.849 217.269 178.849 L 195.984 178.849 195.984 140.695 L 195.984 102.542 235.801 102.610 L 275.618 102.677 276.775 106.292 C 283.636 127.709,287.167 147.311,288.840 173.255 L 289.023 176.094 294.123 180.885 C 296.929 183.520,301.706 187.995,304.739 190.830 L 310.254 195.984 333.574 195.984 L 356.894 195.984 356.894 197.272 C 356.894 204.625,353.022 227.898,350.862 233.527 C 350.682 233.996,364.364 247.003,364.674 246.657 C 366.064 245.104,371.205 223.390,372.678 212.851 C 388.824 97.342,294.427 -5.622,178.046 0.554 M178.849 51.807 L 178.849 85.408 142.570 85.408 C 122.617 85.408,106.292 85.332,106.292 85.239 C 106.292 84.760,112.713 72.182,114.612 68.942 C 129.452 43.619,149.126 26.187,169.612 20.209 C 172.073 19.491,177.535 18.254,178.380 18.223 C 178.824 18.207,178.849 19.978,178.849 51.807 M198.527 18.605 C 221.238 22.152,244.736 41.639,261.212 70.590 C 263.225 74.128,268.541 84.665,268.541 85.117 C 268.541 85.325,258.203 85.408,232.262 85.408 L 195.984 85.408 195.984 51.786 L 195.984 18.164 196.720 18.301 C 197.125 18.376,197.938 18.513,198.527 18.605 M263.722 35.593 C 286.666 47.103,307.268 64.307,322.972 85.074 C 323.174 85.341,319.569 85.408,305.163 85.408 L 287.101 85.408 285.128 80.924 C 277.325 63.186,266.242 45.807,255.033 33.735 C 251.067 29.463,251.033 29.740,255.291 31.603 C 257.351 32.505,261.145 34.300,263.722 35.593 M119.756 33.400 C 107.459 46.699,97.275 62.603,89.413 80.790 L 87.416 85.408 69.528 85.408 L 51.639 85.408 53.280 83.287 C 68.185 64.020,87.681 47.736,109.142 36.630 C 112.784 34.745,122.011 30.378,122.577 30.271 C 122.625 30.262,121.356 31.670,119.756 33.400 M81.019 103.012 C 74.036 126.088,70.329 146.487,69.088 168.675 C 68.927 171.546,68.727 175.010,68.643 176.372 L 68.491 178.849 43.071 178.849 L 17.651 178.849 17.817 176.372 C 19.434 152.229,26.384 128.119,37.807 107.028 L 40.236 102.544 60.698 102.544 C 80.062 102.544,81.153 102.569,81.019 103.012 M178.849 140.696 L 178.849 178.849 132.265 178.849 L 85.682 178.849 85.815 176.506 C 86.360 166.875,86.554 164.150,87.034 159.304 C 88.894 140.542,94.285 115.403,98.990 103.548 L 99.389 102.544 139.119 102.544 L 178.849 102.544 178.849 140.696 M335.958 104.886 C 347.929 126.122,355.530 152.277,356.966 177.175 L 357.062 178.849 331.711 178.849 L 306.359 178.849 306.191 178.012 C 306.099 177.552,306.023 176.257,306.022 175.134 C 306.002 157.015,300.732 125.809,294.226 105.285 C 293.794 103.921,293.440 102.746,293.440 102.674 C 293.440 102.602,302.710 102.544,314.039 102.544 L 334.638 102.544 335.958 104.886 M270.396 196.071 C 267.643 196.839,265.799 198.416,264.549 201.071 L 263.855 202.544 263.855 286.212 L 263.855 369.880 264.552 371.364 C 266.718 375.983,271.927 377.835,276.426 375.585 C 277.111 375.243,282.394 370.172,290.765 361.823 L 304.020 348.603 313.368 369.014 C 327.426 399.710,326.311 397.622,329.436 399.086 C 333.083 400.796,333.047 400.807,352.118 392.084 C 373.152 382.463,372.182 383.018,373.682 379.742 C 375.366 376.065,375.974 377.768,362.410 348.193 L 351.605 324.632 372.657 324.498 L 393.708 324.364 395.105 323.628 C 400.114 320.987,401.528 314.358,397.911 310.469 C 397.514 310.042,371.165 285.292,339.357 255.468 C 307.550 225.645,280.582 200.351,279.427 199.258 C 276.292 196.290,273.342 195.249,270.396 196.071 M68.643 198.461 C 68.726 199.823,68.925 203.226,69.085 206.024 C 70.260 226.647,74.150 249.164,79.654 267.202 C 80.351 269.485,80.980 271.563,81.054 271.821 C 81.180 272.264,80.086 272.289,60.741 272.287 L 40.295 272.285 39.723 271.283 C 27.031 249.040,19.873 225.173,17.803 198.193 L 17.634 195.984 43.062 195.984 L 68.491 195.984 68.643 198.461 M178.849 234.137 L 178.849 272.289 139.126 272.289 L 99.404 272.289 98.577 269.946 C 94.088 257.232,89.803 238.355,87.835 222.624 C 86.855 214.786,86.517 210.720,85.815 198.327 L 85.682 195.984 132.265 195.984 L 178.849 195.984 178.849 234.137 M325.425 265.863 L 369.529 307.229 353.372 307.363 L 337.216 307.497 335.442 308.337 C 331.648 310.135,329.981 312.623,329.995 316.466 L 330.004 318.742 342.235 345.381 L 354.465 372.020 353.605 372.461 C 351.636 373.471,337.304 379.962,337.230 379.878 C 337.186 379.827,332.240 369.063,326.239 355.957 C 313.129 327.322,313.971 329.072,312.650 327.737 C 310.081 325.143,306.014 324.490,302.718 326.142 C 302.014 326.495,297.806 330.487,291.232 337.037 L 280.857 347.374 280.857 285.847 C 280.857 251.144,280.958 224.358,281.089 224.409 C 281.217 224.458,301.168 243.112,325.425 265.863 M88.613 292.169 C 96.652 311.259,107.016 327.579,120.187 341.891 L 122.435 344.334 121.124 343.814 C 96.717 334.142,71.450 314.626,53.049 291.232 L 51.627 289.424 69.542 289.424 L 87.457 289.424 88.613 292.169 M178.849 323.009 L 178.849 356.593 177.845 356.447 C 151.721 352.650,125.945 329.826,109.258 295.716 C 107.818 292.771,106.565 290.151,106.474 289.893 C 106.317 289.448,108.151 289.424,142.579 289.424 L 178.849 289.424 178.849 323.009 " stroke="none" fill="#047cfc" fill-rule="evenodd"></path><path id="path1" d="" stroke="none" fill="#087cfc" fill-rule="evenodd"></path><path id="path2" d="" stroke="none" fill="#087cfc" fill-rule="evenodd"></path><path id="path3" d="" stroke="none" fill="#087cfc" fill-rule="evenodd"></path><path id="path4" d="" stroke="none" fill="#087cfc" fill-rule="evenodd"></path></g></svg>