<?xml version="1.0" encoding="utf-8"?>
<!DOCTYPE svg PUBLIC "-//W3C//DTD SVG 1.1//EN" "http://www.w3.org/Graphics/SVG/1.1/DTD/svg11.dtd">
<svg version="1.1" xmlns="http://www.w3.org/2000/svg" xmlns:xlink="http://www.w3.org/1999/xlink" x="0px" y="0px" viewBox="0 3 1000 1000" width="16px" height="16px" enable-background="new 0 0 1000 1000" xml:space="preserve">
<g><g transform="translate(0.000000,511.000000) scale(0.100000,-0.100000)"><path d="M4619.3,5003.9c-725.7-83-1196.3-211.6-1730.2-470.6C1870.7,4040.9,1093.6,3273.7,603.2,2277.1c-154.2-316.4-365.8-895.7-336.2-925.4c7.9-7.9,156.2-11.9,330.2-9.9l312.4,5.9l75.1,207.6c87,241.3,217.5,520,344.1,731.6c148.3,247.2,96.9,229.4,446.9,160.2c166.1-31.6,427.1-77.1,579.4-100.8c150.3-21.7,278.8-45.5,282.8-47.5c4-4-15.8-108.8-43.5-233.3c-27.7-122.6-63.3-308.5-81.1-411.3c-15.8-102.8-35.6-217.5-41.5-253.1l-9.9-65.3l320.3,5.9l322.3,5.9l41.5,237.3c23.7,130.5,63.3,330.2,89,442.9l47.5,205.6l207.6-13.8c1109.3-69.2,1900.2-69.2,3009.5,0l207.6,13.8l45.5-195.8c23.7-108.8,63.3-306.5,89-442.9l45.5-247.2l320.3-5.9l320.3-5.9l-9.9,65.3c-5.9,35.6-25.7,150.3-43.5,253.1c-15.8,102.8-53.4,288.7-81.1,411.3c-25.7,124.6-45.5,227.4-41.5,231.3c3.9,4,132.5,27.7,282.7,49.4c152.3,23.7,413.3,69.2,579.4,100.8c350,69.2,298.6,87,448.9-164.1c122.6-203.7,257.1-492.4,344.1-735.6l73.2-199.7l312.4-5.9c174-2,322.3,2,330.2,9.9c29.7,29.7-181.9,609-336.2,925.4C8676.8,3724.6,7298.6,4727.1,5687,4966.3C5471.5,4998,4781.4,5021.7,4619.3,5003.9z M5297.5,4315.8c338.1-126.5,670.3-452.8,937.3-925.4c118.6-207.6,255.1-506.2,237.3-522c-49.4-49.4-1591.8-81.1-2319.4-49.4c-294.6,13.8-563.6,31.6-597.2,37.6l-63.3,13.8l136.4,276.8c342.1,690.1,721.7,1083.6,1168.6,1206.2C4941.6,4392.9,5129.4,4379.1,5297.5,4315.8z M3312.2,3886.7c-120.6-183.9-326.3-591.2-413.3-818.6c-25.7-65.2-51.4-124.6-57.3-132.5c-13.8-13.8-278.8,19.8-660.4,85l-253.1,43.5l85,89c142.4,146.3,429.1,379.7,648.6,524c187.9,124.6,749.4,417.2,767.2,401.4C3432.9,4074.5,3379.5,3987.5,3312.2,3886.7z M7031.6,3855c322.3-174,721.7-470.6,945.2-702l85-89l-253.1-43.5c-381.6-65.3-646.6-98.9-660.4-85c-5.9,7.9-41.5,89-77.1,181.9c-92.9,235.3-266.9,571.5-401.4,777.1c-61.3,94.9-112.7,178-112.7,181.9C6557.1,4090.4,6845.8,3955.9,7031.6,3855z"/><path d="M690.2,978c7.9-25.7,49.4-152.2,379.7-1166.6l189.8-589.2h255.1h255.1l37.6,104.8c19.8,55.4,89,251.1,154.2,433.1C2025-58.1,2082.3,84.2,2090.2,76.3c5.9-7.9,77.1-203.7,158.2-433l146.3-421.2h257.1h257.1l282.8,875.9c156.2,480.5,282.8,879.9,280.8,889.8c0,7.9-132.5,13.8-294.6,13.8c-265,0-296.6-4-306.5-33.6c-73.2-261-235.3-808.7-239.3-812.7c-4-4-69.2,185.9-148.3,419.2l-142.4,427.1h-253.1h-253.1l-144.4-429.1c-79.1-237.3-146.3-421.2-148.3-411.3c-3.9,11.9-57.3,189.8-116.7,395.5c-61.3,207.6-114.7,391.5-120.6,411.3c-9.9,29.7-41.5,33.6-318.4,33.6C749.6,1001.7,682.3,995.8,690.2,978z"/><path d="M3697.8,681.4c57.3-178,187.9-577.4,288.7-891.8l185.9-569.5l257.1,5.9l257.1,5.9l146.3,421.2c81.1,229.4,154.2,419.2,162.1,419.2c7.9,0,79.1-189.8,160.2-419.2L5303.4-768l257.1-5.9l257.1-5.9l166.1,510.2c90.9,280.8,221.5,682.2,288.7,891.8l122.6,379.7h-300.6h-300.5L5689,641.8c-59.3-199.7-114.7-393.5-126.6-431.1c-17.8-67.2-25.7-51.4-162.2,355.9l-142.4,425.1l-255.1,5.9l-255.1,5.9l-138.4-417.2c-75.1-227.4-142.4-415.3-148.3-415.3c-5.9,0-49.4,130.5-96.9,292.6c-47.5,160.2-102.8,346-124.6,415.3l-37.6,122.6h-302.5H3595L3697.8,681.4z"/><path d="M6517.5,987.9c-2-9.9,124.6-409.3,280.8-889.8l282.8-875.9h257.1h257.1l146.3,421.2c79.1,229.4,150.3,425.1,158.2,433c5.9,7.9,81.1-178,164.1-415.2L8214.1-768l257.1-5.9l259-5.9l71.2,223.4C8922-182.7,9289.8,950.3,9299.7,978c7.9,19.8-53.4,23.7-292.6,19.8l-304.5-5.9L8621.4,715c-45.5-152.3-102.8-344.1-126.6-425.1l-45.5-148.3L8307,566.7l-142.4,425.1h-253.1h-253.1l-140.4-409.3c-77.1-227.4-144.3-411.3-150.3-411.3c-5.9,0-63.3,185.9-128.5,411.3l-120.6,409.3l-300.6,5.9C6652,999.7,6517.5,995.8,6517.5,987.9z"/><path d="M9167.2-471.4v-286.7h286.7h286.7v286.7v286.7h-286.7h-286.7V-471.4z"/><path d="M261.2-1129.9c-23.7-39.5,195.8-624.9,353.9-943.2c265-533.9,549.7-927.4,970.9-1334.7c688.1-666.4,1506.7-1097.4,2440.1-1285.3c1951.7-391.5,3931,423.2,5042.3,2076.2c138.4,207.6,365.8,632.8,456.8,860.1c91,227.4,213.6,609,203.7,626.8c-6,7.9-154.3,15.8-330.2,15.8h-320.4l-67.2-199.7c-81.1-237.3-261-615-389.5-812.7c-49.4-79.1-94.9-146.3-96.9-150.3c-4-4-142.4,19.8-308.5,53.4c-168.1,31.7-429.1,77.1-581.4,100.9c-150.3,21.7-278.8,43.5-280.8,47.4c-4,4,15.8,112.7,43.5,241.2c81.1,371.7,126.6,702,100.8,711.8c-13.8,5.9-156.2,5.9-318.3,4l-294.6-5.9l-41.5-237.3c-23.7-130.5-63.3-330.2-89-442.9l-47.5-205.6l-207.6,13.8c-672.3,41.5-905.6,49.4-1504.8,49.4c-599.1,0-832.5-7.9-1504.8-49.4l-207.6-13.8l-47.5,205.6c-25.7,112.7-65.2,312.4-89,442.9l-41.5,237.3l-304.5,5.9c-166.1,2-310.4-2-318.4-9.9c-17.8-17.8,53.4-454.8,120.6-755.4c21.8-100.8,37.6-187.9,35.6-191.8c-3.9-2-158.2-29.7-342.1-57.3c-185.9-29.7-440.9-73.2-571.5-100.9c-128.5-25.7-241.2-47.4-249.2-47.4c-23.7,0-207.6,310.4-314.4,533.9c-55.4,114.7-134.5,300.6-176,415.2l-75.1,207.6l-318.4,5.9C415.4-1116,267.1-1120,261.2-1129.9z M5906.5-2597.1c480.5-23.7,571.4-33.6,571.4-67.2c0-43.5-251.1-531.9-354-684.2c-387.5-583.3-844.3-870-1261.6-792.9c-355.9,65.2-690.1,330.2-996.6,792.9c-102.8,152.3-353.9,640.7-353.9,684.2c0,13.8,35.6,29.7,85,37.6C3915.3-2583.2,5252-2565.4,5906.5-2597.1z M2916.8-2893.7c100.8-249.1,249.2-543.8,385.6-759.3c61.3-96.9,106.8-179.9,102.8-185.9c-19.8-17.8-514.1,235.3-711.9,363.8c-245.2,162.1-498.3,361.9-650.5,518.1l-114.7,116.7l253.1,43.5c294.6,49.4,622.9,96.9,644.6,92.9C2833.7-2705.8,2875.2-2790.8,2916.8-2893.7z M7407.3-2735.5c81.1-9.9,263-39.6,401.4-63.3l253.1-43.5l-114.7-116.7c-148.3-150.3-403.4-354-638.7-508.2c-191.8-126.6-703.9-389.5-721.7-371.7c-5.9,5.9,39.6,89,100.8,185.9c162.1,257.1,357.9,658.5,448.9,921.5c9.9,25.7,27.7,31.6,67.2,25.7C7233.3-2711.7,7326.3-2723.6,7407.3-2735.5z"/></g></g>
</svg>