<svg xmlns="http://www.w3.org/2000/svg" viewBox="0 0 48 48" width="18px" height="18px"><path fill="#01579B" d="M24 5A19 19 0 1 0 24 43A19 19 0 1 0 24 5Z"/><path fill="#0277BD" d="M34,20.8c0-0.6,0-2.9-1.5-4.7c-0.1-0.1-0.2-0.3-0.2-0.4c-0.1-0.1-0.1-0.2-0.2-0.4L31.9,15l-0.2-0.3c-0.2-0.3-0.3-0.5-0.3-0.5c-0.4-0.6-0.5-1.4-0.1-2.1c0.1-0.2,0.3-0.4,0.4-0.6c-0.1-0.1-0.2-0.2-0.3-0.2c0,0,0,0-0.1,0c-0.3-0.2-0.6-0.4-0.8-0.6l-0.7-0.5l0,0C29.3,9.9,29,9.8,29,9.7c-0.7-0.4-1.1-1.1-1-1.9c0.1-0.8,0.6-1.5,1.4-1.7c0.1,0,0.3-0.1,0.5-0.1c0,0,0,0-0.1-0.1C28,5.3,26,5,24,5C16.6,5,10.1,9.3,7,15.5c0,0.2,0,0.3,0,0.5c0,7.2,6.3,13,14,13C26.9,29,31.9,25.6,34,20.8z"/><path fill="#FFF176" d="M30,8c0,0,0.3-0.1,0.9-0.1c0.3,0,0.6,0,1,0c0.4,0,0.8,0.1,1.3,0.2c0.5,0.1,1,0.3,1.5,0.5c0.5,0.2,1.1,0.5,1.6,0.9c0.5,0.3,1,0.8,1.5,1.2c0.5,0.4,0.9,1,1.3,1.5c0.3,0.6,0.7,1.1,1,1.7c0.3,0.6,0.5,1.2,0.7,1.8c0.2,0.6,0.3,1.2,0.4,1.7c0.1,0.6,0.1,1.1,0.1,1.5c0,0.2,0,0.5,0,0.7c0,0.2,0,0.4-0.1,0.6c0,0.4-0.1,0.7-0.1,1C41.1,21.7,41,22,41,22s-0.2-0.3-0.4-0.8c-0.1-0.2-0.3-0.5-0.4-0.9c-0.1-0.3-0.3-0.7-0.5-1.1c-0.2-0.4-0.4-0.8-0.6-1.3c-0.2-0.4-0.5-0.9-0.7-1.4c-0.2-0.5-0.5-0.9-0.8-1.4c-0.3-0.5-0.6-0.9-0.9-1.3c-0.3-0.4-0.6-0.9-1-1.2c-0.4-0.4-0.7-0.8-1.1-1.1c-0.3-0.4-0.7-0.7-1.1-1c-0.4-0.3-0.7-0.6-1.1-0.8c-0.3-0.3-0.7-0.5-1-0.7c-0.3-0.2-0.6-0.4-0.8-0.5C30.3,8.2,30,8,30,8z"/><path fill="#FDD835" d="M43.1,17.6c-0.3-2.2-1.2-4.2-2.2-5.6c-0.5-0.7-1-1.2-1.3-1.5C39.2,10.2,39,10,39,10s0,0.3,0.1,0.8c0.1,0.5,0.1,1.1,0.2,1.9c0.1,0.4,0.1,0.8,0.2,1.2c-0.4-0.6-0.9-1.2-1.4-1.6c-0.5-0.5-1.1-0.8-1.4-1C36.2,11.1,36,11,36,11s0.1,0.2,0.2,0.6c0.1,0.4,0.3,0.9,0.5,1.6c0.2,0.7,0.5,1.6,0.8,2.5c-0.6-0.7-1.2-1.3-1.8-1.7c-0.7-0.4-1.3-0.7-1.8-0.8C33.3,13,33,13,33,13s0.2,0.2,0.4,0.6c0.1,0.2,0.3,0.4,0.4,0.7c0.2,0.3,0.3,0.6,0.5,0.9c0.3,0.6,0.7,1.3,1,2.1c0.2,0.4,0.3,0.8,0.5,1.2c0.1,0.4,0.4,0.8,0.5,1.3c0.2,0.4,0.3,0.8,0.5,1.3c0.1,0.4,0.3,0.8,0.4,1.3c0.1,0.4,0.3,0.8,0.4,1.2c0.1,0.4,0.2,0.8,0.4,1.1c0.3,0.7,0.5,1.3,0.7,1.7C38.9,26.8,39,27,39,27s0.1-0.2,0.3-0.7c0.1-0.2,0.2-0.5,0.2-0.8c0.1-0.3,0.2-0.7,0.2-1.1c0-0.3,0.1-0.6,0.1-0.9C39.9,23.8,40,24,40,24s0.1-0.2,0.3-0.6c0.1-0.2,0.2-0.4,0.3-0.7c0,0,0-0.1,0-0.1c0,0.2,0,0.5,0.1,0.7c0,0.4,0.1,0.7,0.1,1c0,0.3,0,0.6,0,0.9c0,0.5,0.1,0.8,0.1,0.8s0.2-0.2,0.5-0.6c0.1-0.2,0.3-0.4,0.5-0.7c0.2-0.3,0.3-0.6,0.5-1c0.2-0.4,0.3-0.8,0.4-1.3c0.1-0.5,0.2-1,0.3-1.5c0.1-0.5,0.1-1.1,0.1-1.6C43.3,18.7,43.2,18.1,43.1,17.6z"/><path fill="#FFB300" d="M44.1,19.8C44.1,19.3,44,19,44,19s-0.2,0.3-0.5,0.7c-0.3,0.5-0.6,1.1-1,1.9c-0.3,0.7-0.7,1.5-1.1,2.3c0-0.8,0-1.5-0.1-2.2c-0.1-0.6-0.2-1.1-0.3-1.6c-0.2-0.5-0.3-1-0.5-1.4c-0.3-0.9-0.7-1.5-1-2C39.2,16.2,39,16,39,16s-0.1,1.2-0.1,3c0,0.9-0.1,1.8-0.2,2.9c0,0.5-0.1,1-0.1,1.6c0,0.5-0.1,1.1-0.2,1.6c0,0.1,0,0.3,0,0.4c-0.1-0.9-0.4-1.8-0.8-2.4c-0.3-0.7-0.7-1.2-1-1.5C36.2,21.1,36,21,36,21s0,0.3,0,0.7c0,0.4,0,1-0.1,1.7c-0.1,1.3-0.3,3-0.5,4.6c-0.1,0.4-0.2,0.8-0.2,1.2c-0.1,0.4-0.2,0.8-0.2,1.2c-0.1,0.4-0.2,0.8-0.3,1.1c-0.1,0.4-0.2,0.7-0.2,1c-0.1,0.3-0.1,0.7-0.2,0.9c-0.1,0.3-0.1,0.5-0.2,0.8C34,34.7,34,35,34,35s0.2-0.1,0.6-0.4c0.4-0.3,0.9-0.6,1.4-1.2c0.2-0.3,0.5-0.6,0.8-1c0.2-0.4,0.5-0.7,0.7-1.1c0,0.3-0.1,0.6-0.1,0.9c-0.1,0.3-0.1,0.7-0.2,0.9C37,33.7,37,34,37,34c0.1-0.1,0.4,0,0.7,0.1c0,0.1-0.1,0.2-0.1,0.2c-0.1,0.3-0.2,0.6-0.3,0.9C37.1,35.7,37,36,37,36s0.3-0.1,0.7-0.4c0.2-0.2,0.5-0.3,0.8-0.6c0.3-0.2,0.6-0.5,0.9-0.9c0.3-0.3,0.6-0.7,1-1.1c0.3-0.4,0.6-0.9,0.9-1.4c0.6-1,1.1-2.1,1.5-3.2c0.4-1.1,0.8-2.3,1-3.4c0.2-1.1,0.3-2.1,0.4-3C44.2,21.1,44.2,20.4,44.1,19.8z"/><path fill="#FF9800" d="M41.4,30.4c-0.4,0.2-0.8,0.6-1.4,1c-0.8,0.6-1.7,1.4-2.6,2.3c0.1-0.3,0.3-0.6,0.4-0.9c0.3-0.9,0.4-1.7,0.5-2.4c0-0.7,0-1.3-0.1-1.7C38.1,28.2,38,28,38,28s-0.2,0.2-0.4,0.5c-0.2,0.3-0.6,0.8-1,1.3c-0.4,0.5-0.8,1.2-1.2,1.8c-0.1,0.1-0.1,0.2-0.2,0.3c0.2-0.6,0.2-1.3,0.2-1.9c0-0.8-0.2-1.6-0.4-2.2c-0.2-0.6-0.5-1.1-0.7-1.4C34.2,26.2,34,26,34,26s-0.1,0.2-0.2,0.6c-0.1,0.3-0.3,0.8-0.5,1.4c-0.2,0.5-0.3,1.1-0.5,1.8c-0.1,0.3-0.2,0.6-0.3,1c-0.1,0.3-0.2,0.6-0.3,0.8c-1.9,1.9-4.2,2.4-6.4,2.5c-1.2,0-2.3-0.2-3.3-0.5c0,0,0,0,0,0c0,0,0,0,0,0c-1.5-0.5-2.9-1.4-4.2-2.6c1.9,0.2,3.7-0.2,5.2-0.9l2.5-1.6l0,0c0.3-0.1,0.6-0.1,0.9,0c0.6-0.1,0.8-0.4,0.6-1c-0.3-0.4-0.8-0.8-1.3-1.1c-1.3-0.7-2.6-0.6-4,0.3c-1.3,0.7-2.5,0.6-3.8-0.1c-3.1-1.6-1.9-5.7,1.4-3.6c0.2-1-0.1-2.1-0.7-3.2c0,0,0,0,0,0c-2.9-5.3,0.4-9.6,1.5-10.3c-2,0.2-3.8,1.1-5.4,2.6C4.9,10.9,4,20.9,4,21l1.2-1.1c-0.4,1.1-0.7,2.2-0.8,3.4C4,27.2,5.1,31,7.7,34.8C11.7,39.9,18,43,24,43c6.8,0,11.2-2.5,14.1-5.7c0.2-0.2,0.4-0.4,0.6-0.6c0.6-0.7,1.2-1.4,1.7-2.2c0.5-0.7,0.8-1.5,1.1-2.2c0.2-0.7,0.4-1.3,0.5-1.7C42,30.3,42,30,42,30S41.8,30.1,41.4,30.4z"/><path fill="#EF6C00" d="M12,28c-0.2-7,4.3-6.4,6.6-5.6C17,22.1,16.3,23.6,17,25C16.7,25,13.6,24.7,12,28z M18.3,30.9c1.9,0.2,3.7-0.2,5.2-0.9l2.5-1.6l0,0c0.2-0.1,0.5-0.1,0.7,0l0,0c-2.9-1.7-6,1.9-12.8,0.8C15.6,30.5,18.3,30.9,18.3,30.9z M18.1,14.5c-0.2,1.5,0.1,3.3,1.1,5.2c0,0,0,0,0,0c0,0,0,0,0,0C20.6,18.9,22,18,22,18s2-2,0-2C20.1,16,18.8,15.2,18.1,14.5z M10.3,12.4C9.4,11.6,8,10,8,8c0,0-2.4,3.9-1.5,7C7.4,13.9,8.7,13,10.3,12.4z"/><path fill="#FFCC80" d="M19.2,19.7C19.2,19.7,19.2,19.7,19.2,19.7C19.2,19.7,19.2,19.7,19.2,19.7C20.6,18.9,22,18,22,18s0.2-0.2,0.4-0.4L22,17h-3.8C18.4,17.9,18.7,18.8,19.2,19.7z"/><path fill="#5D4037" d="M22,16c-0.3,0-0.6,0-0.9-0.1L21,16c0,0,0.8,1.3,1,2C22,18,24,16,22,16z"/></svg>